<svg id="visual" viewBox="0 0 960 500" width="960" height="500" xmlns="http://www.w3.org/2000/svg" xmlns:xlink="http://www.w3.org/1999/xlink" version="1.1"><path d="M0 317L53.3 306.8C106.7 296.7 213.3 276.3 320 275.2C426.7 274 533.3 292 640 287.8C746.7 283.7 853.3 257.3 906.7 244.2L960 231L960 0L906.7 0C853.3 0 746.7 0 640 0C533.3 0 426.7 0 320 0C213.3 0 106.7 0 53.3 0L0 0Z" fill="#6d8a0c"></path><path d="M0 259L53.3 246.7C106.7 234.3 213.3 209.7 320 198.7C426.7 187.7 533.3 190.3 640 196.8C746.7 203.3 853.3 213.7 906.7 218.8L960 224L960 0L906.7 0C853.3 0 746.7 0 640 0C533.3 0 426.7 0 320 0C213.3 0 106.7 0 53.3 0L0 0Z" fill="#869d27"></path><path d="M0 166L53.3 162C106.7 158 213.3 150 320 151.3C426.7 152.7 533.3 163.3 640 163.3C746.7 163.3 853.3 152.7 906.7 147.3L960 142L960 0L906.7 0C853.3 0 746.7 0 640 0C533.3 0 426.7 0 320 0C213.3 0 106.7 0 53.3 0L0 0Z" fill="#a0b03d"></path><path d="M0 106L53.3 105.8C106.7 105.7 213.3 105.3 320 104C426.7 102.7 533.3 100.3 640 103.2C746.7 106 853.3 114 906.7 118L960 122L960 0L906.7 0C853.3 0 746.7 0 640 0C533.3 0 426.7 0 320 0C213.3 0 106.7 0 53.3 0L0 0Z" fill="#bac352"></path><path d="M0 45L53.3 46.3C106.7 47.7 213.3 50.3 320 56.7C426.7 63 533.3 73 640 79.3C746.7 85.7 853.3 88.3 906.7 89.7L960 91L960 0L906.7 0C853.3 0 746.7 0 640 0C533.3 0 426.7 0 320 0C213.3 0 106.7 0 53.3 0L0 0Z" fill="#d4d768"></path></svg>