<svg id="visual" viewBox="0 0 1600 300" width="1600" height="300" xmlns="http://www.w3.org/2000/svg" xmlns:xlink="http://www.w3.org/1999/xlink" version="1.1"><path d="M0 131L29.7 140.7C59.3 150.3 118.7 169.7 178 166.3C237.3 163 296.7 137 355.8 134.3C415 131.7 474 152.3 533.2 156.3C592.3 160.3 651.7 147.7 711 145.2C770.3 142.7 829.7 150.3 889 155.2C948.3 160 1007.7 162 1066.8 163C1126 164 1185 164 1244.2 156.5C1303.3 149 1362.7 134 1422 134.8C1481.3 135.7 1540.7 152.3 1570.3 160.7L1600 169L1600 0L1570.3 0C1540.7 0 1481.3 0 1422 0C1362.7 0 1303.3 0 1244.2 0C1185 0 1126 0 1066.8 0C1007.7 0 948.3 0 889 0C829.7 0 770.3 0 711 0C651.7 0 592.3 0 533.2 0C474 0 415 0 355.8 0C296.7 0 237.3 0 178 0C118.7 0 59.3 0 29.7 0L0 0Z" fill="#D4D768" stroke-linecap="round" stroke-linejoin="miter"></path></svg>