<svg width='250px' height='250px'  version="1.1" id="Layer_1" xmlns="http://www.w3.org/2000/svg" xmlns:xlink="http://www.w3.org/1999/xlink" x="0px" y="0px"
	 viewBox="0 0 525.34 439.89" style="enable-background:new 0 0 525.34 439.89;" xml:space="preserve">
<style type="text/css">
	.st0{fill:#73724E;}
	.st1{fill:#6D8A0C;}
	.st2{fill:#75744F;}
	.st3{fill:#6E6D4A;}
	.st4{fill:#5F5E40;}
	.st5{fill:#D9C09A;}
	.st6{fill:#79492D;}
	.st7{fill:#FFFFFF;}
	.st8{fill:#C6862B;}
	.st9{fill:#BC802B;}
	.st10{fill:#D28E29;}
	.st11{fill:#2E1C12;}
	.st12{fill:#4E7D75;}
	.st13{fill:#558980;}
	.st14{fill:#613B24;}
	.st15{fill:#DCAA88;}
	.st16{fill:#DD9F75;}
	.st17{fill:#B13A25;}
	.st18{fill:#AD772A;}
	.st19{fill:#936627;}
	.st20{fill:#BE812B;}
	.st21{fill:#812B1B;}
	.st22{fill:#A03422;}
	.st23{fill:#C1832B;}
	.st24{fill:#F8E8D3;}
	.st25{fill:#3C615B;}
	.st26{fill:#B09B7D;}
	.st27{fill:#676545;}
	.st28{fill:#3D2D22;}
	.st29{fill:#523C2E;}
	.st30{fill:#872D1D;}
	.st31{fill:#9B3321;}
	.st32{fill:#943120;}
	.st33{fill:#CF8229;}
	.st34{fill:#453327;}
	.st35{fill:#AF782B;}
	.st36{fill:#963220;}
	.st37{fill:#B17029;}
	.st38{fill:#BCA786;}
	.st39{fill:#456E67;}
	.st40{fill:#696746;}
	.st41{fill:#45442F;}
	.st42{fill:#5A593D;}
	.st43{fill:#6B6A48;}
	.st44{fill:#5C3823;}
	.st45{fill:#C7B08D;}
	.st46{fill:#D1AE79;}
	.st47{fill:#C79F66;}
	.st48{fill:#A59175;}
	.st49{fill:#AA9679;}
	.st50{fill:#C87B29;}
	.st51{fill:#D28929;}
	.st52{fill:#D08429;}
	.st53{fill:#986928;}
	.st54{fill:#C1822B;}
	.st55{fill:#956728;}
	.st56{fill:#AA742A;}
	.st57{fill:#892D1D;}
	.st58{fill:#DDC29E;}
	.st59{fill:#D5B688;}
	.st60{fill:#3E3C29;}
	.st61{fill:#CD7829;}
	.st62{fill:#716F40;}
	.st63{fill:#615F38;}
	.st64{fill:#8F2E1E;}
	.st65{fill:#D37829;}
	.st66{fill:#B26027;}
	.st67{fill:#706F4C;}
	.st68{fill:#8F2F1E;}
	.st69{fill:#C8842A;}
	.st70{fill:#E2B856;}
	.st71{fill:#DBA92F;}
	.st72{fill:#646343;}
	.st73{fill:#9F9D6B;}
	.st74{fill:#737147;}
	.st75{fill:#AB9679;}
	.st76{fill:#482B1B;}
	.st77{fill:#C3802A;}
	.st78{fill:#7E2919;}
	.st79{fill:#94311F;}
	.st80{fill:#BA7F2B;}
	.st81{fill:#9B6728;}
	.st82{fill:#B67D2B;}
	.st83{fill:#C6997B;}
	.st84{fill:#616042;}
	.st85{fill:#91301F;}
	.st86{fill:#983220;}
	.st87{fill:#A9A772;}
	.st88{fill:#BC7229;}
	.st89{fill:#C37B26;}
	.st90{fill:#6D6C49;}
	.st91{fill:#CF8924;}
	.st92{fill:#686746;}
	.st93{fill:#74734E;}
	.st94{fill:#696947;}
	.st95{fill:#F0E0C6;}
	.st96{fill:#4B7C77;}
	.st97{fill:#E9DABF;}
	.st98{fill:#D1A283;}
	.st99{fill:#C99D7E;}
	.st100{fill:#885336;}
	.st101{fill:#BF8124;}
	.st102{fill:#633A22;}
	.st103{fill:#CCB58F;}
	.st104{fill:#B69D7B;}
	.st105{fill:#73724D;}
	.st106{fill:#616141;}
	.st107{fill:#9B321E;}
	.st108{fill:#72714C;}
	.st109{fill:#852915;}
	.st110{fill:#C7422C;}
	.st111{fill:#6A6A47;}
	.st112{fill:#714329;}
	.st113{fill:#5E371E;}
	.st114{fill:#646443;}
	.st115{fill:#CEA080;}
	.st116{fill:#A73622;}
	.st117{fill:#C6B18E;}
	.st118{fill:#4E8077;}
	.st119{fill:#BDA481;}
	.st120{fill:#5B5B3C;}
	.st121{fill:#A23420;}
	.st122{fill:#99311D;}
	.st123{fill:#7E2510;}
	.st124{fill:#912E1A;}
	.st125{fill:#5F1400;}
	.st126{fill:#A0341F;}
	.st127{fill:#832814;}
	.st128{fill:#942F1B;}
	.st129{fill:#DDAA24;}
	.st130{fill:#D59821;}
	.st131{fill:#CA8128;}
	.st132{fill:#4B7B72;}
	.st133{fill:#52847C;}
	.st134{fill:#98301C;}
	.st135{fill:#D29E7C;}
	.st136{fill:#D5A17F;}
	.st137{fill:#C98623;}
	.st138{fill:#D09F81;}
	.st139{fill:#C88C78;}
	.st140{fill:#D2B993;}
	.st141{fill:#666644;}
	.st142{fill:#D49979;}
	.st143{fill:#636342;}
	.st144{fill:#C89B7D;}
	.st145{fill:#A58067;}
	.st146{fill:#3F2717;}
	.st147{fill:#4A2D1C;}
	.st148{fill:#912F1F;}
	.st149{fill:#C87F29;}
	.st150{fill:#573521;}
	.st151{fill:#5E3923;}
	.st152{fill:#646244;}
	.st153{fill:#CD852A;}
	.st154{fill:#BC7C2A;}
	.st155{fill:#6C4128;}
	.st156{fill:#9E3422;}
	.st157{fill:#A83724;}
	.st158{fill:#B83926;}
	.st159{fill:#9D6B29;}
	.st160{fill:#663E26;}
	.st161{fill:#DAB57E;}
	.st162{fill:#DAAB62;}
	.st163{fill:#D9BB8F;}
	.st164{fill:#DAB06F;}
	.st165{fill:#D9BA8A;}
	.st166{fill:#59583D;}
	.st167{fill:#E6992E;}
	.st168{fill:#C5822A;}
	.st169{fill:#C1732E;}
	.st170{fill:#4B4932;}
	.st171{fill:#CB7D29;}
	.st172{fill:#812C1B;}
	.st173{fill:#A63723;}
	.st174{fill:#D2A454;}
	.st175{fill:#606040;}
	.st176{fill:#C2A884;}
	.st177{fill:#CB977D;}
	.st178{fill:#C28C76;}
	.st179{fill:#D1B38D;}
	.st180{fill:#231F20;}
	.st181{fill:#CB8927;}
	.st182{fill:#613920;}
	.st183{fill:#9C321E;}
	.st184{fill:#9E331F;}
</style>
<g>
	<g>
		<path class="st111" d="M248.72,88.35c-4.7,3.57-8.64,8.18-12.06,12.96c-2.26,3.16-4.33,6.48-6.12,9.93
			c-0.03-0.22-0.06-0.44-0.09-0.67c0.03-0.22,0.02-0.46-0.05-0.73c-0.02-0.09-0.05-0.18-0.08-0.28c-0.73-5.58-1.65-11.14-2.71-16.67
			c0.06-5.78,1.12-11.56,3.09-17c1.96-5.42,4.9-10.7,9.48-14.32c2.02-1.6-0.55-4.66-2.57-3.06c-5.03,3.97-8.36,9.76-10.55,15.7
			c-0.78,2.1-1.42,4.26-1.95,6.45c-1.39-6.51-2.85-13-4.3-19.5c-0.56-2.51-4.5-1.84-3.94,0.67c2.67,12.01,5.47,24.02,7.62,36.14
			c-1.63-2.21-3.44-4.28-5.33-6.22c-5.14-5.29-10.99-9.91-17.18-13.91c-2.16-1.39-4.44,1.89-2.27,3.29
			c5.78,3.73,11.28,7.98,16.11,12.9c4.52,4.6,8.95,10.04,10.62,16.4c1.27,10.02,1.76,20.09,1.3,30.18
			c-3.13-4.64-7.13-8.72-11.75-11.83c-2.13-1.43-4.42,1.85-2.27,3.29c5.64,3.79,10.27,9.15,13.32,15.19
			c0.07,0.13,0.15,0.26,0.24,0.37c-0.44,5.12-1.09,10.22-1.88,15.3c-0.02,0.1-0.04,0.2-0.05,0.3c-0.38,2.45-0.8,4.89-1.24,7.32
			c-0.46,2.54,3.53,2.87,3.98,0.35c0.42-2.33,0.81-4.66,1.17-6.99c2.62-7.01,6.65-14.52,13.42-18.27c0.94-0.52,1.46-1.62,0.99-2.65
			c-0.42-0.92-1.7-1.51-2.65-0.99c-4.22,2.34-7.52,5.81-10.16,9.78c0.85-8.04,1.25-16.13,0.99-24.23c-0.09-2.87-0.28-5.74-0.51-8.59
			c0.05-0.09,0.11-0.19,0.15-0.29c2.17-5.36,5.1-10.4,8.47-15.1c3.23-4.51,6.9-8.8,11.34-12.16
			C253.34,89.86,250.77,86.8,248.72,88.35z"/>
		<g>
			<path class="st1" d="M272.75,113.14c-11.97,2.81-24.59,8.44-30.51,19.89c-1.72,3.33-2.75,6.91-3.22,10.63
				c-0.18,1.46,1.03,2.2,2.17,2.09c0.15,0.04,0.3,0.07,0.48,0.08c7.39,0.41,15.13-0.33,21.47-4.47c5.1-3.33,8.31-8.75,9.99-14.51
				c1.1-3.76,1.66-7.67,1.95-11.57C275.17,114.07,274.03,112.84,272.75,113.14z"/>
			<path class="st1" d="M216.66,129.62c-2.9-7.23-8.72-12.65-16.38-14.4c-7.07-1.61-14.56-0.46-21.23,2.21
				c-3.39,1.36-6.65,3.18-9.49,5.48c-1.01,0.82-0.9,2.45,0.15,3.18c4.83,3.35,10.35,5.79,15.98,7.43c6.27,1.82,12.9,2.71,19.42,1.93
				c3.67-0.44,7.28-1.48,10.56-3.18c0.49-0.26,0.79-0.63,0.95-1.04C216.85,130.77,216.9,130.22,216.66,129.62z"/>
			<path class="st1" d="M280.2,70.27c-8.29-0.08-16.72,2.23-23.29,7.42c-3.86,3.05-6.81,7.03-8.79,11.51
				c-0.43,0.98-0.02,1.78,0.67,2.22c0.15,0.13,0.33,0.25,0.54,0.34c13.62,5.76,29.68,2.37,42.28-4.4c3.59-1.93,7.02-4.18,10.18-6.76
				c1.08-0.88,0.82-2.37-0.15-3.18C295.77,72.52,287.75,70.35,280.2,70.27z"/>
			<path class="st1" d="M310.98,43.86c-9.51-7.7-21.39-11.63-33.62-10.64c-10.8,0.87-21.29,5.52-29.47,12.58
				c-4.22,3.65-7.89,8-10.53,12.92c-0.11,0.16-0.19,0.33-0.25,0.52c-0.01,0.03-0.02,0.05-0.03,0.08c-0.01,0.04-0.02,0.07-0.03,0.11
				c-0.24,0.83-0.07,1.71,0.72,2.26c0.22,0.15,0.49,0.25,0.78,0.3c0.06,0.01,0.12,0.04,0.18,0.05c10.41,1.56,21.14,1.25,31.57,0.03
				c10.23-1.2,20.72-3.33,30.12-7.67c4.12-1.9,8.06-4.32,11.08-7.76C312.24,45.79,311.73,44.47,310.98,43.86z"/>
			<path class="st1" d="M216.57,6.81c-1.28-2.06-2.59-4.13-4.03-6.09c-0.95-1.29-2.87-0.7-3.42,0.61
				c-2.46,5.9-4.27,12.14-5.65,18.37c-2.28,10.28-3.88,22.29,0.67,32.2c2.6,5.66,7.4,9.72,13.35,11.49
				c0.02,0.01,0.04,0.01,0.06,0.01c0.1,0.03,0.2,0.05,0.3,0.06c0.04,0,0.07,0.01,0.11,0.02c0.05,0,0.1,0,0.15,0
				c0.23,0,0.44-0.03,0.64-0.1c0.24-0.08,0.47-0.19,0.69-0.33c4.52-2.95,7.88-7.4,9.25-12.64c1.36-5.19,1.04-10.66-0.08-15.86
				C226.5,24.66,221.88,15.34,216.57,6.81z"/>
			<path class="st1" d="M201.67,81.32c0.28-0.17,0.53-0.39,0.72-0.64c0.03-0.04,0.06-0.08,0.09-0.12c0.01-0.02,0.03-0.03,0.04-0.05
				c0.47-0.65,0.56-1.52-0.15-2.29c-7.6-8.26-17.59-13.75-28.85-14.76c-10.68-0.95-21.44,1.9-31,6.54c-5.66,2.74-11,6.14-15.97,9.98
				c-0.99,0.77-0.93,2.51,0.15,3.18c17.57,10.79,39.68,11.68,59,5.44C191.29,86.79,196.65,84.35,201.67,81.32z"/>
		</g>
		<g>
			<path class="st111" d="M265.85,121.11c2.94-2.28,5.99-4.43,9.18-6.35c-0.15-0.69-0.66-1.31-1.32-1.55
				c-6.11,3.71-11.73,8.25-17.06,12.98c-5.22,4.63-10.22,9.52-14.9,14.7c-0.93,1.03-1.86,2.08-2.75,3.16
				c0.04,0.83,0.57,1.37,1.23,1.59c2.61-3.35,5.72-6.41,8.68-9.39C254.26,130.88,259.88,125.76,265.85,121.11z"/>
			<path class="st111" d="M180.26,122c-3.81,0.23-7.51,1.09-11.26,1.66c-0.26,0.64-0.16,1.39,0.25,1.95
				c3.51-0.56,6.98-1.35,10.53-1.59c4.84-0.33,9.74-0.12,14.53,0.64c7.57,1.21,14.86,3.74,21.53,7.48c0.39-0.25,0.64-0.57,0.78-0.93
				c0.12-0.25,0.19-0.52,0.19-0.82c-6.79-3.83-14.26-6.43-21.97-7.66C190.03,121.98,185.14,121.71,180.26,122z"/>
			<path class="st111" d="M287.7,77.64c-9.36,0.71-18.62,3.12-27.4,6.38c-4.2,1.56-8.32,3.37-12.28,5.47
				c-0.23,0.82,0.12,1.49,0.7,1.88c7.57-4.07,15.76-7.05,24.07-9.16c7.31-1.86,14.71-2.94,22.25-2.65c1.84,0.07,3.68,0.17,5.52,0.32
				c0.56,0.05,1.13,0.08,1.7,0.14c0.36-0.67,0.25-1.46-0.18-2.09c-1.86-0.22-3.8-0.22-5.59-0.31
				C293.56,77.49,290.64,77.42,287.7,77.64z"/>
			<path class="st111" d="M297.52,44.8c-5.61,0.42-11.24,0.79-16.82,1.53c-10.76,1.41-21.61,4-31.61,8.26
				c-2.69,1.15-5.23,2.6-7.9,3.81c-1.44,0.66-2.86,1.33-4.22,2.09c0.08,0.46,0.33,0.89,0.78,1.2c0.18,0.12,0.4,0.2,0.63,0.26
				c1.12-0.6,2.28-1.13,3.44-1.65c2.24-1.02,4.38-2.23,6.61-3.25c4.81-2.21,9.92-3.82,15.02-5.22c5.21-1.43,10.51-2.54,15.86-3.31
				c5.55-0.8,11.16-1.16,16.75-1.6c5.2-0.41,10.42-0.71,15.63-0.59c0.32-0.64,0.12-1.42-0.29-2
				C306.77,44.23,302.14,44.45,297.52,44.8z"/>
			<path class="st111" d="M219.46,63.04c0.02-0.01,0.03-0.02,0.05-0.03c-1.45-6.95-3.41-13.79-4.82-20.74
				c-2-9.87-2.44-19.91-2.84-29.94c-0.16-3.96-0.44-8.13,0.11-12.09c-0.64-0.35-1.41-0.24-2.02,0.16
				c-0.39,3.31-0.27,6.71-0.16,10.02c0.13,3.94,0.32,7.89,0.51,11.83c0.3,5.97,0.95,11.9,1.96,17.78c0.79,4.6,1.93,9.15,3.03,13.68
				c0.78,3.22,1.58,6.45,2.27,9.69c0,0,0.01,0,0.01,0c0.1,0.03,0.2,0.05,0.3,0.06c0.04,0,0.07,0.01,0.11,0.02c0.05,0,0.1,0,0.15,0
				c0.23,0,0.44-0.03,0.64-0.1C219.01,63.29,219.24,63.18,219.46,63.04z"/>
			<path class="st111" d="M202.67,78.64c-0.22-0.03-0.43-0.04-0.64-0.03c-0.17-0.04-0.34-0.08-0.49-0.11
				c-1.43-0.28-2.85-0.62-4.29-0.88c-3-0.54-5.94-1.08-8.99-1.31c-6.08-0.46-12.21-0.33-18.3-0.35c-6.28-0.03-12.57,0.03-18.82,0.75
				c-4.13,0.47-8.26,0.99-12.38,1.5c-4.18,0.52-8.47,1.02-12.56,2.15c-0.42,0.61-0.46,1.46-0.12,2.12c3.71-1.08,7.6-1.6,11.41-2.1
				c4.04-0.53,8.1-0.93,12.13-1.48c6.09-0.83,12.26-0.95,18.4-0.94c6.1,0,12.23-0.1,18.32,0.24c3.44,0.19,6.76,0.68,10.14,1.31
				c1.54,0.29,3.06,0.64,4.59,0.94c0.16,0.13,0.36,0.22,0.64,0.19c0.07-0.01,0.12,0,0.18-0.01c0.16,0.04,0.31,0.06,0.47,0.09
				c0.01-0.01,0.02-0.02,0.03-0.03c0.03-0.04,0.06-0.08,0.09-0.12c0.01-0.02,0.03-0.03,0.04-0.05
				C202.91,79.98,203.03,79.3,202.67,78.64z"/>
		</g>
	</g>
	<path class="st15" d="M65.51,286.84c-9,2-16.52,10.47-17.52,20.47c0.02-0.24-4.11-0.82-4.47-0.9c0.12,0.13,0.25,0.25,0.37,0.38
		c-1.72-4.03-3.25-8.01-5.27-11.92c-2.01-3.89-4.14-7.71-6.16-11.58c-4.02-7.68-7.66-15.71-8.86-24.37
		c-0.79-5.73-2.53-22.57,7.21-21.98c7.32,0.44,14.18,8.72,18.12,14.08c6.07,8.29,11.84,21.27,16.58,30.33l0.23,0.33
		c0.15,1.74,0.38,3.21,0.79,5.12L65.51,286.84z"/>
	<g>
		<path class="st6" d="M123.77,228.59l0.34-0.92c0-18.22,14.69-24.84,27.69-19.39c0-19.65,33.83-30.8,48.92-17.77
			c5.12-22,47.79-29,58.12-3.39c13.82-3.87,30,0.89,30,18.39l0.56,1.69c19.61-6.34,43.55-2.06,40.7,29.01
			c13.32,2.31,25.27,12.75,23.74,27.3l-0.01,0.16c-3.49-0.13-7-0.08-10.54,0.18c-46.02,3.37-93.17,12.35-138.07,12.35
			c-20.21,0-51.64-7.86-69.6,1.12c-33.68,17.96,15.72,32.56,31.43,33.68c36.2,1.06,82.49-6.96,114.94,14.24l-0.34,0.51
			c-8,0-14.9,2.58-22.92,2.98c-9.93,0.49-19.87-0.28-29.8,0.21c-13.63,0.68-27.29,2.32-40.55,5.63
			c-22.45,5.62-42.66,3.37-65.11,3.37c-24.69-1.12-44.9-13.47-66.23-25.82c-2.9-1.81-5.94-3.38-9.05-4.81
			c1-10,8.52-18.47,17.52-20.47l1.02-0.05c-0.41-1.91-0.69-3.73-0.84-5.47c-1.85-20.23,12.43-29.47,25.22-31.17l0.09,0.01
			C92.9,231.84,108.22,223.08,123.77,228.59z"/>
		<g>
			<path class="st5" d="M233.72,249.18c0.83-2.08,2.3-3.89,4.07-5.38c1.98-1.66,4.14-2.84,6.64-3.73c4.31-1.54,9.66-1.79,13.36,0.77
				c2.15,1.49,3.49,3.86,4.08,6.67c0.53,2.52,4.47,1.85,3.94-0.67c-0.68-3.28-2.16-6.26-4.71-8.48c-2.17-1.89-4.96-2.92-7.79-3.29
				c-6.04-0.79-12.45,1.37-17.25,5c-2.66,2.01-4.87,4.66-6.11,7.77C229,250.22,232.77,251.57,233.72,249.18L233.72,249.18z"/>
			<path class="st5" d="M147.81,246.84c-0.6-4.83,2.38-9.05,6.43-11.27c4.23-2.32,9.68-2.9,13.88-0.63c2.84,1.54,4.7,4.03,5.9,7.07
				c0.94,2.4,4.58,0.72,3.64-1.66c-2.52-6.41-8.34-10.78-15.31-10.82c-6.17-0.04-12.54,2.8-16.08,7.96
				c-2.03,2.96-2.84,6.48-2.4,10.03C144.19,250.07,148.13,249.38,147.81,246.84L147.81,246.84z"/>
			<path class="st5" d="M205.72,225.18c2.6-5.35,7.63-9.1,13.67-9.28c5.99-0.18,11.67,2.81,15.58,7.22c1.7,1.92,4.78-0.64,3.06-2.57
				c-7.38-8.33-20.33-11.9-29.77-4.77c-2.78,2.1-4.8,4.94-6.31,8.05c-0.47,0.97,0.27,2.22,1.21,2.56
				C204.27,226.78,205.25,226.15,205.72,225.18L205.72,225.18z"/>
			<path class="st5" d="M91.06,279.85c1.93-4.55,6.57-7.53,11.35-7.72c5.15-0.2,9.07,2.93,10.13,8.05c0.52,2.52,4.47,1.85,3.94-0.67
				c-1.07-5.16-4.48-9.53-9.72-10.87c-4.85-1.24-10.03-0.02-14.05,2.91c-2.42,1.77-4.26,4.21-5.42,6.96
				C86.29,280.87,90.06,282.22,91.06,279.85L91.06,279.85z"/>
			<path class="st5" d="M108.39,317.18c1.93-3.78,5.69-6.56,9.71-7.51c2.03-0.48,3.99-0.6,6.05-0.13c1.62,0.37,3.48,1.32,4.61,2.46
				c1.83,1.86,2.74,4.21,3.11,6.85c0.36,2.56,4.3,1.87,3.94-0.67c-0.78-5.59-4.14-10.55-9.7-12.23c-5.21-1.57-10.83-0.29-15.27,2.7
				c-2.7,1.81-4.75,4.32-6.21,7.2c-0.49,0.96,0.29,2.23,1.21,2.56C106.96,318.79,107.9,318.14,108.39,317.18L108.39,317.18z"/>
			<path class="st5" d="M292.82,254.97c3.04-4.74,7.67-8.44,13.49-8.65c5.64-0.2,10.88,2.8,14.66,6.8c1.76,1.86,4.84-0.7,3.06-2.57
				c-4.59-4.85-10.84-8.4-17.67-8.2c-7.14,0.21-13.06,4.47-16.84,10.35C288.14,254.86,291.43,257.15,292.82,254.97L292.82,254.97z"
				/>
		</g>
		<g>
			<path class="st5" d="M79.84,301.11c-4.38,0-4.38,6.8,0,6.8C84.22,307.9,84.22,301.11,79.84,301.11z"/>
			<circle class="st5" cx="105.17" cy="296.51" r="2.87"/>
			<path class="st5" d="M112.67,248.14c0.26-1.44-1.32-2.93-2.74-2.41c-0.35,0.13-0.7,0.27-1.04,0.43c0.15-0.07,0.31-0.14,0.46-0.21
				c-0.43,0.12-0.81,0.34-1.12,0.65c-0.26,0.26-0.64,0.81-0.69,1.18c-0.08,0.54-0.18,1.04,0.03,1.58c0.33,0.85,0.73,1.24,1.44,1.75
				c0.66,0.48,1.89,0.48,2.55,0c0.47-0.34,0.56-0.44,0.91-0.91C112.87,249.66,112.89,248.81,112.67,248.14z"/>
			<path class="st5" d="M127.17,258.32c-3.68,0-3.68,5.7,0,5.7C130.85,264.02,130.85,258.32,127.17,258.32z"/>
			<g>
				<path class="st5" d="M158.94,260.45c-0.04-0.03-0.07-0.06-0.1-0.08C158.58,260.17,158.6,260.18,158.94,260.45z"/>
				<path class="st5" d="M162.85,258.51c0-1.52-1.5-2.67-2.97-2.26c-0.32,0.09-0.65,0.2-0.94,0.37c-0.68,0.39-1.1,1.14-1.1,1.92
					c0,0.78,0.4,1.39,1,1.84c0.06,0.05,0.13,0.11,0.24,0.18c0.2,0.14,0.43,0.24,0.68,0.28c0.39,0.05,0.73,0.07,1.08-0.02
					C161.94,260.64,162.85,259.7,162.85,258.51z"/>
			</g>
			<path class="st5" d="M196.46,253.64c-0.4-0.69-1.19-1.3-2.03-1.46c-0.6-0.28-1.28-0.37-1.94-0.19c-0.86,0.24-1.82,1.03-1.97,1.96
				c-0.14,0.9-0.18,1.78,0.36,2.58c0.52,0.77,1.23,1.33,2.15,1.56c1.6,0.39,3.28-0.49,3.72-2.11
				C196.98,255.2,196.86,254.34,196.46,253.64z"/>
			<path class="st5" d="M181.84,213.44c-3.1,0-3.1,4.8,0,4.8S184.94,213.44,181.84,213.44z"/>
			<path class="st5" d="M222.5,188.37c-0.07-0.18-0.12-0.37-0.18-0.55c-0.75-2.46-4.22-2.46-4.97,0c-0.06,0.18-0.1,0.37-0.18,0.55
				c-0.27,0.64-0.06,1.56,0.28,2.13c0.49,0.84,1.41,1.37,2.38,1.37c0.73,0,1.44-0.29,1.95-0.81
				C222.42,190.43,222.87,189.25,222.5,188.37z"/>
			<path class="st5" d="M234.81,207.9c-0.13-0.04-0.26-0.09-0.4-0.13c-1.34-0.45-2.72,0.73-2.72,2.07c0,1.34,1.38,2.52,2.72,2.07
				c0.13-0.04,0.26-0.09,0.4-0.13C236.72,211.14,236.72,208.54,234.81,207.9z"/>
			<path class="st5" d="M268.61,199.74c-0.55-0.55-1.24-0.64-1.98-0.52l-0.45,0.07c-1.88,0.3-1.88,3.48,0,3.78l0.45,0.07
				c0.56,0.09,1.06,0.1,1.57-0.2c0.62-0.36,1.01-1.04,1.01-1.75C269.21,200.64,268.99,200.11,268.61,199.74z"/>
			<path class="st5" d="M271.2,226.65c-0.17-0.03-0.33-0.06-0.5-0.09c-1.1-0.2-2.55,0.08-3.06,1.25c-0.44,1.01-0.44,1.73,0,2.74
				c0.51,1.16,1.96,1.45,3.06,1.25c0.17-0.03,0.33-0.06,0.5-0.09C273.71,231.24,273.71,227.11,271.2,226.65z"/>
			<path class="st5" d="M217.17,238.38c-3.6,0-3.6,5.59,0,5.59C220.78,243.96,220.78,238.38,217.17,238.38z"/>
			<path class="st5" d="M251.67,260.97c-0.31-1.13-1.51-2.23-2.75-2.1c-0.41,0.04-0.83,0.07-1.23,0.18c-1.12,0.3-1.79,1.17-2.18,2.2
				c-0.31,0.82-0.07,1.7,0.28,2.44c0.27,0.57,0.78,0.93,1.27,1.29c1.03,0.75,2.63,0.39,3.48-0.45c0.33-0.34,0.57-0.75,0.71-1.19
				C251.72,262.67,251.88,261.76,251.67,260.97z"/>
			<path class="st5" d="M284.19,259.01c-0.1-0.31-0.24-0.63-0.4-0.93c-0.26-1.03-1.31-1.55-2.28-1.64
				c-0.21-0.02-0.43,0.01-0.65,0.07c-0.94,0.04-1.78,0.76-2.28,1.49c-0.21,0.3-0.31,0.67-0.43,1.02c-0.64,1.95,1.06,3.96,3.01,3.96
				C283.13,262.96,284.82,260.96,284.19,259.01z"/>
			<path class="st5" d="M304.58,219.81c-0.16-0.04-0.33-0.08-0.49-0.13c-1.84-0.47-3.7,0.9-3.7,2.82c0,1.92,1.86,3.29,3.7,2.82
				c0.16-0.04,0.33-0.08,0.49-0.13C307.25,224.51,307.25,220.5,304.58,219.81z"/>
			<path class="st5" d="M337.18,253.1c-0.07-0.28-0.14-0.57-0.21-0.85c-0.59-2.45-4.35-2.45-4.94,0c-0.07,0.28-0.14,0.57-0.21,0.85
				c-0.42,1.75,0.83,3.51,2.67,3.51C336.36,256.61,337.6,254.85,337.18,253.1z"/>
			<path class="st5" d="M157.17,322.91c-1.15,0-2.38,1.03-2.27,2.27c0.03,0.34,0.03,0.72,0.15,1.04c0.34,0.94,1.09,1.63,2.15,1.63
				c1.13,0,2.34-1.02,2.22-2.22c-0.01-0.15,0-0.3,0.02-0.44C159.55,323.94,158.33,322.91,157.17,322.91z"/>
			<path class="st5" d="M201.84,316.12c-3.07,0-3.07,4.77,0,4.77C204.91,320.89,204.91,316.12,201.84,316.12z"/>
		</g>
		<path class="st112" d="M348.88,243.78c-4.49-4.65-10.39-7.74-16.67-9.17c0.61-11.02-2.21-22.9-12.68-28.47
			c-8.78-4.67-19.37-4.08-28.73-1.44c-0.16-4.29-1.19-8.44-3.66-12.04c-2.23-3.26-5.59-5.64-9.25-7.06
			c-5.63-2.18-11.99-2.24-17.93-0.86c-4.42-9.13-13.48-14.55-23.5-15.74c-10.02-1.19-20.96,1.46-28.91,7.77
			c-3.48,2.76-6.35,6.38-7.93,10.53c-4.66-3.04-10.43-4.48-16.19-4.42c-9.9,0.09-20.59,3.7-27.49,11.04
			c-3.06,3.25-5.28,7.23-5.94,11.62c-2.73-0.84-5.6-1.24-8.56-1.07c-6.68,0.38-12.9,4.08-16.17,9.96
			c-1.98,3.56-2.93,7.54-3.12,11.58c-4.22-1.16-8.65-1.44-13.01-0.49c-8.06,1.75-14.47,7.39-17.73,14.89
			c-1.11,2.56-1.81,5.25-2.2,7.98c-6.06,1.06-11.98,3.61-16.56,7.76c-5.77,5.23-8.84,12.59-9.11,20.32
			c-0.1,2.92,0.15,5.81,0.64,8.66c-9.89,2.74-17.11,11.85-18.19,21.99c-0.27,2.56,3.71,2.91,3.98,0.35
			c0.89-8.34,6.85-16.15,15.04-18.44c0.39,1.56,0.84,3.1,1.33,4.63c0.33,1.03,1.75,1.4,2.65,0.99c1.08-0.49,1.32-1.62,0.99-2.65
			c-2.58-7.93-3.77-16.89-0.46-24.79c2.39-5.7,7.02-9.93,12.48-12.45c2.24-1.04,4.47-1.76,6.84-2.24c-0.05,1.33-0.04,2.66,0.02,3.99
			c0.05,1.08,1.34,1.8,2.31,1.63c1.17-0.2,1.69-1.23,1.64-2.31c-0.36-7.77,1.7-16.11,7.62-21.5c5.13-4.67,12.17-6.23,18.94-4.91
			c4.5,0.88,8.67,3.02,12.33,5.73c2.07,1.53,4.34-1.76,2.27-3.29c-2.42-1.79-5.07-3.31-7.87-4.47c0.12-6.26,2.12-12.49,7.37-16.18
			c4.39-3.08,10.46-3.47,15.68-1.79c3.39,1.09,6.53,2.96,9.16,5.37c0.8,0.73,1.91,1.01,2.82,0.25c0.74-0.62,1.05-2.08,0.25-2.82
			c-2.26-2.08-4.8-3.83-7.52-5.15c0.31-3.51,1.73-6.56,4.06-9.37c2.61-3.15,6.38-5.69,10.27-7.44c8.01-3.63,17.91-4.8,26.12-1.37
			c4.35,1.81,7.79,5.08,9.72,9.45c1.04,2.36,4.68,0.69,3.64-1.67c-1.16-2.63-2.78-4.86-4.71-6.71c2.45-7.85,9.65-12.92,17.44-15.44
			c8.44-2.73,18.71-2.58,26.5,1.86c4,2.28,7.09,5.5,9.17,9.51c-0.89,0.31-1.76,0.65-2.61,1.03c-4.34,1.92-8.27,4.75-11.26,8.45
			c-1.62,2,1.68,4.27,3.29,2.27c4.43-5.48,11.7-8.73,18.84-9.58c3.47-0.42,7.21-0.24,10.5,0.74c3.19,0.95,6,2.54,8.08,4.94
			c2.7,3.11,3.91,7.31,3.93,11.6c0,0.21,0.03,0.41,0.08,0.61c-4.76,1.7-9.3,4.05-13.38,7.04c-2.08,1.52,0.5,4.58,2.57,3.06
			c3.63-2.66,7.95-4.85,12.44-6.46c4.45-1.6,9.42-2.67,14.3-2.88c4.34-0.18,8.9,0.37,12.98,2.09c3.82,1.61,7.22,4.54,9.23,8.15
			c2.87,5.15,3.48,11.15,3.16,16.99c-3.58-0.39-7.24-0.21-10.75,0.6c-2.5,0.57-1.84,4.52,0.67,3.94c3.57-0.82,7.38-0.91,11.11-0.34
			c0.29,0.11,0.61,0.17,0.93,0.15c8.49,1.54,16.43,6.53,20,14.46c1.5,3.34,1.99,6.96,1.63,10.58c-0.25,2.57,3.73,2.91,3.98,0.35
			C356.56,256.32,354.02,249.1,348.88,243.78z"/>
	</g>
	<path class="st15" d="M281.99,325.24c-32.45-21.2-78.74-13.18-114.94-14.24c-15.71-1.12-65.11-15.72-31.43-33.68
		c17.96-8.98,49.39-1.12,69.6-1.12c44.9,0,92.05-8.98,138.07-12.35c3.54-0.26,7.05-0.31,10.54-0.18
		c18.31,0.71,35.89,6.46,52.99,13.1c21.86,8.5,43.24,18.38,63.82,29.64c21.15,11.58,37.62,27.27,52.27,45.88
		c2.77,3.52,3.21,8.35,1.16,12.34l-35.31,68.98c-3.72,7.27-13.62,8.48-18.97,2.3c-8.89-10.28-21.82-18.39-32.17-24.83
		c-19.25-11.97-41.52-17.3-64.02-18.14c-49.39-1.12-99.91,7.86-148.18,3.37c-11.22-1.12-29.13-8.79-40.36-12.16h-0.01
		c-20.89-2.31-42.24-5.8-62.9-5.8c-10.1,0-23.57,2.25-33.68-2.24c-7.49-3.33-12.9-9.26-19.14-14.38c-7.25-5.94-15-11.2-23.09-15.91
		c-12.77-7.44-23.08-20.33-34.05-30.17c-5.03-4.5-21.27-19.73-5.38-21.31c11.52-1.15,25.32,6.13,35.68,10.55
		c0.14,0.06,0.27,0.11,0.4,0.17c1.71,0.73,3.42,1.47,5.1,2.25c3.11,1.43,6.15,3,9.05,4.81c21.33,12.35,41.54,24.7,66.23,25.82
		c22.45,0,42.66,2.25,65.11-3.37c13.26-3.31,26.92-4.95,40.55-5.63c9.93-0.49,19.87,0.28,29.8-0.21c8.02-0.4,14.92-2.98,22.92-2.98
		L281.99,325.24z"/>
</g>
</svg>
