<?xml version="1.0" encoding="utf-8"?>
<!-- Generator: Adobe Illustrator 25.2.3, SVG Export Plug-In . SVG Version: 6.00 Build 0)  -->
<svg version="1.1" id="Layer_1" xmlns="http://www.w3.org/2000/svg" xmlns:xlink="http://www.w3.org/1999/xlink" x="0px" y="0px"
	 viewBox="0 0 504.86 370.75" style="enable-background:new 0 0 504.86 370.75;" xml:space="preserve">
<style type="text/css">
	.st0{fill:#73724E;}
	.st1{fill:#7D7B54;}
	.st2{fill:#75744F;}
	.st3{fill:#6E6D4A;}
	.st4{fill:#5F5E40;}
	.st5{fill:#D9C09A;}
	.st6{fill:#79492D;}
	.st7{fill:#FFFFFF;}
	.st8{fill:#C6862B;}
	.st9{fill:#BC802B;}
	.st10{fill:#D28E29;}
	.st11{fill:#2E1C12;}
	.st12{fill:#4E7D75;}
	.st13{fill:#558980;}
	.st14{fill:#613B24;}
	.st15{fill:#DCAA88;}
	.st16{fill:#DD9F75;}
	.st17{fill:#B13A25;}
	.st18{fill:#AD772A;}
	.st19{fill:#936627;}
	.st20{fill:#BE812B;}
	.st21{fill:#812B1B;}
	.st22{fill:#A03422;}
	.st23{fill:#C1832B;}
	.st24{fill:#F8E8D3;}
	.st25{fill:#3C615B;}
	.st26{fill:#B09B7D;}
	.st27{fill:#676545;}
	.st28{fill:#3D2D22;}
	.st29{fill:#523C2E;}
	.st30{fill:#872D1D;}
	.st31{fill:#9B3321;}
	.st32{fill:#943120;}
	.st33{fill:#CF8229;}
	.st34{fill:#453327;}
	.st35{fill:#AF782B;}
	.st36{fill:#963220;}
	.st37{fill:#B17029;}
	.st38{fill:#BCA786;}
	.st39{fill:#456E67;}
	.st40{fill:#696746;}
	.st41{fill:#45442F;}
	.st42{fill:#5A593D;}
	.st43{fill:#6B6A48;}
	.st44{fill:#5C3823;}
	.st45{fill:#C7B08D;}
	.st46{fill:#D1AE79;}
	.st47{fill:#C79F66;}
	.st48{fill:#A59175;}
	.st49{fill:#AA9679;}
	.st50{fill:#C87B29;}
	.st51{fill:#D28929;}
	.st52{fill:#D08429;}
	.st53{fill:#986928;}
	.st54{fill:#C1822B;}
	.st55{fill:#956728;}
	.st56{fill:#AA742A;}
	.st57{fill:#892D1D;}
	.st58{fill:#DDC29E;}
	.st59{fill:#D5B688;}
	.st60{fill:#3E3C29;}
	.st61{fill:#CD7829;}
	.st62{fill:#716F40;}
	.st63{fill:#615F38;}
	.st64{fill:#8F2E1E;}
	.st65{fill:#D37829;}
	.st66{fill:#B26027;}
	.st67{fill:#706F4C;}
	.st68{fill:#8F2F1E;}
	.st69{fill:#C8842A;}
	.st70{fill:#E2B856;}
	.st71{fill:#DBA92F;}
	.st72{fill:#646343;}
	.st73{fill:#9F9D6B;}
	.st74{fill:#737147;}
	.st75{fill:#AB9679;}
	.st76{fill:#482B1B;}
	.st77{fill:#C3802A;}
	.st78{fill:#7E2919;}
	.st79{fill:#94311F;}
	.st80{fill:#BA7F2B;}
	.st81{fill:#9B6728;}
	.st82{fill:#B67D2B;}
	.st83{fill:#C6997B;}
	.st84{fill:#616042;}
	.st85{fill:#91301F;}
	.st86{fill:#983220;}
	.st87{fill:#A9A772;}
	.st88{fill:#BC7229;}
	.st89{fill:#C37B26;}
	.st90{fill:#6D6C49;}
	.st91{fill:#CF8924;}
	.st92{fill:#686746;}
	.st93{fill:#74734E;}
	.st94{fill:#696947;}
	.st95{fill:#F0E0C6;}
	.st96{fill:#4B7C77;}
	.st97{fill:#E9DABF;}
	.st98{fill:#D1A283;}
	.st99{fill:#C99D7E;}
	.st100{fill:#885336;}
	.st101{fill:#BF8124;}
	.st102{fill:#633A22;}
	.st103{fill:#CCB58F;}
	.st104{fill:#B69D7B;}
	.st105{fill:#73724D;}
	.st106{fill:#616141;}
	.st107{fill:#9B321E;}
	.st108{fill:#72714C;}
	.st109{fill:#852915;}
	.st110{fill:#C7422C;}
	.st111{fill:#6A6A47;}
	.st112{fill:#714329;}
	.st113{fill:#5E371E;}
	.st114{fill:#646443;}
	.st115{fill:#CEA080;}
	.st116{fill:#A73622;}
	.st117{fill:#C6B18E;}
	.st118{fill:#4E8077;}
	.st119{fill:#BDA481;}
	.st120{fill:#5B5B3C;}
	.st121{fill:#A23420;}
	.st122{fill:#99311D;}
	.st123{fill:#7E2510;}
	.st124{fill:#912E1A;}
	.st125{fill:#5F1400;}
	.st126{fill:#A0341F;}
	.st127{fill:#832814;}
	.st128{fill:#942F1B;}
	.st129{fill:#DDAA24;}
	.st130{fill:#D59821;}
	.st131{fill:#CA8128;}
	.st132{fill:#4B7B72;}
	.st133{fill:#52847C;}
	.st134{fill:#98301C;}
	.st135{fill:#D29E7C;}
	.st136{fill:#D5A17F;}
	.st137{fill:#C98623;}
	.st138{fill:#D09F81;}
	.st139{fill:#C88C78;}
	.st140{fill:#D2B993;}
	.st141{fill:#666644;}
	.st142{fill:#D49979;}
	.st143{fill:#636342;}
	.st144{fill:#C89B7D;}
	.st145{fill:#A58067;}
	.st146{fill:#3F2717;}
	.st147{fill:#4A2D1C;}
	.st148{fill:#912F1F;}
	.st149{fill:#C87F29;}
	.st150{fill:#573521;}
	.st151{fill:#5E3923;}
	.st152{fill:#646244;}
	.st153{fill:#CD852A;}
	.st154{fill:#BC7C2A;}
	.st155{fill:#6C4128;}
	.st156{fill:#9E3422;}
	.st157{fill:#A83724;}
	.st158{fill:#B83926;}
	.st159{fill:#9D6B29;}
	.st160{fill:#663E26;}
	.st161{fill:#DAB57E;}
	.st162{fill:#DAAB62;}
	.st163{fill:#D9BB8F;}
	.st164{fill:#DAB06F;}
	.st165{fill:#D9BA8A;}
	.st166{fill:#59583D;}
	.st167{fill:#E6992E;}
	.st168{fill:#C5822A;}
	.st169{fill:#C1732E;}
	.st170{fill:#4B4932;}
	.st171{fill:#CB7D29;}
	.st172{fill:#812C1B;}
	.st173{fill:#A63723;}
	.st174{fill:#D2A454;}
	.st175{fill:#606040;}
	.st176{fill:#C2A884;}
	.st177{fill:#CB977D;}
	.st178{fill:#C28C76;}
	.st179{fill:#D1B38D;}
	.st180{fill:#231F20;}
	.st181{fill:#CB8927;}
	.st182{fill:#613920;}
	.st183{fill:#9C321E;}
	.st184{fill:#9E331F;}
</style>
<g>
	<g>
		<g>
			<g>
				<path class="st1" d="M87.49,182.79c-0.08-1.18-0.18-2.36-0.3-3.53c-0.96-9.04-3.25-17.87-5.66-26.62
					c-2.42-8.77-4.7-17.56-6.97-26.36c-2.32-9-4.59-18.01-6.33-27.14c-0.44-2.31-0.84-4.62-1.21-6.94
					c-2.96-18.8-7.98-37.2-13.93-55.25c-1.68-5.1-3.44-10.18-5.24-15.24c-0.51-1.42-2.8-0.96-2.86,0.49
					c-0.36,9.05-0.57,18.19,1.31,27.1c1.9,8.97,3.98,17.91,5.94,26.87c1.98,9.03,3.93,18.08,5.79,27.14
					c1.83,8.88,3.37,17.83,5.28,26.7c1.62,7.53,3.72,14.93,5.98,22.29c1.09,3.55,2.2,7.09,3.28,10.65c1.22,4,2.87,7.81,4.79,11.53
					c1.88,3.65,3.88,7.29,6.06,10.76c0.93,1.48,3.13,2,3.94,0.06C87.69,184.52,87.55,183.6,87.49,182.79z"/>
				<path class="st3" d="M87.97,170.78c2.19-18.66,3.64-37.41,3.79-56.2c0.16-18.55-0.94-37.13-3.65-55.49
					c-1.33-9.01-3.9-18.32-9.15-25.87c-0.82-1.18-2.42-0.3-2.64,0.83c-2.4,12.4-2.25,25.06-1.49,37.62
					c0.38,6.27,0.91,12.53,1.34,18.79c0.44,6.41,0.65,12.81,0.84,19.23c0.38,12.67,0.79,25.35,1.46,38.01
					c0.64,12,0.74,24.19,2.81,36.06c0.29,1.67,0.63,3.34,1.02,4.99c0.35,1.47,0.59,3.2,1.28,4.54c0.57,1.11,1.84,1.73,3.02,1.15
					c1.16-0.57,1.41-1.9,1.47-3.07C88.41,184.52,87.21,177.65,87.97,170.78z"/>
				<path class="st3" d="M109.28,87.57c-0.07-1.67-2.17-2.27-2.91-0.64c-10.21,22.79-15.77,47.85-17.95,72.66
					c-0.52,5.95-0.82,11.92-0.83,17.9c0,0.52,0.23,0.92,0.55,1.19c0.42,1.1,2.3,1.44,2.85,0.01c5-13.07,11.39-25.83,14-39.67
					c2.08-11.04,3.24-22.29,3.93-33.49C109.29,99.55,109.52,93.55,109.28,87.57z"/>
				<path class="st1" d="M99.26,50.7c-0.52-12.72-0.21-25.86-5.54-37.65c-0.21-0.74-0.61-1.45-0.99-2.06
					c-0.19-0.36-0.49-0.6-0.82-0.73c-0.04-0.02-0.08-0.04-0.13-0.05c-0.05-0.01-0.1-0.03-0.15-0.04c-0.1-0.02-0.2-0.03-0.31-0.03
					c-0.02,0-0.04,0-0.06,0c-0.1,0.01-0.21,0.02-0.31,0.05c-0.04,0.01-0.08,0.02-0.12,0.04c-0.06,0.02-0.11,0.05-0.17,0.08
					c-0.08,0.04-0.15,0.08-0.22,0.13c-0.02,0.02-0.05,0.05-0.07,0.07c-0.07,0.06-0.14,0.12-0.2,0.2c-0.01,0.02-0.03,0.03-0.04,0.04
					c-1.51,1.84-1.36,4.48-1.59,6.71c-0.31,3.02-0.62,6.04-0.91,9.07c-0.56,5.88-1.06,11.77-1.41,17.67
					c-0.34,5.85-0.73,11.62-1.51,17.43c-0.76,5.67-1.58,11.34-1.89,17.06c-1.29,23.93-1.05,47.91-0.47,71.86
					c0.16,6.71,0.35,13.43,0.55,20.14c0.19,6.59,0.31,13.2,1.31,19.72c0.28,1.79,2.66,1.46,2.97-0.12
					c1.82-9.23,3.52-18.48,5.1-27.75c1.51-8.84,3.17-17.67,4.6-26.52c0.7-4.32,1.26-8.68,1.39-13.06c0.13-4.44-0.31-8.87-0.2-13.32
					c0.21-9.23,1.32-18.42,1.59-27.65C99.98,71.56,99.7,61.12,99.26,50.7z"/>
			</g>
			<path class="st5" d="M133.93,232.24c-3.34-3.21-6.92-6.12-10.46-9.09c-3.57-3-6.91-6.24-10.03-9.71
				c-3.02-3.36-5.81-6.91-8.44-10.58c-2.77-3.86-5.49-7.81-7.8-11.96c-1.9-3.41-3.57-6.95-5.11-10.54c-0.95-2.22-1.67-4.92-4.2-5.81
				c-1.55-0.54-3.84-0.54-5.31,0.19c-1.8,0.88-2.45,2.61-3.12,4.35c-1.55,3.99-3.35,7.87-5.49,11.58
				c-4.71,8.15-10.32,16.03-16.64,23.01c-3.08,3.4-6.41,6.58-9.92,9.53c-3.49,2.93-7.02,5.79-10.31,8.96
				c-12.32,11.87-22.67,27.32-21.76,45.11c0.11,2.2,0.4,4.39,0.84,6.55c0.12,0.61,0.51,0.96,0.97,1.11c0.12,0.06,0.24,0.1,0.38,0.13
				c1.58,0.32,3.15,0.79,4.76,0.94c2.23,0.21,4.45-0.23,6.66-0.49c4.77-0.56,9.55-1.06,14.34-1.49c9-0.81,18.03-1.37,27.05-1.77
				c17.51-0.77,35.04-0.91,52.56-1.36c10.49-0.27,20.99-0.65,31.47-1.26c0.75-0.04,1.13-0.52,1.2-1.08
				c0.02-0.08,0.04-0.17,0.05-0.27C156.9,260.18,146.5,244.32,133.93,232.24z"/>
			<path class="st24" d="M140.37,275.06c-0.6-3.47-1.4-6.88-2.45-10.24c-2.44-7.81-6.04-15.21-10.14-22.27
				c-8.55-14.71-19.1-28.15-27.33-43.06c-3.98-7.22-7.37-14.75-9.9-22.58c-0.61-1.04-1.42-1.92-2.66-2.36
				c-1.55-0.54-3.84-0.54-5.31,0.19c-0.36,0.18-0.67,0.4-0.95,0.64c-1.43,5.95-4.15,11.69-6.81,17.11
				c-3.01,6.12-6.32,12.11-9.9,17.92c-1.24,2.02-2.59,3.92-3.98,5.85c-3.46,4.81-6.88,9.66-10.22,14.55
				c-6.53,9.56-12.57,19.31-16.32,30.33c-1.73,5.09-3.36,10.19-3.85,15.55c-0.26,2.83-0.48,5.8-0.38,8.71
				c0.49-0.06,0.99-0.11,1.49-0.16c-0.07-2.53,0.12-5.1,0.31-7.55c0.14-1.78,0.3-3.57,0.65-5.32c0.54-2.71,1.49-5.41,2.32-8.05
				c1.74-5.55,3.91-10.94,6.65-16.07c2.7-5.08,5.84-9.91,9.06-14.68c3.33-4.92,6.73-9.78,10.19-14.61c1.67-2.33,3.39-4.62,4.91-7.05
				c3.4-5.43,6.54-11.05,9.43-16.77c1.96-3.88,3.81-7.84,5.4-11.89c1-2.54,1.92-5.14,2.57-7.79c-0.63,3.18-1.39,6.34-2.22,9.47
				c-1.64,6.16-3.49,12.21-6.31,17.95c-4.62,9.41-9.67,18.59-14.44,27.92c-4.7,9.18-9.22,18.57-12.21,28.47
				c-2.4,7.93-3.57,16.36-3.4,24.69c0.5-0.04,0.99-0.08,1.49-0.12c-0.13-7.21,0.73-14.56,2.59-21.48
				c2.73-10.14,7.22-19.72,11.95-29.06c4.74-9.35,9.8-18.53,14.47-27.92c1.44-2.91,2.84-5.78,3.92-8.84
				c1.08-3.06,2.01-6.16,2.88-9.29c0.68-2.46,1.31-4.93,1.88-7.42c-0.21,1.47-0.43,2.94-0.65,4.4c-0.93,6.29-1.89,12.58-3.09,18.82
				c-1.57,8.13-4.25,16.1-6.61,24.03c-1.56,5.23-3.15,10.45-4.71,15.68c-1.48,4.95-3.06,9.91-4.14,14.97
				c-1.74,8.12-2.63,16.63-2.52,24.99c0.5-0.03,1-0.06,1.5-0.09c-0.08-7.35,0.64-14.79,1.96-21.98c0.9-4.9,2.33-9.67,3.74-14.44
				c1.55-5.24,3.14-10.46,4.71-15.69c1.58-5.28,3.15-10.57,4.66-15.88c0.93-3.3,1.94-6.6,2.62-9.96c1.22-5.96,2.12-12,3.03-18.02
				c0.51-3.42,1.03-6.85,1.5-10.28c0.35,13.33,0.07,26.67-0.42,39.99c-0.57,15.43-1.45,30.84-2.05,46.27
				c-0.25,6.4-0.44,12.8-0.51,19.2c0.5-0.01,1-0.03,1.5-0.04c0.13-13,0.77-25.98,1.39-38.96c0.75-15.76,1.51-31.52,1.7-47.3
				c0.06-5.22,0.05-10.44-0.04-15.67c0.15,0.76,0.3,1.52,0.44,2.28c1.49,7.68,3.06,15.35,4.69,23.01c1.95,9.16,3.99,18.3,6.15,27.42
				c1.07,4.53,2.18,9.05,3.32,13.56c1.04,4.08,2.28,8.12,3.09,12.25c1.46,7.47,2.19,15.22,2.38,22.9c0.5-0.01,0.99-0.02,1.49-0.03
				c-0.19-6.53-0.8-13.09-1.78-19.52c-0.64-4.17-1.7-8.19-2.76-12.26c-1.14-4.36-2.23-8.74-3.29-13.12
				c-4.15-17.16-7.88-34.44-11.29-51.76c-0.16-0.82-0.33-1.65-0.49-2.48c4.36,13.51,9.65,26.71,15.2,39.79
				c5.99,14.1,12.5,28.14,16.76,42.9c1.52,5.26,2.7,10.64,3.25,16.09c0.5-0.01,1.01-0.03,1.51-0.04c-1.13-11.67-5.1-23-9.37-33.84
				c-6.19-15.7-13.32-31-19.37-46.76c-2.24-5.82-4.33-11.7-6.25-17.63c4.91,12.85,12.01,24.72,19.66,36.22
				c9.13,13.73,19.06,27.33,24.69,42.98c1.4,3.89,2.54,7.88,3.29,11.95c0.4,2.16,0.87,4.39,1.18,6.62c0.49-0.02,0.98-0.04,1.47-0.06
				C141.01,278.53,140.66,276.77,140.37,275.06z"/>
			<g>
				<path class="st24" d="M33.96,249.59c-1.24,0-1.24,1.92,0,1.92C35.19,251.51,35.19,249.59,33.96,249.59z"/>
				<path class="st24" d="M27.63,269.64c-0.28-0.55-1.19-0.55-1.46,0c-0.11,0.21-0.18,0.43-0.15,0.67c0.05,0.48,0.36,0.89,0.89,0.89
					c0.52,0,0.83-0.41,0.89-0.89C27.81,270.07,27.73,269.86,27.63,269.64z"/>
				<path class="st24" d="M42.74,263.56c-0.02-0.54-0.41-0.89-0.93-0.93c-0.16-0.01-0.31,0.04-0.46,0.09
					c-0.75,0.29-0.78,1.18-0.13,1.54c0.17,0.15,0.39,0.21,0.61,0.22c0.48,0.02,0.92-0.42,0.91-0.91L42.74,263.56z"/>
				<path class="st24" d="M40.69,279.17c-0.16-0.02-0.34,0.04-0.51,0.06c-0.96,0.14-0.96,1.8,0,1.94c0.16,0.03,0.35,0.08,0.51,0.06
					c0.56-0.07,1.03-0.42,1.03-1.03C41.71,279.58,41.24,279.23,40.69,279.17z"/>
				<path class="st24" d="M50.84,244.4c-0.08-0.41-0.42-0.82-0.79-1.02c-0.28-0.15-0.56-0.05-0.74,0.19
					c-0.15,0.21-0.14,0.44-0.11,0.68c0-0.01,0-0.02-0.01-0.03c0,0.09,0.01,0.19,0.03,0.28c0.01,0.03,0.01,0.05,0.01,0.06
					c0,0.01,0,0.02,0,0.04c-0.01,0.45,0.38,0.81,0.81,0.81C50.61,245.44,50.94,244.92,50.84,244.4z"/>
				<path class="st24" d="M46.38,230.18c-0.23-0.02-0.45,0.01-0.66,0.13c-0.48,0.29-0.61,1-0.18,1.4c0.11,0.11,0.24,0.21,0.39,0.23
					c0.09,0.01,0.18,0.03,0.27,0.04c0.04-0.01,0.08-0.01,0.12-0.02c-0.02,0-0.01,0,0.06,0c0.49-0.03,0.89-0.38,0.89-0.89
					C47.27,230.56,46.87,230.21,46.38,230.18z"/>
				<path class="st24" d="M53.79,276.15c-0.07-0.16-0.17-0.27-0.32-0.37c-0.18-0.12-0.46-0.12-0.64,0c-0.15,0.1-0.25,0.21-0.32,0.37
					c-0.22,0.5,0.03,1.12,0.64,1.12C53.76,277.27,54.01,276.65,53.79,276.15z"/>
				<path class="st24" d="M57.34,253.56c0-0.03-0.01-0.04-0.01-0.05c-0.01-0.07-0.02-0.13-0.05-0.19c-0.19-0.49-0.65-0.69-1.12-0.49
					c-0.21,0.04-0.4,0.11-0.56,0.28c-0.12,0.13-0.25,0.25-0.38,0.37c-0.43,0.39-0.4,1.11,0,1.51c0.4,0.39,1.12,0.43,1.51,0
					c0.18-0.2,0.34-0.4,0.5-0.61C57.41,254.13,57.38,253.82,57.34,253.56z"/>
				<path class="st24" d="M76.31,257.5c-1.24,0-1.24,1.92,0,1.92C77.54,259.42,77.54,257.5,76.31,257.5z"/>
				<path class="st24" d="M77.72,237.66c-0.97,0-0.97,1.51,0,1.51C78.69,239.17,78.69,237.66,77.72,237.66z"/>
				<path class="st24" d="M63.32,235.96c-0.98,0-0.98,1.52,0,1.52C64.3,237.48,64.3,235.96,63.32,235.96z"/>
				<path class="st24" d="M89.97,223.46c-0.06-0.07-0.12-0.15-0.18-0.22c-0.38-0.47-1.16-0.39-1.55,0c-0.39,0.39-0.47,1.18,0,1.55
					c0.07,0.06,0.15,0.12,0.22,0.18c0.45,0.36,1.08,0.44,1.52,0C90.41,224.54,90.33,223.91,89.97,223.46z"/>
				<path class="st24" d="M96.07,245.23c-0.72,0-1.23,0.7-1.05,1.38c0.06,0.23,0.15,0.46,0.34,0.62c0.44,0.38,1,0.38,1.43,0
					c0.18-0.16,0.28-0.39,0.34-0.62C97.3,245.93,96.79,245.23,96.07,245.23z"/>
				<path class="st24" d="M95.48,270.35c0.12,0.13,0.07,0.1-0.15-0.1c-0.1-0.08-0.21-0.13-0.34-0.16c-0.2-0.04-0.41-0.09-0.61-0.07
					c-0.62,0.06-1.14,0.47-1.14,1.14c0,0.67,0.52,1.08,1.14,1.14c0.21,0.02,0.41-0.02,0.61-0.07c0.13-0.03,0.24-0.08,0.34-0.16
					c0.23-0.2,0.28-0.23,0.15-0.1C96.1,271.7,96.1,270.63,95.48,270.35z"/>
				<path class="st24" d="M120.11,273.35c-0.3-0.88-1.5-0.88-1.79,0c-0.1,0.3-0.08,0.59-0.03,0.9c0.16,0.92,1.7,0.92,1.85,0
					C120.2,273.94,120.22,273.65,120.11,273.35z"/>
				<path class="st24" d="M109.76,243.23c-0.05-0.29-0.12-0.57-0.35-0.79c0.13,0.13-0.24-0.24-0.25-0.25
					c-0.13-0.06-0.24-0.11-0.39-0.11c-0.15,0-0.26,0.05-0.39,0.11c0,0-0.38,0.37-0.25,0.25c-0.23,0.21-0.29,0.5-0.35,0.79
					c-0.12,0.64,0.27,1.29,0.98,1.29C109.48,244.52,109.87,243.87,109.76,243.23z"/>
				<path class="st24" d="M102.82,224.34c-0.11-0.4-0.53-0.78-0.97-0.74c-0.65,0.06-1.29,0.44-1.29,1.18c0,0.76,0.72,1.21,1.43,1.04
					c0.31-0.08,0.53-0.32,0.64-0.6C102.82,224.98,102.92,224.68,102.82,224.34z"/>
				<path class="st24" d="M124.02,242c-0.09-0.11-0.2-0.16-0.33-0.21c-0.02-0.02-0.05-0.04-0.08-0.06c-0.08-0.04-0.16-0.07-0.24-0.1
					c-0.02-0.01-0.14-0.05-0.17-0.05c-0.01-0.01-0.03-0.03-0.04-0.04c-0.71-0.72-1.84,0.44-1.1,1.09c0.25,0.21,0.51,0.38,0.84,0.43
					c0.23,0.04,0.49,0.06,0.7-0.07c0.02-0.01,0.02-0.02,0.03-0.02c0.01,0,0.03-0.01,0.07-0.02c0.13-0.04,0.22-0.1,0.31-0.2
					C124.21,242.51,124.21,242.23,124.02,242z"/>
				<path class="st24" d="M130.37,256.37c-0.25-0.28-0.62-0.35-0.98-0.35c-0.56,0-1.03,0.47-1.03,1.03c0,0.5,0.37,0.92,0.85,1.01
					c0.38,0.19,0.89,0.21,1.17-0.16c0.18-0.23,0.32-0.44,0.32-0.75C130.69,256.86,130.57,256.59,130.37,256.37z"/>
				<path class="st24" d="M133.07,278.51c-0.29-0.13-0.55-0.23-0.87-0.21c-0.58,0.03-1.06,0.46-1.06,1.06c0,0.6,0.48,1.03,1.06,1.06
					c0.05,0.01,0.1,0.01,0.15,0c0.05-0.01,0.1-0.01,0.16-0.02c0.01,0,0.03,0,0.05,0c0.21-0.01,0.36-0.07,0.51-0.16
					c0.22-0.09,0.4-0.25,0.45-0.51c0.02-0.11,0.06-0.22,0.05-0.34C133.56,279.05,133.4,278.66,133.07,278.51z"/>
				<path class="st24" d="M144.91,265.42c-0.52,0-0.95,0.43-0.95,0.95c0,0.52,0.43,0.95,0.95,0.95c0.52,0,0.95-0.43,0.95-0.95
					C145.86,265.85,145.43,265.42,144.91,265.42z"/>
				<path class="st24" d="M137.96,248.68c-0.01-0.1-0.04-0.19-0.08-0.28c-0.07-0.55-0.61-0.98-1.15-0.98
					c-0.76,0-1.32,0.74-1.12,1.47c0.11,0.4,0.35,0.72,0.71,0.92c0.26,0.14,0.57,0.19,0.86,0.11c0.3,0.01,0.61-0.2,0.75-0.45
					C138.07,249.22,138.06,248.94,137.96,248.68z"/>
				<path class="st24" d="M26.67,260.22c-0.13-0.9-1.68-0.9-1.81,0c-0.04,0.26-0.02,0.48,0.04,0.73c0.21,0.86,1.53,0.86,1.74,0
					C26.7,260.7,26.71,260.48,26.67,260.22z"/>
				<path class="st24" d="M56.19,263.31c-0.52-0.11-1.04,0.23-1.04,0.79c0,0.56,0.52,0.9,1.04,0.79c0.39-0.08,1.07-0.29,1.07-0.79
					S56.59,263.39,56.19,263.31z"/>
				<path class="st24" d="M79,267.21c0-0.29-0.1-0.54-0.27-0.74c-0.22-0.29-0.56-0.49-0.94-0.46c-0.03,0-0.05-0.01-0.08-0.01
					c-0.14-0.01-0.28,0.02-0.41,0.06c-0.56,0.12-0.99,0.53-0.99,1.15c0,0.62,0.44,1.03,0.99,1.15c0.13,0.05,0.27,0.07,0.41,0.06
					c0.03,0,0.05,0,0.08-0.01c0.38,0.03,0.71-0.17,0.94-0.46C78.9,267.76,79,267.51,79,267.21z"/>
				<path class="st24" d="M72.16,220.26c-0.24-0.26-0.61-0.37-0.96-0.29c-0.07,0.02-0.14,0.04-0.21,0.05
					c-0.87,0.21-0.87,1.54,0,1.76c0.07,0.02,0.14,0.04,0.21,0.05c0.35,0.09,0.72-0.03,0.96-0.29
					C72.56,221.24,72.56,220.58,72.16,220.26z"/>
				<path class="st24" d="M90.46,213.46c-0.07,0.05-0.15,0.1-0.22,0.15c-0.49,0.34-0.64,1.02-0.19,1.47
					c0.45,0.45,1.13,0.3,1.47-0.19c0.05-0.07,0.1-0.15,0.15-0.22C92.17,213.95,91.18,212.96,90.46,213.46z"/>
				<path class="st24" d="M96.59,257.26c-0.07,0.02-0.13,0.04-0.19,0.06c-0.85,0.27-0.85,1.44,0,1.71c0.06,0.02,0.13,0.04,0.19,0.06
					C98.12,259.58,98.12,256.78,96.59,257.26z"/>
			</g>
		</g>
		<g>
			<g>
				<path class="st3" d="M429.57,41.42c-0.35-9.68-1.22-19.46-5.24-28.35c-0.21-0.73-0.61-1.44-0.99-2.05
					c-0.19-0.36-0.49-0.6-0.82-0.73c-0.04-0.02-0.08-0.04-0.13-0.05c-0.05-0.01-0.1-0.03-0.15-0.04c-0.1-0.02-0.2-0.03-0.3-0.03
					c-0.02,0-0.04,0-0.06,0c-0.1,0.01-0.21,0.02-0.31,0.05c-0.04,0.01-0.08,0.02-0.12,0.04c-0.06,0.02-0.11,0.05-0.17,0.08
					c-0.08,0.04-0.15,0.08-0.22,0.13c-0.03,0.02-0.05,0.05-0.07,0.07c-0.07,0.06-0.14,0.12-0.2,0.2c-0.01,0.02-0.03,0.03-0.04,0.04
					c-1.51,1.84-1.36,4.49-1.58,6.73c-0.28,2.79-0.54,5.59-0.8,8.38c-0.53,5.84-1.02,11.69-1.47,17.53
					c-0.89,11.54-1.63,23.08-2.3,34.64c-1.33,23.19-2.33,46.37-2.08,69.61c0.14,13.02,0.61,26.04,1.39,39.04
					c0.08,1.38,2.01,1.57,2.71,0.6c3.35-4.63,4.98-10.25,6.16-15.77c1.22-5.66,1.86-11.41,2.85-17.11
					c0.83-4.73,1.48-9.49,1.83-14.29c0.35-4.8,0.33-9.6,0.39-14.41c0.1-7.96,0.43-15.89,0.95-23.83
					c0.68-10.17,1.19-20.36,1.33-30.55C430.29,61.37,429.94,51.4,429.57,41.42z"/>
				<path class="st3" d="M411.12,165.43c-0.43-5.29-1.24-10.56-2.04-15.8c-2.34-15.32-5.1-30.57-7.87-45.82
					c-2.02-11.11-4.22-22.21-6.05-33.36c-0.08-0.49-0.16-0.97-0.23-1.46c-2.57-17.72-5.16-35.45-8.78-52.99
					c-1.02-4.95-2.13-9.88-3.33-14.78c-0.42-1.71-2.65-1.55-2.97,0.12c-1.37,7.08-0.81,14.49-0.83,21.67
					c-0.02,7.33,0.04,14.66,0.36,21.98c0.33,7.51,0.95,15.01,2.09,22.44c1.14,7.39,2.71,14.73,4.34,22.03
					c3.22,14.43,7.23,28.69,9.98,43.22c1.26,6.62,2.39,13.28,4.09,19.81c0.84,3.23,1.8,6.42,2.97,9.54
					c0.59,1.57,1.23,3.12,1.93,4.64c0.68,1.47,1.33,3.24,2.41,4.47c1.78,2,3.82,0.82,4.05-1.34
					C411.39,168.37,411.23,166.87,411.12,165.43z"/>
				<path class="st1" d="M413.72,171.35c-1.69-3.51-3.79-6.85-5.28-10.46c-6.98-17.17-16.44-33.11-24.43-49.8
					c-4.08-8.52-7.35-17.38-11.24-25.99c-3.98-8.81-8.41-17.42-13.13-25.85c-5.26-9.41-10.89-18.6-16.69-27.68
					c-0.83-1.3-2.88-0.15-2.63,1.22c1.03,5.52,2.11,11.04,3.73,16.42c1.65,5.47,4.02,10.56,6.47,15.71
					c5.13,10.8,10.27,21.59,15.31,32.43c4.97,10.69,9.77,21.44,14.54,32.22c4.12,9.32,9.01,18.21,14.12,27.01
					c1.4,2.41,2.79,4.82,4.18,7.23c1.53,2.67,3.46,4.99,5.49,7.29c1.82,2.07,3.43,4.2,4.98,6.48c1.44,2.12,2.95,4.25,5.05,5.77
					c0.93,0.67,2.24,0,2.35-1.1C416.92,178.45,415.32,174.68,413.72,171.35z"/>
				<path class="st1" d="M418.73,59.13c-1.33-9.01-3.9-18.32-9.15-25.87c-0.82-1.18-2.42-0.3-2.64,0.83
					c-3.86,19.95-1.1,40.25,0.1,60.31c0.61,10.15,0.72,20.34,1.08,30.51c0.35,10.12,0.77,20.23,1.4,30.34
					c0.34,5.46,0.95,10.91,1.2,16.38c0.23,4.92,0.66,9.68,3.37,13.93c0.6,0.94,2.28,0.56,2.56-0.46c1.28-4.68,1.38-9.49,1.93-14.28
					c2.19-18.66,3.64-37.41,3.79-56.2C422.54,96.07,421.45,77.49,418.73,59.13z"/>
			</g>
			<path class="st5" d="M465.82,233.66c-6.34-6.48-13.79-11.7-20.02-18.29c-6.14-6.5-11.41-13.8-16.17-21.36
				c-2.23-3.53-4.09-7.3-5.82-11.1c-0.92-2.04-1.62-4.46-2.83-6.36c-1.85-2.88-6.95-3.17-9.22-0.7c-1.19,1.29-1.63,3.15-2.28,4.75
				c-0.73,1.8-1.51,3.58-2.36,5.33c-2.12,4.37-4.74,8.46-7.44,12.49c-2.48,3.71-5.09,7.33-7.9,10.8c-2.75,3.4-5.7,6.62-8.86,9.64
				c-3.29,3.14-6.87,5.9-10.3,8.87c-12.71,10.99-24.6,25.28-26.5,42.58c-0.23,2.08-0.29,4.17-0.22,6.27
				c0.01,0.17,0.04,0.32,0.09,0.46c0.16,0.7,0.75,1.3,1.66,1.15c3.64-0.58,7.27-0.99,10.91-1.26c0,0,31.41,0.62,31.41,0.62
				c4.35,0,9.26,0.76,13.52,1.63c4.37,0.89,9.17,0.68,13.65,0.96c5.75,0.35,11.5,0.77,17.24,1.26c4.17,0.35,8.29,1.09,12.47,1.43
				c3.99,0.32,7.66,1.12,11.68,0.88c4.38-0.26,8.72-0.54,13.06-1.23c4.38-0.7,8.74-1.32,13.17-1.58c0.75-0.04,1.13-0.52,1.2-1.08
				c0.02-0.08,0.04-0.17,0.05-0.27C487.27,261.91,477.77,245.86,465.82,233.66z"/>
			<path class="st24" d="M470.48,275.06c-0.6-3.47-1.4-6.88-2.45-10.24c-2.44-7.81-6.04-15.21-10.14-22.27
				c-8.55-14.71-19.1-28.15-27.33-43.06c-4.18-7.58-7.7-15.49-10.27-23.75c-2.21-2.09-6.49-2.1-8.53,0.11
				c-0.07,0.08-0.14,0.17-0.21,0.25c-1.47,5.69-4.07,11.18-6.62,16.37c-3.01,6.12-6.32,12.11-9.9,17.92
				c-1.24,2.02-2.59,3.92-3.98,5.85c-3.46,4.81-6.88,9.66-10.22,14.55c-6.53,9.56-12.57,19.31-16.32,30.33
				c-1.73,5.09-3.36,10.19-3.85,15.55c-0.01,0.1-0.02,0.2-0.03,0.3l1.5,0.03c0.13-1.56,0.29-3.12,0.59-4.65
				c0.54-2.71,1.49-5.41,2.32-8.05c1.74-5.55,3.91-10.94,6.65-16.07c2.7-5.08,5.84-9.91,9.06-14.68c3.33-4.92,6.73-9.78,10.19-14.61
				c1.67-2.33,3.39-4.62,4.91-7.05c3.4-5.43,6.54-11.05,9.43-16.77c1.96-3.88,3.81-7.84,5.4-11.89c1-2.54,1.92-5.14,2.57-7.79
				c-0.63,3.18-1.39,6.34-2.22,9.47c-1.64,6.16-3.49,12.21-6.31,17.95c-4.62,9.41-9.67,18.59-14.44,27.92
				c-4.7,9.18-9.22,18.57-12.21,28.47c-1.76,5.81-2.85,11.9-3.25,18.01l1.49,0.03c0.33-5.06,1.13-10.11,2.44-14.95
				c2.73-10.14,7.22-19.72,11.95-29.06c4.74-9.35,9.8-18.53,14.47-27.92c1.44-2.91,2.84-5.78,3.92-8.84
				c1.08-3.06,2.01-6.16,2.88-9.29c0.68-2.46,1.31-4.93,1.88-7.42c-0.21,1.47-0.43,2.94-0.65,4.4c-0.93,6.29-1.89,12.58-3.09,18.82
				c-1.57,8.13-4.25,16.1-6.61,24.03c-1.56,5.23-3.15,10.45-4.71,15.68c-1.48,4.95-3.06,9.91-4.14,14.97
				c-1.4,6.53-2.24,13.32-2.46,20.08c0.5,0.05,1,0.1,1.51,0.16c0.2-5.82,0.86-11.64,1.9-17.32c0.9-4.9,2.33-9.67,3.74-14.44
				c1.55-5.24,3.14-10.46,4.71-15.69c1.58-5.28,3.15-10.57,4.66-15.88c0.93-3.3,1.94-6.6,2.62-9.96c1.22-5.96,2.12-12,3.03-18.02
				c0.51-3.42,1.03-6.85,1.5-10.28c0.35,13.33,0.07,26.67-0.42,39.99c-0.57,15.43-1.45,30.84-2.05,46.27
				c-0.22,5.61-0.39,11.22-0.48,16.84c0.5,0,1,0.03,1.5,0.07c0.18-12.24,0.78-24.48,1.36-36.71c0.75-15.76,1.51-31.52,1.7-47.3
				c0.06-5.22,0.05-10.44-0.04-15.67c0.15,0.76,0.3,1.52,0.44,2.28c1.49,7.68,3.06,15.35,4.69,23.01c1.95,9.16,3.99,18.3,6.15,27.42
				c1.07,4.53,2.18,9.05,3.32,13.56c1.04,4.08,2.28,8.12,3.09,12.25c1.49,7.64,2.23,15.58,2.39,23.42c0.44-0.02,0.89-0.02,1.34,0.02
				c0.05,0,0.09,0.01,0.14,0.02c-0.17-6.73-0.77-13.49-1.78-20.11c-0.64-4.17-1.7-8.19-2.76-12.26c-1.14-4.36-2.23-8.74-3.29-13.12
				c-4.15-17.16-7.88-34.44-11.29-51.76c-0.16-0.82-0.33-1.65-0.49-2.48c4.36,13.51,9.65,26.71,15.2,39.79
				c5.99,14.1,12.5,28.14,16.76,42.9c1.79,6.2,3.11,12.56,3.48,19.01c0.5,0,1-0.02,1.5-0.03c-0.69-12.71-4.97-25.03-9.59-36.78
				c-6.19-15.7-13.32-31-19.37-46.76c-2.24-5.82-4.33-11.7-6.25-17.63c4.91,12.85,12.01,24.72,19.66,36.22
				c9.13,13.73,19.06,27.33,24.69,42.98c1.4,3.89,2.54,7.88,3.29,11.95c0.54,2.91,1.2,5.94,1.42,8.93c0.48-0.07,0.95-0.13,1.43-0.2
				c0.02,0,0.03,0,0.05-0.01C471.41,279.98,470.9,277.48,470.48,275.06z"/>
			<g>
				<path class="st24" d="M364.57,249.62c-1.24,0-1.24,1.92,0,1.92C365.81,251.54,365.81,249.62,364.57,249.62z"/>
				<path class="st24" d="M358.24,269.68c-0.28-0.55-1.19-0.55-1.46,0c-0.11,0.21-0.18,0.43-0.15,0.67
					c0.05,0.48,0.36,0.89,0.89,0.89c0.52,0,0.83-0.41,0.89-0.89C358.43,270.11,358.35,269.89,358.24,269.68z"/>
				<path class="st24" d="M373.36,263.6c-0.02-0.54-0.41-0.89-0.93-0.93c-0.16-0.01-0.31,0.04-0.46,0.09
					c-0.75,0.29-0.78,1.18-0.13,1.54c0.17,0.15,0.39,0.21,0.61,0.22c0.48,0.02,0.92-0.42,0.91-0.91L373.36,263.6z"/>
				<path class="st24" d="M381.45,244.44c-0.08-0.41-0.42-0.82-0.79-1.02c-0.28-0.15-0.56-0.05-0.74,0.19
					c-0.15,0.21-0.14,0.44-0.11,0.68c0-0.01,0-0.02-0.01-0.03c0,0.09,0.01,0.19,0.03,0.28c0.01,0.03,0.01,0.05,0.01,0.06
					c0,0.01,0,0.02,0,0.04c-0.01,0.45,0.38,0.81,0.81,0.81C381.22,245.47,381.56,244.95,381.45,244.44z"/>
				<path class="st24" d="M377,230.21c-0.23-0.02-0.45,0.01-0.66,0.13c-0.48,0.29-0.61,1-0.18,1.4c0.11,0.11,0.24,0.21,0.39,0.23
					c0.09,0.01,0.18,0.03,0.27,0.04c0.04-0.01,0.08-0.01,0.12-0.02c-0.02,0-0.01,0,0.06,0c0.49-0.03,0.89-0.38,0.89-0.89
					C377.89,230.59,377.48,230.24,377,230.21z"/>
				<path class="st24" d="M384.41,276.19c-0.07-0.16-0.17-0.27-0.32-0.37c-0.18-0.12-0.46-0.12-0.64,0
					c-0.15,0.1-0.25,0.21-0.32,0.37c-0.22,0.5,0.03,1.12,0.64,1.12C384.38,277.3,384.63,276.68,384.41,276.19z"/>
				<path class="st24" d="M387.96,253.59c0-0.03-0.01-0.04-0.01-0.05c-0.01-0.07-0.02-0.13-0.05-0.19
					c-0.19-0.49-0.64-0.69-1.12-0.49c-0.21,0.04-0.4,0.11-0.56,0.28c-0.12,0.13-0.25,0.25-0.38,0.37c-0.43,0.39-0.4,1.11,0,1.51
					c0.4,0.39,1.12,0.43,1.51,0c0.18-0.2,0.34-0.4,0.5-0.61C388.03,254.17,387.99,253.86,387.96,253.59z"/>
				<path class="st24" d="M406.92,257.53c-1.24,0-1.24,1.92,0,1.92C408.16,259.45,408.16,257.53,406.92,257.53z"/>
				<path class="st24" d="M408.34,237.69c-0.97,0-0.97,1.51,0,1.51C409.31,239.2,409.31,237.69,408.34,237.69z"/>
				<path class="st24" d="M393.94,235.99c-0.98,0-0.98,1.52,0,1.52C394.92,237.51,394.92,235.99,393.94,235.99z"/>
				<path class="st24" d="M420.58,223.49c-0.06-0.07-0.12-0.15-0.18-0.22c-0.38-0.47-1.16-0.39-1.55,0c-0.39,0.39-0.47,1.18,0,1.55
					c0.07,0.06,0.15,0.12,0.22,0.18c0.45,0.36,1.08,0.44,1.52,0C421.03,224.57,420.95,223.94,420.58,223.49z"/>
				<path class="st24" d="M426.69,245.26c-0.72,0-1.23,0.7-1.05,1.38c0.06,0.23,0.15,0.46,0.34,0.62c0.44,0.38,1,0.38,1.43,0
					c0.18-0.16,0.28-0.39,0.34-0.62C427.92,245.96,427.4,245.26,426.69,245.26z"/>
				<path class="st24" d="M426.1,270.39c0.12,0.13,0.07,0.1-0.15-0.1c-0.1-0.08-0.21-0.13-0.34-0.16c-0.2-0.04-0.41-0.09-0.61-0.07
					c-0.62,0.06-1.14,0.47-1.14,1.14c0,0.67,0.52,1.08,1.14,1.14c0.21,0.02,0.41-0.02,0.61-0.07c0.13-0.03,0.24-0.08,0.34-0.16
					c0.23-0.2,0.28-0.23,0.15-0.1C426.71,271.74,426.71,270.66,426.1,270.39z"/>
				<path class="st24" d="M450.73,273.38c-0.3-0.88-1.5-0.88-1.79,0c-0.1,0.3-0.08,0.59-0.03,0.9c0.16,0.92,1.7,0.92,1.85,0
					C450.81,273.97,450.83,273.68,450.73,273.38z"/>
				<path class="st24" d="M440.37,243.26c-0.05-0.29-0.12-0.57-0.35-0.79c0.13,0.13-0.24-0.24-0.25-0.25
					c-0.13-0.06-0.24-0.11-0.39-0.11c-0.15,0-0.26,0.05-0.39,0.11c0,0-0.38,0.37-0.25,0.25c-0.23,0.21-0.29,0.5-0.35,0.79
					c-0.12,0.64,0.27,1.29,0.98,1.29C440.1,244.55,440.49,243.91,440.37,243.26z"/>
				<path class="st24" d="M433.44,224.37c-0.11-0.4-0.53-0.78-0.97-0.74c-0.65,0.06-1.29,0.44-1.29,1.18c0,0.76,0.72,1.21,1.43,1.04
					c0.31-0.08,0.53-0.32,0.64-0.6C433.44,225.01,433.53,224.72,433.44,224.37z"/>
				<path class="st24" d="M454.63,242.03c-0.09-0.11-0.2-0.16-0.33-0.21c-0.02-0.02-0.05-0.04-0.08-0.06
					c-0.08-0.04-0.16-0.07-0.24-0.1c-0.02-0.01-0.14-0.05-0.17-0.05c-0.01-0.01-0.03-0.03-0.04-0.04c-0.71-0.72-1.84,0.44-1.1,1.09
					c0.25,0.21,0.51,0.38,0.84,0.43c0.23,0.04,0.49,0.06,0.7-0.07c0.02-0.01,0.02-0.02,0.03-0.02c0.01,0,0.03-0.01,0.07-0.02
					c0.12-0.04,0.22-0.1,0.31-0.2C454.83,242.54,454.83,242.27,454.63,242.03z"/>
				<path class="st24" d="M460.98,256.41c-0.25-0.28-0.62-0.35-0.98-0.35c-0.56,0-1.03,0.47-1.03,1.03c0,0.5,0.37,0.92,0.85,1.01
					c0.38,0.19,0.89,0.21,1.17-0.16c0.18-0.23,0.32-0.44,0.32-0.75C461.3,256.9,461.18,256.62,460.98,256.41z"/>
				<path class="st24" d="M463.69,274.99c-0.29-0.13-0.55-0.23-0.87-0.21c-0.58,0.03-1.06,0.46-1.06,1.06c0,0.6,0.48,1.03,1.06,1.06
					c0.05,0.01,0.1,0.01,0.15,0c0.05-0.01,0.1-0.01,0.16-0.02c0.01,0,0.03,0,0.05,0c0.21-0.01,0.36-0.07,0.51-0.16
					c0.22-0.09,0.4-0.25,0.45-0.51c0.02-0.11,0.06-0.22,0.05-0.34C464.18,275.53,464.01,275.14,463.69,274.99z"/>
				<path class="st24" d="M475.53,265.45c-0.52,0-0.95,0.43-0.95,0.95c0,0.52,0.43,0.95,0.95,0.95c0.52,0,0.95-0.43,0.95-0.95
					C476.48,265.89,476.05,265.45,475.53,265.45z"/>
				<path class="st24" d="M468.58,248.71c-0.01-0.1-0.04-0.19-0.08-0.28c-0.07-0.55-0.61-0.98-1.15-0.98
					c-0.76,0-1.32,0.74-1.12,1.47c0.11,0.4,0.35,0.72,0.71,0.92c0.26,0.14,0.57,0.19,0.86,0.11c0.3,0.01,0.61-0.2,0.75-0.45
					C468.68,249.25,468.68,248.98,468.58,248.71z"/>
				<path class="st24" d="M357.29,260.26c-0.13-0.9-1.68-0.9-1.81,0c-0.04,0.26-0.02,0.48,0.04,0.73c0.21,0.86,1.53,0.86,1.74,0
					C357.31,260.74,357.33,260.52,357.29,260.26z"/>
				<path class="st24" d="M386.81,263.35c-0.52-0.11-1.04,0.23-1.04,0.79c0,0.56,0.52,0.9,1.04,0.79c0.39-0.08,1.07-0.29,1.07-0.79
					C387.88,263.64,387.2,263.43,386.81,263.35z"/>
				<path class="st24" d="M409.62,267.25c0-0.29-0.1-0.54-0.27-0.74c-0.22-0.29-0.56-0.49-0.94-0.46c-0.03,0-0.05-0.01-0.08-0.01
					c-0.14-0.01-0.28,0.02-0.41,0.06c-0.56,0.12-0.99,0.53-0.99,1.15c0,0.62,0.44,1.03,0.99,1.15c0.13,0.05,0.27,0.07,0.41,0.06
					c0.03,0,0.05,0,0.08-0.01c0.38,0.03,0.71-0.17,0.94-0.46C409.51,267.79,409.62,267.54,409.62,267.25z"/>
				<path class="st24" d="M402.78,220.3c-0.24-0.26-0.61-0.37-0.96-0.29c-0.07,0.02-0.14,0.04-0.21,0.05
					c-0.87,0.21-0.87,1.54,0,1.76c0.07,0.02,0.14,0.04,0.21,0.05c0.35,0.09,0.72-0.03,0.96-0.29
					C403.17,221.27,403.17,220.61,402.78,220.3z"/>
				<path class="st24" d="M421.08,213.49c-0.07,0.05-0.15,0.1-0.22,0.15c-0.49,0.34-0.64,1.02-0.19,1.47
					c0.45,0.45,1.13,0.3,1.47-0.19c0.05-0.07,0.1-0.15,0.15-0.22C422.78,213.98,421.8,213,421.08,213.49z"/>
				<path class="st24" d="M427.21,257.3c-0.07,0.02-0.13,0.04-0.19,0.06c-0.85,0.27-0.85,1.44,0,1.71c0.06,0.02,0.13,0.04,0.19,0.06
					C428.74,259.62,428.74,256.81,427.21,257.3z"/>
			</g>
		</g>
		<g>
			<g>
				<path class="st1" d="M244.9,153.51c-1.15-6.34-2.19-12.7-3.34-19.04c-2.5-13.89-5.4-27.7-7.96-41.58
					c-1.46-7.95-2.83-15.91-3.99-23.9c-2.57-17.72-5.16-35.45-8.78-52.99c-1.02-4.95-2.13-9.88-3.33-14.78
					c-0.42-1.71-2.65-1.55-2.97,0.12c-1.05,5.44-0.83,11-0.81,16.51c0.01,5.71-0.05,11.43,0.04,17.14
					c0.18,11.32,0.79,22.67,2.61,33.86c1.89,11.55,4.59,22.98,7.32,34.36c2.73,11.36,5.44,22.71,7.82,34.16
					c1.33,6.39,2.64,12.79,4.12,19.15c0.67,2.89,1.3,5.83,2.2,8.66c0.77,2.41,1.96,4.65,4.07,6.14c0.85,0.6,1.86,0.12,2.26-0.73
					C246.69,165.25,245.91,159.1,244.9,153.51z"/>
				<path class="st3" d="M251.31,181.47c-1.46-7.32-5.38-13.76-8.18-20.6c-6.98-17.17-16.44-33.11-24.43-49.8
					c-4.08-8.52-7.35-17.38-11.24-25.99c-3.98-8.81-8.41-17.42-13.13-25.85c-5.26-9.41-10.89-18.6-16.69-27.68
					c-0.83-1.3-2.88-0.15-2.63,1.22c1.05,5.59,2.14,11.18,3.79,16.63c1.66,5.47,4.06,10.56,6.51,15.71
					c5.17,10.87,10.34,21.74,15.41,32.65c5.04,10.83,9.85,21.76,14.73,32.66c4.19,9.36,9.17,18.28,14.32,27.14
					c5.34,9.19,10.78,18.63,19.2,25.41C249.99,183.78,251.55,182.69,251.31,181.47z"/>
				<path class="st3" d="M253.43,59.12c-1.33-9.01-3.9-18.32-9.15-25.87c-0.82-1.18-2.42-0.3-2.64,0.83
					c-3.86,19.95-1.1,40.25,0.1,60.31c1.17,19.58,0.56,39.23,2.03,58.8c0.82,10.95,2.25,21.87,4.82,32.55
					c0.17,0.7,0.65,1.12,1.35,1.24c3.14,0.54,2.89-4.22,3-6.06c0.2-3.37,0.35-6.75,0.35-10.13c2.19-18.66,3.64-37.41,3.79-56.2
					C257.23,96.05,256.14,77.47,253.43,59.12z"/>
				<path class="st3" d="M271.5,117.88c-0.22-5.95-0.68-11.9-0.93-17.85c-0.07-1.56-2.43-1.57-2.89-0.25
					c-6.89,19.62-11.9,40.09-13.92,60.82c-0.55,5.62-0.85,11.26-0.86,16.91c0,0.52,0.23,0.92,0.55,1.19c0.42,1.1,2.3,1.44,2.85,0.01
					c3.86-10.09,8.47-19.91,11.64-30.25C271,138.46,271.89,128.29,271.5,117.88z"/>
				<path class="st1" d="M264.57,50.71c-0.52-12.72-0.21-25.86-5.54-37.65c-0.21-0.74-0.61-1.45-0.99-2.06
					c-0.19-0.36-0.49-0.6-0.82-0.73c-0.04-0.02-0.08-0.04-0.13-0.05c-0.05-0.01-0.1-0.03-0.15-0.04c-0.1-0.02-0.2-0.03-0.31-0.03
					c-0.02,0-0.04,0-0.06,0c-0.1,0.01-0.21,0.02-0.31,0.05c-0.04,0.01-0.08,0.02-0.12,0.04c-0.06,0.02-0.11,0.05-0.17,0.08
					c-0.08,0.04-0.15,0.08-0.22,0.13c-0.02,0.02-0.05,0.05-0.07,0.07c-0.07,0.06-0.14,0.12-0.2,0.2c-0.01,0.02-0.03,0.03-0.04,0.04
					c-1.46,1.78-1.34,4.28-1.56,6.45c-0.29,2.85-0.57,5.7-0.84,8.56c-0.54,5.72-1.05,11.43-1.52,17.16
					c-0.94,11.47-1.75,22.95-2.4,34.44c-1.31,22.83-2.04,45.69-2.16,68.56c-0.03,6.48-0.02,12.96,0.05,19.43
					c0.06,6.14-0.09,12.42,1.57,18.39c0.51,1.83,3.42,1.39,2.96-0.51c-0.19-0.77,0.1-1.76,0.36-2.63c0.42-1.41,0.96-2.78,1.52-4.14
					c0.98-2.37,2.18-4.7,2.93-7.16c2.79-9.11,4.69-18.73,5.4-28.22c0.71-9.47,0.24-18.97,0.57-28.45
					c0.34-9.73,1.16-19.43,1.79-29.15C264.83,72.6,265.25,61.65,264.57,50.71z"/>
			</g>
			<path class="st5" d="M300.25,233.24c-6.49-6.39-13.94-11.66-20.16-18.33c-6.12-6.55-11.5-13.93-16.17-21.58
				c-2.17-3.56-4.02-7.33-5.72-11.13c-0.49-1.1-0.97-2.21-1.43-3.32c-0.44-1.07-0.83-2.22-1.66-3.05c-2.38-2.38-7.24-2.21-9.17,0.65
				c-0.99,1.47-1.46,3.39-2.13,5.02c-0.77,1.85-1.6,3.68-2.51,5.46c-2.2,4.35-4.88,8.45-7.62,12.48c-2.5,3.67-5.12,7.26-7.95,10.68
				c-2.84,3.43-5.88,6.67-9.14,9.7c-3.37,3.12-7.03,5.9-10.46,8.94c-12.59,11.15-24.22,25.74-25.45,43.15
				c-0.15,2.09-0.12,4.19,0.02,6.28c0.04,0.67,0.43,1.04,0.91,1.16c0.13,0.04,0.27,0.08,0.44,0.08c18.18,0.61,36.37,1.22,54.57,1.51
				c16.89,0.27,33.78,0.23,50.67-0.17c10.8-0.25,21.6-0.64,32.39-1.11c0.76-0.03,1.14-0.52,1.2-1.09c0.02-0.08,0.04-0.17,0.05-0.26
				C322.17,260.7,312.36,245.16,300.25,233.24z"/>
			<path class="st24" d="M305.27,275.06c-0.6-3.47-1.4-6.88-2.45-10.24c-2.44-7.81-6.04-15.21-10.14-22.27
				c-8.55-14.71-19.1-28.15-27.33-43.06c-4.16-7.54-7.67-15.42-10.24-23.63c-0.01-0.01-0.01-0.02-0.02-0.03
				c-2.21-2.21-6.54-2.22-8.7,0.07c-1.46,5.76-4.09,11.33-6.68,16.59c-3.01,6.12-6.32,12.11-9.9,17.92
				c-1.24,2.02-2.59,3.92-3.98,5.85c-3.46,4.81-6.88,9.66-10.22,14.55c-6.53,9.56-12.57,19.31-16.32,30.33
				c-1.73,5.09-3.36,10.19-3.85,15.55c-0.09,1.05-0.19,2.12-0.26,3.2c0.5,0.02,1.01,0.03,1.51,0.05c0.05-0.76,0.11-1.51,0.17-2.25
				c0.14-1.78,0.3-3.57,0.65-5.32c0.54-2.71,1.49-5.41,2.32-8.05c1.74-5.55,3.91-10.94,6.65-16.07c2.7-5.08,5.84-9.91,9.06-14.68
				c3.33-4.92,6.73-9.78,10.19-14.61c1.67-2.33,3.39-4.62,4.91-7.05c3.4-5.43,6.54-11.05,9.43-16.77c1.96-3.88,3.81-7.84,5.4-11.89
				c1-2.54,1.92-5.14,2.57-7.79c-0.63,3.18-1.39,6.34-2.22,9.47c-1.64,6.16-3.49,12.21-6.31,17.95
				c-4.62,9.41-9.67,18.59-14.44,27.92c-4.7,9.18-9.22,18.57-12.21,28.47c-2.05,6.79-3.2,13.94-3.39,21.08c0.5,0.01,1,0.03,1.5,0.04
				c0.15-6.09,1.01-12.21,2.57-18.03c2.73-10.14,7.22-19.72,11.95-29.06c4.74-9.35,9.8-18.53,14.47-27.92
				c1.44-2.91,2.84-5.78,3.92-8.84c1.08-3.06,2.01-6.16,2.88-9.29c0.68-2.46,1.31-4.93,1.88-7.42c-0.21,1.47-0.43,2.94-0.65,4.4
				c-0.93,6.29-1.89,12.58-3.09,18.82c-1.57,8.13-4.25,16.1-6.61,24.03c-1.56,5.23-3.15,10.45-4.71,15.68
				c-1.48,4.95-3.06,9.91-4.14,14.97c-1.61,7.49-2.47,15.32-2.51,23.05c0.5,0.01,1,0.02,1.5,0.03c0.05-6.75,0.74-13.56,1.96-20.16
				c0.9-4.9,2.33-9.67,3.74-14.44c1.55-5.24,3.14-10.46,4.71-15.69c1.58-5.28,3.15-10.57,4.66-15.88c0.93-3.3,1.94-6.6,2.62-9.96
				c1.22-5.96,2.12-12,3.03-18.02c0.51-3.42,1.03-6.85,1.5-10.28c0.35,13.33,0.07,26.67-0.42,39.99
				c-0.57,15.43-1.45,30.84-2.05,46.27c-0.24,6.15-0.43,12.3-0.5,18.46c0.5,0,1,0.01,1.5,0.02c0.14-12.77,0.78-25.53,1.39-38.28
				c0.75-15.76,1.51-31.52,1.7-47.3c0.06-5.22,0.05-10.44-0.04-15.67c0.15,0.76,0.3,1.52,0.44,2.28c1.49,7.68,3.06,15.35,4.69,23.01
				c1.95,9.16,3.99,18.3,6.15,27.42c1.07,4.53,2.18,9.05,3.32,13.56c1.04,4.08,2.28,8.12,3.09,12.25c1.44,7.4,2.18,15.07,2.38,22.67
				c0.5-0.01,0.99-0.01,1.49-0.01c-0.2-6.47-0.81-12.95-1.78-19.32c-0.64-4.17-1.7-8.19-2.76-12.26c-1.14-4.36-2.23-8.74-3.29-13.12
				c-4.15-17.16-7.88-34.44-11.29-51.76c-0.16-0.82-0.33-1.65-0.49-2.48c4.36,13.51,9.65,26.71,15.2,39.79
				c5.99,14.1,12.5,28.14,16.76,42.9c1.5,5.22,2.69,10.54,3.24,15.94c0.5-0.01,1-0.03,1.5-0.04c-1.15-11.62-5.1-22.9-9.36-33.69
				c-6.19-15.7-13.32-31-19.37-46.76c-2.24-5.82-4.33-11.7-6.25-17.63c4.91,12.85,12.01,24.72,19.66,36.22
				c9.13,13.73,19.06,27.33,24.69,42.98c1.4,3.89,2.54,7.88,3.29,11.95c0.39,2.13,0.85,4.32,1.16,6.52
				c0.49-0.02,0.98-0.04,1.47-0.06C305.9,278.47,305.57,276.74,305.27,275.06z"/>
			<g>
				<path class="st24" d="M199.27,249.61c-1.24,0-1.24,1.92,0,1.92C200.5,251.53,200.5,249.61,199.27,249.61z"/>
				<path class="st24" d="M192.94,269.66c-0.28-0.55-1.19-0.55-1.46,0c-0.11,0.21-0.18,0.43-0.15,0.67
					c0.05,0.48,0.36,0.89,0.89,0.89c0.52,0,0.83-0.41,0.89-0.89C193.12,270.09,193.04,269.88,192.94,269.66z"/>
				<path class="st24" d="M208.05,263.58c-0.02-0.54-0.41-0.89-0.93-0.93c-0.16-0.01-0.31,0.04-0.46,0.09
					c-0.75,0.29-0.78,1.18-0.13,1.54c0.17,0.15,0.39,0.21,0.61,0.22c0.48,0.02,0.92-0.42,0.91-0.91L208.05,263.58z"/>
				<path class="st24" d="M216.14,244.42c-0.08-0.41-0.42-0.82-0.79-1.02c-0.28-0.15-0.56-0.05-0.74,0.19
					c-0.15,0.21-0.14,0.44-0.11,0.68c0-0.01,0-0.02-0.01-0.03c0,0.09,0.01,0.19,0.03,0.28c0.01,0.03,0.01,0.05,0.01,0.06
					c0,0.01,0,0.02,0,0.04c-0.01,0.45,0.38,0.81,0.81,0.81C215.91,245.45,216.25,244.94,216.14,244.42z"/>
				<path class="st24" d="M211.69,230.2c-0.23-0.02-0.45,0.01-0.66,0.13c-0.48,0.29-0.61,1-0.18,1.4c0.11,0.11,0.24,0.21,0.39,0.23
					c0.09,0.01,0.18,0.03,0.27,0.04c0.04-0.01,0.08-0.01,0.12-0.02c-0.02,0-0.01,0,0.06,0c0.49-0.03,0.89-0.38,0.89-0.89
					C212.58,230.58,212.18,230.22,211.69,230.2z"/>
				<path class="st24" d="M219.82,272.79c-0.07-0.16-0.17-0.27-0.32-0.37c-0.18-0.12-0.46-0.12-0.64,0
					c-0.15,0.1-0.25,0.21-0.32,0.37c-0.22,0.5,0.03,1.12,0.64,1.12C219.79,273.9,220.04,273.28,219.82,272.79z"/>
				<path class="st24" d="M222.65,253.58c0-0.03-0.01-0.04-0.01-0.05c-0.01-0.07-0.02-0.13-0.05-0.19
					c-0.19-0.49-0.64-0.69-1.12-0.49c-0.21,0.04-0.4,0.11-0.56,0.28c-0.12,0.13-0.25,0.25-0.38,0.37c-0.43,0.39-0.4,1.11,0,1.51
					c0.4,0.39,1.12,0.43,1.51,0c0.18-0.2,0.34-0.4,0.5-0.61C222.72,254.15,222.69,253.84,222.65,253.58z"/>
				<path class="st24" d="M241.61,257.52c-1.24,0-1.24,1.92,0,1.92C242.85,259.43,242.85,257.52,241.61,257.52z"/>
				<path class="st24" d="M243.03,237.68c-0.97,0-0.97,1.51,0,1.51C244,239.18,244,237.68,243.03,237.68z"/>
				<path class="st24" d="M228.63,235.97c-0.98,0-0.98,1.52,0,1.52C229.61,237.5,229.61,235.97,228.63,235.97z"/>
				<path class="st24" d="M255.28,223.48c-0.06-0.07-0.12-0.15-0.18-0.22c-0.38-0.47-1.16-0.39-1.55,0c-0.39,0.39-0.47,1.18,0,1.55
					c0.07,0.06,0.15,0.12,0.22,0.18c0.45,0.36,1.08,0.44,1.52,0C255.72,224.55,255.64,223.93,255.28,223.48z"/>
				<path class="st24" d="M261.38,245.25c-0.72,0-1.23,0.7-1.05,1.38c0.06,0.23,0.15,0.46,0.34,0.62c0.44,0.38,1,0.38,1.43,0
					c0.18-0.16,0.28-0.39,0.34-0.62C262.61,245.94,262.09,245.25,261.38,245.25z"/>
				<path class="st24" d="M260.79,270.37c0.12,0.13,0.07,0.1-0.15-0.1c-0.1-0.08-0.21-0.13-0.34-0.16c-0.2-0.04-0.41-0.09-0.61-0.07
					c-0.62,0.06-1.14,0.47-1.14,1.14c0,0.67,0.52,1.08,1.14,1.14c0.21,0.02,0.41-0.02,0.61-0.07c0.13-0.03,0.24-0.08,0.34-0.16
					c0.23-0.2,0.28-0.23,0.15-0.1C261.41,271.72,261.41,270.64,260.79,270.37z"/>
				<path class="st24" d="M285.42,273.37c-0.3-0.88-1.5-0.88-1.79,0c-0.1,0.3-0.08,0.59-0.03,0.9c0.16,0.92,1.7,0.92,1.85,0
					C285.5,273.95,285.52,273.67,285.42,273.37z"/>
				<path class="st24" d="M275.07,243.24c-0.05-0.29-0.12-0.57-0.35-0.79c0.13,0.13-0.24-0.24-0.25-0.25
					c-0.13-0.06-0.24-0.11-0.39-0.11c-0.15,0-0.26,0.05-0.39,0.11c0,0-0.38,0.37-0.25,0.25c-0.23,0.21-0.29,0.5-0.35,0.79
					c-0.12,0.64,0.27,1.29,0.98,1.29C274.79,244.54,275.18,243.89,275.07,243.24z"/>
				<path class="st24" d="M268.13,224.36c-0.11-0.4-0.53-0.78-0.97-0.74c-0.65,0.06-1.29,0.44-1.29,1.18c0,0.76,0.72,1.21,1.43,1.04
					c0.31-0.08,0.53-0.32,0.64-0.6C268.13,224.99,268.23,224.7,268.13,224.36z"/>
				<path class="st24" d="M289.32,242.01c-0.09-0.11-0.2-0.16-0.33-0.21c-0.02-0.02-0.05-0.04-0.08-0.06
					c-0.08-0.04-0.16-0.07-0.24-0.1c-0.02-0.01-0.14-0.05-0.17-0.05c-0.01-0.01-0.03-0.03-0.04-0.04c-0.71-0.72-1.84,0.44-1.1,1.09
					c0.25,0.21,0.51,0.38,0.84,0.43c0.23,0.04,0.49,0.06,0.7-0.07c0.02-0.01,0.02-0.02,0.03-0.02c0.01,0,0.03-0.01,0.07-0.02
					c0.12-0.04,0.22-0.1,0.31-0.2C289.52,242.53,289.52,242.25,289.32,242.01z"/>
				<path class="st24" d="M295.68,256.39c-0.25-0.28-0.62-0.35-0.98-0.35c-0.56,0-1.03,0.47-1.03,1.03c0,0.5,0.37,0.92,0.85,1.01
					c0.38,0.19,0.89,0.21,1.17-0.16c0.18-0.23,0.32-0.44,0.32-0.75C295.99,256.88,295.87,256.61,295.68,256.39z"/>
				<path class="st24" d="M298.38,278.53c-0.29-0.13-0.55-0.23-0.87-0.21c-0.58,0.03-1.06,0.46-1.06,1.06c0,0.6,0.48,1.03,1.06,1.06
					c0.05,0.01,0.1,0.01,0.15,0c0.05-0.01,0.1-0.01,0.16-0.02c0.01,0,0.03,0,0.05,0c0.21-0.01,0.36-0.07,0.51-0.16
					c0.22-0.09,0.4-0.25,0.45-0.51c0.02-0.11,0.06-0.22,0.05-0.34C298.87,279.07,298.71,278.68,298.38,278.53z"/>
				<path class="st24" d="M310.22,265.44c-0.52,0-0.95,0.43-0.95,0.95c0,0.52,0.43,0.95,0.95,0.95c0.52,0,0.95-0.43,0.95-0.95
					C311.17,265.87,310.74,265.44,310.22,265.44z"/>
				<path class="st24" d="M303.27,248.7c-0.01-0.1-0.04-0.19-0.08-0.28c-0.07-0.55-0.61-0.98-1.15-0.98c-0.76,0-1.32,0.74-1.12,1.47
					c0.11,0.4,0.35,0.72,0.71,0.92c0.26,0.14,0.57,0.19,0.86,0.11c0.3,0.01,0.61-0.2,0.75-0.45
					C303.38,249.24,303.37,248.96,303.27,248.7z"/>
				<path class="st24" d="M191.98,260.24c-0.13-0.9-1.68-0.9-1.81,0c-0.04,0.26-0.02,0.48,0.04,0.73c0.21,0.86,1.53,0.86,1.74,0
					C192,260.72,192.02,260.5,191.98,260.24z"/>
				<path class="st24" d="M221.5,263.33c-0.52-0.11-1.04,0.23-1.04,0.79c0,0.56,0.52,0.9,1.04,0.79c0.39-0.08,1.07-0.29,1.07-0.79
					C222.58,263.62,221.9,263.41,221.5,263.33z"/>
				<path class="st24" d="M244.31,267.23c0-0.29-0.1-0.54-0.27-0.74c-0.22-0.29-0.56-0.49-0.94-0.46c-0.03,0-0.05-0.01-0.08-0.01
					c-0.14-0.01-0.28,0.02-0.41,0.06c-0.56,0.12-0.99,0.53-0.99,1.15c0,0.62,0.44,1.03,0.99,1.15c0.13,0.05,0.27,0.07,0.41,0.06
					c0.03,0,0.05,0,0.08-0.01c0.38,0.03,0.71-0.17,0.94-0.46C244.2,267.77,244.31,267.52,244.31,267.23z"/>
				<path class="st24" d="M237.47,220.28c-0.24-0.26-0.61-0.37-0.96-0.29c-0.07,0.02-0.14,0.04-0.21,0.05
					c-0.87,0.21-0.87,1.54,0,1.76c0.07,0.02,0.14,0.04,0.21,0.05c0.35,0.09,0.72-0.03,0.96-0.29
					C237.86,221.26,237.86,220.6,237.47,220.28z"/>
				<path class="st24" d="M255.77,213.47c-0.07,0.05-0.15,0.1-0.22,0.15c-0.49,0.34-0.64,1.02-0.19,1.47
					c0.45,0.45,1.13,0.3,1.47-0.19c0.05-0.07,0.1-0.15,0.15-0.22C257.47,213.96,256.49,212.98,255.77,213.47z"/>
				<path class="st24" d="M261.9,257.28c-0.07,0.02-0.13,0.04-0.19,0.06c-0.85,0.27-0.85,1.44,0,1.71c0.06,0.02,0.13,0.04,0.19,0.06
					C263.43,259.6,263.43,256.79,261.9,257.28z"/>
			</g>
		</g>
	</g>
	<g>
		<path class="st6" d="M1.32,282.93c15.29,4.01,31.02,3.21,46.59,1.65c7.76-0.77,15.5-1.7,23.28-2.2c8.24-0.53,16.54-0.5,24.79-0.75
			c33.48-0.99,66.97-2.31,100.46-1.69c16.36,0.3,32.68,1.73,49.02,2.49c8.17,0.38,16.42,0.83,24.61,0.62
			c8.2-0.21,16.41-0.72,24.61-1.12c16.53-0.83,33.02-2.01,49.51-3.46c8.12-0.71,16.28-1.01,24.43-0.85
			c8.22,0.15,16.35,1.14,24.55,1.58c16.28,0.87,32.52,2.32,48.74,3.9c8.02,0.78,15.83,1.34,23.9,0.89
			c8.18-0.45,16.32-1.45,24.51-1.86c4.15-0.21,8.29-0.22,12.44,0.02c2.57,0.15,2.93-3.84,0.35-3.98
			c-16.23-0.93-32.3,2.57-48.52,2.04c-8.08-0.26-16.21-1.48-24.26-2.22c-8.15-0.75-16.3-1.43-24.46-2
			c-16.09-1.13-32.19-2.78-48.34-2.28c-16.2,0.5-32.36,2.52-48.54,3.47c-16.48,0.98-33.06,2.17-49.57,1.77
			c-16.48-0.4-32.92-1.63-49.37-2.49c-33.08-1.73-66.35-0.26-99.43,0.76c-15.97,0.49-32.04,0.37-47.96,1.85
			c-15.94,1.48-31.98,4-48.01,2.28c-4.04-0.43-8.03-1.15-11.96-2.18C0.2,278.51-1.17,282.27,1.32,282.93L1.32,282.93z"/>
		<g>
			<path class="st6" d="M61.9,325.63c-0.26-0.34-0.53-0.68-0.79-1.03c-0.52-0.52-1.13-0.9-1.81-1.15c-0.24-0.11-0.48-0.21-0.73-0.26
				c-1.07-0.22-1.82-0.25-2.88,0.04c-1.72,0.47-3.1,1.86-3.58,3.58c-0.24,0.91-0.24,1.81,0,2.72c0.38,1.38,1.23,2.25,2.35,3.06
				c1.13,0.82,3.09,1.05,4.4,0.5c0.86-0.24,1.61-0.68,2.24-1.31c0.95-0.95,1.49-2.25,1.49-3.59
				C62.59,327.27,62.36,326.42,61.9,325.63z"/>
			<path class="st6" d="M69.03,296.26c-0.74-1.26-2.11-2.05-3.58-2.05c-1.46,0-2.84,0.79-3.58,2.05c-0.7,1.2-0.83,2.99,0,4.18
				c0.09,0.13,0.18,0.26,0.27,0.39c0.79,1.13,1.87,1.9,3.31,1.9c1.43,0,2.52-0.76,3.31-1.9c0.09-0.13,0.18-0.26,0.27-0.39
				C69.86,299.25,69.74,297.46,69.03,296.26z"/>
			<path class="st6" d="M112.09,333c-3.77,0-6.91,3.14-6.91,6.91c0,3.77,3.14,6.91,6.91,6.91c3.77,0,6.91-3.15,6.91-6.91
				C119,336.15,115.86,333.01,112.09,333z"/>
			<path class="st6" d="M113.74,295.15c-2.6-0.72-5.54,0.43-6.88,2.8c-0.54,0.96-0.89,1.95-0.89,3.08c0,1.57,0.73,3.19,1.84,4.31
				c1.54,1.54,3.83,2.14,5.93,1.57c2.61-0.72,4.47-3.17,4.47-5.87C118.22,298.31,116.36,295.86,113.74,295.15z"/>
			<path class="st6" d="M190.12,359.68c-2.92,0-5.35,2.43-5.35,5.35c0,2.92,2.43,5.35,5.35,5.35c2.92,0,5.35-2.43,5.35-5.35
				C195.47,362.11,193.03,359.68,190.12,359.68z"/>
			<path class="st6" d="M207.07,302.15c-0.09-0.24-0.19-0.49-0.28-0.73c-0.26-0.94-0.74-1.75-1.42-2.44
				c-1.03-1.03-2.45-1.62-3.91-1.62c-1,0-1.93,0.26-2.79,0.76l-1.12,0.86c-0.69,0.69-1.16,1.5-1.42,2.44
				c-0.09,0.24-0.19,0.49-0.28,0.73c-0.53,1.39-0.14,3.25,0.59,4.48c1.04,1.77,2.97,2.88,5.03,2.88c1.54,0,3.03-0.62,4.12-1.7
				c0.72-0.73,1.22-1.58,1.5-2.57C207.35,304.21,207.35,303.18,207.07,302.15z"/>
			<path class="st6" d="M161.95,317.34c-0.04-0.08-0.09-0.16-0.13-0.25c-0.94-1.79-3.05-2.88-5.02-2.88c-2.11,0-3.92,1.13-5.02,2.88
				c-0.05,0.08-0.1,0.16-0.14,0.25c-1.04,1.88-1.1,4.15,0,6.03c1.06,1.82,3.05,2.96,5.16,2.96c2.11,0,4.1-1.14,5.16-2.96
				C163.05,321.49,162.98,319.23,161.95,317.34z"/>
			<path class="st6" d="M262.05,337.95c-3.39,0-6.21,2.83-6.21,6.21c0,3.39,2.82,6.21,6.21,6.21c3.39,0,6.21-2.82,6.21-6.21
				C268.26,340.78,265.44,337.95,262.05,337.95z"/>
			<path class="st6" d="M274.64,301.92c-0.04-0.33-0.08-0.65-0.17-0.97c-0.19-0.7-0.45-1.2-0.77-1.68l0,0c0,0,0-0.01,0-0.01
				c-0.08-0.11-0.16-0.22-0.24-0.34c-0.35-0.5-0.7-0.99-1.14-1.42c-2.31-2.28-6.09-2.29-8.4,0c-1.78,1.77-2.53,4.42-1.86,6.87
				c0.45,1.64,1.56,3.04,3.01,3.92c0.51,0.31,1.44,0.65,1.75,0.76c1.12,0.4,2.72,0.46,3.84,0.02c0.97-0.27,1.82-0.76,2.53-1.48
				c1.01-1.01,1.78-2.6,1.68-4.06C274.84,302.97,274.75,302.45,274.64,301.92z"/>
			<path class="st6" d="M314.6,331.27c-2.02-3.46-6.92-4.09-9.75-1.26c-2.83,2.83-2.2,7.73,1.26,9.75c1.43,0.84,3.18,1.07,4.79,0.63
				c1.05-0.29,1.97-0.83,2.74-1.6c0.77-0.78,1.3-1.69,1.6-2.74c0.08-0.54,0.22-1.3,0.22-1.65
				C315.45,333.32,315.15,332.2,314.6,331.27z"/>
			<path class="st6" d="M355.03,302.07c-0.22-0.77-0.58-1.46-1.08-2.07c-0.16-0.22-0.33-0.45-0.62-0.77
				c-0.45-0.51-1.03-0.86-1.6-1.21c-2.2-1.39-5.25-0.89-7.05,0.91c-0.72,0.73-1.22,1.58-1.5,2.57c-0.38,1.38-0.29,3.28,0.59,4.48
				c0.33,0.45,0.67,0.89,1.02,1.33c0.76,0.9,1.65,1.23,2.71,1.65c0.65,0.25,1.4,0.33,2.1,0.25c1.02,0,1.97-0.26,2.84-0.77
				c0.85-0.5,1.52-1.17,2.02-2.02c0.51-0.88,0.77-1.83,0.77-2.84C355.16,303.07,355.09,302.57,355.03,302.07z"/>
			<path class="st6" d="M368.59,339.95c-0.6,0-1.21,0.14-1.81,0.24c-0.85,0.24-1.59,0.67-2.22,1.3c-0.94,0.94-1.48,2.23-1.48,3.56
				c0,0.91,0.23,1.76,0.69,2.54c0.61,1.04,1.78,2.11,3.01,2.32c0.6,0.1,1.2,0.24,1.81,0.24c2.78,0,5.1-2.32,5.1-5.1
				C373.69,342.27,371.37,339.95,368.59,339.95z"/>
			<path class="st6" d="M428.22,293.03c-0.25-0.06-0.5-0.11-0.75-0.2c-1.65-0.63-3.75,0.12-4.94,1.31
				c-0.63,0.63-1.06,1.38-1.31,2.24c-0.39,1.42-0.08,2.62,0.51,3.91c0.3,0.64,0.77,1.22,1.25,1.73c1.94,2.06,5.67,2.12,7.61,0
				c0.64-0.7,1.15-1.45,1.38-2.37C432.68,296.88,431.12,293.72,428.22,293.03z"/>
			<path class="st6" d="M422.46,339.1c-1.22-1.22-2.87-1.55-4.52-1.2c-0.29,0.06-0.57,0.12-0.86,0.19c-1.92,0.42-3.27,2.4-3.27,4.29
				c0,1.9,1.35,3.88,3.27,4.29c0.29,0.06,0.57,0.13,0.86,0.19c1.25,0.27,2.46,0.19,3.58-0.47c1.41-0.83,2.3-2.37,2.3-4.01
				C423.82,341.15,423.33,339.96,422.46,339.1z"/>
			<circle class="st6" cx="393.19" cy="306.2" r="4.38"/>
			<path class="st6" d="M485.23,296.74c-1.79-1.57-4.2-2.72-6.63-1.89c-0.97,0.27-1.82,0.77-2.53,1.48
				c-1.07,1.07-1.68,2.54-1.68,4.06c0,1.04,0.26,2,0.78,2.9c0.79,1.35,1.98,2.14,3.43,2.64c2.43,0.84,4.84-0.31,6.63-1.89
				C487.25,302.27,487.25,298.52,485.23,296.74z"/>
			<path class="st6" d="M491.53,359.41c0-1.19-0.3-2.29-0.9-3.31c-0.34-0.44-0.68-0.89-1.03-1.33c-0.82-0.81-1.78-1.38-2.9-1.69
				c-0.66-0.09-1.31-0.26-1.98-0.25c-1.62,0.03-2.06,0.34-3.53,0.96c-0.57,0.24-1.04,0.72-1.49,1.16c-1.28,1.24-2.02,3.05-2.02,4.82
				c0,1.19,0.34,2.43,0.94,3.46c0.7,1.2,1.34,1.64,2.44,2.44c0.85,0.61,2.21,0.91,3.24,0.91c0.72,0,1.26-0.11,1.79-0.28l-0.05,0.02
				c0.1-0.04,0.21-0.08,0.31-0.11c0.01,0,0.02-0.01,0.03-0.01c0.49-0.17,0.98-0.34,1.41-0.62c0.68-0.4,1.25-0.9,1.74-1.48
				C490.77,362.89,491.53,361.22,491.53,359.41z"/>
			<path class="st6" d="M449.32,355.92c-0.1-0.15-0.17-0.32-0.26-0.48c-0.44-0.79-1.35-1.75-2.18-2.12
				c-0.41-0.17-0.82-0.35-1.23-0.52c-0.91-0.25-1.83-0.25-2.74,0c-1.73,0.48-3.12,1.87-3.6,3.6c-0.87,3.16,1.53,6.26,4.57,6.51
				c0.02,0,0.03,0.01,0.05,0.02c1.64,0.46,3.45-0.03,4.65-1.23C450.02,360.27,450.52,357.68,449.32,355.92z"/>
			<path class="st6" d="M9.75,300.06c-0.78-0.78-1.85-1.22-2.96-1.22c-1.1,0-2.18,0.44-2.96,1.22c-0.83,0.83-1.13,1.81-1.22,2.95
				c-0.05,0.54,0.02,1.02,0.14,1.58c0.39,1.81,2.26,3.08,4.04,3.08c1.79,0,3.65-1.27,4.04-3.08c0.12-0.56,0.18-1.04,0.14-1.58
				C10.87,301.87,10.58,300.89,9.75,300.06z"/>
			<path class="st6" d="M25.76,357.94c-8.26,0-8.26,12.81,0,12.81C34.02,370.75,34.02,357.94,25.76,357.94z"/>
			<path class="st6" d="M146.78,357.83c-3.19,0-5.86,2.67-5.86,5.86c0,3.2,2.66,5.86,5.86,5.86c3.19,0,5.86-2.66,5.86-5.86
				C152.64,360.5,149.98,357.83,146.78,357.83z"/>
			<path class="st6" d="M77.65,358.41c-2.87,0-5.27,2.4-5.27,5.27c0,2.88,2.4,5.27,5.27,5.27c2.87,0,5.27-2.4,5.27-5.27
				C82.92,360.81,80.52,358.41,77.65,358.41z"/>
			<path class="st6" d="M329.95,362.25c-0.63-2.28-2.76-3.9-5.12-3.9c-1.87,0-3.64,1.02-4.59,2.63c-0.48,0.83-0.72,1.72-0.73,2.68
				l0.19,1.41c0.25,0.9,0.71,1.68,1.37,2.34c0.04,0.05,0.09,0.11,0.13,0.16c0.82,1,2.39,1.5,3.63,1.5c1.24,0,2.81-0.5,3.63-1.5
				c0.04-0.05,0.09-0.11,0.13-0.16c0.66-0.66,1.11-1.44,1.37-2.34C330.2,364.13,330.2,363.19,329.95,362.25z"/>
			<path class="st6" d="M27.78,318.01c-6.45,0-6.45,10,0,10C34.23,328.01,34.23,318.01,27.78,318.01z"/>
			<path class="st6" d="M399.5,361.49c-0.39-0.66-0.92-1.19-1.58-1.58c-1.31-0.94-2.82-1.12-4.38-0.71
				c-2.01,0.53-3.44,2.45-3.44,4.52c0,2.07,1.43,3.99,3.44,4.52c1.56,0.41,3.07,0.23,4.38-0.71c0.66-0.39,1.19-0.92,1.58-1.58
				c0.4-0.69,0.6-1.43,0.6-2.23C400.1,362.92,399.9,362.18,399.5,361.49z"/>
			<path class="st6" d="M471.78,323.03c-0.94-0.55-1.96-0.82-3.05-0.83c-1.09,0-2.11,0.28-3.05,0.83c-0.1,0.08-0.2,0.15-0.3,0.23
				c-0.87,0.51-1.56,1.2-2.07,2.07c-0.52,0.9-0.79,1.87-0.79,2.92c0,1.04,0.27,2.02,0.79,2.92c0.51,0.87,1.21,1.56,2.07,2.07
				c0.1,0.08,0.2,0.15,0.3,0.23c0.94,0.55,1.96,0.82,3.05,0.83c1.09,0,2.11-0.28,3.05-0.83c1.84-1.08,2.99-3.09,3-5.22
				C474.77,326.11,473.62,324.1,471.78,323.03z"/>
			<path class="st6" d="M220.79,331.04c-8.16,0-8.16,12.66,0,12.66C228.95,343.7,228.95,331.04,220.79,331.04z"/>
			<path class="st6" d="M238.78,359.33c-6.5,0-6.5,10.08,0,10.08C245.28,369.41,245.28,359.33,238.78,359.33z"/>
			<circle class="st6" cx="293.45" cy="365.04" r="5.12"/>
			<path class="st6" d="M500.52,323.68c-0.6-0.59-1.3-1.01-2.11-1.23c-0.85-0.23-1.7-0.23-2.55,0l-0.32,0.06
				c-2.04,0.39-3.47,2.59-3.47,4.56c0,1.97,1.43,4.17,3.47,4.56l0.32,0.06c1.31,0.25,2.51,0.21,3.69-0.48
				c1.46-0.85,2.37-2.45,2.37-4.14C501.92,325.8,501.41,324.57,500.52,323.68z"/>
			<path class="st6" d="M6.79,338.16c-7.71,0-7.71,11.95,0,11.95C14.49,350.11,14.5,338.16,6.79,338.16z"/>
		</g>
	</g>
</g>
</svg>
