<svg width='150px' height='150px' version="1.1" id="Layer_1" xmlns="http://www.w3.org/2000/svg" xmlns:xlink="http://www.w3.org/1999/xlink" x="0px" y="0px"
	 viewBox="0 0 503.3 557.57" style="enable-background:new 0 0 503.3 557.57;" xml:space="preserve">
<style type="text/css">
	.st0{fill:#73724E;}
	.st1{fill:#7D7B54;}
	.st2{fill:#75744F;}
	.st3{fill:#6E6D4A;}
	.st4{fill:#5F5E40;}
	.st5{fill:#D9C09A;}
	.st6{fill:#79492D;}
	.st7{fill:#FFFFFF;}
	.st8{fill:#C6862B;}
	.st9{fill:#BC802B;}
	.st10{fill:#D28E29;}
	.st11{fill:#2E1C12;}
	.st12{fill:#4E7D75;}
	.st13{fill:#558980;}
	.st14{fill:#613B24;}
	.st15{fill:#DCAA88;}
	.st16{fill:#DD9F75;}
	.st17{fill:#B13A25;}
	.st18{fill:#AD772A;}
	.st19{fill:#936627;}
	.st20{fill:#BE812B;}
	.st21{fill:#812B1B;}
	.st22{fill:#A03422;}
	.st23{fill:#C1832B;}
	.st24{fill:#F8E8D3;}
	.st25{fill:#3C615B;}
	.st26{fill:#B09B7D;}
	.st27{fill:#676545;}
	.st28{fill:#3D2D22;}
	.st29{fill:#523C2E;}
	.st30{fill:#872D1D;}
	.st31{fill:#9B3321;}
	.st32{fill:#943120;}
	.st33{fill:#CF8229;}
	.st34{fill:#453327;}
	.st35{fill:#AF782B;}
	.st36{fill:#963220;}
	.st37{fill:#B17029;}
	.st38{fill:#BCA786;}
	.st39{fill:#456E67;}
	.st40{fill:#696746;}
	.st41{fill:#45442F;}
	.st42{fill:#5A593D;}
	.st43{fill:#6B6A48;}
	.st44{fill:#5C3823;}
	.st45{fill:#C7B08D;}
	.st46{fill:#D1AE79;}
	.st47{fill:#C79F66;}
	.st48{fill:#A59175;}
	.st49{fill:#AA9679;}
	.st50{fill:#C87B29;}
	.st51{fill:#D28929;}
	.st52{fill:#D08429;}
	.st53{fill:#986928;}
	.st54{fill:#C1822B;}
	.st55{fill:#956728;}
	.st56{fill:#AA742A;}
	.st57{fill:#892D1D;}
	.st58{fill:#DDC29E;}
	.st59{fill:#D5B688;}
	.st60{fill:#3E3C29;}
	.st61{fill:#CD7829;}
	.st62{fill:#716F40;}
	.st63{fill:#615F38;}
	.st64{fill:#8F2E1E;}
	.st65{fill:#D37829;}
	.st66{fill:#B26027;}
	.st67{fill:#706F4C;}
	.st68{fill:#8F2F1E;}
	.st69{fill:#C8842A;}
	.st70{fill:#E2B856;}
	.st71{fill:#DBA92F;}
	.st72{fill:#646343;}
	.st73{fill:#9F9D6B;}
	.st74{fill:#737147;}
	.st75{fill:#AB9679;}
	.st76{fill:#482B1B;}
	.st77{fill:#C3802A;}
	.st78{fill:#7E2919;}
	.st79{fill:#94311F;}
	.st80{fill:#BA7F2B;}
	.st81{fill:#9B6728;}
	.st82{fill:#B67D2B;}
	.st83{fill:#C6997B;}
	.st84{fill:#616042;}
	.st85{fill:#91301F;}
	.st86{fill:#983220;}
	.st87{fill:#A9A772;}
	.st88{fill:#BC7229;}
	.st89{fill:#C37B26;}
	.st90{fill:#6D6C49;}
	.st91{fill:#CF8924;}
	.st92{fill:#686746;}
	.st93{fill:#74734E;}
	.st94{fill:#696947;}
	.st95{fill:#F0E0C6;}
	.st96{fill:#4B7C77;}
	.st97{fill:#E9DABF;}
	.st98{fill:#D1A283;}
	.st99{fill:#C99D7E;}
	.st100{fill:#885336;}
	.st101{fill:#BF8124;}
	.st102{fill:#633A22;}
	.st103{fill:#CCB58F;}
	.st104{fill:#B69D7B;}
	.st105{fill:#D4BF88;}
	.st106{fill:#616141;}
	.st107{fill:#9B321E;}
	.st108{fill:#72714C;}
	.st109{fill:#852915;}
	.st110{fill:#C7422C;}
	.st111{fill:#6A6A47;}
	.st112{fill:#714329;}
	.st113{fill:#5E371E;}
	.st114{fill:#646443;}
	.st115{fill:#CEA080;}
	.st116{fill:#A73622;}
	.st117{fill:#C6B18E;}
	.st118{fill:#4E8077;}
	.st119{fill:#BDA481;}
	.st120{fill:#5B5B3C;}
	.st121{fill:#A23420;}
	.st122{fill:#99311D;}
	.st123{fill:#7E2510;}
	.st124{fill:#912E1A;}
	.st125{fill:#5F1400;}
	.st126{fill:#A0341F;}
	.st127{fill:#832814;}
	.st128{fill:#942F1B;}
	.st129{fill:#DDAA24;}
	.st130{fill:#D59821;}
	.st131{fill:#CA8128;}
	.st132{fill:#4B7B72;}
	.st133{fill:#52847C;}
	.st134{fill:#98301C;}
	.st135{fill:#D29E7C;}
	.st136{fill:#D5A17F;}
	.st137{fill:#C98623;}
	.st138{fill:#D09F81;}
	.st139{fill:#C88C78;}
	.st140{fill:#D2B993;}
	.st141{fill:#666644;}
	.st142{fill:#D49979;}
	.st143{fill:#636342;}
	.st144{fill:#C89B7D;}
	.st145{fill:#A58067;}
	.st146{fill:#3F2717;}
	.st147{fill:#4A2D1C;}
	.st148{fill:#912F1F;}
	.st149{fill:#C87F29;}
	.st150{fill:#573521;}
	.st151{fill:#5E3923;}
	.st152{fill:#646244;}
	.st153{fill:#CD852A;}
	.st154{fill:#BC7C2A;}
	.st155{fill:#6C4128;}
	.st156{fill:#9E3422;}
	.st157{fill:#A83724;}
	.st158{fill:#B83926;}
	.st159{fill:#9D6B29;}
	.st160{fill:#663E26;}
	.st161{fill:#DAB57E;}
	.st162{fill:#DAAB62;}
	.st163{fill:#D9BB8F;}
	.st164{fill:#DAB06F;}
	.st165{fill:#D9BA8A;}
	.st166{fill:#59583D;}
	.st167{fill:#E6992E;}
	.st168{fill:#C5822A;}
	.st169{fill:#C1732E;}
	.st170{fill:#4B4932;}
	.st171{fill:#CB7D29;}
	.st172{fill:#812C1B;}
	.st173{fill:#A63723;}
	.st174{fill:#D2A454;}
	.st175{fill:#606040;}
	.st176{fill:#C2A884;}
	.st177{fill:#CB977D;}
	.st178{fill:#C28C76;}
	.st179{fill:#D1B38D;}
	.st180{fill:#231F20;}
	.st181{fill:#CB8927;}
	.st182{fill:#613920;}
	.st183{fill:#9C321E;}
	.st184{fill:#9E331F;}
</style>
<g>
	<g>
		<path class="st1" d="M503,280.97c-0.9-2.39-3.55-2.89-5.63-3.83c-7.76-3.52-15.09-8.35-22.55-12.49c-3.21-1.78-5.9-4.41-8.7-6.76
			c-3.35-2.81-6.7-5.64-10.04-8.47c-12.73-10.78-25.39-21.63-38.15-32.37c-22.83-19.24-45.91-38.18-68.83-57.3
			c-6.12-5.11-12.25-10.22-18.38-15.32c0,0-0.01,0-0.01-0.01c-37.97-31.6-75.85-63.32-114.16-94.5
			c-5.13-4.18-10.26-8.36-15.38-12.56c-5.09-4.17-10.91-8.12-15.11-13.2c-4.11-4.98-8.26-9.93-12.38-14.91
			c-1.71-2.07-3.3-4.15-4.77-6.38c-1.08-1.63-2.48-3-4.58-2.85c-4.3,0.32-7.03,4.89-7.24,8.74c-0.22,3.94-4.12,7.36-6.96,9.73
			c-3.74,3.12-8.12,4.98-10.68,9.38c-1.13,1.94-1.41,4.14-2.38,6.13c-0.55,1.12-1.37,2.42-2.44,3.1c-0.92,0.58-2.02,0.59-2.99,1.05
			c-4.31,2.05-5.17,6.85-6.72,10.8c-1.52,3.89-5.68,3.44-8.43,6.11c-2.13,2.08-4.24,5.09-5.01,8.01c-0.6,2.28-0.78,4.31-2.61,6.01
			c-1.66,1.55-3.71,1.79-5.66,2.76c-4.26,2.11-7.04,6.14-7.62,10.8c-0.31,2.56-1.27,5.22-3.72,6.52c-1.98,1.04-4.05,0.68-5.91,2.22
			c-1.73,1.43-2.99,3.55-3.57,5.7c-0.61,2.25-0.32,4.65-2.11,6.44c-1.29,1.3-3.06,1.61-4.68,2.3c-2.21,0.95-4.12,2.66-5.38,4.7
			c-1.07,1.74-1.24,3.56-1.81,5.45c-0.64,2.11-1.96,4.17-3.43,5.8c-1.26,1.39-2.18,1.93-3.95,2.17c-1.46,0.2-2.58,1.04-3.54,2.1
			c-2.34,2.57-3.55,5.95-5.4,8.85c-0.94,1.48-1.52,1.89-3.07,2.61c-2.19,1.01-4.03,2.79-5.21,4.88c-2.11,3.72-0.93,8.51-5.64,10.36
			c-4.04,1.58-8.66,3.8-8.9,8.86c-0.12,2.52-0.23,4.21-2.3,6c-2.02,1.75-4.75,1.83-6.96,3.27c-3.02,1.97-7.31,7.16-6.07,11.1
			c0.71,2.26,2.17,4.49,3.1,6.69c1.08,2.54,2.08,5.11,3.04,7.7c1.5,4.03,2.82,8.13,4.36,12.14c4.27,11.12,8.52,22.06,11.81,33.52
			c3.42,11.9,6.19,23.98,9.47,35.91c3.09,11.2,6.02,22.43,7.99,33.9c1.03,5.97,1.81,11.98,2.4,18.02c0.08,0.78,0.5,1.26,1.04,1.47
			c23.41,19.33,46.67,38.83,70.01,58.25c0,0,0.01,0.01,0.01,0.01c23.17,19.28,46.42,38.47,69.52,57.84
			c12.67,10.63,25.49,21.08,38.32,31.52c6.33,5.15,12.67,10.31,18.99,15.48c6.29,5.14,13.32,9.97,18.51,16.25
			c2.63,3.17,5.28,6.33,7.9,9.5c2.62,3.18,5.56,6.27,7.81,9.73c1.11,1.71,2.08,3.68,4.3,4.07c2.71,0.48,5.39-1.7,6.81-3.81
			c0.71-1.06,1.27-2.3,1.45-3.57c0.14-1.04-0.06-1.98,0.3-3c0.89-2.56,3.19-4.83,5.11-6.63c4.37-4.09,10.21-6.24,12.89-11.97
			c1.25-2.67,1.45-6.31,4.2-8.05c0.93-0.58,2.02-0.59,2.99-1.05c1.32-0.63,2.4-1.75,3.28-2.89c1.82-2.34,2.32-4.88,3.31-7.58
			c1.07-2.91,2.63-3.25,5.27-4.25c3.83-1.46,6.88-5.96,8.15-9.74c0.84-2.5,0.81-4.81,2.99-6.69c1.99-1.72,4.71-1.96,6.87-3.39
			c2.42-1.6,4.42-3.95,5.47-6.67c1.28-3.3,0.48-6.92,3.7-9.33c2-1.5,4.6-1.02,6.63-2.7c2.3-1.9,3.45-4.65,3.9-7.52
			c0.46-2.91,1.3-4.87,4.13-6.07c2.63-1.12,4.93-1.97,6.8-4.27c1.85-2.27,1.89-4.72,2.95-7.27c1.04-2.5,3.05-5.04,5.25-6.62
			c1.47-1.05,3.28-1.13,4.72-2.31c1.76-1.44,2.93-3.49,3.99-5.45c0.94-1.75,1.76-4.12,3.21-5.52c0.69-0.67,1.46-0.79,2.32-1.23
			c1.46-0.74,2.75-1.84,3.78-3.11c1.71-2.12,2.16-4.36,2.68-6.94c0.65-3.27,2.58-4.47,5.58-5.51c2.73-0.95,5.17-2.76,6.52-5.38
			c1.27-2.48,0.2-5.21,1.82-7.54c1.98-2.86,5.1-2.82,7.84-4.43c2.66-1.57,4.74-4.13,5.88-6.99c0.86-2.15,0.66-4.55,1.7-6.63
			c1.35-2.72,3.68-3.24,6.14-4.52c3.62-1.88,7.67-5.98,8.28-10.14c0.42-2.88,0.83-4.38,3.57-5.89c2.71-1.49,5.19-2.71,7.15-5.23
			c0.74-0.96,1.36-2.05,1.61-3.24c0.27-1.27,0.1-2.29,0.81-3.48c1.8-3.02,5.64-3.74,8.12-6.02c4.31-3.95,5.38-9.82,8.58-14.52
			c1.34-1.97,3.11-4.59,5.35-5.64c0.94-0.44,1.97-0.41,2.93-0.79c1.44-0.57,2.7-1.59,3.68-2.78
			C502.7,285.82,503.86,283.24,503,280.97z"/>
		<g>
			<path class="st105" d="M497.37,277.13c2.08,0.95,4.73,1.45,5.63,3.84c0.86,2.27-0.31,4.84-1.75,6.6
				c-0.98,1.2-2.24,2.21-3.68,2.78c-0.97,0.39-2,0.36-2.93,0.79c-2.25,1.05-4.01,3.67-5.36,5.64c-3.21,4.71-4.27,10.57-8.58,14.52
				c-2.48,2.28-6.33,3-8.13,6.02c-0.71,1.2-0.54,2.21-0.81,3.48c-0.25,1.19-0.86,2.28-1.6,3.24c-1.96,2.53-4.45,3.74-7.15,5.23
				c-2.74,1.52-3.15,3.01-3.58,5.9c-0.61,4.16-4.66,8.26-8.28,10.14c-2.46,1.28-4.78,1.8-6.14,4.51c-1.04,2.09-0.83,4.48-1.69,6.63
				c-1.15,2.86-3.22,5.43-5.88,6.99c-2.74,1.61-5.86,1.58-7.84,4.44c-1.61,2.33-0.54,5.05-1.82,7.53c-1.34,2.62-3.78,4.43-6.51,5.39
				c-3,1.04-4.93,2.24-5.58,5.51c-0.51,2.58-0.96,4.83-2.68,6.94c-1.03,1.28-2.32,2.37-3.78,3.11c-0.86,0.44-1.63,0.57-2.32,1.23
				c-1.45,1.41-2.27,3.78-3.21,5.53c-1.06,1.97-2.23,4.02-3.99,5.45c-1.44,1.18-3.24,1.26-4.72,2.31c-2.2,1.58-4.21,4.12-5.25,6.62
				c-1.07,2.55-1.11,5-2.95,7.27c-1.87,2.3-4.17,3.16-6.8,4.27c-2.83,1.2-3.68,3.16-4.13,6.08c-0.45,2.87-1.6,5.62-3.9,7.52
				c-2.04,1.68-4.63,1.19-6.63,2.7c-3.22,2.41-2.43,6.03-3.71,9.33c-1.05,2.72-3.04,5.07-5.46,6.67c-2.17,1.43-4.89,1.67-6.88,3.39
				c-2.17,1.88-2.14,4.18-2.98,6.68c-1.27,3.78-4.32,8.28-8.15,9.74c-2.64,1.01-4.2,1.34-5.27,4.26c-0.99,2.7-1.49,5.24-3.31,7.58
				c-0.89,1.14-1.96,2.26-3.28,2.89c-0.98,0.47-2.07,0.47-3,1.06c-2.75,1.74-2.95,5.38-4.2,8.05c-2.68,5.72-8.52,7.87-12.89,11.96
				c-1.92,1.81-4.22,4.08-5.11,6.64c-0.36,1.01-0.16,1.95-0.3,3c-0.17,1.26-0.73,2.51-1.44,3.56c-1.42,2.12-4.1,4.29-6.81,3.81
				c-2.22-0.39-3.19-2.36-4.3-4.06c-2.26-3.46-5.19-6.55-7.82-9.73c-2.62-3.17-5.27-6.33-7.9-9.5c-0.36-0.44-0.73-0.87-1.12-1.29
				c24.88-30.84,55.27-68.41,77.28-94.04c7.75-8.93,15.47-17.88,23.16-26.85l2.55-3.06c7.42-9.2,14.82-18.42,22.19-27.66
				c22.28-27.61,52.04-63.36,77.67-93.46c0.19,0.12,0.38,0.23,0.57,0.34C482.28,268.78,489.61,273.61,497.37,277.13z"/>
			<path class="st105" d="M168.92,2.86c1.47,2.24,3.06,4.31,4.77,6.38c3.66,4.44,7.35,8.86,11.02,13.28
				c-24.45,31.22-52.93,69.91-75.46,96.17c-7.75,8.92-15.47,17.88-23.17,26.85l-2.54,3.05c-7.42,9.21-14.82,18.42-22.19,27.66
				c-8.24,10.22-21.39,27.92-32.83,42.89c-1.33-3.54-2.69-7.08-4.06-10.64c-1.54-4.01-2.86-8.11-4.35-12.14
				c-0.96-2.59-1.96-5.16-3.04-7.7c-0.94-2.2-2.4-4.42-3.11-6.69c-1.23-3.94,3.06-9.13,6.08-11.1c2.2-1.43,4.93-1.52,6.96-3.27
				c2.07-1.79,2.18-3.48,2.29-6c0.23-5.06,4.86-7.28,8.9-8.86c4.71-1.85,3.53-6.64,5.64-10.36c1.18-2.09,3.02-3.86,5.21-4.88
				c1.54-0.71,2.13-1.13,3.07-2.6c1.84-2.9,3.06-6.28,5.39-8.85c0.97-1.07,2.09-1.9,3.55-2.1c1.76-0.25,2.69-0.79,3.94-2.18
				c1.47-1.62,2.8-3.68,3.43-5.8c0.57-1.89,0.74-3.71,1.82-5.45c1.25-2.04,3.16-3.75,5.38-4.7c1.61-0.69,3.38-1,4.67-2.3
				c1.79-1.79,1.5-4.18,2.11-6.44c0.58-2.15,1.84-4.26,3.57-5.69c1.86-1.54,3.94-1.18,5.91-2.22c2.45-1.3,3.41-3.96,3.72-6.52
				c0.57-4.66,3.36-8.69,7.62-10.8c1.95-0.97,3.99-1.22,5.65-2.77c1.84-1.7,2.01-3.73,2.61-6.01c0.78-2.92,2.88-5.93,5.02-8.01
				c2.74-2.67,6.9-2.23,8.42-6.11c1.55-3.96,2.41-8.75,6.72-10.81c0.97-0.46,2.07-0.47,2.99-1.05c1.07-0.68,1.89-1.98,2.44-3.11
				c0.97-1.99,1.25-4.18,2.38-6.12c2.56-4.4,6.95-6.26,10.68-9.38c2.84-2.37,6.74-5.79,6.96-9.73c0.21-3.85,2.94-8.42,7.24-8.74
				C166.43-0.14,167.84,1.23,168.92,2.86z"/>
		</g>
		<g>
			<g>
				<path class="st106" d="M379.19,394.62c-2.12-1.3-4.19-2.67-6.13-4.22c-0.56-0.45-1.11-0.92-1.67-1.39c-0.43,0.5-0.87,1-1.3,1.51
					c0.55,0.46,1.1,0.93,1.66,1.38c2.04,1.63,4.2,3.09,6.42,4.45C379.28,397.03,380.29,395.3,379.19,394.62z"/>
				<path class="st106" d="M395.41,359.24c2.11,2.07,4.26,4.09,6.53,5.98c0.41,0.35,1.01,0.41,1.41,0c0.36-0.36,0.42-1.07,0-1.41
					c-2.32-1.94-4.52-4.01-6.68-6.13c-0.03,0.03-0.06,0.07-0.08,0.1C396.19,358.26,395.8,358.75,395.41,359.24z"/>
				<path class="st106" d="M418.89,331.58c0.72,0.58,1.44,1.17,2.15,1.77c0.44,0.38,0.9,0.75,1.28,1.18c0.36,0.41,1.05,0.37,1.41,0
					c0.4-0.4,0.36-1.01,0-1.41c-0.37-0.42-0.82-0.79-1.25-1.16c-0.72-0.61-1.45-1.21-2.18-1.8c-0.24-0.19-0.48-0.39-0.72-0.58
					c-0.42,0.51-0.84,1.02-1.26,1.54C418.51,331.27,418.7,331.43,418.89,331.58z"/>
				<path class="st106" d="M389.68,382.13c0.91,0.92,2.32-0.5,1.41-1.41c-2.38-2.4-4.74-4.81-7.22-7.1
					c-0.42,0.52-0.84,1.04-1.25,1.56C385.04,377.42,387.36,379.78,389.68,382.13z"/>
				<path class="st106" d="M414.05,350.65c0.42,0.35,1.01,0.41,1.41,0c0.35-0.35,0.42-1.07,0-1.41c-2.38-1.98-4.75-3.96-7.13-5.93
					c-0.42,0.52-0.84,1.03-1.26,1.54C409.4,346.78,411.72,348.72,414.05,350.65z"/>
				<path class="st106" d="M459.36,292.23c1.09,0.69,2.1-1.04,1.01-1.73c-1.8-1.13-3.58-2.29-5.31-3.51
					c-0.43,0.51-0.86,1.02-1.28,1.53C455.6,289.82,457.47,291.05,459.36,292.23z"/>
				<path class="st106" d="M444.42,306.91c0.47,0.27,1.1,0.11,1.37-0.36c0.27-0.47,0.11-1.09-0.36-1.37
					c-1.25-0.73-2.43-1.56-3.57-2.44c-0.43,0.51-0.85,1.02-1.28,1.53C441.81,305.23,443.08,306.13,444.42,306.91z"/>
				<path class="st106" d="M434.18,324.28c0.41,0.35,1.01,0.41,1.41,0c0.36-0.36,0.42-1.07,0-1.41c-2.06-1.72-4.13-3.44-6.19-5.15
					c-0.43,0.51-0.85,1.02-1.27,1.53C430.15,320.92,432.16,322.6,434.18,324.28z"/>
				<path class="st106" d="M359.28,407.24c2.12,1.63,4.1,3.42,6,5.31c0.91,0.91,2.33-0.5,1.41-1.41c-1.92-1.91-3.95-3.72-6.09-5.38
					c-0.73-0.56-1.47-1.12-2.21-1.67c-0.43,0.5-0.86,1-1.3,1.5C357.83,406.13,358.56,406.68,359.28,407.24z"/>
				<path class="st106" d="M282.02,507.14c0.91,0.92,2.32-0.5,1.41-1.41c-1.67-1.69-3.23-3.49-4.85-5.24
					c-0.42,0.53-0.85,1.05-1.27,1.57C278.88,503.75,280.4,505.5,282.02,507.14z"/>
				<path class="st106" d="M291.85,493.14c0.36,0.4,1.04,0.37,1.41,0c0.4-0.4,0.37-1.02,0-1.41c-1.34-1.46-2.71-2.91-4.12-4.3
					c-0.42,0.52-0.85,1.04-1.27,1.56C289.24,490.34,290.56,491.73,291.85,493.14z"/>
				<path class="st106" d="M472.55,278.57c1.07,0.72,2.07-1.01,1.01-1.73c-2.11-1.43-4.32-2.71-6.48-4.09
					c-0.43,0.51-0.86,1.01-1.29,1.52C468.03,275.72,470.34,277.07,472.55,278.57z"/>
				<path class="st106" d="M303.57,475.78c0.35,0.41,1.05,0.36,1.41,0c0.41-0.41,0.35-1,0-1.41c-0.89-1.04-1.87-1.99-2.88-2.91
					c-0.42,0.52-0.84,1.04-1.27,1.55C301.79,473.89,302.72,474.8,303.57,475.78z"/>
				<path class="st106" d="M341.26,438.14c0.42,0.34,1.01,0.41,1.41,0c0.35-0.35,0.42-1.07,0-1.41c-2.37-1.97-4.73-3.94-7.1-5.9
					c-0.42,0.5-0.85,1.02-1.28,1.53C336.61,434.28,338.93,436.21,341.26,438.14z"/>
				<path class="st106" d="M347.53,416.69c-0.43,0.5-0.86,1.01-1.3,1.52c2.44,1.71,4.85,3.47,7.14,5.37c0.42,0.34,1.01,0.41,1.41,0
					c0.35-0.35,0.42-1.07,0-1.41C352.45,420.23,350.01,418.43,347.53,416.69z"/>
				<path class="st106" d="M323.42,446.4c0.7,0.6,1.41,1.2,2.12,1.78c0.5,0.41,1.01,0.84,1.57,1.18c1.11,0.66,2.11-1.07,1.01-1.73
					c-0.2-0.12-0.39-0.26-0.58-0.41c-0.02-0.01-0.05-0.04-0.08-0.06c-0.05-0.04-0.1-0.07-0.14-0.11c-0.14-0.11-0.28-0.23-0.42-0.34
					c-0.72-0.59-1.43-1.19-2.14-1.8c-0.17-0.15-0.35-0.3-0.52-0.45c-0.42,0.51-0.85,1.02-1.27,1.54
					C323.11,446.14,323.26,446.27,323.42,446.4z"/>
				<path class="st106" d="M318.98,462.73c0.42,0.35,1.01,0.41,1.41,0c0.36-0.35,0.42-1.07,0-1.41c-1.98-1.65-3.97-3.3-5.96-4.96
					c-0.42,0.51-0.84,1.03-1.26,1.54C315.11,459.51,317.04,461.12,318.98,462.73z"/>
			</g>
			<g>
				<path class="st106" d="M68.17,162.42c-2.01-1.8-4.14-3.44-6.36-4.97c-0.45-0.31-1.11-0.08-1.37,0.36
					c-0.29,0.5-0.09,1.06,0.36,1.37c2.12,1.46,4.14,3.03,6.06,4.75c0.85,0.76,1.69,1.54,2.54,2.31c0.42-0.52,0.83-1.04,1.25-1.56
					C69.82,163.92,69,163.16,68.17,162.42z"/>
				<path class="st106" d="M53.28,171.28c-0.41-0.35-1.01-0.41-1.41,0c-0.36,0.36-0.42,1.07,0,1.41c2.48,2.07,4.81,4.29,7.09,6.57
					c0.43-0.54,0.84-1.07,1.25-1.58C57.97,175.47,55.69,173.3,53.28,171.28z"/>
				<path class="st106" d="M41.16,185.85c-0.42-0.35-1.01-0.41-1.41,0c-0.36,0.35-0.42,1.07,0,1.41c2.65,2.2,5.3,4.41,7.94,6.61
					c0.41-0.53,0.81-1.06,1.21-1.59C46.32,190.14,43.74,187.99,41.16,185.85z"/>
				<path class="st106" d="M101.84,112.92c-0.42-0.34-1.01-0.41-1.41,0c-0.35,0.35-0.42,1.07,0,1.41c2.45,2.04,5.03,3.91,7.65,5.72
					c0.39-0.45,0.79-0.91,1.18-1.37c0.04-0.05,0.08-0.1,0.13-0.15C106.8,116.76,104.25,114.92,101.84,112.92z"/>
				<path class="st106" d="M36.13,204.76c-0.7-0.57-1.4-1.13-2.08-1.72c-0.43-0.36-0.87-0.73-1.24-1.15c-0.35-0.41-1.05-0.36-1.41,0
					c-0.4,0.4-0.36,1.01,0,1.41c0.36,0.41,0.8,0.77,1.21,1.12c0.69,0.59,1.4,1.17,2.11,1.75c0.75,0.61,1.51,1.22,2.27,1.83
					c0.4-0.53,0.8-1.06,1.2-1.59C37.5,205.87,36.81,205.32,36.13,204.76z"/>
				<path class="st106" d="M87.26,127.91c-1.07-0.72-2.07,1.01-1.01,1.73c2.84,1.92,5.7,3.83,8.43,5.9c0.43-0.5,0.87-1.01,1.3-1.51
					C93.16,131.88,90.21,129.9,87.26,127.91z"/>
				<path class="st106" d="M136.2,73.74c-0.42-0.35-1.01-0.41-1.41,0c-0.36,0.35-0.42,1.07,0,1.41c1.91,1.58,3.81,3.17,5.72,4.76
					c0.41-0.52,0.81-1.05,1.22-1.57C139.88,76.81,138.04,75.28,136.2,73.74z"/>
				<path class="st106" d="M163.29,43.3c-0.36-0.4-1.05-0.37-1.41,0c-0.4,0.4-0.36,1.01,0,1.41c1.02,1.12,2.07,2.23,3.13,3.31
					c0.41-0.54,0.82-1.07,1.23-1.6C165.24,45.4,164.26,44.36,163.29,43.3z"/>
				<path class="st106" d="M151.53,60.62c-0.35-0.41-1.05-0.36-1.41,0c-0.41,0.41-0.35,1,0,1.41c0.72,0.85,1.51,1.63,2.32,2.4
					c0.41-0.53,0.82-1.06,1.22-1.59C152.92,62.13,152.2,61.4,151.53,60.62z"/>
				<path class="st106" d="M81,147.38c-1.87-1.62-3.59-3.39-5.23-5.24c-0.86-0.96-2.27,0.46-1.41,1.41
					c1.64,1.85,3.36,3.62,5.23,5.24c0.75,0.65,1.51,1.27,2.28,1.9c0.42-0.52,0.83-1.04,1.25-1.55
					C82.4,148.55,81.69,147.98,81,147.38z"/>
				<path class="st106" d="M174.37,27.87c-0.9-0.92-2.32,0.49-1.41,1.41c1.21,1.24,2.36,2.53,3.52,3.83
					c0.41-0.54,0.83-1.07,1.24-1.61C176.62,30.28,175.52,29.05,174.37,27.87z"/>
				<path class="st106" d="M131.6,89.94c-0.68-0.58-1.36-1.16-2.06-1.73c-0.49-0.4-0.98-0.82-1.53-1.14
					c-1.11-0.66-2.12,1.07-1.01,1.73c0.2,0.12,0.38,0.25,0.57,0.39c0.02,0.02,0.05,0.04,0.07,0.05c-0.02-0.01,0.11,0.08,0.14,0.11
					c0.14,0.11,0.27,0.22,0.41,0.33c0.7,0.57,1.39,1.16,2.08,1.74c0.25,0.21,0.49,0.42,0.74,0.63c0.41-0.52,0.82-1.04,1.23-1.56
					C132.03,90.31,131.82,90.12,131.6,89.94z"/>
				<path class="st106" d="M113.95,98.36c-0.42-0.35-1.01-0.41-1.41,0c-0.35,0.36-0.42,1.07,0,1.41c2.46,2.05,4.92,4.09,7.38,6.14
					c0.42-0.51,0.84-1.03,1.26-1.55C118.77,102.36,116.36,100.36,113.95,98.36z"/>
			</g>
		</g>
	</g>
	<path class="st24" d="M359.04,259.23c-2.08-1.73-4.65-1.99-7.17-1.25c-1.4,0.41-2.36,1.21-3.34,2.23
		c-0.62,0.53-1.28,1.03-1.93,1.53c-2.3,1.76-5.09,4.14-5.58,7.2c-7.28,3.33-14.4,6.99-21.25,11.12c4.46-7.57,9.29-14.96,13.63-22.59
		c1.74-3.07,3.38-6.19,4.89-9.38c0.14,0,0.28-0.01,0.41-0.03c0.08-0.01,0.12-0.02,0.17-0.03c0.98,0.09,1.95-0.01,2.9-0.35
		c1.63-0.59,2.78-1.67,3.97-2.87c1.33-1.33,2.28-2.95,3.5-4.38c2.83-3.29,2.26-8.47-1.03-11.21c-3.03-2.52-8.85-2.63-11.21,1.03
		c-1.7,2.64-3.11,4.98-3.9,8.04c-0.31,1.21-0.38,2.56-0.17,3.78c0.11,1.16,0.49,2.22,1.16,3.17c0.25,0.27,0.5,0.54,0.75,0.81
		c0,0,0,0,0,0.01c-2.31,4.94-4.96,9.7-7.76,14.38c0.02-2.83-0.28-5.66-1-8.4c-0.96-3.65-2.51-8.33-5.97-10.37
		c-1.54-0.9-3.35-1.07-4.86-0.02c-1.75,1.2-2.37,3.42-2.72,5.39c-0.75,4.14,0.36,8.55,1.72,12.45c1.4,4.02,3.44,8.19,6.53,11.22
		c-4.43,7.15-8.8,14.33-12.31,21.97c-1.51,3.3-2.83,6.68-3.95,10.13c-0.01-0.04-0.03-0.09-0.04-0.13
		c-3.46-10.86-5.82-22.1-7.23-33.46c0.05-0.31,0.02-0.62-0.11-0.9c-0.97-8.15-1.45-16.36-1.46-24.52
		c-0.01-4.02-0.03-8.05-0.07-12.07c1.43-2.48,3-4.94,4.56-7.44c2.45,0.77,5.02,0.99,7.57,0.55c2.38-0.41,4.63-1.35,6.81-2.36
		c3.66-1.69,7.25-4.46,8.99-8.19c0.84-1.8,0.84-3.95-0.57-5.47c-1.26-1.35-3.01-1.77-4.79-1.52c-3.64,0.51-7.09,2.84-10.05,4.85
		c-0.65,0.44-1.3,0.9-1.95,1.36c1.26-2.8,2.24-5.69,2.75-8.7c2.09,0.5,4.04-0.35,5.61-1.87c2.42-2.34,3.93-6.24,3.99-9.53
		c0.05-3-2.87-5.6-5.63-6.06c-3.06-0.5-5.94,1.15-7.28,3.89c-1.16,2.37-1.23,6.1-0.98,8.63c0.08,0.76,0.3,1.49,0.66,2.14
		c-0.36,4.66-2.23,9.18-4.41,13.26c-1.64,3.07-3.52,6-5.37,8.94c-0.08-6.21-0.17-12.43-0.25-18.64c2.6-0.95,3.73-4.3,4.19-6.71
		c0.16-0.84,0.32-1.68,0.48-2.51c0.02-0.13,0.05-0.27,0.07-0.4c-0.47,1.44-0.4,1.19,0.2-0.76c0.23-1.38,0.04-2.74-0.41-4.05
		c-1.88-5.51-9.68-5.54-12.06-0.46c-1.17,2.49-0.63,5.49-0.57,8.17c0.04,1.75,0.57,3.17,1.46,4.65c0.67,1.12,1.6,1.81,2.65,2.16
		c0.05,3.54,0.1,7.08,0.16,10.63c-0.98-1.05-2.07-1.99-3.03-2.79c-2.83-2.38-6.15-4.53-9.68-5.71c-2.7-0.91-6.71-1.2-7.74,2.23
		c-1.29,4.33,2.49,7.81,5.63,10.08c2.39,1.73,4.99,3.15,7.64,4.44c2.02,0.98,4.1,1.92,6.26,2.54c0.35,0.1,0.71,0.11,1.06,0.04
		c0.05,4.07,0.09,8.14,0.1,12.2c0.01,7.18,0.21,14.32,0.75,21.46c-4.47-6.72-9.51-13.11-15.03-18.95c0.24-0.28,0.46-0.58,0.66-0.92
		c2.17-3.69-1.28-7.78-3.29-10.64c-2.12-3.02-6.39-3.81-9.43-1.69c-3.79,2.64-3.64,7.78-0.46,10.77c1.53,1.45,2.98,2.89,4.93,3.77
		c1.33,0.6,2.69,0.84,3.95,0.69c2.52,2.63,4.95,5.37,7.27,8.21c-3.46-1.1-6.96-2.08-10.51-2.81c-1.5-0.31-3.03-0.59-4.56-0.64
		c-1.3-0.04-2.83,0.01-3.88,0.9c-3.32,2.81,1.99,7.26,4.29,8.4c3.13,1.55,6.85,1.59,10.26,1.45c3.08-0.13,6.53-0.62,9.42-0.77
		c2.6,3.6,5.02,7.31,7.25,11.1c0.02,0.16,0.04,0.33,0.06,0.49c0.56,4.46,1.27,8.93,2.13,13.37c-1.04-0.91-2.09-1.81-3.17-2.67
		c-3.45-2.76-7.16-5.49-11.26-7.2c-1.54-0.64-3.32-1.16-5-0.86c-1.91,0.35-3.11,1.85-3.46,3.69c-0.41,2.14,0.05,4.58,1.27,6.38
		c1.45,2.14,3.86,3.49,6.15,4.55c2.91,1.34,6.02,2.23,9.13,2.98c1.55,0.38,3.11,0.72,4.67,1.05c0.6,0.13,1.21,0.25,1.81,0.38
		c0.22,0.05,0.44,0.09,0.66,0.14c0.04,0.01,0.45,0.1,0.53,0.12c0.18,0.04,0.35,0.06,0.53,0.06c3.11,12.89,7.61,25.46,13.88,37.1
		c2.55,4.74,5.41,9.31,8.57,13.66c-3.59-2.54-7.2-5.04-10.79-7.56c-0.12-0.12-0.27-0.22-0.43-0.3c-0.09-0.06-0.18-0.13-0.27-0.19
		c-3.63-2.55-7.24-5.13-10.8-7.79c0-0.22,0-0.44,0-0.66c0.01-0.85,0.03-1.7,0.06-2.55c0.06-2.11,0.11-4.22,0.1-6.33
		c-0.02-4.31-0.08-8.92-1.64-12.99c-0.59-1.53-1.54-3.05-3-3.87c-1.77-1.01-3.81-0.8-5.6,0.03c-2.15,0.99-3.75,2.41-4.14,4.81
		c-0.39,2.42,0.33,4.97,1.07,7.25c0.62,1.93,1.41,3.8,2.28,5.63c-1.34-1.14-2.66-2.3-3.96-3.48c-0.13-0.21-0.31-0.4-0.55-0.57
		c-0.1-0.07-0.2-0.13-0.29-0.19c-3.59-3.27-7.08-6.65-10.48-10.1c-2.47-2.51-4.87-5.06-7.25-7.65c0.23-4.65,0.35-9.31,0.65-13.97
		c0.14-2.23,0.47-4.45,0.36-6.68c-0.1-1.97-0.54-3.94-1.28-5.77c-1.18-2.92-4.22-6.4-7.55-3.99c-1.72,1.24-2.55,3.43-3.18,5.37
		c-0.8,2.44-1.09,4.83-0.89,7.39c0.14,1.81,0.51,3.59,0.99,5.35c-1.64-1.9-3.26-3.82-4.88-5.73c-0.09-0.19-0.21-0.38-0.4-0.56
		c-0.11-0.11-0.24-0.22-0.35-0.33c-2.64-3.12-5.27-6.26-7.9-9.38c-0.01-0.01-0.01-0.03-0.01-0.04c-1.91-4.08-3.64-8.27-5.03-12.56
		c2.15-2.59,4.1-5.37,5.97-8.16c2.5-3.74,5.12-7.76,6.46-12.08c0.52-1.69,0.92-3.66,0.22-5.36c-0.7-1.71-2.39-2.61-4.19-2.69
		c-2.21-0.09-4.55,0.44-6.11,2.08c-1.77,1.86-2.77,4.36-3.53,6.78c-0.72,2.29-1.23,4.62-1.66,6.96c-0.2-1.58-0.35-3.18-0.41-4.78
		c-0.12-3.02-0.04-6.02,0.16-9.02c3.85-4.01,7.27-8.35,10.39-12.95c2.54-3.75,4.97-7.57,7.51-11.31c0.22,0.08,0.44,0.16,0.68,0.22
		c3.64,0.91,6.98-2.33,9.02-4.88c1.79-2.23,3.89-5.32,4.18-8.27c0.32-3.33-1.07-6.5-4.24-7.94c-3.37-1.53-8.51-0.14-9.77,3.68
		c-0.29,0.88-0.58,1.76-0.79,2.67c0.45-1.96,0.02-0.26-0.17,0.18c-0.49,1.18-1.02,2.35-1.55,3.5c-1.17,2.56-1.59,5.83-0.41,8.2
		c-4.67,6.83-8.95,13.91-14.25,20.26c0.06-0.57,0.13-1.13,0.19-1.7c0.04-0.16,0.06-0.32,0.06-0.49c0.64-5.36,1.4-10.7,1.81-16.07
		c0.29-3.76,0.38-7.55,0.15-11.32c0.82-0.14,1.64-0.47,2.44-1.04c2.52-1.81,3.51-4.47,4.21-7.38c0.21-0.86,0.19-1.77,0.25-2.65
		c0.07-1.05,0.36-2.08,0.42-3.13c0.21-3.6-1.05-6.93-4.55-8.52c-3.67-1.66-9.06-0.13-10.49,3.95c-0.96,2.73-1,5.37-0.71,8.2
		c0.04,0.36,0.08,0.71,0.12,1.07c-0.12-1.07,1.02,4.44,0.37,1.56c0.29,1.33,0.47,2.73,1.11,3.95c0.65,1.27,1.61,2.35,2.75,3.08
		c0.6,7.18-0.18,14.42-1.07,21.6c-3.95-6.97-8.86-13.4-12.58-20.5c1.32-2.43,0.56-5.75-0.2-8.24c-0.86-2.81-0.74-6.2-2.44-8.7
		c-1.54-2.26-4.2-3.58-6.93-3.33c-4.95,0.45-7.89,5.47-6.39,10.06c1.61,4.94,5.31,10.02,10.09,12.28c0.84,0.4,1.75,0.47,2.61,0.3
		c4.64,8.6,10.92,16.29,14.98,25.2c-1.2,10.46-1.59,20.87,1.07,31.16c0.53,2.05,1.14,4.06,1.82,6.06
		c-4.82-5.89-9.53-11.86-14.15-17.9c0.03-0.1,0.07-0.2,0.09-0.32c0.81-4.43,1.69-8.85,2.06-13.35c0.35-4.37,0.54-9.59-1.92-13.44
		c-2.16-3.38-7.66-5.06-10.82-1.97c-3.21,3.15-2.21,8.86-1.24,12.73c0.05,0.2,0.11,0.4,0.16,0.59c-0.17-0.23-0.33-0.47-0.49-0.7
		c-0.09-0.2-0.22-0.38-0.38-0.54c-8.95-12.56-17.48-25.41-25.59-38.52c-0.37-0.6-0.73-1.19-1.1-1.79c0.8-1.01,0.9-2.43,0.54-4.3
		c-0.54-2.76-1.34-6.17-2.35-8.78c-0.97-2.48-2.14-5.12-4.93-5.94c-2.02-0.59-4.44-0.41-6.21,0.82c-5.59,3.9-1.3,10.76,1.49,14.93
		c1.6,2.4,4.94,5.1,7.84,4.93c7.96,12.94,16.25,25.67,25,38.09c-5.79-0.18-11.6-0.52-17.4-1.09c-0.06-0.25-0.18-0.5-0.36-0.75
		c-2.1-2.81-3.51-6.05-5-9.21c-1.37-2.91-2.78-6.15-4.96-8.56c-2.55-2.82-5.98-5.44-9.62-6.66c-1.57-0.53-3.37-0.8-4.92-0.07
		c-1.73,0.82-2.47,2.72-2.48,4.53c-0.05,5.61,3.22,10.18,7.32,13.67c2.46,2.1,5.17,3.81,7.91,5.48c-5.34-0.87-10.62-1.99-15.81-3.41
		c-0.13-0.76-0.42-1.49-0.93-2.09c-1.02-1.21-1.83-1.93-3.2-2.72c-0.23-0.13-0.45-0.26-0.67-0.39c-0.23-0.15-1.81-1.11-2.16-1.31
		c-2.02-1.19-5.16-2.12-7.42-2.35c-4.07-0.41-7.96,1.94-8.67,6.19c-0.73,4.39,2.25,7.54,6.19,8.67c4.5,1.29,10.42,2.19,14.56-0.47
		c0.61-0.39,1.13-0.96,1.52-1.61c4.09,1.1,8.23,2,12.4,2.76c-2.07,0.9-4.1,1.89-6.09,2.9c-2.61,1.33-5.17,2.78-7.59,4.42
		c-1.86,1.26-3.73,2.67-5.09,4.48c-2.41,3.19-4.3,10.46,1.65,10.93c4.56,0.36,8.94-2.82,12.35-5.43
		c5.76-4.41,12.15-9.27,15.88-15.65c4.81,0.58,9.63,1.02,14.44,1.32c3.69,0.23,7.38,0.38,11.07,0.46
		c9.1,12.72,18.63,25.13,28.61,37.16c1.63,1.97,3.27,3.94,4.91,5.91c-1.41-0.58-2.84-1.07-4.31-1.45c-3.7-0.95-8.12-1.76-11.88-0.7
		c-1.71,0.48-3.33,1.46-3.88,3.25c-0.63,2.04,0.38,4.09,1.49,5.75c2.84,4.25,7.78,5.69,12.61,6.35c5.39,0.74,11.12,0.62,16.47-0.39
		c0.07-0.01,0.14-0.04,0.2-0.06c5.63,6.6,11.36,13.12,17.29,19.43c1.79,1.9,3.61,3.76,5.44,5.6c-3.47-1.4-7.03-2.58-10.6-3.58
		c-1.12-0.32-2.25-0.62-3.38-0.9c-0.21-0.11-0.45-0.17-0.7-0.17c-4.66-1.16-9.37-2.09-14.12-2.84c-0.21-0.22-0.49-0.4-0.86-0.5
		c-8.27-2.3-16.37-5.24-24.36-8.39c-6.88-9.45-13.3-19.27-19.51-29.18c0.61-1.12,0.82-2.49,0.33-3.98
		c-1.03-3.18-1.32-6.57-2.75-9.73c-1.93-4.26-6.96-6.38-11.07-3.52c-1.61,1.12-2.72,2.88-3.04,4.81c-0.46,2.8,0.72,4.87,2.54,6.83
		c-1.11-1.2,0.35,0.46,0.46,0.6c0.57,0.68,1.17,1.34,1.76,2c1.08,1.23,2.36,2.54,3.14,3.64c1.47,2.04,3.66,2.48,5.54,1.88
		c5.06,8.06,10.25,16.06,15.71,23.85c-7-2.92-13.91-6.07-20.67-9.52c-2.85-1.45-5.66-2.98-8.43-4.57c0-0.43-0.08-0.86-0.27-1.26
		c-0.41-0.86-0.65-1.87-1.25-2.98c-0.61-1.15-1.47-2.02-2.36-2.96c-1.91-2.02-3.99-3.69-6.44-5.04c-7.29-4.03-14.6,7.63-7.79,12.44
		c2.47,1.75,4.85,2.58,7.74,3.37c2.39,0.65,4.7,0.19,6.93,0.17c0.47,0,0.92-0.13,1.34-0.35c6.71,3.87,13.69,7.29,20.74,10.48
		c4.9,2.22,9.85,4.32,14.85,6.31c0.45,0.51,1,0.68,1.53,0.6c2.51,0.98,5.02,1.93,7.55,2.86c-16.08-1.26-32.38-1.13-48.4,0.52
		c-2.18,0.22-4.36,0.5-6.54,0.79c-0.37-1.08-1.29-2.1-1.96-2.94c-1.37-1.74-2.87-3.39-4.42-4.97c-3.71-3.81-7.82-7.6-12.63-9.95
		c-1.82-0.89-3.93-1.57-5.98-1.22c-2.1,0.36-3.95,1.96-4.57,4.01c-1.49,4.91,5.2,8.99,8.59,11.04c2.92,1.76,5.99,3.3,9.13,4.64
		c0.57,0.24,1.15,0.49,1.73,0.73c-0.12,0.01-0.23,0.03-0.35,0.04c-6.03,0.71-12.06,1.1-18.12,0.92c-0.16-0.64-0.4-1.25-0.76-1.8
		c-2.81-4.27-10.43-7.51-15.31-5.09c-3.21,1.59-5.5,4.29-5.15,8.11c0.38,4.11,4.3,7.7,8.54,7.11c0.8-0.1,1.58-0.27,2.36-0.49
		c0.01,0,0.01,0,0.02-0.01c0.26-0.01,1.44-0.2,1.84-0.24c0.76-0.07,1.51-0.09,2.27-0.16c1.55-0.14,2.76-0.74,4.05-1.53
		c0.78-0.48,1.34-1.16,1.73-1.92c11.1,0.3,21.99-1.44,33.02-2.77c0.5-0.06,1.01-0.1,1.51-0.16c-8.65,7.23-17.16,15.02-27.49,19.51
		c0,0-0.01-0.01-0.01-0.01c-2.24-1.69-4.77-2.07-7.46-1.47c-2.61,0.58-4.99,1.3-7.26,2.79c-2.79,1.82-3.86,5.58-2.75,8.65
		c1.31,3.64,5.82,6.08,9.54,4.47c4-1.73,8.99-4.98,9.74-9.56c0.07-0.42,0.08-0.86,0.04-1.3c3.99-1.74,7.72-3.95,11.29-6.44
		c-1.62,3.59-2.81,7.44-2.97,11.27c-0.1,2.42,0.27,5.07,1.94,6.94c0.99,1.11,2.26,2.08,3.8,2.15c3.24,0.16,4.81-3.51,5.54-6.09
		c1.01-3.58,1.36-7.37,1.3-11.08c-0.04-2.84-0.08-6.66-1.66-9.28c4.57-3.74,9.01-7.65,13.57-11.24c5.2-0.4,10.42-0.64,15.63-0.72
		c1.5-0.02,3-0.04,4.5-0.04c-1.48,0.6-2.95,1.23-4.4,1.91c-4.06,1.93-8.59,4.19-10.54,8.46c-0.87,1.92-1.64,4.32-0.82,6.39
		c0.66,1.66,2.27,2.56,4,2.72c3.72,0.33,7.78-1.79,10.6-4.02c1.05-0.83,1.86-1.84,2.75-2.82c1.19-1.3,2.46-2.52,3.69-3.77
		c2.6-2.64,4.98-5.41,6.71-8.69c12.43,0.43,24.88,1.69,36.99,4.32c-4.77,2.49-9.44,5.15-13.99,8.04c-4.17,2.66-8.19,5.53-12.15,8.49
		c-0.37-0.18-0.77-0.33-1.2-0.44c-6.7-1.67-12.4,6.2-16.33,10.47c-6.55,7.11,5.7,17.31,11.51,9.58c3.24-4.31,9.6-9.95,8.73-15.83
		c-0.04-0.25-0.09-0.48-0.15-0.7c3.86-2.89,7.78-5.69,11.84-8.29c2.17-1.39,4.39-2.7,6.62-3.98c-2.86,3.08-5.93,6.58-7.23,10.56
		c-0.54,1.66-0.69,3.67,0.55,5.07c1.5,1.69,3.83,2.7,6.08,2.5c4.68-0.43,7.62-5.54,9.43-9.3c2.09-4.35,3.7-9.36,4.13-14.25
		c8.25,2.24,16.44,5.3,23.44,10.24c0.03,0.02,0.06,0.03,0.09,0.05c4.53,4.06,9.21,7.95,14.04,11.67c0.18,0.21,0.4,0.38,0.66,0.51
		c1.4,1.07,2.82,2.12,4.24,3.17c-10.93-0.95-21.95,1.98-32.73,4.2c-2.13,0.44-4.27,0.85-6.42,1.21c-1-1.81-2.27-2.92-4.45-3.5
		c-1.54-0.41-3.09-0.42-4.68-0.4c-2.74,0.03-5.64,0.85-8.19,1.84c-3.64,1.4-5.64,5.45-4.29,9.18c1.24,3.44,5.63,5.92,9.18,4.29
		c2.02-0.93,4.17-1.44,6.23-2.24c1.4-0.54,2.94-1.04,4.19-1.91c1.01-0.7,1.92-1.94,2.38-3.29c6.51-1.09,12.93-2.66,19.41-3.92
		c-0.24,0.2-0.49,0.41-0.72,0.61c-2.28,1.99-4.41,4.16-6.4,6.43c-1.92,2.19-3.73,4.51-5.16,7.06c-1.16,2.08-2.23,4.39-2.13,6.82
		c0.09,2.42,1.69,5.2,4.09,5.98c2.47,0.8,4.92-0.43,6.84-1.91c3.85-2.96,6.94-7.4,8.84-11.84c2-4.68,3.47-9.64,4.97-14.5
		c0.02-0.06,0.02-0.11,0.03-0.17c5.65-0.45,11.31-0.15,16.82,1.62c5.5,3.85,11.04,7.66,16.47,11.6c-0.84-0.1-1.67-0.2-2.51-0.28
		c-4.79-0.46-10.01-0.9-14.73,0.3c-1.99,0.5-4.02,1.34-5.23,3.08c-1.3,1.86-1.05,4.22-0.2,6.2c2.27,5.27,10.02,3.65,14.33,2.65
		c5.77-1.33,11.32-3.41,16.83-5.54c2.43,1.91,4.83,3.86,7.17,5.9c1.49,1.3,2.95,2.64,4.39,4.01c0.78,0.75,1.92,1,2.82,0.25
		c0.76-0.64,1.03-2.07,0.25-2.82c-3.65-3.48-7.49-6.73-11.42-9.86c-0.01-0.01-0.02-0.03-0.03-0.04
		c-5.64-5.37-10.53-11.38-14.76-17.83c1.83-2.97,3.15-6.39,4.45-9.59c1.91-4.7,3.72-9.61,4.45-14.65c0.49-3.34,0.2-8.52-4.32-8.55
		c-5.74-0.05-8.37,5.72-9.52,10.49c-0.86,3.58-1.29,7.25-1.38,10.93c0,0.16-0.01,0.32-0.01,0.49c-2.65-5.15-4.97-10.49-6.97-15.93
		c2.02-7.84,5.23-15.1,8.98-22.11c0.19-0.07,0.38-0.16,0.56-0.28c3.71-2.47,7.53-4.76,11.43-6.91c1.85,3.52,4.72,6.6,8.14,8.61
		c3.22,1.9,7.27,2.98,10.96,1.89c1.61-0.47,3.07-1.4,3.76-2.99c0.58-1.34,0.38-2.93-0.29-4.2c-0.88-1.68-2.33-3-3.88-4.03
		c-1.82-1.21-3.79-2.14-5.94-2.59c-1.82-0.38-3.65-0.47-5.49-0.49c2.22-1.1,4.46-2.17,6.71-3.21c0.53,0.98,1.34,1.8,2.47,2.24
		c3.73,1.46,7.28-0.06,10.57-1.85c3.3-1.79,5.69-3.48,6.84-7.36C362.29,263.67,360.83,260.72,359.04,259.23z"/>
	<g>
		<path class="st6" d="M41.55,374.21c-1.39-6.05-3.03-15.03-8.05-19.28c-3.87-3.28-6.56,3.01-7.4,6.32
			c-1.91,7.56-2.61,16.41-1.32,24.11c1,5.91,6.87,15.3,13.55,8.9C43.67,389.15,43.06,380.79,41.55,374.21z"/>
		<path class="st6" d="M32.28,535.37c-1.39-6.05-3.03-15.03-8.05-19.28c-3.87-3.28-6.56,3.01-7.4,6.32
			c-1.91,7.55-2.62,16.41-1.32,24.11c1,5.91,6.87,15.3,13.55,8.9C34.4,550.31,33.8,541.95,32.28,535.37z"/>
		<path class="st6" d="M60.09,471.8c-1.19-5.17-2.59-12.85-6.89-16.49c-3.31-2.81-5.61,2.57-6.33,5.41
			c-1.64,6.46-2.24,14.04-1.13,20.62c0.85,5.05,5.88,13.09,11.59,7.62C61.91,484.57,61.39,477.42,60.09,471.8z"/>
		<path class="st6" d="M13.07,446.6c-1.04-4.54-2.27-11.27-6.04-14.46c-2.9-2.46-4.92,2.26-5.55,4.74
			c-1.43,5.66-1.96,12.31-0.99,18.07c0.75,4.43,5.15,11.47,10.16,6.68C14.66,457.8,14.21,451.53,13.07,446.6z"/>
	</g>
</g>
</svg>
