<svg width='150px' height='150px'  version="1.1" id="Layer_1" xmlns="http://www.w3.org/2000/svg" xmlns:xlink="http://www.w3.org/1999/xlink" x="0px" y="0px"
	 viewBox="0 0 398.49 547.93" style="enable-background:new 0 0 398.49 547.93;" xml:space="preserve">
<style type="text/css">
	.st0{fill:#73724E;}
	.st1{fill:#7D7B54;}
	.st2{fill:#75744F;}
	.st3{fill:#6E6D4A;}
	.st4{fill:#5F5E40;}
	.st5{fill:#D9C09A;}
	.st6{fill:#79492D;}
	.st7{fill:#FFFFFF;}
	.st8{fill:#C6862B;}
	.st9{fill:#BC802B;}
	.st10{fill:#ED965C;}
	.st11{fill:#2E1C12;}
	.st12{fill:#4E7D75;}
	.st13{fill:#558980;}
	.st14{fill:#613B24;}
	.st15{fill:#DCAA88;}
	.st16{fill:#DD9F75;}
	.st17{fill:#6D8A0C;}
	.st18{fill:#AD772A;}
	.st19{fill:#936627;}
	.st20{fill:#BE812B;}
	.st21{fill:#812B1B;}
	.st22{fill:#A03422;}
	.st23{fill:#C1832B;}
	.st24{fill:#F8E8D3;}
	.st25{fill:#3C615B;}
	.st26{fill:#B09B7D;}
	.st27{fill:#676545;}
	.st28{fill:#3D2D22;}
	.st29{fill:#523C2E;}
	.st30{fill:#872D1D;}
	.st31{fill:#9B3321;}
	.st32{fill:#943120;}
	.st33{fill:#CF8229;}
	.st34{fill:#453327;}
	.st35{fill:#AF782B;}
	.st36{fill:#963220;}
	.st37{fill:#B17029;}
	.st38{fill:#BCA786;}
	.st39{fill:#456E67;}
	.st40{fill:#696746;}
	.st41{fill:#45442F;}
	.st42{fill:#5A593D;}
	.st43{fill:#6B6A48;}
	.st44{fill:#5C3823;}
	.st45{fill:#C7B08D;}
	.st46{fill:#D1AE79;}
	.st47{fill:#C79F66;}
	.st48{fill:#A59175;}
	.st49{fill:#AA9679;}
	.st50{fill:#C87B29;}
	.st51{fill:#D28929;}
	.st52{fill:#D08429;}
	.st53{fill:#986928;}
	.st54{fill:#C1822B;}
	.st55{fill:#956728;}
	.st56{fill:#AA742A;}
	.st57{fill:#892D1D;}
	.st58{fill:#DDC29E;}
	.st59{fill:#D5B688;}
	.st60{fill:#3E3C29;}
	.st61{fill:#CD7829;}
	.st62{fill:#716F40;}
	.st63{fill:#615F38;}
	.st64{fill:#8F2E1E;}
	.st65{fill:#D37829;}
	.st66{fill:#B26027;}
	.st67{fill:#706F4C;}
	.st68{fill:#8F2F1E;}
	.st69{fill:#C8842A;}
	.st70{fill:#E2B856;}
	.st71{fill:#DBA92F;}
	.st72{fill:#646343;}
	.st73{fill:#9F9D6B;}
	.st74{fill:#737147;}
	.st75{fill:#AB9679;}
	.st76{fill:#482B1B;}
	.st77{fill:#C3802A;}
	.st78{fill:#7E2919;}
	.st79{fill:#94311F;}
	.st80{fill:#BA7F2B;}
	.st81{fill:#9B6728;}
	.st82{fill:#B67D2B;}
	.st83{fill:#C6997B;}
	.st84{fill:#616042;}
	.st85{fill:#91301F;}
	.st86{fill:#983220;}
	.st87{fill:#A9A772;}
	.st88{fill:#BC7229;}
	.st89{fill:#C37B26;}
	.st90{fill:#6D6C49;}
	.st91{fill:#CF8924;}
	.st92{fill:#686746;}
	.st93{fill:#74734E;}
	.st94{fill:#696947;}
	.st95{fill:#F0E0C6;}
	.st96{fill:#4B7C77;}
	.st97{fill:#E9DABF;}
	.st98{fill:#D1A283;}
	.st99{fill:#C99D7E;}
	.st100{fill:#885336;}
	.st101{fill:#BF8124;}
	.st102{fill:#633A22;}
	.st103{fill:#CCB58F;}
	.st104{fill:#B69D7B;}
	.st105{fill:#73724D;}
	.st106{fill:#616141;}
	.st107{fill:#9B321E;}
	.st108{fill:#72714C;}
	.st109{fill:#852915;}
	.st110{fill:#C7422C;}
	.st111{fill:#6A6A47;}
	.st112{fill:#714329;}
	.st113{fill:#5E371E;}
	.st114{fill:#646443;}
	.st115{fill:#CEA080;}
	.st116{fill:#A73622;}
	.st117{fill:#C6B18E;}
	.st118{fill:#4E8077;}
	.st119{fill:#BDA481;}
	.st120{fill:#5B5B3C;}
	.st121{fill:#A23420;}
	.st122{fill:#99311D;}
	.st123{fill:#7E2510;}
	.st124{fill:#912E1A;}
	.st125{fill:#5F1400;}
	.st126{fill:#A0341F;}
	.st127{fill:#832814;}
	.st128{fill:#942F1B;}
	.st129{fill:#DDAA24;}
	.st130{fill:#D59821;}
	.st131{fill:#CA8128;}
	.st132{fill:#4B7B72;}
	.st133{fill:#52847C;}
	.st134{fill:#98301C;}
	.st135{fill:#D29E7C;}
	.st136{fill:#D5A17F;}
	.st137{fill:#C98623;}
	.st138{fill:#D09F81;}
	.st139{fill:#C88C78;}
	.st140{fill:#D2B993;}
	.st141{fill:#666644;}
	.st142{fill:#D49979;}
	.st143{fill:#636342;}
	.st144{fill:#C89B7D;}
	.st145{fill:#A58067;}
	.st146{fill:#3F2717;}
	.st147{fill:#4A2D1C;}
	.st148{fill:#912F1F;}
	.st149{fill:#C87F29;}
	.st150{fill:#573521;}
	.st151{fill:#5E3923;}
	.st152{fill:#646244;}
	.st153{fill:#CD852A;}
	.st154{fill:#BC7C2A;}
	.st155{fill:#6C4128;}
	.st156{fill:#9E3422;}
	.st157{fill:#A83724;}
	.st158{fill:#B83926;}
	.st159{fill:#9D6B29;}
	.st160{fill:#663E26;}
	.st161{fill:#DAB57E;}
	.st162{fill:#DAAB62;}
	.st163{fill:#D9BB8F;}
	.st164{fill:#DAB06F;}
	.st165{fill:#D9BA8A;}
	.st166{fill:#59583D;}
	.st167{fill:#E6992E;}
	.st168{fill:#C5822A;}
	.st169{fill:#C1732E;}
	.st170{fill:#4B4932;}
	.st171{fill:#CB7D29;}
	.st172{fill:#812C1B;}
	.st173{fill:#A63723;}
	.st174{fill:#D2A454;}
	.st175{fill:#606040;}
	.st176{fill:#C2A884;}
	.st177{fill:#CB977D;}
	.st178{fill:#C28C76;}
	.st179{fill:#D1B38D;}
	.st180{fill:#231F20;}
	.st181{fill:#CB8927;}
	.st182{fill:#613920;}
	.st183{fill:#9C321E;}
	.st184{fill:#9E331F;}
</style>
<g>
	<g>
		<g>
			<path class="st15" d="M141.46,292.43c1.98-1.34,3.9-2.76,5.72-4.29c3.27-2.75,6.24-5.9,8.71-9.39c2.52-3.55,4.75-7.52,6.36-11.56
				c1.92-4.79,2.69-10.09,2.69-15.23c0.01-10.77-3.04-21.19-6.85-31.17c-7.74-20.25-15.34-40.66-25.63-59.79
				c-4.54-8.44-9.6-16.62-14.39-24.91c-5.05-8.74-10.32-17.35-16.19-25.57c-1.69-2.36-3.43-4.7-5.2-7
				c-1.47-1.91-4.03,0.12-3.35,2.12c3.62,10.69,6.95,21.47,10.33,32.23c3.42,10.89,7.1,21.68,10.96,32.43
				c4.32,12.03,8.59,24.08,12.56,36.23c1.76,5.38,3.64,10.71,5.4,16.09c1.72,5.22,3.21,10.59,3.67,16.08
				c0.38,4.45,0.2,9.55-2.38,13.36c-1.9,2.81-5.15,5.47-8.71,5.45c-1.74-0.01-3.36-0.77-4.56-2.02c-1.93-2.02-3.41-4.62-4.87-6.99
				c-2.67-4.37-4.96-8.95-6.99-13.65c-1.82-4.22-3.44-8.53-5.2-12.78c-2.05-4.95-4.19-9.86-6.35-14.75
				c-4.26-9.65-8.72-19.2-13.41-28.64c-2.5-5.03-5.06-10.04-7.67-15.01c-2.25-4.3-4.44-8.66-6.97-12.81
				c-4.92-8.08-10.52-15.74-15.86-23.55c-1.68-2.46-3.36-4.94-5.01-7.42c-1.12-1.67-3.9-0.23-3.5,1.62
				c2.29,10.58,4.47,21.21,7.16,31.69c2.59,10.1,6.07,19.99,9.48,29.84c3.54,10.24,7.33,20.38,11.35,30.44
				c3.83,9.58,7.97,19.01,12.09,28.47c2.03,4.67,3.89,9.43,5.28,14.33c0.8,2.83,1.48,5.69,2.03,8.57c0.36,1.89,0.61,3.79-0.24,5.6
				c-1.22,2.62-4.19,3.89-7.09,4.23c-3.6,0.43-6.9-0.67-9.82-2.74c-7.96-5.65-12.52-14.94-16.8-23.42
				c-5.52-10.93-11.32-21.7-16.78-32.66c-5.68-11.4-11.17-22.88-17.13-34.14c-5.3-10-10.83-19.88-16.12-29.89
				c-1.47-2.79-2.93-5.58-4.37-8.38c-1.03-2-4.13-1.12-3.79,1.17c1.56,10.56,3.84,20.97,6.64,31.26c2.48,9.09,5.02,18.17,7.61,27.23
				c6.26,21.9,15.82,42.59,25.42,63.18c4.18,8.97,8.5,17.86,14.84,25.54c3.06,3.71,6.57,7.12,10.54,9.85
				c4.05,2.79,8.49,4.57,13.22,5.87c4.65,1.28,9.43,2.02,14.26,1.95c2.58-0.04,5.16-0.25,7.71-0.62c2.75-0.4,5.4-1.13,8.11-1.67
				c8.34-1.63,11,9.13,13.25,14.97c5.51,14.28,11.59,28.34,17,42.65c0.37,0.98,0.74,1.96,1.08,2.95c0.37,1.06,1.73,1.35,2.65,0.99
				c5.07-2.01,10.15-4.02,15.22-6.03c0.88-0.35,1.2-1.05,1.16-1.76c0.01-0.28-0.04-0.58-0.17-0.89
				c-6.04-14.15-11.38-28.59-17.58-42.67c-1.53-3.48-3.33-6.87-4.7-10.42c-1.24-3.23-2.39-7.35-0.19-10.44
				C137.42,294.67,139.62,293.68,141.46,292.43z"/>
			<path class="st83" d="M158.73,360.95c0.05,0.71-0.28,1.41-1.16,1.76c-5.07,2.01-10.14,4.02-15.21,6.03
				c-0.93,0.36-2.29,0.07-2.65-0.99c-0.35-0.99-0.71-1.97-1.08-2.95c-5.41-14.32-11.49-28.38-17-42.65
				c-2.2-5.7-4.78-16.07-12.63-15.08c0.19-7.43,0.28-17.02,0.49-21.02c0.16-3.24-0.19-7.86,2.21-10.56c1.4-1.58,3.14,0.54,4.33,1.52
				c2.21,1.79,4.44,3.55,6.7,5.28c2.92,2.25,9.36,8.34,14.45,13.03c-0.41,0.36-0.77,0.75-1.09,1.2c-2.19,3.09-1.05,7.21,0.2,10.44
				c1.36,3.56,3.16,6.94,4.69,10.42c6.2,14.09,11.54,28.53,17.58,42.68C158.69,360.37,158.74,360.67,158.73,360.95z"/>
		</g>
		<g>
			<path class="st17" d="M242.19,513.93c-0.97-7.37-3.5-14.56-6.22-21.45c-2.82-7.15-6.13-14.09-9.59-20.95
				c-13.7-27.2-27.61-54.29-41.84-81.22c-7.71-14.58-16.13-28.76-24.98-42.67c-0.43-0.68-1.68-0.92-2.36-0.53
				c-3.78,2.15-7.91,3.78-11.9,5.48c-2.36,1-4.74,1.98-7.13,2.92c-0.98,0.38-1.96,0.76-2.94,1.12c-0.43,0.16-0.85,0.31-1.28,0.45
				c-0.16,0.05-0.32,0.1-0.47,0.16c-0.03,0.01-0.04,0.02-0.06,0.02c-0.03,0.01-0.06,0.02-0.11,0.03c-0.98,0.29-1.91,1.16-1.64,2.31
				c7.02,29.41,16.44,58.11,26.2,86.71c5.19,15.18,10.43,30.35,15.65,45.52c2.45,7.12,5.03,14.21,8.04,21.12
				c1.49,3.42,3.08,6.8,4.83,10.09c1.69,3.2,3.45,6.54,5.62,9.44c4.09,5.45,8.71,10.93,15.13,13.63c3.48,1.46,7.42,2.15,11.17,1.64
				c3.04-0.41,5.89-1.67,8.69-2.85c2.4-1.02,4.79-2.06,6.93-3.58c2.36-1.67,4.25-3.96,5.66-6.46
				C243.29,528.34,243.14,521.16,242.19,513.93z"/>
			<path class="st10" d="M184.53,390.32c6.84,12.95,13.61,25.94,20.32,38.96c-10.38,6.59-33.32,16.52-46.14,19.55
				c-0.29-0.84-0.57-1.67-0.86-2.51c-5.23-15.31-10.35-30.65-15.07-46.12c9.65-3.38,28.16-12.29,37.53-17.68
				C181.75,385.1,183.15,387.71,184.53,390.32z"/>
		</g>
		<path class="st10" d="M217.01,523.84C217.01,523.83,217.01,523.83,217.01,523.84c0.37-4.37,1.88-8.48,2.76-12.75
			c0.88-4.26,0.75-8.46-0.92-12.51c-0.29-0.71-1.4-1.09-1.83-0.24c-2.97,6-4.64,12.59-3.8,19.06c-0.7-1.31-1.37-2.64-1.99-3.99
			c-2.18-4.79-3.83-9.8-5.29-14.86c2.4-2.37,4.99-4.53,7.21-7.1c2.1-2.44,5.12-6.21,3.79-9.67c-1.02-2.65-3.81-3.92-6.08-1.95
			c-1.86,1.61-3.02,4.09-3.92,6.47c0.1-1.59,0.14-3.19,0.04-4.79c-0.11-1.65-0.31-3.47-1.17-4.93c-1.5-2.55-5.18-2.5-6.19,0.41
			c-0.52,1.49-0.4,3.2-0.21,4.73c0.18,1.51,0.47,3.01,0.82,4.5c-1.41-2.56-3.2-5.28-5.94-6.34c-2.22-0.86-4.19,0.52-4,2.92
			c0.25,3.24,2.84,6.05,5.07,8.2c2.74,2.65,5.82,4.92,8.53,7.59c1.4,4.89,3,9.73,5.02,14.4c-4.81-5.01-10.61-9.2-16.37-12.81
			c-0.93-0.58-1.73,0.53-1.37,1.37c4.58,10.53,12.58,19.28,23.75,22.65c1.57,2.52,3.18,5.01,4.43,7.71
			c0.54,1.17,2.26,0.15,1.73-1.01C219.91,528.45,218.46,526.14,217.01,523.84z"/>
	</g>
	<g>
		<g>
			<path class="st15" d="M397.15,52.47c-0.98-10.81-3.31-21.89-8.88-31.34c-5.63-9.54-14.32-16.53-24.89-19.89
				c-4.37-1.39-9.06-1.44-13.59-1c-5.49,0.53-10.91,2.16-15.78,4.77c-9.74,5.24-17.06,13.95-22.53,23.4
				c-3.35,5.79-6.09,11.92-8.73,18.06c-3.03,7.05-5.81,14.2-8.48,21.39c-5.34,14.38-10.41,28.86-15.62,43.28
				c-5.05,13.96-9.22,28.14-11.66,42.81c-0.75,4.5-1.46,9.02-1.62,13.58c-0.17,4.74,0.11,9.84,2.2,14.18
				c1.01,2.09,2.46,3.95,4.34,5.32c1.94,1.41,4.33,2.2,6.61,2.87c5.63,1.66,11.49,2.47,17.29,3.25c2.65,0.36,5.31,0.69,7.95,1.09
				c2.24,0.34,4.43,0.57,6.38,1.78c4.12,2.57,3.71,7.84,3.02,12.04c-0.68,4.15-1.74,8.25-2.55,12.38
				c-0.89,4.55-1.75,9.12-2.59,13.68c-1.55,8.39-3.05,16.79-4.52,25.19c-0.25,1.4-0.63,2.84-0.74,4.25
				c-0.11,1.38,0.88,2.09,1.91,2.09c-0.03,0.02-0.06,0.05-0.09,0.08c5.33,0,10.67,0,16,0c0.35,0,0.66-0.08,0.92-0.21
				c0.34-0.13,0.66-0.33,0.9-0.64c0.39-0.51,0.45-1.44,0.57-2.07c0.23-1.11,0.45-2.22,0.67-3.32c0.78-3.87,1.55-7.74,2.3-11.61
				c1.81-9.28,3.62-18.58,5.11-27.92c0.72-4.51,0.93-9.24,2.66-13.52c0.71-1.76,1.79-3.49,3.48-4.44c2.09-1.18,4.46-1.01,6.73-0.61
				c5.48,0.95,10.88,2.4,16.34,3.48c2.89,0.57,5.8,1.08,8.73,1.38c2.62,0.27,5.44,0.5,8.05,0.05c9.48-1.64,13.35-12.65,15.4-20.75
				c3.14-12.39,4.72-25.21,5.35-37.96c0.4-7.97,0.38-15.93,0.4-23.91c0.02-7.91,0.15-15.82,0.23-23.73
				C398.58,84.12,398.57,68.25,397.15,52.47z"/>
			<path class="st83" d="M334.47,182.35c1.24,3.54,3.77,12.16,5.74,18.77c-1.05,0.08-2.06,0.35-3.02,0.88
				c-1.7,0.96-2.78,2.69-3.49,4.45c-1.73,4.28-1.94,9-2.65,13.52c-1.49,9.34-3.3,18.63-5.11,27.91c-0.76,3.88-1.53,7.75-2.31,11.62
				c-0.22,1.11-0.44,2.21-0.67,3.32c-0.13,0.63-0.18,1.57-0.57,2.07c-0.24,0.31-0.55,0.52-0.9,0.64c-0.27,0.13-0.57,0.21-0.92,0.21
				c-5.34,0-10.67,0-16,0c0.03-0.03,0.06-0.05,0.09-0.08c-1.03,0-2.03-0.7-1.91-2.08c0.12-1.42,0.5-2.86,0.74-4.25
				c1.48-8.4,2.98-16.8,4.52-25.19c0.85-4.57,1.7-9.13,2.59-13.68c0.81-4.13,1.87-8.23,2.55-12.38c0.69-4.2,1.1-9.47-3.02-12.04
				c-0.29-0.18-0.58-0.34-0.88-0.48c4.51-6.44,9.89-14.28,12.07-17.28c1.91-2.62,4.14-6.69,7.62-7.64c2.03-0.56,2.33,2.16,2.8,3.63
				C332.61,176.98,333.52,179.67,334.47,182.35z"/>
		</g>
		<g>
			<path class="st17" d="M327.86,255.47c-4.34-0.26-8.69-1.14-12.96-1.9c-4.26-0.76-8.53-1.4-12.63-2.64
				c-1.03-0.31-2.18,0.15-2.56,1.21c-10.02,28.08-17.71,56.86-25.03,85.75c-3.9,15.38-7.7,30.78-11.59,46.15
				c-1.88,7.45-3.66,14.94-4.98,22.51c-0.67,3.83-1.23,7.68-1.61,11.55c-0.37,3.76-0.76,7.68-0.53,11.46
				c0.44,7.11,1.39,14.55,5.64,20.48c2.12,2.96,4.94,5.44,8.24,7c2.76,1.3,5.83,1.77,8.8,2.3c3.04,0.54,6.08,1.03,9.17,0.64
				c3.35-0.42,6.53-1.86,9.32-3.72c5.14-3.43,8.23-8.79,10.85-14.23c3.08-6.39,4.87-13.31,6.35-20.23
				c1.58-7.37,2.63-14.83,3.5-22.31c3.55-30.66,6.55-61.37,9.41-92.1c1.54-16.54,2.25-33.15,2.42-49.76
				C329.69,256.58,329.01,255.54,327.86,255.47z"/>
			<path class="st10" d="M328.04,297.9c-0.23,3.17-0.5,6.33-0.79,9.49c-1.3,14.03-2.64,28.07-4.04,42.09
				c-12.89-0.26-36.61-3.61-49.55-7.55c0.34-1.35,0.68-2.7,1.02-4.05c3.88-15.29,7.86-30.56,12.24-45.7
				C297.15,294.54,316.9,297.15,328.04,297.9z"/>
		</g>
		<path class="st10" d="M301.48,407.97c-4.82,4.79-9.52,10.16-13.09,16.1c0.93-5,1.4-10.08,1.68-15.16
			c1.85-2.91,4.09-5.56,6.03-8.41c1.82-2.67,3.9-5.94,3.78-9.31c-0.08-2.17-1.66-4.04-3.93-3.04c-2.86,1.25-4.15,4.9-4.99,7.65
			c-0.01,0.04-0.02,0.07-0.03,0.11c0.06-2.62-0.07-5.31-0.91-7.68c-0.42-1.2-1.14-2.45-2.44-2.85c-1.26-0.38-2.73,0.12-3.55,1.12
			c-1.01,1.22-1.11,2.97-1.01,4.48c0.13,2.03,0.6,4.03,1.14,5.99c0.06,0.22,0.14,0.44,0.2,0.66c-1.3-1.91-2.78-3.75-4.63-5.04
			c-0.94-0.66-2.13-1.17-3.3-0.88c-1.29,0.32-2.09,1.48-2.56,2.65c-1.37,3.48,1.77,6.64,4.23,8.64c3.09,2.5,6.58,4.26,9.93,6.34
			c-0.3,5.23-0.8,10.46-1.84,15.59c-0.3,1.48-0.66,2.94-1.06,4.39c-0.63-6.5-3.75-12.57-7.97-17.75c-0.46-0.56-1.55-0.27-1.67,0.44
			c-0.75,4.41,0,8.54,1.84,12.59c1.81,3.99,4.2,7.67,5.53,11.87c-0.9,2.58-1.8,5.15-2.37,7.83c-0.27,1.26,1.66,1.79,1.93,0.53
			c0.62-2.9,1.62-5.67,2.59-8.46c10.16-5.77,16-16.11,18.13-27.39C303.33,408,302.23,407.22,301.48,407.97z"/>
	</g>
</g>
</svg>
