

<svg width='250px' height='250px' version="1.1" id="Layer_1" xmlns="http://www.w3.org/2000/svg" xmlns:xlink="http://www.w3.org/1999/xlink" x="0px" y="0px"
	 viewBox="0 0 613.85 467.25" style="enable-background:new 0 0 613.85 467.25;" xml:space="preserve">
<style type="text/css">
	.st0{fill:#73724E;}
	.st1{fill:#6D8A0C;}
	.st2{fill:#75744F;}
	.st3{fill:#6E6D4A;}
	.st4{fill:#5F5E40;}
	.st5{fill:#D9C09A;}
	.st6{fill:#79492D;}
	.st7{fill:#FFFFFF;}
	.st8{fill:#C6862B;}
	.st9{fill:#BC802B;}
	.st10{fill:#ED965C;}
	.st11{fill:#2E1C12;}
	.st12{fill:#4E7D75;}
	.st13{fill:#558980;}
	.st14{fill:#613B24;}
	.st15{fill:#DCAA88;}
	.st16{fill:#DD9F75;}
	.st17{fill:#B13A25;}
	.st18{fill:#AD772A;}
	.st19{fill:#936627;}
	.st20{fill:#BE812B;}
	.st21{fill:#812B1B;}
	.st22{fill:#A03422;}
	.st23{fill:#C1832B;}
	.st24{fill:#F8E8D3;}
	.st25{fill:#3C615B;}
	.st26{fill:#B09B7D;}
	.st27{fill:#676545;}
	.st28{fill:#3D2D22;}
	.st29{fill:#523C2E;}
	.st30{fill:#872D1D;}
	.st31{fill:#9B3321;}
	.st32{fill:#943120;}
	.st33{fill:#CF8229;}
	.st34{fill:#453327;}
	.st35{fill:#AF782B;}
	.st36{fill:#963220;}
	.st37{fill:#B17029;}
	.st38{fill:#BCA786;}
	.st39{fill:#456E67;}
	.st40{fill:#696746;}
	.st41{fill:#45442F;}
	.st42{fill:#5A593D;}
	.st43{fill:#6B6A48;}
	.st44{fill:#5C3823;}
	.st45{fill:#C7B08D;}
	.st46{fill:#D1AE79;}
	.st47{fill:#C79F66;}
	.st48{fill:#A59175;}
	.st49{fill:#AA9679;}
	.st50{fill:#C87B29;}
	.st51{fill:#D28929;}
	.st52{fill:#D08429;}
	.st53{fill:#986928;}
	.st54{fill:#C1822B;}
	.st55{fill:#956728;}
	.st56{fill:#AA742A;}
	.st57{fill:#892D1D;}
	.st58{fill:#DDC29E;}
	.st59{fill:#D5B688;}
	.st60{fill:#3E3C29;}
	.st61{fill:#CD7829;}
	.st62{fill:#716F40;}
	.st63{fill:#615F38;}
	.st64{fill:#8F2E1E;}
	.st65{fill:#D37829;}
	.st66{fill:#B26027;}
	.st67{fill:#706F4C;}
	.st68{fill:#8F2F1E;}
	.st69{fill:#C8842A;}
	.st70{fill:#E2B856;}
	.st71{fill:#DBA92F;}
	.st72{fill:#646343;}
	.st73{fill:#9F9D6B;}
	.st74{fill:#737147;}
	.st75{fill:#AB9679;}
	.st76{fill:#482B1B;}
	.st77{fill:#C3802A;}
	.st78{fill:#7E2919;}
	.st79{fill:#94311F;}
	.st80{fill:#BA7F2B;}
	.st81{fill:#9B6728;}
	.st82{fill:#B67D2B;}
	.st83{fill:#C6997B;}
	.st84{fill:#616042;}
	.st85{fill:#91301F;}
	.st86{fill:#983220;}
	.st87{fill:#A9A772;}
	.st88{fill:#BC7229;}
	.st89{fill:#C37B26;}
	.st90{fill:#6D6C49;}
	.st91{fill:#CF8924;}
	.st92{fill:#686746;}
	.st93{fill:#74734E;}
	.st94{fill:#696947;}
	.st95{fill:#F0E0C6;}
	.st96{fill:#4B7C77;}
	.st97{fill:#E9DABF;}
	.st98{fill:#D1A283;}
	.st99{fill:#C99D7E;}
	.st100{fill:#885336;}
	.st101{fill:#BF8124;}
	.st102{fill:#633A22;}
	.st103{fill:#CCB58F;}
	.st104{fill:#B69D7B;}
	.st105{fill:#73724D;}
	.st106{fill:#616141;}
	.st107{fill:#9B321E;}
	.st108{fill:#72714C;}
	.st109{fill:#852915;}
	.st110{fill:#C7422C;}
	.st111{fill:#6A6A47;}
	.st112{fill:#714329;}
	.st113{fill:#5E371E;}
	.st114{fill:#646443;}
	.st115{fill:#CEA080;}
	.st116{fill:#A73622;}
	.st117{fill:#C6B18E;}
	.st118{fill:#4E8077;}
	.st119{fill:#BDA481;}
	.st120{fill:#5B5B3C;}
	.st121{fill:#A23420;}
	.st122{fill:#99311D;}
	.st123{fill:#7E2510;}
	.st124{fill:#912E1A;}
	.st125{fill:#5F1400;}
	.st126{fill:#A0341F;}
	.st127{fill:#832814;}
	.st128{fill:#942F1B;}
	.st129{fill:#DDAA24;}
	.st130{fill:#D59821;}
	.st131{fill:#CA8128;}
	.st132{fill:#4B7B72;}
	.st133{fill:#52847C;}
	.st134{fill:#98301C;}
	.st135{fill:#D29E7C;}
	.st136{fill:#D5A17F;}
	.st137{fill:#C98623;}
	.st138{fill:#D09F81;}
	.st139{fill:#C88C78;}
	.st140{fill:#D2B993;}
	.st141{fill:#666644;}
	.st142{fill:#D49979;}
	.st143{fill:#636342;}
	.st144{fill:#C89B7D;}
	.st145{fill:#A58067;}
	.st146{fill:#3F2717;}
	.st147{fill:#4A2D1C;}
	.st148{fill:#912F1F;}
	.st149{fill:#C87F29;}
	.st150{fill:#573521;}
	.st151{fill:#5E3923;}
	.st152{fill:#646244;}
	.st153{fill:#CD852A;}
	.st154{fill:#BC7C2A;}
	.st155{fill:#6C4128;}
	.st156{fill:#9E3422;}
	.st157{fill:#A83724;}
	.st158{fill:#B83926;}
	.st159{fill:#9D6B29;}
	.st160{fill:#663E26;}
	.st161{fill:#DAB57E;}
	.st162{fill:#DAAB62;}
	.st163{fill:#D9BB8F;}
	.st164{fill:#DAB06F;}
	.st165{fill:#D9BA8A;}
	.st166{fill:#59583D;}
	.st167{fill:#E6992E;}
	.st168{fill:#C5822A;}
	.st169{fill:#C1732E;}
	.st170{fill:#4B4932;}
	.st171{fill:#CB7D29;}
	.st172{fill:#812C1B;}
	.st173{fill:#A63723;}
	.st174{fill:#DAD768;}
	.st175{fill:#606040;}
	.st176{fill:#C2A884;}
	.st177{fill:#CB977D;}
	.st178{fill:#C28C76;}
	.st179{fill:#D1B38D;}
	.st180{fill:#231F20;}
	.st181{fill:#CB8927;}
	.st182{fill:#613920;}
	.st183{fill:#9C321E;}
	.st184{fill:#9E331F;}
</style>
<g>
	<g>
		<g>
			<path class="st4" d="M226.06,122.21c0.02-0.02,0.04-0.04,0.06-0.06c2.29-3.09,4.76-6.05,7.4-8.84c2.09-2.21,4.28-4.35,6.66-6.25
				c0.09,0.01,0.19,0.01,0.29,0c4.04-0.31,8.09-1.25,11.64-3.27c2.5-1.42,5.17-3.22,6.42-6.11c0.47-1.1,0.63-2.45,0.06-3.55
				c-0.69-1.34-2.1-1.93-3.53-2.13c-3.6-0.51-6.86,1.12-9.55,3.37c-2.9,2.42-5.55,5.63-6.97,9.17c-2.56,2.01-4.92,4.3-7.14,6.67
				c-1.78,1.9-3.49,3.86-5.13,5.88c0.27-7.32,0.42-14.65,0.37-21.97c1.02-0.45,1.96-1.14,2.82-1.8c1.39-1.07,2.7-2.26,3.94-3.5
				c2.57-2.55,5.12-5.37,6.81-8.59c1.23-2.34,2.17-5.98-1.12-7.12c-3.99-1.38-7.08,1.95-8.96,5.04c-1.49,2.43-2.62,5.04-3.64,7.68
				c-0.18-6.02-0.5-12.03-0.97-18.02c1.21-1.92,2.14-3.99,2.7-6.19c0.44-1.72,0.88-3.55,1.02-5.32c0.2-2.52,0.02-5.76-1.45-7.92
				c-0.74-1.09-1.99-1.66-3.27-1.17c-1.26,0.48-2.28,1.79-2.82,2.99c-1.13,2.55-0.93,5.82-0.79,8.53c0.09,1.77,0.27,3.55,0.61,5.3
				c0.21,1.1,0.47,2.27,0.96,3.3c0.32,3.94,0.57,7.88,0.76,11.83c-1.06-1.56-2.29-2.99-3.75-4.2c-1.53-1.27-3.22-2.49-5.11-3.14
				c-2.17-0.74-4.66-0.56-6.33,1.14c-1.28,1.29-1.33,3.14-0.84,4.8c0.53,1.84,1.48,3.49,2.52,5.08c0.83,1.27,1.75,2.54,2.84,3.61
				c3.1,3.03,7.11,4.96,11.08,6.64c0.04,3.86,0.04,7.73-0.03,11.59c-0.11,6.7-0.33,13.41-0.66,20.11
				c-4.18-6.37-10.37-11.35-13.81-18.2c0.13-2.13-0.37-4.22-1.15-6.2c-0.71-1.79-1.61-3.58-2.65-5.2c-1.27-1.96-3.17-3.76-5.21-4.91
				c-1.08-0.61-2.27-1.11-3.54-0.98c-1.26,0.13-2.21,0.99-2.67,2.14c-0.56,1.41-0.47,3.22-0.14,4.66c0.42,1.8,1.3,3.44,2.44,4.88
				c2.57,3.26,6.35,5.57,10.24,6.97c1.59,3.12,3.74,5.86,6.01,8.51c-1.14-0.33-2.29-0.62-3.44-0.87c-2.67-0.56-5.7-1.16-8.43-0.69
				c-2.73,0.47-5.13,3.41-3.23,5.98c0.83,1.13,2.18,1.85,3.44,2.41c1.37,0.6,2.84,1.01,4.31,1.24c1.7,0.27,3.45-0.05,5.14-0.29
				c2.42-0.34,4.87-0.88,7.08-1.96c0.03-0.01,0.05-0.03,0.08-0.05c1.9,2.34,3.63,4.78,4.91,7.54c0.09,0.19,0.2,0.33,0.32,0.45
				c-0.23,3.96-0.49,7.92-0.81,11.87c-0.57,7.06-1.38,14.11-2.57,21.09c-0.33,1.91,2.66,2.15,2.99,0.26
				c2.13-12.49,3-25.14,3.6-37.78C225.93,125.18,226,123.7,226.06,122.21z"/>
			<path class="st4" d="M304.12,140.35c-0.18-1.47-1.31-2.77-2.58-3.46c-3.26-1.8-7.41-0.44-10.44,1.23
				c-3.75,2.07-7.6,5.39-8.89,9.63c-2.77,1.73-5.51,3.51-8.21,5.36c0.55-1.28,1.03-2.59,1.44-3.9c0.87-2.79,1.76-6.21,0.74-9.09
				c-1.07-2.99-4.5-3.34-7.1-2.19c-3.1,1.37-3.52,5.6-3.42,8.54c0.07,2.13,0.4,4.24,1.02,6.28c0.44,1.45,1.01,2.92,1.87,4.19
				c-5.35,3.86-10.59,7.9-15.76,11.98c-0.25,0.09-0.47,0.26-0.63,0.47c-0.03,0.03-0.06,0.06-0.09,0.1c0,0,0,0,0,0
				c-1.17,0.92-2.33,1.85-3.49,2.78c-0.77,0.62-1.54,1.24-2.31,1.87c10.94-19.99,22.2-39.81,33.13-59.81
				c0.38-0.04,0.76-0.09,1.12-0.13c1.44-0.18,2.88-0.42,4.31-0.69c3.4-0.65,6.84-1.47,10.05-2.78c2.02-0.83,5.38-2.45,4.75-5.19
				c-0.33-1.41-1.7-2.52-3-3.02c-1.86-0.72-4-0.21-5.82,0.38c-2.47,0.8-4.8,2.03-7.03,3.37c1.91-3.54,3.8-7.08,5.67-10.64
				c3.64-1.66,7.19-3.51,9.63-6.8c1.93-2.61,3.34-5.71,4.02-8.88c0.3-1.38,0.49-2.97-0.2-4.26c-0.82-1.55-2.55-1.94-4.18-1.65
				c-4.2,0.75-6.85,3.89-8.69,7.52c-1.1,2.16-1.93,4.45-2.52,6.79c-0.5,1.98-0.91,4.04-0.85,6.09c0,0.03,0.01,0.05,0.01,0.08
				c-2.45,4.66-4.93,9.31-7.43,13.94c0.03-0.65,0.09-1.3,0.14-1.94c0.15-1.81,0.32-3.62,0.34-5.44c0.04-3.09-0.3-6.54-2.13-9.13
				c-1.35-1.91-3.95-2.65-5.51-0.53c-0.83,1.12-1.11,2.62-1.24,3.97c-0.19,1.89-0.11,3.82,0.35,5.67c1.01,4.03,3.41,7.47,4.93,11.3
				c0.1,0.25,0.24,0.44,0.4,0.57c0.01,0.13,0.03,0.27,0.07,0.39c-8.72,15.97-17.7,31.81-26.53,47.72
				c-3.38,6.1-6.75,12.2-10.07,18.34c-0.62,0.86-0.02,2.01,0.86,2.29c0.52,0.21,1.1,0.14,1.49-0.42c3.61-3.03,7.26-6.01,10.96-8.94
				c4.39,3.62,10.45,8,16.24,5.51c2.23-0.96,3.89-3.28,2.85-5.72c-1.27-2.96-5.17-4.29-8.13-4.46c-1.85-0.11-3.67,0.1-5.48,0.39
				c4.31-3.32,8.67-6.55,13.09-9.71c0.06,0.03,0.1,0.05,0.13,0.06c0.56,0.3,1.11,0.61,1.65,0.93c1.47,0.86,2.94,1.72,4.45,2.5
				c2.91,1.5,6.73,3.4,10.05,2.17c2.89-1.07,4.61-5.47,2.34-7.89c-2.19-2.34-6.32-2.27-9.26-2.19c-1.12,0.03-2.23,0.12-3.34,0.22
				c2.09-1.43,4.21-2.83,6.36-4.16c2.98,0.57,6.24-0.12,9.08-0.97c3.23-0.97,6.83-2.33,9.2-4.83
				C303.54,143.11,304.3,141.81,304.12,140.35z"/>
			<path class="st4" d="M203.43,144.66c-3.78-1.82-7.4,1.96-9.7,4.51c-1.62,1.79-3.04,3.72-4.42,5.68c0.27-1.76,0.52-3.53,0.73-5.3
				c0.4-3.48,0.59-6.97,0.49-10.46c1.15-2.32,2.08-4.77,2.9-7.22c1.09-3.25,2.17-6.8,1.94-10.26c-0.09-1.37-0.52-2.79-1.62-3.69
				c-1.15-0.94-2.72-0.98-4.1-0.62c-1.92,0.5-3.33,1.57-4.16,3.39c-0.8,1.76-0.91,3.79-0.84,5.69c0.16,4.23,1.14,8.77,2.89,12.66
				c0.16,4.62-0.28,9.24-0.96,13.83c-0.68-3.08-1.46-6.3-2.89-9.12c-0.51-1.01-1.15-2.1-2.14-2.71c-1.3-0.8-2.6-0.29-3.65,0.65
				c-2.97,2.67-2.53,6.82-1.24,10.22c1.66,4.35,4.7,8.29,8.15,11.39c-1.15,6.37-2.28,12.72-3.01,19.16
				c-0.38,3.38-0.78,6.77-1.45,10.1c-1.1-3.55-2.19-7.09-3.29-10.64c-4.47-14.42-8.95-28.83-13.13-43.34
				c2.36-1.89,4.14-4.79,5.71-7.33c1.98-3.19,3.94-6.68,4.83-10.36c0.66-2.71,0.57-6.3-2.88-6.84c-4.13-0.64-6.45,2.71-7.64,6.16
				c-1.18,3.41-1.58,7.01-2.25,10.53c-0.46-1.64-0.92-3.28-1.37-4.92c-0.78-2.85-1.54-5.7-2.29-8.56c0.03-0.04,0.07-0.07,0.1-0.11
				c3.59-4.76,8.13-8.96,10.34-14.63c1.04-2.66,1.04-5.93-2.04-7.15c-1.48-0.58-3.41-0.74-4.83,0.07c-1.61,0.92-2.54,2.65-3.21,4.31
				c-1.25,3.09-1.71,6.5-2.36,9.73c-1.23-4.96-2.41-9.92-3.52-14.91c0.63-2.62,0.54-5.55,0.48-8.21c-0.08-3.6-0.24-7.62-1.78-10.95
				c-0.6-1.28-1.54-2.54-2.95-2.97c-1.6-0.48-3.4,0.25-4.54,1.38c-2.95,2.93-1.79,7.8-0.55,11.25c0.83,2.31,1.97,4.51,3.31,6.57
				c0.86,1.33,1.87,2.75,3.15,3.75c0.84,3.74,1.72,7.48,2.62,11.21c-0.63-0.66-1.29-1.3-1.98-1.9c-2.53-2.18-6.11-4.01-9.52-2.97
				c-1.22,0.37-2.26,1.24-2.59,2.52c-0.32,1.24-0.04,2.54,0.5,3.67c1.24,2.58,3.51,4.36,6.2,5.24c3.04,1,6.29,1.5,9.49,1.82
				c2.55,9.91,5.31,19.77,8.19,29.59c-1.08-0.79-2.18-1.55-3.25-2.37c-1.82-1.39-3.53-2.93-5.35-4.32
				c-3.96-3.02-7.98-5.95-11.75-9.22c-0.8-3.49-3.1-6.48-5.73-8.82c-1.35-1.2-2.84-2.2-4.47-2.96c-1.38-0.65-2.92-1.25-4.47-1.32
				c-1.23-0.05-2.51,0.24-3.3,1.26c-0.63,0.81-0.76,1.9-0.53,2.88c0.63,2.66,2.97,4.72,5.22,6.06c3.45,2.06,7.15,3.99,11.11,4.87
				c0.08,0.13,0.18,0.25,0.3,0.36c1.39,1.21,2.81,2.37,4.26,3.5c-1.1-0.19-2.19-0.32-3.2-0.44c-3.3-0.39-7.08-0.66-10.24,0.54
				c-1.17,0.44-2.26,1.27-2.62,2.52c-0.42,1.45,0.27,3.02,1.35,3.99c2.69,2.43,7.3,2.14,10.63,1.78c2.27-0.24,4.51-0.71,6.69-1.4
				c1.4-0.44,2.88-0.99,4.1-1.87c0.32,0.24,0.64,0.49,0.97,0.73c1.82,1.39,3.53,2.94,5.35,4.32c2.12,1.61,4.34,3.04,6.34,4.8
				c0.02,0.02,0.05,0.03,0.07,0.05c0.13,0.43,0.26,0.87,0.38,1.3c0.71,2.37,1.44,4.74,2.16,7.11c-1.59-1.09-3.34-1.95-5.11-2.67
				c-1.2-0.49-2.43-0.92-3.67-1.3c-1.34-0.41-2.7-0.75-4.11-0.65c-1.1,0.07-2.22,0.54-2.85,1.48c-0.64,0.96-0.6,2.15-0.21,3.19
				c0.97,2.62,3.74,4.01,6.18,4.94c3.78,1.44,7.73,1.92,11.73,1.44c4.37,14.26,8.86,28.49,13.19,42.77
				c1.24,4.08,2.75,8.14,3.69,12.31c0.59,2.6,0.92,5.25,1.33,7.89c-1.51-3.03-3.46-5.8-5.83-8.28c-1.58-1.65-3.28-3.19-5-4.7
				c-1.79-1.59-3.52-3.25-5.25-4.9c0.02-0.09,0.04-0.19,0.04-0.29c0.22-5.51,0.76-11.35-0.58-16.77c-0.57-2.31-1.95-5.37-4.88-4.75
				c-3.91,0.83-4.16,5.25-3.55,8.44c0.44,2.28,1.21,4.49,2.01,6.66c0.03,0.09,0.06,0.17,0.1,0.26c-4.02-3.74-8.05-7.46-12.08-11.19
				c2.26-2.32,3.55-5.75,4.29-8.79c0.82-3.37,1.4-7.63-0.46-10.78c-1.6-2.7-5.57-4.01-7.67-1.11c-1.92,2.64-1.66,6.76-1.48,9.84
				c0.12,2.16,0.34,4.4,0.75,6.58c-1.49-1.38-2.98-2.76-4.46-4.15c-1.82-1.71-3.63-3.44-5.44-5.17c0.75-1.26,1.09-2.86,1.4-4.24
				c0.5-2.19,0.89-4.41,1.21-6.64c0.25-1.71,0.6-3.49,0.57-5.23c-0.02-1.74-0.28-3.49-0.69-5.18c-0.55-2.3-1.87-7.38-5.21-6.66
				c-1.86,0.4-2.82,2.6-3.42,4.18c-0.8,2.11-0.99,4.41-0.95,6.65c0.08,4.06,0.78,8.14,1.87,12.08c-1.23-1.2-2.45-2.39-3.67-3.61
				c0.2-3.03-0.56-6.28-1.35-9.11c-1.01-3.62-2.38-7.71-5.09-10.45c-1.08-1.09-2.44-1.99-4.03-2.03c-1.83-0.05-3.48,1.01-4.61,2.39
				c-2.81,3.41-0.99,8.19,1.09,11.45c2.76,4.34,7.01,8.39,11.87,10.24c0.17,0.07,0.33,0.09,0.49,0.1c1.5,1.49,3.01,2.99,4.53,4.46
				c0,0,0,0-0.01,0c-0.9-0.04-1.8-0.11-2.7-0.17c-2.07-0.13-4.14-0.24-6.21-0.14c-1.68,0.08-3.52,0.27-5.03,1.09
				c-1.39,0.76-2.31,2.07-2.77,3.58c-0.37,1.2-0.34,2.49,0.49,3.5c0.76,0.93,2.03,1.29,3.17,1.42c2.92,0.33,6.04-0.44,8.83-1.22
				c3.09-0.85,6.26-1.87,9.1-3.4c5.17,4.92,10.4,9.78,15.64,14.62c1.47,1.35,2.93,2.71,4.4,4.06c-10.17-2.87-21.26-2.42-31.71-3.69
				c-0.11-0.21-0.28-0.4-0.54-0.56c-2.85-1.69-6.58-2.07-9.83-2.25c-3.48-0.19-7.11-0.09-10.28,1.51c-1.35,0.68-2.93,1.64-3.39,3.2
				c-0.41,1.41,0.36,2.66,1.45,3.5c2.19,1.69,5.53,2.26,8.21,2.41c2.28,0.12,4.51-0.43,6.66-1.16c2.46-0.82,4.8-2.07,6.79-3.75
				c2.79,0.36,5.63,0.59,8.5,0.78c-4.15,2.06-8.27,4.77-8.83,9.5c-0.15,1.25,0.11,2.59,1.15,3.4c0.85,0.66,2.03,0.71,3.05,0.5
				c2.3-0.47,4.54-1.9,6.24-3.49c1.34-1.25,2.68-2.7,3.85-4.32c1.12-1.55,1.95-3.25,2.45-5.08c7.61,0.57,15.14,1.56,22.01,4.87
				c1.09,1.02,2.19,2.04,3.28,3.06c1.6,1.51,3.19,3.03,4.78,4.55c-2.32-0.19-4.7-0.08-6.95,0.11c-3.65,0.32-7.27,1.13-9.95,3.79
				c-1.07,1.06-1.96,2.67-0.85,4.06c0.87,1.08,2.46,1.34,3.75,1.43c1.58,0.11,3.22-0.01,4.78-0.31c0.33-0.06,0.65-0.13,0.97-0.22
				c0.19-0.05,0.37-0.11,0.55-0.16c0.08-0.02,0.16-0.05,0.23-0.07c0.01,0,0.08-0.02,0.15-0.03c0.68-0.17,1.34-0.37,2.01-0.56
				c2.13-0.63,4.24-1.31,6.34-2.05c1.28-0.45,2.6-0.9,3.8-1.55c0.78,0.69,1.55,1.38,2.3,2.1c3.76,3.63,6.61,7.7,8.41,12.62
				c0.66,1.82,3.39,0.55,2.73-1.25c-0.06-0.17-0.14-0.34-0.2-0.51c0.94,0.24,2.14-0.4,1.92-1.65c-0.52-2.97-0.86-5.98-1.45-8.94
				c-0.65-3.28-1.84-6.42-2.8-9.61c-1.24-4.1-2.49-8.2-3.75-12.3c0.11-0.14,0.2-0.31,0.26-0.52c2.27-7.99,2.5-16.37,3.86-24.54
				c0.53-3.17,1.12-6.33,1.71-9.49c0.99-0.28,1.94-0.74,2.84-1.19c1.68-0.84,3.29-1.81,4.87-2.82c3.14-2.02,6.33-4.31,8.66-7.26
				c0.86-1.08,1.66-2.42,1.7-3.83C205.94,146.59,204.88,145.36,203.43,144.66z"/>
			<path class="st4" d="M250.39,142.15c2.35-0.15,5.15-0.56,7-2.16c2.02-1.75,1.8-4.75,0.04-6.64c-2.11-2.26-5.44-1.63-7.98-0.55
				c-0.56,0.24-1.13,0.52-1.69,0.82c0.51-0.99,1.01-1.98,1.48-3c3.04-1.24,5.59-3.79,7.67-6.23c2.13-2.49,4.26-5.5,4.88-8.79
				c0.24-1.27,0.1-2.65-0.74-3.67c-0.91-1.11-2.55-1.48-3.91-1.3c-3.39,0.45-5.36,4.48-6.62,7.21c-1.57,3.41-2.63,7.03-3.68,10.63
				c-0.03,0.1-0.04,0.19-0.05,0.29c-2.48,5.54-5.69,10.65-9.06,15.68c0.11-0.95,0.21-1.9,0.28-2.85c0.23-3.14-0.05-6.06-1.83-8.73
				c-1.35-2.03-4.18-3.94-6.35-1.81c-2.49,2.44-2.12,6.66-1.36,9.73c0.94,3.84,2.82,7.53,3.91,11.21c0.03,0.09,0.06,0.17,0.09,0.25
				c-2.53,3.8-4.95,7.66-7.02,11.72c-0.37,0.73,0.22,1.66,0.91,1.92c0.84,0.31,1.55-0.19,1.92-0.91c4.18-8.2,9.79-15.54,14.74-23.27
				C245.44,142.19,247.92,142.32,250.39,142.15z"/>
		</g>
		<g>
			<path class="st169" d="M358.82,191.64c-3.1-2.88-6.81-4.55-10.79-5.85c-4.86-1.58-9.87-2.72-14.94-3.41
				c-10.17-1.38-20.67-0.92-30.66,1.46c-2.5,0.6-4.97,1.32-7.4,2.14c-3.16,1.08-6.39,2.37-8.95,4.57c-2.23,1.91-3.73,4.45-4.67,7.21
				c-2.96,8.71-3.17,18.77-1.45,27.74c1.81,9.44,6.01,19.1,13.11,25.77c6.56,6.16,15.38,9.29,24.34,9.28
				c18.43-0.03,33.71-12.51,41.92-28.34C365.49,220.31,370.13,202.15,358.82,191.64z"/>
			<path class="st10" d="M316.49,222.73c-1.64-9.16-3.79-20.01-11.34-26.27c-6.71-5.56-16.47-7.68-24.99-7.75
				c-9.02-0.08-18.49,2.06-25.72,7.7c-1.71,1.34-3.24,2.89-4.59,4.59c-6.08,7.81-9.44,17.36-11.15,27.02
				c-1.81,10.24-1.75,20.84-0.35,31.13c1.34,9.81,3.9,19.81,8.51,28.62c2.71,5.19,6.32,10.05,11.22,13.36
				c4.45,3,9.8,4.55,15.14,4.69c11.31,0.29,21.74-4.97,29.17-13.31c7.71-8.64,11.94-19.88,14.2-31.09
				C319.18,248.57,318.79,235.58,316.49,222.73z"/>
			<g>
				<path class="st1" d="M337.22,169.79c-0.06-1.78-0.22-3.86-1.41-5.29c-1.19-1.43-2.9-1.45-4.5-0.8c-1.89,0.78-3.64,2-5.33,3.13
					c-1.86,1.25-3.68,2.57-5.47,3.93c-4.46,3.4-7.87,7.61-10.39,12.62c-2.41,4.78-4.08,10.01-5.8,15.08
					c-1.51,4.43-3.13,9.68-1.85,14.36c1.64,6.01,7.76,7.87,13.41,8.05c4.27,0.14,10.36-0.32,12.99-4.25c1.6-2.4,0.99-5.57,0.99-8.29
					c0-2.32,0.12-4.63,0.46-6.93c0.21-1.41,0.47-2.81,0.75-4.21c1.06-5.33,3.57-10.24,8.58-15.2
					C342.48,179.2,337.36,173.78,337.22,169.79z"/>
				<path class="st170" d="M341.64,170.7c-0.55-1.73-1.34-3.46-2.57-4.83c-1.41-1.57-3.37-2.58-5.5-2.63
					c-2.28-0.04-4.61,1.13-5.69,3.19c-0.03,0.05-0.05,0.1-0.07,0.16c-0.05,0.08-0.09,0.15-0.13,0.24
					c-1.82,3.92-1.68,8.77,0.32,12.59c0.92,1.76,2.24,3.37,4.1,4.16c1.79,0.76,3.62,0.34,5.35-0.34c2.99-1.17,5.01-3.65,5.12-6.92
					C342.63,174.41,342.21,172.52,341.64,170.7z"/>
				<g>
					<path class="st170" d="M336.54,165.74c-0.19-0.44-0.42-0.86-0.74-1.24c-0.06-0.07-0.13-0.13-0.19-0.19
						c-14.95,11.07-26.05,27.7-30.33,45.81c-0.47,2-0.85,4.03-1.14,6.07c0.45,0.58,0.95,1.09,1.51,1.54
						c0.71-6.18,2.42-12.24,4.75-17.99c3.49-8.61,8.51-16.65,14.7-23.57C328.55,172.31,332.39,168.81,336.54,165.74z"/>
					<path class="st170" d="M338.79,174.66c-0.26-0.56-0.51-1.12-0.73-1.67c-1.24,1.3-2.35,2.73-3.38,4.17
						c-2.52,3.52-4.64,7.32-6.56,11.19c-4.01,8.08-7.38,16.66-9.53,25.43c-0.56,2.28-1.13,4.71-1.31,7.12
						c0.56,0,1.13-0.02,1.72-0.05c0.16-1.79,0.54-3.57,0.92-5.29c0.9-3.98,2.12-7.88,3.48-11.72c2.98-8.36,6.65-16.67,11.55-24.09
						C336.09,178.03,337.35,176.24,338.79,174.66z"/>
				</g>
			</g>
			<path class="st171" d="M315.43,238.67c-1.94-10.65-5.39-22.01-13.27-29.84c-3.99-3.96-8.87-6.77-14.31-8.2
				c-6.13-1.6-12.46-2.57-18.81-2.54c-6.4,0.03-12.78,1.01-18.77,3.33c-6.08,2.35-11.4,6.25-16.14,10.68
				c-8.8,8.21-14.86,18.82-17.66,30.5c-2.75,11.51-2.67,23.46-1.22,35.14c0.36,2.92,0.81,5.82,1.33,8.72
				c4.02,21.94,22.42,43.61,46.04,43.98c12.45,0.19,23.95-5.9,32.74-14.4c9.42-9.1,15.92-20.94,19.17-33.59
				C318.2,268.16,318.07,253.12,315.43,238.67z"/>
			<path class="st171" d="M412.27,225.99c-6.07-10.33-13.72-20.72-24.08-27.07c-10.01-6.14-22.13-8.41-33.62-5.73
				c-6.14,1.43-11.98,4.14-17.08,7.86c-4.02,2.93-7.25,6.73-8.97,11.44c-1.74,4.78-2.1,9.99-2.62,15.01
				c-0.8,7.76-1.15,15.53-0.76,23.33c1.25,25.42,11.77,51.94,33.84,66.25c9.86,6.39,21.57,9.54,33.15,6.48
				c11-2.91,20.27-10.48,26.21-20.09c1.54-2.49,2.86-5.11,3.98-7.81C431.56,272.93,424.17,246.25,412.27,225.99z"/>
			<path class="st10" d="M341.78,274.17c-0.32-14.73-4.63-28.79-11.85-41.58c-5.34-9.45-12.74-21.01-24.25-23.23
				c-10.62-2.05-21.44,2.82-29.43,9.49c-8.46,7.06-14.98,16.39-20.01,26.12c-4.79,9.25-8.38,19.11-9.93,29.44
				c-3.2,21.34,1.72,45.41,18.66,59.98c2.07,1.78,4.29,3.36,6.63,4.76c10.42,5.87,23.13,5.89,34.18,1.76
				c5.33-1.99,10.4-5.06,14.4-9.12c4.73-4.81,8.54-10.74,11.67-16.69C338.46,302.54,342.09,288.4,341.78,274.17z"/>
			<path class="st10" d="M400.96,280.06c-0.71-11.02-2.56-22.21-5.31-32.9c-2.71-10.56-8.7-20-17.18-26.88
				c-8.7-7.07-19.31-10.37-30.29-11.79c-5.53-0.71-11.73-0.96-16.11,3.06c-4.08,3.74-6.47,9.28-8.93,14.15
				c-12.44,24.63-13.69,53.78-3.67,79.46c2.41,6.17,5.43,12.23,9.18,17.71c3.09,4.52,7.17,8.48,12.02,11.07
				c9.67,5.16,20.85,4.58,30.95,1.03c2.64-0.93,5.2-2.06,7.7-3.34c8.77-4.59,15.15-12.13,18.48-21.43
				C401.24,300.59,401.61,290.14,400.96,280.06z"/>
			<path class="st171" d="M370.48,249.47c-1.36-3.76-2.72-7.57-4.44-11.19c-1.76-3.7-3.89-7.22-6.18-10.61
				c-1.83-2.72-3.69-5.42-6.06-7.7c-2.32-2.23-4.84-4.27-7.49-6.1c-2.26-1.56-4.66-3.03-7.22-4.04c-5.72-2.14-12.17-1.7-17.91,0.14
				c-2.95,0.94-5.74,2.34-8.23,4.18c-2.59,1.91-4.56,4.4-6.29,7.09c-3.98,6.18-6.59,13.17-8.17,20.32
				c-1.68,7.59-1.95,15.28-2.38,23.02c-0.61,10.84-1.19,21.76-0.84,32.62c0.31,9.53,1.31,19.4,5.27,28.19
				c3.85,8.56,10.85,15.08,20.07,17.34c10.72,2.63,22.09,0.71,31.32-5.32c8.77-5.73,15.01-14.75,19.1-24.26
				c4.06-9.44,6.27-19.91,6.17-30.2C377.08,271.4,374.41,260.28,370.48,249.47z"/>
		</g>
		<g>
			<path class="st4" d="M241.3,184.79c-0.53-3.25-0.61-6.61-0.64-9.9c-0.04-3.31-0.12-6.8,0.58-10.06c0.3-1.39-1.21-2.21-2.33-2.15
				c-7.93,0.44-15.85-0.34-23.25-3.35c-1.05-0.43-2.13,0.26-2.56,1.21c-3.07,6.88-6.83,13.56-9.36,20.67
				c-0.25,0.71-0.1,1.33,0.25,1.78c0.28,0.46,0.76,0.81,1.46,0.88c9.84,0.94,19.67,1.89,29.51,2.83c1.4,0.13,2.8,0.27,4.2,0.4
				C240.44,187.24,241.5,186.05,241.3,184.79z"/>
			<g>
				<path class="st170" d="M213.19,184.62c0.68,0.07,1.36,0.13,2.04,0.2c0.86-2.76,1.66-5.54,2.46-8.31
					c1.45-5.05,2.87-10.1,4.29-15.16c-0.66-0.16-1.32-0.34-1.97-0.53c-0.29,1.12-0.59,2.23-0.9,3.34
					c-1.82,6.46-3.61,12.93-5.57,19.34C213.43,183.88,213.31,184.25,213.19,184.62z"/>
				<path class="st170" d="M233.97,162.78c-0.64-0.01-1.28-0.03-1.92-0.06c-0.59,7.85-1.3,15.69-1.9,23.53
					c0.64,0.06,1.28,0.12,1.92,0.19C232.62,178.55,233.33,170.66,233.97,162.78z"/>
			</g>
			<path class="st1" d="M245.74,195.93c-0.1-3.5-0.36-6.99-0.82-10.46c-0.18-1.35-0.45-2.76-1.08-3.97
				c-0.78-1.51-1.94-2.35-3.42-3.11c-1.7-0.87-3.3-1.26-5.2-1.06c-1.61,0.17-3.23,0.12-4.84-0.06c-3.41-0.38-6.76-1.36-9.86-2.81
				c-1.65-0.77-3.14-1.52-4.96-1.86c-1.7-0.32-3.46-0.29-5.17-0.08c-3.64,0.43-7.07,1.68-9.54,4.49c-2.37,2.7-3.85,6.41-5.09,9.74
				c-1.29,3.46-2.22,7.03-3,10.63c-1.58,7.3-2.42,14.76-4.23,22.01c-0.97,3.9-2.18,7.74-3.11,11.66c-0.95,3.97-1.78,7.96-2.54,11.97
				c-1.49,7.93-2.65,15.91-3.81,23.89c-0.56,3.82-1.11,7.64-1.71,11.45c-2.55,16.04-6.12,32.05-6.13,48.37
				c0,7.27,0.08,14.78,2.53,21.7c2.24,6.35,6.53,12.12,11.64,16.47c5.09,4.34,12.42,8.17,19.3,7c3.8-0.65,6.78-3.09,9.47-5.71
				c2.78-2.71,5.33-5.67,7.59-8.82c2.14-2.99,4.01-6.16,5.64-9.46c1.72-3.47,2.92-7.14,4.4-10.71c0.73-1.76,1.03-3.7,1.5-5.54
				c0.5-1.95,0.96-3.9,1.4-5.86c0.89-4.04,1.67-8.1,2.29-12.18c1.27-8.22,2.12-16.6,2.01-24.92c-0.11-8.1-1-16.16-1.48-24.24
				c-0.24-3.98-0.46-8.02-0.18-12.01c0.27-3.87,1.15-7.66,2.12-11.41c1-3.87,2.09-7.71,2.9-11.63c0.72-3.51,1.22-7.08,1.74-10.62
				C245.19,211.18,245.95,203.6,245.74,195.93z"/>
			<g>
				<path class="st4" d="M231.53,177.37c0.48,10.79-0.2,21.66-1.37,32.37c-0.72,6.58-1.67,13.14-2.87,19.65
					c-1.19,6.49-3.06,12.89-4.03,19.41c-1.13,7.57-1.14,15.22-1.13,22.85c0.01,7.91-0.24,15.76-0.99,23.64
					c-0.73,7.76-1.83,15.48-3.29,23.14c-1.43,7.49-3.31,14.88-5.05,22.29c-1.55,6.64-4,12.97-6.17,19.42
					c-1.32,3.93-2.61,8.11-4.42,11.96c0.75-0.01,1.51-0.07,2.26-0.18c1.2-2.77,2.18-5.67,3.14-8.45c0.96-2.79,1.87-5.6,2.84-8.39
					c0.94-2.73,2.03-5.4,2.84-8.18c1.04-3.58,1.8-7.24,2.65-10.87c0.85-3.65,1.8-7.27,2.59-10.93c1.66-7.63,2.95-15.34,3.89-23.1
					c0.95-7.82,1.58-15.7,1.68-23.59c0.1-7.87-0.18-15.76,0.46-23.61c0.58-7.04,2.45-13.77,3.84-20.67
					c1.29-6.43,2.33-12.91,3.16-19.41c1.57-12.31,2.53-24.87,1.97-37.31C232.87,177.42,232.2,177.41,231.53,177.37z"/>
				<path class="st4" d="M201.63,334.25c2.13-13.97,4.13-27.94,5.88-41.96c1.96-15.71,4.21-31.39,6.35-47.08
					c1.68-12.34,3.34-24.68,5.3-36.98c1.71-10.71,3.55-21.44,6.1-32c-0.65-0.19-1.29-0.41-1.92-0.64
					c-2.16,8.93-3.78,18.01-5.29,27.05c-2.11,12.65-3.86,25.36-5.58,38.07c-2.01,14.82-4.07,29.63-6.04,44.46
					c-1.91,14.34-3.73,28.69-5.89,43c-2.12,14.06-4.36,28.11-6.38,42.19c0.63,0.26,1.27,0.5,1.91,0.71
					C197.83,358.79,199.75,346.52,201.63,334.25z"/>
				<path class="st4" d="M186.31,365.66c0.69,0.55,1.41,1.08,2.16,1.6c-1.41-13.52-1.71-27.16-1.12-40.74
					c0.34-7.7,0.96-15.38,1.87-23.03c0.92-7.67,2.24-15.29,3.27-22.94c2.16-16.17,3.52-32.45,5.9-48.59
					c0.62-4.19,1.66-8.31,2.68-12.41c1.6-6.4,3.14-12.82,4.72-19.23c1.24-5.04,2.96-9.98,4.65-14.88c1.48-4.32,3.03-8.62,4.58-12.92
					c-0.69-0.1-1.38-0.16-2.08-0.16c-2.97,8.13-5.92,16.28-8.31,24.59c-1.73,6.03-3.01,12.21-4.54,18.29
					c-1.15,4.59-2.37,9.18-3.23,13.84c-1.26,6.81-1.89,13.78-2.69,20.65c-0.97,8.35-1.89,16.71-2.94,25.06
					c-1,7.94-2.3,15.83-3.38,23.76c-1.01,7.46-1.75,14.95-2.22,22.47C184.73,335.88,184.87,350.83,186.31,365.66z"/>
			</g>
		</g>
		<g>
			<g>
				<g>
					<path class="st170" d="M530.28,188.16c-3-15.48-4.4-31.2-5.45-46.91c-0.32-4.73-0.6-9.47-0.87-14.2
						c-0.15-2.58-4.13-2.19-3.98,0.38c0.94,16.08,1.91,32.2,4.16,48.16c0.61,4.33,1.33,8.65,2.16,12.95
						c0.21,1.06,1.03,1.91,2.18,1.8C529.47,190.25,530.49,189.22,530.28,188.16L530.28,188.16z"/>
					<path class="st170" d="M522.47,190.04c-11.46-13.09-22.18-26.78-31.38-41.56c-2.67-4.29-5.22-8.64-7.69-13.05
						c-0.53-0.94-1.99-1.03-2.79-0.45c-0.96,0.69-0.98,1.85-0.45,2.79c8.4,15.01,18,29.22,28.87,42.56
						c3.32,4.08,6.74,8.09,10.21,12.05C520.91,194.3,524.17,191.98,522.47,190.04L522.47,190.04z"/>
					<path class="st170" d="M519.76,196.16c-13.88-11.41-29.77-19.85-46.21-26.96c-4.95-2.14-9.94-4.17-14.95-6.15
						c-2.39-0.95-4.03,2.7-1.62,3.66c16.69,6.62,33.36,13.74,48.35,23.73c4.12,2.75,8.1,5.7,11.92,8.84
						C519.24,200.91,521.75,197.8,519.76,196.16L519.76,196.16z"/>
				</g>
				<g>
					<path class="st1" d="M560.68,46.85c-0.1-3.05-1.47-6.22-4.64-7.07c-1.78-0.48-3.58-0.17-5.29,0.54
						c2.8-5.86,5.25-11.83,3.18-18.5c-0.79-2.54-2.63-5.24-5.65-4.75c-2.74,0.45-4.85,3-6.44,5.08c-0.04,0.06-0.08,0.12-0.13,0.18
						c0.24-1.83,0.46-3.66,0.59-5.5c0.21-2.88,0.32-5.83-0.07-8.71c-0.32-2.33-0.97-4.88-2.77-6.53c-1.69-1.54-4.45-1.82-6.63-1.43
						c-2.47,0.44-4.56,1.75-6.24,3.59c-3.71,4.07-5.17,10.07-5.85,15.38c-0.37,2.93-0.55,5.99-0.42,9.02
						c-0.72-1.02-1.48-2.01-2.32-2.94c-2.56-2.82-6.55-5.31-9.82-1.99c-2.34,2.38-2.92,6.33-3.23,9.5
						c-0.44,4.39-0.31,8.86,0.11,13.26c-0.12-0.15-0.23-0.31-0.35-0.46c-1.37-1.67-3.03-2.8-5.22-2.93
						c-1.21-0.08-2.46,0.01-3.58,0.5c-5.18,2.27-4.68,9.4-4,13.99c1.19,8.15,3.97,16.09,6.85,23.77c3.28,8.74,6.99,17.31,10.9,25.77
						c2.94,6.37,5.99,12.69,9.19,18.92c0.25,0.48,0.49,0.96,0.74,1.44c0.11,0.21,0.24,0.39,0.39,0.56c0.32,1.41,2.32,2.39,3.53,0.93
						c5.69-6.91,9.64-14.97,15.06-22.05c1.32-1.72,2.75-3.33,3.96-5.13c1.17-1.74,2.27-3.53,3.33-5.34
						c2.42-4.12,4.65-8.39,6.4-12.84c1.31-3.35,3.01-7.72,1.86-11.36c-0.87-2.74-3.05-3.47-5.42-3.32c3.19-3.86,6.78-7.43,9.42-11.7
						C559.98,53.77,560.8,50.36,560.68,46.85z"/>
					<path class="st1" d="M488.72,83.6c-1.5-1.73-3.26-1.82-4.95-1.17c1.2-3.86,2.72-7.65,3.3-11.67c0.63-4.44-1.42-13.16-7.42-12.4
						c-1.37,0.17-2.55,0.81-3.57,1.69c0.21-5.18,0.03-10.34-3.6-14.54c-1.6-1.84-4.06-3.46-6.43-1.89c-1.69,1.12-2.49,3.17-3.05,5.1
						c-0.29-1.03-0.61-2.05-0.95-3.07c-0.77-2.32-1.68-4.59-2.89-6.72c-0.94-1.66-2.23-3.42-4.04-4.21
						c-3.96-1.74-8.41,1.74-9.81,5.32c-1.74,4.46-0.98,9.6,0.22,14.09c0.56,2.13,1.31,4.3,2.22,6.39c-0.55-0.32-1.11-0.63-1.68-0.91
						c-2.84-1.38-6.84-2.1-8.54,1.33c-1.32,2.65-0.46,6.07,0.32,8.74c0.96,3.28,2.38,6.41,3.97,9.44c-2.54-1.19-5.72-0.6-7.59,1.55
						c-3.13,3.59-0.33,8.94,1.7,12.31c3.55,5.88,8.31,11.05,13.01,16.01c5.34,5.64,10.97,11.02,16.71,16.25
						c4.64,4.23,9.36,8.38,14.19,12.38c0.13,0.11,0.27,0.19,0.4,0.26c0.33,0.37,0.76,0.64,1.2,0.71c1.18,0.19,1.99-0.61,2.3-1.65
						c2.16-7.28,2.55-14.9,4.52-22.21c0.89-3.31,1.63-6.51,2.06-9.93c0.51-4.04,0.83-8.15,0.69-12.23
						C490.93,89.65,490.73,85.91,488.72,83.6z"/>
					<path class="st1" d="M459.41,163.71c-0.85-1.43-1.97-2.72-3.05-3.99c-1.87-2.19-3.83-4.31-5.82-6.39
						c-5.09-5.36-10.42-10.49-15.93-15.43c-5.58-5-11.36-9.86-17.55-14.09c-2.59-1.77-5.27-3.46-8.11-4.82
						c-2.05-0.98-4.3-1.89-6.59-2.05c-2.28-0.16-4.58,0.48-5.92,2.46c-0.59,0.87-0.94,1.84-1.15,2.86c-1.35-1.78-2.55-3.7-3.76-5.52
						c-2.23-3.33-4.53-6.84-7.68-9.38c-4.89-3.94-12.83-4.53-16.14,1.65c-1.3,2.43-1.54,5.22-1.27,7.97c-3-1.81-6.21-3.32-9.5-4.41
						c-4.07-1.35-9.43-2.66-13.29-0.03c-3.98,2.71-3.82,8.97-1.98,12.89c2.08,4.45,6.25,7.25,10.5,9.42c2,1.02,4.19,1.91,6.35,2.84
						c-1.25,0.14-2.5,0.36-3.72,0.69c-3.31,0.88-6.71,3-7.19,6.69c-0.25,1.98,0.37,3.93,1.28,5.66c1.02,1.94,2.53,3.19,4.4,4.29
						c3.68,2.17,8.04,3.19,12.21,3.97c1.59,0.3,3.19,0.53,4.8,0.75c-0.5,0.4-0.97,0.82-1.38,1.32c-1.84,2.23-2.27,5.29-1.15,7.95
						c1.32,3.15,4.27,5.77,7.5,6.84c3.71,1.23,7.68,0.99,11.5,0.55c2.32-0.27,4.7-0.69,7.07-0.92c-2.05,2.17-3.27,4.85-1.27,7.61
						c2.63,3.63,8.37,4.24,12.47,4.29c13.06,0.16,24.37-6.71,35.59-12.52c5.75-2.98,11.58-6.36,17.86-8.11
						c1.15-0.32,1.46-1.3,1.22-2.19C459.67,164.29,459.58,164,459.41,163.71z"/>
				</g>
				<g>
					<path class="st170" d="M530.22,83.89c-1.05,1.68-2.58,3.97-4.18,6.59c-1.25,1.96-2.41,3.8-3.3,5.37
						c-0.03-5.32,0.11-10.64,0.77-15.93c0.55-4.42,1.38-8.79,2.3-13.14c0.39-0.28,0.81-0.78,1.31-1.42c0.5-0.64,1.12-1.43,1.84-2.35
						c0.73-0.92,1.56-1.98,2.35-3.19c2.91-4.42,5.68-7.76,5.31-8.08c-0.34-0.3-3.54,2.69-6.7,7.08c-1.01,1.39-2.19,2.56-3.19,3.64
						c0.56-2.53,1.12-5.07,1.66-7.6c1.73-8.13,3.06-16.34,4.19-24.58c1.28-9.37,2.43-18.77,3.27-28.19
						c0.11-1.28-1.88-1.43-1.99-0.15c-1.5,16.76-3.57,33.62-6.91,50.12c-1.69,8.35-3.83,16.59-5.08,25.03
						c-0.14,0.97-0.27,1.95-0.38,2.92c-0.72-0.98-1.69-2.09-2.75-3.28c-2.85-3.17-5.27-5.55-5.61-5.27
						c-0.38,0.32,1.67,3.11,4.28,6.33c1.86,2.29,2.88,4.55,3.77,5.46c-0.52,6.35-0.48,12.71-0.33,19.11c0.1,4.4,0.28,8.8,0.31,13.19
						c0.02,3.75-0.24,12.18,0.12,15.92c0.12,1.28,2.06,0.91,1.94-0.37c-0.33-3.39-0.06-11.48-0.06-14.89
						c-0.01-3.68-0.15-7.36-0.25-11.04c-0.04-1.73-0.08-3.45-0.12-5.18c1.14-1.4,2.43-4.77,4.69-8.64c1.5-2.66,2.89-5.09,3.72-6.95
						c0.86-1.85,1.08-3.14,0.86-3.19C531.84,81.17,531.29,82.23,530.22,83.89z"/>
					<path class="st170" d="M475.51,119.31c-0.58-1.27-1.15-2.55-1.72-3.82c0.46-1.45,0.3-4.42,0.75-8.07
						c0.27-2.52,0.53-4.83,0.55-6.53c0.04-1.7-0.23-2.76-0.46-2.72c-0.24,0.03-0.34,1.01-0.66,2.62c-0.29,1.61-0.73,3.85-1.11,6.38
						c-0.28,1.64-0.54,3.18-0.72,4.53c-1.67-3.93-3.21-7.91-4.36-12.04c-0.97-3.48-1.73-7.01-2.41-10.55
						c0.22-0.34,0.39-0.82,0.55-1.43c0.31-1.29,0.91-3.21,1.36-5.61c0.76-4.32,1.78-7.78,1.31-7.93c-0.43-0.15-1.98,3.16-2.98,7.55
						c-0.26,1.14-0.67,2.21-1.05,3.19c-0.33-1.78-0.65-3.56-0.99-5.34c-1.3-6.84-2.95-13.61-4.76-20.33
						c-2.05-7.61-4.22-15.21-6.63-22.71c-0.39-1.21-2.36-0.84-1.96,0.39c4.33,13.49,8.26,27.26,11.03,41.17
						c1.34,6.74,2.36,13.53,4.09,20.19c0.18,0.69,0.37,1.37,0.57,2.05c-0.81-0.44-1.79-0.89-2.83-1.37
						c-3.22-1.47-5.86-2.49-6.06-2.09c-0.22,0.44,2.22,1.97,5.24,3.58c2.13,1.13,3.59,2.54,4.59,2.92c1.6,4.84,3.59,9.53,5.68,14.2
						c1.54,3.42,3.13,6.82,4.63,10.26c1.25,2.9,4.63,10.31,6.13,13.09c0.61,1.13,1.74-0.31,1.13-1.44
						C481.59,134.24,477.95,124.69,475.51,119.31z"/>
					<path class="st170" d="M461.68,165.07c-6.26-1.01-16.38-2.96-22.63-3.99c-1.94-0.32-3.86-0.74-5.78-1.14
						c-1.07-1.35-3.65-3.19-6.48-5.9c-4.05-3.88-7.31-7.09-7.66-6.75c-0.32,0.32,2.51,3.88,6.44,7.94c1.41,1.46,2.72,2.84,3.86,3.97
						c-4-0.73-8.02-1.41-11.91-2.63c-4.08-1.28-7.82-3.42-11.65-5.29c-3-1.46-6-2.9-9-4.35c-0.24-0.57-0.76-1.28-1.51-2.15
						c-1.39-1.62-3.5-3.79-5.73-6.47c-2.13-2.56-3.97-4.95-5.27-6.7c-0.61-0.84-1.11-1.54-1.51-2.09c-0.34-0.5-0.56-0.78-0.68-0.74
						c-0.11,0.04-0.08,0.4,0.12,1.03c0.21,0.6,0.59,1.44,1.13,2.41c1.09,1.95,2.8,4.48,4.87,7.13c1.6,2.05,3.05,3.98,4.31,5.51
						c-7.57-3.67-15.09-7.43-22.39-11.62c-8.64-4.97-16.99-10.54-24.42-17.22c-0.95-0.85-2.47,0.45-1.52,1.31
						c13.34,12,29.29,20.45,45.3,28.28c4.07,1.99,8.15,3.94,12.23,5.91c2.4,1.16,4.79,2.41,7.2,3.61c-1.99,0.12-4.34,0.43-6.93,0.82
						c-3.51,0.53-6.66,1.2-8.89,1.97c-1.11,0.38-1.99,0.78-2.54,1.17c-0.56,0.38-0.74,0.74-0.66,0.81c0.1,0.08,0.37-0.06,0.95-0.24
						c0.58-0.19,1.45-0.41,2.55-0.64c2.21-0.47,5.33-0.94,8.79-1.36c3.46-0.41,6.63-0.43,8.86-0.4c1.03,0.01,1.85,0.03,2.43,0.02
						c0.06,0.03,0.12,0.06,0.18,0.08c4.04,1.69,8.38,2.55,12.67,3.34c3.44,0.64,6.86,1.39,10.29,2.03c6.96,1.3,17.83,3.28,24.81,4.4
						C462.8,167.3,462.94,165.28,461.68,165.07z"/>
				</g>
			</g>
			<g>
				<path class="st172" d="M551.58,294.97c-0.35-0.39,0.83-1.94,2.03-4.38c0.63-1.2,1.18-2.66,1.68-4.22
					c0.46-1.58,0.79-3.28,0.96-4.97c0.13-1.7,0.1-3.39-0.07-4.94c-0.22-1.54-0.5-2.96-0.92-4.1c-0.1-0.29-0.19-0.56-0.27-0.83
					c-0.11-0.25-0.21-0.49-0.31-0.72c-0.18-0.45-0.35-0.84-0.53-1.14c-0.32-0.61-0.5-0.96-0.5-0.96l2.45-1.18
					c0,0,0.23,0.4,0.64,1.09c0.22,0.34,0.43,0.78,0.66,1.3c0.12,0.26,0.25,0.53,0.38,0.82c0.11,0.3,0.23,0.61,0.35,0.94
					c0.51,1.32,0.87,2.93,1.13,4.7c0.21,1.77,0.23,3.69,0.03,5.62c-0.24,1.91-0.7,3.82-1.35,5.54c-0.69,1.7-1.49,3.26-2.4,4.44
					C553.76,294.4,551.97,295.46,551.58,294.97z"/>
				<path class="st86" d="M573.3,229.72c-0.45-7.16-2.06-14.43-5.36-20.84c-0.83-1.61-1.74-3.18-2.77-4.67
					c-5.48-7.6-13.92-12.7-22.75-15.48c-4.34-1.37-9.02-2.28-13.55-1.4c-4.77,0.93-8.69,3.85-11.86,7.43
					c-3.26,3.67-5.51,8.41-7.46,12.88c-2,4.6-3.37,9.4-3.88,14.4c-0.24,2.4-0.37,4.87-0.04,7.27c0.27,2.02,0.82,4.03,1.42,5.98
					c1.18,3.83,2.85,7.49,4.83,10.97c3.84,6.75,9.08,12.85,15.27,17.54c5.56,4.21,12.22,7.57,19.26,8.15
					c6.05,0.49,12.1-1.02,16.49-5.35c4.24-4.19,6.66-10,8.27-15.63C573.1,244.09,573.74,236.82,573.3,229.72z"/>
				<path class="st172" d="M528.87,187.34c3.24-0.63,6.54-0.35,9.75,0.37c-4.76,7.46-15.58,11.82-24.36,10.73
					c0.83-1.3,1.74-2.54,2.74-3.68C520.17,191.18,524.1,188.27,528.87,187.34z"/>
			</g>
		</g>
		<g>
			<path class="st6" d="M576.56,199.78c2.58-2.06,4.88-4.5,7.11-6.92c2.24-2.43,4.64-4.97,6.3-7.86c0.71-1.24,2.37-0.83,3.17-0.03
				c5.6,5.64,11.99,10.37,19.51,13.09c1.07,0.39,1.41,1.62,1.09,2.61c-2.32,7.17-4.02,14.64-6.9,21.62
				c-0.29,0.7-0.81,1.05-1.38,1.16c-0.52,0.16-1.11,0.1-1.67-0.32c-7.94-5.89-15.87-11.78-23.81-17.67
				c-1.13-0.84-2.26-1.68-3.39-2.51C575.55,202.18,575.56,200.58,576.56,199.78z"/>
			<g>
				<path class="st151" d="M597.53,218.49c-0.55-0.41-1.1-0.81-1.65-1.22c1.21-2.62,2.47-5.22,3.74-7.82
					c2.3-4.72,4.64-9.42,6.97-14.13c0.6,0.32,1.2,0.63,1.82,0.93c-0.53,1.03-1.06,2.05-1.57,3.08c-2.98,6.01-5.98,12.01-8.82,18.09
					C597.85,217.77,597.7,218.13,597.53,218.49z"/>
				<path class="st151" d="M596.74,188.35c0.48,0.42,0.97,0.84,1.46,1.24c-4.82,6.22-9.55,12.52-14.36,18.74
					c-0.52-0.38-1.04-0.77-1.55-1.15C587.18,200.96,591.93,194.63,596.74,188.35z"/>
			</g>
			<path class="st10" d="M565.79,205.07c2.42-2.54,4.95-4.94,7.62-7.22c1.03-0.88,2.18-1.74,3.47-2.23c1.59-0.6,3.01-0.44,4.63-0.02
				c1.84,0.49,3.29,1.27,4.57,2.69c1.09,1.21,2.31,2.25,3.63,3.2c2.78,2,5.92,3.52,9.2,4.52c1.74,0.53,3.35,0.97,4.93,1.94
				c1.47,0.9,2.76,2.11,3.9,3.41c2.41,2.76,4.13,5.98,4.08,9.73c-0.05,3.59-1.44,7.34-2.74,10.64c-1.36,3.43-3.06,6.7-4.89,9.9
				c-3.72,6.48-8.09,12.58-11.61,19.18c-1.89,3.55-3.57,7.21-5.5,10.74c-1.95,3.58-4.01,7.11-6.14,10.59
				c-4.21,6.88-8.69,13.58-13.17,20.29c-2.14,3.21-4.29,6.42-6.4,9.65c-8.86,13.62-16.93,27.89-27.85,40.02
				c-4.87,5.4-9.96,10.91-16.42,14.42c-5.92,3.21-12.97,4.63-19.68,4.44c-6.69-0.19-14.69-2.26-19.02-7.74
				c-2.39-3.03-2.97-6.84-3.2-10.58c-0.24-3.87-0.16-7.78,0.27-11.63c0.41-3.66,1.15-7.26,2.15-10.8c1.05-3.73,2.61-7.26,3.91-10.9
				c0.64-1.79,1.72-3.44,2.6-5.12c0.94-1.78,1.9-3.54,2.89-5.29c2.04-3.59,4.19-7.13,6.46-10.58c4.57-6.95,9.54-13.74,15.21-19.85
				c5.51-5.94,11.57-11.33,17.34-17c2.84-2.8,5.71-5.65,8.18-8.79c2.39-3.05,4.28-6.46,6.07-9.89c1.85-3.54,3.61-7.13,5.64-10.57
				c1.82-3.09,3.84-6.07,5.83-9.05C555.99,216.76,560.5,210.62,565.79,205.07z"/>
			<g>
				<path class="st171" d="M588.78,200.81c-7.58,7.69-14.36,16.21-20.67,24.95c-3.87,5.37-7.56,10.88-11.04,16.51
					c-3.47,5.62-6.36,11.61-10.01,17.11c-4.23,6.38-9.35,12.06-14.47,17.72c-5.3,5.86-10.38,11.87-15.1,18.21
					c-4.66,6.25-9.02,12.72-13.06,19.38c-3.95,6.52-7.51,13.26-11.19,19.93c-3.3,5.97-5.72,12.31-8.43,18.56
					c-1.65,3.8-3.5,7.77-4.73,11.84c-0.56-0.51-1.07-1.06-1.55-1.65c0.96-2.87,2.18-5.67,3.33-8.38c1.15-2.72,2.36-5.41,3.52-8.13
					c1.13-2.66,2.11-5.37,3.37-7.97c1.63-3.36,3.51-6.58,5.32-9.84c1.81-3.28,3.53-6.6,5.39-9.85c3.88-6.78,8.09-13.37,12.58-19.75
					c4.54-6.44,9.35-12.72,14.55-18.64c5.2-5.91,10.69-11.58,15.48-17.84c4.29-5.62,7.4-11.87,11-17.92
					c3.35-5.64,6.92-11.14,10.66-16.52c7.08-10.19,14.78-20.16,23.53-29.02C587.75,199.96,588.25,200.39,588.78,200.81z"/>
				<path class="st171" d="M505.88,337.32c7.78-11.79,15.65-23.51,23.74-35.09c9.07-12.98,17.9-26.13,26.82-39.21
					c7.01-10.29,14.05-20.56,20.84-31c5.91-9.09,11.73-18.3,16.91-27.84c0.61,0.29,1.23,0.56,1.85,0.82
					c-4.38,8.08-9.26,15.9-14.2,23.63c-6.91,10.81-14.13,21.41-21.36,32.01c-8.43,12.35-16.83,24.73-25.3,37.05
					c-8.19,11.93-16.45,23.79-24.43,35.86c-7.85,11.86-15.6,23.79-23.53,35.6c-0.64-0.23-1.27-0.48-1.89-0.76
					C492.26,358.08,499.05,347.68,505.88,337.32z"/>
				<path class="st171" d="M496.2,370.9c-0.88-0.05-1.77-0.14-2.67-0.26c10.11-9.09,19.47-19.02,28.12-29.49
					c4.91-5.94,9.59-12.06,14.04-18.35c4.46-6.31,8.58-12.85,12.95-19.22c9.23-13.45,19.13-26.45,28.17-40.03
					c2.35-3.52,4.33-7.28,6.32-11.01c3.1-5.82,6.25-11.62,9.38-17.44c2.46-4.57,4.48-9.39,6.52-14.17c1.79-4.2,3.53-8.43,5.26-12.66
					c0.58,0.39,1.13,0.81,1.65,1.27c-3.25,8.02-6.51,16.06-10.3,23.83c-2.75,5.64-5.94,11.08-8.88,16.62
					c-2.22,4.18-4.39,8.41-6.87,12.44c-3.63,5.9-7.83,11.49-11.84,17.13c-4.87,6.85-9.79,13.67-14.61,20.57
					c-4.58,6.56-8.89,13.29-13.41,19.9c-4.25,6.22-8.72,12.28-13.41,18.17C517.34,349.85,507.21,360.86,496.2,370.9z"/>
			</g>
		</g>
		<g>
			<path class="st17" d="M180.38,305.8c-0.73-3.92-2.35-7.33-4.1-10.87c-4.26-8.62-7.02-17.79-9.36-27.09
				c-1.02-4.07-2.29-8.12-4.33-11.82c-1.98-3.59-4.86-7.5-8.85-8.98c-2.12-0.79-4.4-0.81-6.62-0.64c-2.32,0.18-4.66,0.79-6.51,2.25
				c-3.73,2.95-6.04,7.53-7.76,11.85c-1.86,4.65-2.91,9.5-4.26,14.3c-1.27,4.51-2.71,8.97-4.46,13.32
				c-0.92,2.29-1.93,4.55-3.02,6.76c-0.9,1.83-1.9,3.61-2.62,5.52c-1.28,3.36-1.97,6.98-2.02,10.57
				c-0.11,7.18,2.09,14.32,6.44,20.06c4.83,6.39,11.81,9.82,19.56,11.27c1.43,0.27,2.88,0.45,4.33,0.56
				c0.19,0.06,0.4,0.11,0.64,0.11c0.72,0,1.45,0,2.17,0c0.2,0,0.39-0.03,0.57-0.08c7.5-0.43,15.14-2.84,20.73-7.96
				c5.26-4.82,8.57-11.45,9.65-18.47C181.08,312.96,181.03,309.3,180.38,305.8z"/>
			<g>
				<path class="st4" d="M150.83,252.46c-0.49-4.31-0.29-8.7,0.38-12.98c0.58-3.71,1.51-7.6,3.45-10.86
					c1.31-2.2-1.97-4.49-3.29-2.27c-2.25,3.77-3.38,8.1-4.08,12.39c-0.78,4.74-0.94,9.61-0.41,14.39
					C147.17,255.7,151.11,255.01,150.83,252.46L150.83,252.46z"/>
				<path class="st4" d="M147.42,237.38c-0.97-0.01-1.93-0.04-2.9-0.15c-0.44-0.05-0.87-0.11-1.3-0.19c-0.1-0.02-0.2-0.04-0.3-0.06
					c-0.28-0.05,0.33,0.09,0.06,0.01c-0.22-0.06-0.44-0.11-0.66-0.17c-0.83-0.24-1.64-0.56-2.42-0.93
					c-0.13-0.06-0.25-0.12-0.38-0.19c0.17,0.09,0.17,0.09,0,0c-0.21-0.12-0.42-0.23-0.63-0.35c-0.51-0.29-1-0.6-1.5-0.92
					c-0.88-0.57-2.2-0.42-2.78,0.51c-0.56,0.9-0.43,2.17,0.51,2.78c1.82,1.18,3.76,2.26,5.85,2.86c1.99,0.58,4.04,0.76,6.1,0.78
					c1.05,0.01,2.12-0.68,2.17-1.82C149.28,238.53,148.53,237.39,147.42,237.38L147.42,237.38z"/>
				<path class="st1" d="M138.51,237.92c0.66-0.29,1.22-0.9,1.2-1.63c-0.37-13.36-13.72-21.25-24.99-25.08
					c-3.48-1.19-7.07-2.08-10.71-2.68c-1.19-0.2-2.47,1.14-2.15,2.33c1.99,7.33,4.5,15.09,9.52,20.97c3.87,4.53,9.19,7.15,15.13,7.5
					c3.88,0.23,7.77-0.35,11.53-1.24c0.06-0.01,0.11-0.04,0.16-0.06c0.07-0.02,0.14-0.04,0.21-0.07
					C138.45,237.94,138.48,237.93,138.51,237.92z"/>
				<path class="st4" d="M135.51,233.56c-2.23-0.91-4.33-2.06-6.36-3.34c-0.04-0.07-0.08-0.15-0.14-0.21
					c-1.3-1.16-2.33-2.56-3.3-3.97c-1-1.45-1.98-2.96-2.67-4.59c-0.21-0.5-0.94-0.61-1.37-0.36c-0.51,0.3-0.57,0.87-0.36,1.37
					c0.58,1.38,1.37,2.67,2.21,3.92c-1.19-0.86-2.38-1.72-3.58-2.55c-2.55-1.77-4.96-3.6-7.21-5.75c-1.07-1.02-2.07-2.11-3.14-3.12
					c-0.98-0.92-2.12-1.87-2.5-3.2c-0.35-1.23-2.29-0.71-1.93,0.53c0.37,1.27,1.18,2.29,2.11,3.21c1.07,1.08,2.16,2.14,3.25,3.21
					c1.98,1.95,4.08,3.72,6.31,5.35c-0.93,0.05-1.86,0.14-2.78,0.29c-0.52,0.08-0.85,0.76-0.7,1.23c0.18,0.56,0.67,0.79,1.23,0.7
					c0.12-0.02,0.23-0.03,0.35-0.05c0.02,0,0.02,0,0.03,0c0.05-0.01,0.1-0.01,0.15-0.02c0.2-0.02,0.4-0.05,0.6-0.06
					c0.43-0.04,0.87-0.07,1.3-0.09c0.84-0.04,1.69-0.05,2.53-0.06c4.96,3.48,9.77,7.19,15.43,9.49
					C136.17,235.98,136.68,234.04,135.51,233.56z"/>
			</g>
			<path class="st68" d="M151.78,252.21c-1.08-0.43-2.76-0.22-3.54-0.17c-1.56,0.1-3.78,0.51-3.2,2.63c0.43,1.59,3.2,1.27,4.37,1.19
				c1.56-0.11,3.44-0.31,3.36-2.34C152.74,252.83,152.34,252.43,151.78,252.21z"/>
		</g>
		<g>
			<g>
				<path class="st1" d="M76.62,159.61c1.31-0.71,2.47-1.8,3.52-2.84c1.01-0.99,2.35-2.49,1.83-4.01c-0.21-0.61-0.86-0.85-1.45-0.68
					c-2.71,0.78-3.82,3.24-5.3,5.38c-0.12,0.18-0.18,0.36-0.2,0.55c-0.09,0.1-0.15,0.21-0.18,0.33c-0.94,0.81-1.81,1.7-2.81,2.42
					c-0.74,0.53-1.39,1.25-2.07,1.86c-0.74,0.66-1.49,1.32-2.23,1.99c-1.42,1.29-2.59,2.82-3.75,4.34c-0.51,0.66-1,1.33-1.49,2.01
					c0-0.04,0.01-0.09,0.01-0.13c0.2-1.84,0.41-3.68,0.62-5.52c0.04-0.05,0.08-0.1,0.12-0.14c0.56-0.59,1.2-1.11,1.8-1.67
					c1.17-1.09,2.46-2.22,3.13-3.72c0.27-0.61,0.48-1.65-0.27-1.71c-1.77-0.13-3.31,2.09-4.42,4.11c0.11-0.92,0.21-1.85,0.32-2.77
					c0.21-0.4,0.31-0.88,0.31-0.89c0.04-0.24,0.11-0.48,0.18-0.72c0.17-0.64,0.36-1.27,0.52-1.91c0.31-1.24,0.56-2.65,0.09-3.88
					c-0.27-0.72-1.09-0.93-1.72-0.54c-2.27,1.4-1.91,4.92-1.37,7.27c0,0.08,0.02,0.15,0.04,0.22c-0.14,1.22-0.28,2.44-0.43,3.66
					c-1.25-2.34-3.03-5.35-4.94-5.79c-0.79-0.18-1.63,0.72-1.27,1.5c0.69,1.51,1.83,2.7,3.05,3.8c0.63,0.57,1.21,1.21,1.85,1.77
					c0.29,0.26,0.68,0.57,1.05,0.88c-0.12,0.95-0.23,1.9-0.34,2.84c-1.63-2.28-4.53-5.17-6.07-2.95c-0.98,1.42,0.64,2.75,1.69,3.51
					c1.01,0.73,2.15,1.47,3.32,1.97c0,0.01,0.34,0.09,0.76,0.14c-0.41,3.67-0.74,7.34-0.86,11.01c-0.11,3.64,0.03,7.29,0.37,10.91
					c-1.03-1.61-2.18-3.16-3.32-4.68c-1.03-1.36-2.09-2.71-3.13-4.06c0.72-0.49,0.77-4.01,0.76-4.69c-0.01-1.24-0.02-2.54-0.48-3.71
					c-0.28-0.72-1.44-1.1-1.94-0.34c-1.12,1.72-0.35,5.12,0.09,6.66c-0.93-1.25-1.84-2.52-2.68-3.83c-0.01-0.01-0.01-0.02-0.02-0.02
					c-1.01-1.88-2.75-4.87-3.54-5.65c-0.78-0.77-2.32-1.86-3.43-1.08c-1.43,1.01,0.07,3.07,0.81,3.97c1.33,1.63,3.32,2.54,4.68,4.13
					c0.7,1.07,1.43,2.11,2.19,3.13c-2.15-1.07-4.75-1.89-5.09-0.89c-0.49,1.44,1.42,3.24,3.09,3.73c0.61,0.18,2.74,0.16,4.06-0.12
					c0.58,0.75,1.16,1.5,1.74,2.25c-1.31,0-2.66,0.36-3.62,0.89c-0.63,0.35-0.61,1.39-0.07,1.8c1.13,0.87,3.87,0.36,5.52-0.3
					c1.99,2.63,3.96,5.41,5.11,8.49c0.07,0.46,0.16,0.91,0.24,1.37c-0.44-0.45-0.89-0.88-1.37-1.19c-1.06-0.69-3.24-1.82-4.45-0.75
					c-2.81,2.49,4.5,4.59,6.17,5.15c0.03,0.03,0.14,0.09,0.29,0.16c0.35,1.66,0.75,3.31,1.18,4.96c-1.6-1.22-3.75-2.47-5.1-2.67
					c-1.13-0.17-2.01,0.66-1.41,1.68c0.78,1.33,2.31,2.55,3.66,3.18c1.09,0.51,2.74,1.63,3.95,1.64c0.18,0.59,0.35,1.18,0.54,1.76
					c0.49,1.5,1,2.99,1.51,4.49c-1.15-0.92-2.33-1.63-3.86-1.38c-0.55,0.09-1.17,0.58-1.04,1.22c0.56,2.77,3.59,3.17,6.03,3.57
					c0.96,2.99,1.82,6.01,2.4,9.1c0.24,1.26,2.16,0.73,1.93-0.53c-0.66-3.51-1.65-6.93-2.73-10.33c-0.07-1-0.02-1.98,0.09-2.95
					c2.26-1.49,5.2-4.23,6.65-6.13c0.47-0.62,0.25-1.37-0.39-1.75c-2.43-1.44-4.21,1.89-5.58,3.97c0.03-0.17,0.07-0.33,0.1-0.5
					c0.38-1.93,0.8-3.81,1.38-5.67c1.2-0.39,3.25-1.3,4.15-1.85c1.07-0.66,2.61-1.55,3.05-2.81c0.58-1.64-1.04-2.63-2.48-2.24
					c-0.97,0.26-2.68,2.78-3.45,3.59c0,0,0-0.01,0-0.01c1.28-3.05,2.65-6.04,3.72-9.18c1.04-1.32,2.11-3.21,2.45-4.14
					c0.59-1.62,0.72-3.29-0.24-4.79c-0.39-0.61-1.36-0.63-1.8-0.07c-1.25,1.6-2.39,6.32-2.47,8.82c-0.56,1.61-1.19,3.19-1.86,4.75
					c-0.18-1.85-0.15-3.82-1.98-4.63c-0.66-0.3-1.47,0.09-1.6,0.82c-0.49,2.68,1.2,4.62,2.26,6.88c-0.38,0.89-0.75,1.79-1.1,2.69
					c-0.98,2.53-1.48,5.1-2.04,7.74c-0.18,0.81-0.35,1.64-0.5,2.47c-1.6-4.82-3.16-9.66-3.99-14.71c-0.15-0.88-0.27-1.76-0.39-2.64
					c1.4-2.02,3.95-6.02,3.56-8.38c-0.14-0.83-0.49-1.16-1.24-0.63c-1.63,1.15-2.42,2.9-2.85,4.77c-0.31-3.01-0.49-6.04-0.49-9.06
					c0.86-1,2.56-2.93,3.44-3.87c0.92-0.98,2.26-2.3,2.2-3.76c-0.08-2.05-2.21-0.99-3.25-0.19c-0.8,0.61-1.59,1.57-2.21,2.62
					c0.08-1.18,0.17-2.36,0.28-3.54c0.02-0.02,0.03-0.03,0.05-0.06c1.06-1.49,2.1-3.04,3.22-4.53c0.68,0.75,3.7,1.4,4.26,1.42
					c1.13,0.04,2.88-0.06,3.14-1.48c0.53-2.9-3.34-2.63-5.66-2.12c0.54-0.63,1.11-1.23,1.71-1.81c0.13-0.01,0.27-0.03,0.45-0.05
					c2.93-0.38,5.78-1.25,7.98-2.84c0.82-0.6,0.5-1.81-0.45-2.04c-0.98-0.24-1.88-0.07-2.73,0.28c0.75-0.64,1.46-1.32,2.21-1.96
					C76.4,159.69,76.51,159.67,76.62,159.61z"/>
				<path class="st1" d="M67.69,231.17c-2.31-1.49-4.47-3.16-6.59-4.9c0.49-2.11,1.13-4.67-0.93-6.04
					c-0.48-0.32-1.09,0.03-1.34,0.45c-0.65,1.07-0.56,2.26-0.27,3.47c-1.51-1.28-3.01-2.57-4.53-3.83c0.36-1.11,0.29-2.49,0.24-3.59
					c-0.06-1.32-0.55-2.97-1.38-4.05c-0.63-0.83-1.6-0.39-1.84,0.59c-0.26,1.08-0.06,3.14,0.31,4.89c-1.15-0.9-2.34-1.75-3.55-2.57
					c-0.01-0.06-0.01-0.12-0.02-0.13c0.1-1.55,0.82-8.22-2.15-6.76c-1.27,0.63-1.08,2.79-0.87,3.88c0.09,0.44,0.25,0.89,0.44,1.33
					c-0.26-0.16-0.53-0.31-0.79-0.47c-2.18-2.01-3.8-4.55-5.32-7.09c1.07-1.15,2.31-3.14,1.99-4.32c-0.16-0.58-1-0.94-1.49-0.54
					c-0.72,0.59-1.42,1.51-1.87,2.52c-0.41-0.71-0.83-1.43-1.25-2.14c0.65-0.99,1.32-2.62,1.37-3.16c0.16-1.52-0.68-3.68-2.02-3.76
					c-0.89-0.05-1.11,2.15-0.99,4.19c-0.59-0.96-1.2-1.9-1.84-2.82c-0.05-0.08-0.12-0.14-0.18-0.2c-0.65-1.53-0.79-3.26-1.6-4.74
					c-0.49-0.9-1.68-2.81-2.98-1.98c-1.01,0.65-0.63,2.27-0.25,3.17c0.35,0.83,1.94,2.92,3.12,4.39c0.02,0.12,0.08,0.25,0.17,0.38
					c0.75,1.07,1.45,2.18,2.13,3.29c-1.21-0.91-3.5-2.4-5.15-2.08c-0.78,0.15-0.86,1.23-0.36,1.7c0.81,0.76,1.86,1.2,2.87,1.62
					c0.52,0.22,3.16,1.25,3.97,0.99c0.74,1.27,1.47,2.55,2.22,3.82c0.8,1.35,1.63,2.71,2.53,4.02c-1.92-0.99-3.88-1.92-5.88-2.76
					c-3.51-1.47-7.15-2.57-10.8-3.63c-0.34-0.1-0.68-0.19-1.02-0.29c0.09-0.32,0.12-0.59,0.12-0.6c-0.02-1.12-0.24-2.3-0.51-3.36
					c-0.27-1.1-0.82-2.87-2.31-2.54c-2.29,0.51-0.97,3.74,0.33,5.83c-0.8-0.23-1.61-0.46-2.41-0.68c-0.11-0.37-0.22-0.74-0.33-1.03
					c-0.25-0.71-0.58-1.39-0.84-2.1c-0.49-1.36-1.09-2.69-2.09-3.76c-0.52-0.55-1.53-0.17-1.65,0.54c-0.27,1.66,1.49,4.02,2.96,5.81
					c-1.09-0.3-2.18-0.6-3.27-0.91c-0.02,0-0.03,0-0.05,0c-1.75-1.2-4.4-2.55-6.25-1.2c-0.53,0.39-0.63,1.12-0.13,1.59
					c0.85,0.79,2.08,1.06,3.2,1.22c0.58,0.08,1.16,0.14,1.74,0.21c0.22,0.03,0.43,0.05,0.65,0.09c0.01,0,0.18,0.03,0.4,0.05
					c0.83,0.23,1.66,0.46,2.5,0.69c-1.95,0.25-4.07,0.79-4.52,2.21c-0.2,0.63,0.71,0.81,1.3,0.79c1.44-0.05,2.79-0.72,4.08-1.32
					c0.65-0.3,1.29-0.66,1.96-0.91c1.52,0.41,3.05,0.83,4.57,1.26c-2.37,0.57-4.73,1.23-6.91,2.28c-1.48,0.72-3.03,1.39-4.44,2.22
					c-0.84,0.49-1.99,0.97-2.97,1.48c0,0,0,0,0,0c-0.15-0.04-0.33-0.06-0.51-0.01c-2.24,0.5-4.62,0.58-6.16,2.54
					c-0.33,0.42-0.35,1.04,0.08,1.41c1.07,0.94,2.75,0.34,3.89-0.16c1.19-0.52,2.46-1.1,3.47-1.92c0.76-0.42,1.55-0.76,2.32-1.15
					c-0.45,0.52-0.79,1.13-0.9,1.88c-0.13,0.85,0.76,1.52,1.52,1.04c2.04-1.27,3.7-3.31,4.98-5.58c0.04-0.07,0.07-0.12,0.1-0.18
					c0.66-0.29,1.34-0.56,2.02-0.79c-1.16,1.75-2.49,4.65-0.03,5.15c1.24,0.26,1.91-1.13,2.25-2.07c0.16-0.45,0.6-2.91,0.3-3.84
					c1.62-0.43,3.26-0.78,4.87-1.15c0,0,0.01,0,0.01,0c0.91,0.28,1.81,0.57,2.7,0.87c-1,0.16-1.97,0.48-2.69,0.9
					c-0.99,0.58-2.57,1.97-0.92,2.72c1.17,0.53,2.7-0.12,3.8-0.55c1.01-0.39,2.99-1.08,4.13-1.46c2.44,0.98,4.83,2.09,7.15,3.32
					c-1.58-0.22-3.17-0.12-4.57,0.78c-0.68,0.44-0.53,0.83,0.1,1.22c1.76,1.07,5.72,0.39,7.88-0.09c1.23,0.73,2.45,1.49,3.65,2.28
					c0.23,0.34,0.55,0.54,0.86,0.6c2.62,1.79,5.14,3.72,7.55,5.78c0.2,0.17,0.4,0.35,0.61,0.52c-0.65-0.15-1.31-0.28-1.97-0.4
					c-2.36-0.44-4.67-0.87-7.09-0.91c-0.87-0.02-1.74-0.01-2.6,0c-1.43-1.6-2.47-3.53-4.76-4.01c-0.64-0.14-1.22,0.39-1.2,1.03
					c0.05,1.67,1.5,2.32,2.89,3.04c-1.55,0.03-3.1,0.02-4.66-0.07c-2.17-0.7-6.01-1.24-7.63-0.78c-0.6,0.17-0.91,0.97-0.54,1.49
					c0.91,1.28,2.32,1.73,3.84,1.79c0.8,0.03,2.46-0.18,3.82-0.52c2.92,0.21,5.83,0.09,8.75,0.04c-1.11,0.36-3.24,0.87-3.71,1.5
					c-0.79,1.05-0.52,2.7,1.01,2.77c1.18,0.06,2.42-0.9,3.31-1.56c0.72-0.52,2.04-1.8,2.79-2.65c1.62,0.12,3.22,0.37,4.85,0.69
					c0.15,0.03,0.31,0.06,0.46,0.09c-2.15,0.4-5.13,0.83-4.78,3.17c0.1,0.65,0.64,1.08,1.3,0.9c1.98-0.54,5.07-1.95,7.05-3.27
					c0.81,0.24,1.61,0.54,2.38,0.96c0.17,0.09,0.33,0.12,0.48,0.12c2.34,1.98,4.73,3.88,7.31,5.54
					C67.77,233.6,68.77,231.86,67.69,231.17z"/>
			</g>
			<path class="st10" d="M139.36,347.55c-0.85-2.67-1.41-5.42-2.01-8.15c-0.6-2.74-1.34-5.46-2.09-8.17
				c-1.5-5.4-3.18-10.74-4.96-16.06c-3.55-10.63-7.49-21.13-11-31.77c-3.34-10.14-5.82-20.46-8.5-30.78
				c-1.29-4.99-2.75-9.97-4.73-14.74c-0.96-2.3-2.04-4.54-3.3-6.69c-1.19-2.04-2.43-3.95-4.31-5.42c-3.66-2.88-8.79-3.58-13.27-2.77
				c-5.51,0.99-10.94,3.5-15.87,6.08c-4.63,2.46-9.17,5.34-12.97,8.99c-3.28,3.15-6.12,6.94-7.02,11.48
				c-0.95,4.87,1.23,9.08,3.79,13.06c2.8,4.36,6.23,8.28,9.87,11.97c7.57,7.68,15.76,14.69,23.18,22.53
				c7.79,8.22,15.14,16.84,22.7,25.28c4.19,4.68,8.45,9.3,12.88,13.75c2.25,2.27,4.55,4.5,6.9,6.67c2.47,2.28,5.05,4.42,7.36,6.88
				C137.63,351.39,140.02,349.66,139.36,347.55z"/>
			<g>
				<path class="st17" d="M63.17,259.81c1.5-0.33,2.76-1.34,3.59-2.6c0.29-0.44,0.1-1.12-0.36-1.37c-0.5-0.26-1.06-0.11-1.37,0.36
					c-0.08,0.13-0.17,0.25-0.27,0.37c0.05-0.07,0.1-0.13,0.16-0.2c-0.26,0.34-0.56,0.64-0.9,0.9c0.07-0.05,0.13-0.1,0.2-0.16
					c-0.33,0.25-0.68,0.46-1.06,0.62c0.08-0.03,0.16-0.07,0.24-0.1c-0.25,0.1-0.51,0.19-0.77,0.24c-0.51,0.11-0.86,0.74-0.7,1.23
					C62.11,259.65,62.62,259.93,63.17,259.81L63.17,259.81z"/>
				<path class="st17" d="M77.19,255.54c1.61-0.25,3.23-1.01,4.05-2.49c0.25-0.46,0.13-1.11-0.36-1.37
					c-0.47-0.25-1.1-0.13-1.37,0.36c-0.04,0.08-0.09,0.15-0.13,0.22c-0.02,0.04-0.05,0.07-0.07,0.1c-0.11,0.15,0.02-0.06,0.05-0.06
					c-0.04,0.01-0.13,0.15-0.16,0.19c-0.06,0.06-0.11,0.12-0.17,0.17c-0.06,0.06-0.12,0.11-0.19,0.16c-0.15,0.12,0.2-0.15,0.05-0.04
					c-0.03,0.02-0.05,0.04-0.08,0.06c-0.14,0.1-0.29,0.19-0.44,0.26c-0.07,0.04-0.15,0.07-0.22,0.11c-0.04,0.02-0.08,0.03-0.11,0.05
					c0.04-0.03,0.23-0.1,0.08-0.04c-0.15,0.06-0.31,0.11-0.47,0.16c-0.32,0.09-0.65,0.16-0.98,0.21c-0.23,0.04-0.48,0.27-0.6,0.46
					c-0.13,0.21-0.18,0.53-0.1,0.77c0.08,0.24,0.23,0.48,0.46,0.6C76.67,255.57,76.91,255.58,77.19,255.54L77.19,255.54z"/>
				<path class="st17" d="M88.74,239.18c0.59-0.17,1.16-0.36,1.72-0.61c0.61-0.27,1.16-0.64,1.65-1.08c0.39-0.35,0.38-1.06,0-1.41
					c-0.42-0.39-0.99-0.37-1.41,0c-0.1,0.09-0.2,0.17-0.3,0.25c0.07-0.05,0.13-0.1,0.2-0.16c-0.39,0.3-0.81,0.53-1.26,0.72
					c0.08-0.03,0.16-0.07,0.24-0.1c-0.45,0.18-0.91,0.32-1.37,0.46c-0.5,0.15-0.87,0.71-0.7,1.23
					C87.68,238.99,88.21,239.34,88.74,239.18L88.74,239.18z"/>
				<path class="st17" d="M93.12,255.5c0.86-0.51,1.72-1.01,2.59-1.52c0.22-0.13,0.39-0.35,0.46-0.6c0.07-0.24,0.04-0.56-0.1-0.77
					c-0.29-0.45-0.89-0.64-1.37-0.36c-0.86,0.51-1.72,1.01-2.59,1.52c-0.22,0.13-0.39,0.35-0.46,0.6c-0.07,0.24-0.04,0.56,0.1,0.77
					C92.04,255.6,92.64,255.78,93.12,255.5L93.12,255.5z"/>
				<path class="st17" d="M96.19,268.15c1.68-0.5,3.3-1.32,4.75-2.3c0.43-0.29,0.67-0.89,0.36-1.37c-0.28-0.43-0.91-0.67-1.37-0.36
					c-0.79,0.54-1.62,1.01-2.49,1.41c-0.18,0.08-0.37,0.15-0.55,0.24c0.09-0.05,0.16-0.07,0.03-0.01c-0.04,0.02-0.08,0.03-0.12,0.05
					c-0.09,0.03-0.17,0.07-0.26,0.1c-0.29,0.11-0.58,0.21-0.88,0.3c-0.5,0.15-0.87,0.71-0.7,1.23
					C95.13,267.96,95.66,268.31,96.19,268.15L96.19,268.15z"/>
				<path class="st17" d="M77.14,272.72c1.01-0.59,2.04-1.2,2.88-2.02c0.38-0.37,0.39-1.05,0-1.41c-0.4-0.37-1.01-0.39-1.41,0
					c-0.19,0.18-0.39,0.35-0.6,0.52c0.07-0.05,0.13-0.1,0.2-0.16c-0.65,0.51-1.37,0.93-2.08,1.34c-0.45,0.27-0.65,0.91-0.36,1.37
					C76.06,272.81,76.65,273,77.14,272.72L77.14,272.72z"/>
				<path class="st17" d="M89.96,287.65c1.14-0.34,2.18-0.95,3.03-1.78c0.38-0.37,0.39-1.05,0-1.41c-0.4-0.37-1.01-0.39-1.41,0
					c-0.18,0.18-0.37,0.35-0.58,0.5c0.07-0.05,0.13-0.1,0.2-0.16c-0.41,0.31-0.86,0.57-1.33,0.78c0.08-0.03,0.16-0.07,0.24-0.1
					c-0.22,0.09-0.45,0.17-0.68,0.24c-0.24,0.07-0.47,0.24-0.6,0.46c-0.13,0.21-0.18,0.53-0.1,0.77
					C88.9,287.46,89.42,287.81,89.96,287.65L89.96,287.65z"/>
				<path class="st17" d="M104.67,279.12c0.94-0.28,1.85-0.67,2.67-1.2c0.66-0.43,1.28-0.93,1.87-1.46c0.39-0.35,0.38-1.06,0-1.41
					c-0.42-0.38-1-0.37-1.41,0c-0.25,0.22-0.5,0.44-0.75,0.64c-0.04,0.03-0.24,0.19-0.11,0.08c0.14-0.11,0,0-0.03,0.02
					c-0.04,0.03-0.07,0.05-0.11,0.08c-0.15,0.11-0.31,0.22-0.46,0.32c-0.34,0.22-0.69,0.41-1.05,0.58c-0.1,0.05-0.2,0.09-0.3,0.14
					c0.05-0.03,0.17-0.07,0.05-0.02c-0.07,0.03-0.13,0.05-0.2,0.08c-0.23,0.09-0.46,0.16-0.7,0.23c-0.5,0.15-0.87,0.71-0.7,1.23
					C103.6,278.93,104.13,279.28,104.67,279.12L104.67,279.12z"/>
				<path class="st17" d="M107.97,288.2c1.14-0.34,2.18-0.95,3.03-1.78c0.38-0.37,0.39-1.05,0-1.41c-0.4-0.37-1.01-0.39-1.41,0
					c-0.18,0.18-0.37,0.35-0.58,0.5c0.07-0.05,0.13-0.1,0.2-0.16c-0.41,0.31-0.86,0.57-1.33,0.78c0.08-0.03,0.16-0.07,0.24-0.1
					c-0.22,0.09-0.45,0.17-0.68,0.24c-0.24,0.07-0.47,0.24-0.6,0.46c-0.13,0.21-0.18,0.53-0.1,0.77
					C106.9,288.01,107.43,288.36,107.97,288.2L107.97,288.2z"/>
				<path class="st17" d="M101.22,299.16c0.93-0.55,1.87-1.1,2.8-1.65c0.45-0.26,0.65-0.91,0.36-1.37
					c-0.29-0.45-0.89-0.64-1.37-0.36c-0.93,0.55-1.87,1.1-2.8,1.65c-0.45,0.27-0.65,0.91-0.36,1.37
					C100.15,299.25,100.74,299.44,101.22,299.16L101.22,299.16z"/>
				<path class="st17" d="M115.28,306.56c0.63-0.37,1.26-0.73,1.93-1.02c-0.08,0.03-0.16,0.07-0.24,0.1
					c0.26-0.11,0.52-0.2,0.79-0.28c0.24-0.07,0.47-0.24,0.6-0.46c0.13-0.21,0.18-0.53,0.1-0.77c-0.16-0.51-0.69-0.86-1.23-0.7
					c-1.05,0.31-2.01,0.85-2.95,1.4c-0.45,0.27-0.65,0.91-0.36,1.37C114.21,306.65,114.8,306.84,115.28,306.56L115.28,306.56z"/>
				<path class="st17" d="M116.64,315.29c1.2-0.36,2.35-1.03,3.24-1.9c0.38-0.37,0.39-1.05,0-1.41c-0.4-0.37-1.01-0.39-1.41,0
					c-0.17,0.17-0.36,0.33-0.55,0.48c0.07-0.05,0.13-0.1,0.2-0.16c-0.49,0.38-1.03,0.69-1.61,0.94c0.08-0.03,0.16-0.07,0.24-0.1
					c-0.21,0.09-0.42,0.17-0.64,0.23c-0.5,0.15-0.87,0.71-0.7,1.23C115.57,315.1,116.1,315.45,116.64,315.29L116.64,315.29z"/>
				<path class="st17" d="M124.97,330.44c0.72-0.42,1.44-0.84,2.16-1.27c0.22-0.13,0.39-0.35,0.46-0.6c0.07-0.24,0.04-0.56-0.1-0.77
					c-0.14-0.21-0.34-0.4-0.6-0.46c-0.26-0.06-0.53-0.04-0.77,0.1c-0.72,0.42-1.44,0.84-2.16,1.27c-0.22,0.13-0.39,0.35-0.46,0.6
					c-0.07,0.24-0.04,0.56,0.1,0.77c0.14,0.21,0.34,0.4,0.6,0.46C124.46,330.6,124.73,330.58,124.97,330.44L124.97,330.44z"/>
				<path class="st17" d="M108.32,312.97c0.5-0.3,1.01-0.59,1.51-0.89c0.22-0.13,0.39-0.35,0.46-0.6c0.04-0.13,0.05-0.27,0.02-0.4
					c-0.01-0.13-0.05-0.26-0.12-0.37c-0.14-0.21-0.34-0.4-0.6-0.46c-0.26-0.06-0.53-0.04-0.77,0.1c-0.5,0.3-1.01,0.59-1.51,0.89
					c-0.22,0.13-0.39,0.35-0.46,0.6c-0.04,0.13-0.05,0.27-0.02,0.4c0.01,0.13,0.05,0.26,0.12,0.37c0.14,0.21,0.34,0.4,0.6,0.46
					C107.81,313.13,108.08,313.11,108.32,312.97L108.32,312.97z"/>
				<path class="st17" d="M65.67,247.27c0.65-0.38,1.29-0.76,1.94-1.14c0.22-0.13,0.39-0.35,0.46-0.6c0.07-0.24,0.04-0.56-0.1-0.77
					c-0.14-0.21-0.34-0.4-0.6-0.46c-0.26-0.06-0.53-0.04-0.77,0.1c-0.65,0.38-1.29,0.76-1.94,1.14c-0.22,0.13-0.39,0.35-0.46,0.6
					c-0.07,0.24-0.04,0.56,0.1,0.77c0.14,0.21,0.34,0.4,0.6,0.46C65.16,247.43,65.43,247.41,65.67,247.27L65.67,247.27z"/>
			</g>
		</g>
		<g>
			<path class="st17" d="M374.12,290.39c-0.46-14.24-3.11-29.05-9.16-42.01c-3.01-6.46-6.99-12.76-12.38-17.5
				c-5.24-4.61-11.87-7.26-18.76-8.1c-3.69-0.45-7.67,0.17-11.22,1.18c-2.89,0.83-6.59,2.31-7.95,5.13
				c-1.84-1.12-3.97-1.74-6.29-1.77c-4.45-0.06-9.13,1.53-12.56,4.37c-2.62,2.33-3.43,5.11-3.98,8.42
				c-0.16,0.92-0.37,2.17-0.38,3.38c-3.31,0.35-6.46,1.56-9.08,3.75c-3.16,2.64-5.33,6.37-6.52,10.28
				c-1.25,4.15-1.55,8.6-0.87,12.88c0.84,5.29,3.4,10.03,6.27,14.47c3.25,5.03,7.03,9.7,9.86,14.99c2.76,5.16,5.31,10.45,8.27,15.5
				c1.51,2.59,3.14,5.12,4.97,7.49c1.8,2.35,3.87,4.43,5.88,6.6c3.23,3.48,6.8,7.22,11.46,8.69c5.4,1.7,11.96,0.18,16.23-3.49
				c1.96-1.69,4.02-4.15,4.97-6.81c2.59,1.69,5.86,2.44,8.95,2.49c5.09,0.08,10.84-1.35,14.45-5.16c4.14-4.36,5.66-11.19,6.65-16.91
				C373.93,302.38,374.31,296.35,374.12,290.39z"/>
			<path class="st173" d="M333.82,222.77c3.25,0.4,6.44,1.2,9.45,2.42v0.01c-1.89-0.76-3.86-1.36-5.87-1.8
				c-3.13,0.98-6.11,2.5-8.8,4.33c-2.91,1.97-6.31,4.73-7.55,8.19c-1.1,0.56-2.15,1.24-3.11,2.03c-0.79-2.57-1.88-7.63-2.4-10.2
				c1.71-1.98,4.66-3.11,7.06-3.8C326.15,222.94,330.13,222.32,333.82,222.77z"/>
			<path class="st17" d="M317.94,237.95c-0.29,0.23-0.57,0.48-0.84,0.73c-3.74,3.49-5.85,8.31-5.63,13.27
				c-0.19-0.14-0.38-0.29-0.58-0.42c-3.68-2.39-8.36-3.2-12.59-1.92c-0.28,0.09-0.56,0.18-0.84,0.28c-1.12-1.52-3.84-4.35-6.04-6.44
				c0.01-1.2,0.23-2.44,0.38-3.35c0.56-3.31,1.37-6.09,3.99-8.42c3.43-2.84,8.11-4.43,12.56-4.37c2.32,0.03,4.45,0.65,6.29,1.77
				c0.24-0.48,0.54-0.92,0.9-1.33C316.06,230.32,317.15,235.38,317.94,237.95z"/>
			<path class="st173" d="M291.42,243.45c2.2,2.09,4.92,4.92,6.04,6.44c-2.55,0.93-4.83,2.51-6.78,4.43
				c-1.62-0.26-3.3,0.19-4.83,0.7c-1.86,0.62-3.64,1.52-5.35,2.49c-1.85,1.06-3.74,2.22-5.49,3.55c-0.06,0.35-0.11,0.71-0.16,1.06
				c0.19-1.56,0.52-3.1,0.98-4.61c1.18-3.91,3.35-7.65,6.51-10.28c2.62-2.19,5.77-3.4,9.08-3.75
				C291.42,243.47,291.42,243.46,291.42,243.45z"/>
			<path class="st4" d="M312.92,250.04c0.05-1.1,0.27-2.21,0.58-3.26c0.53-1.8,1.32-3.81,2.77-5.09c-2.15-5.01-5.67-9.48-9.95-12.76
				c-2.86-2.19-6.17-3.78-9.72-4.44c-3.58-0.67-7.4-0.01-10.96,0.59c-3.99,0.67-7.78,2.07-11.53,3.54
				c-0.83,0.32-1.27,1.31-1.14,2.16c0.42,2.8,0.24,5.62,0.85,8.41c0.33,1.53,2.02,2.11,3.26,1.2c4.87-3.61,10.75-4.21,16.27-1.75
				c4.42,1.98,8.44,5.79,10.47,10.04c0.35,0.73,0.56,1.25,0.73,1.84c0.18-0.02,0.37-0.01,0.56,0.04c0.57,0.16,1.14,0.38,1.7,0.59
				c1.17,0.43,2.35,0.92,3.38,1.65c0.36,0.25,0.59,0.55,0.68,0.97c0.76-0.56,1.52-1.12,2.29-1.67
				C312.93,251.43,312.89,250.7,312.92,250.04z"/>
			<path class="st86" d="M349.8,255.94c1.78,4.14,3.19,8.42,4.82,12.62c0.7,1.8,3.42,0.54,2.73-1.25
				c-3.39-8.73-6.09-18.04-12.2-25.37c-3.15-3.78-7.22-6.72-12.1-7.7c-2.52-0.51-5.1-0.47-7.57,0.08c1.43-1.71,3.38-3.15,5.06-4.29
				c3.63-2.46,7.88-4.26,12.27-4.69c0.18-0.02,0.34-0.07,0.48-0.13c-1.9-0.77-3.86-1.36-5.87-1.8c-3.13,0.97-6.11,2.5-8.81,4.33
				c-2.91,1.97-6.3,4.73-7.55,8.19c-1.42,0.73-2.75,1.65-3.94,2.76c-3.74,3.49-5.85,8.32-5.63,13.27c-0.19-0.14-0.38-0.28-0.58-0.41
				c-3.68-2.39-8.37-3.21-12.59-1.93c-2.89,0.88-5.46,2.59-7.62,4.71c-1.62-0.26-3.3,0.19-4.83,0.7c-1.87,0.62-3.65,1.52-5.35,2.49
				c-1.85,1.06-3.74,2.22-5.49,3.55c-0.24,1.41-0.37,2.83-0.4,4.26c2.05-1.95,4.52-3.57,6.93-4.96c1.83-1.06,4.22-2.43,6.47-2.92
				c-0.25,0.34-0.51,0.69-0.74,1.04c-2.73,4.09-4.82,9.37-3.94,14.36c0.33,1.91,3.29,1.4,2.96-0.51c-0.67-3.85,0.88-7.94,2.85-11.19
				c2.21-3.65,5.39-6.99,9.47-8.49c3.57-1.31,7.69-0.59,10.79,1.51c2.87,1.94,4.96,4.83,6.66,7.8c1.56,2.74,2.69,5.76,4.44,8.38
				c1.07,1.6,3.36-0.34,2.3-1.93c0-0.01-0.11-0.17-0.29-0.48c-0.13-0.23-0.26-0.47-0.38-0.71c-0.35-0.67-0.68-1.35-1.01-2.02
				c-0.76-1.55-1.53-3.1-2.39-4.6c-1.08-1.88-2.3-3.73-3.73-5.38c-0.01-0.11-0.03-0.23-0.07-0.35c-1.55-4.84,0.29-10.2,3.87-13.65
				c3.71-3.59,8.95-5.09,14.01-3.97C341.63,239.19,346.54,248.32,349.8,255.94z"/>
		</g>
		<g>
			<path class="st170" d="M524.03,264.75c-4.52-4.15-10.05-7-15.49-9.73c-6-3-12.21-5.61-18.56-7.78c-12.7-4.35-26.02-7-39.44-7.64
				c-3.33-0.16-6.75-0.32-9.96,0.71c-2.74,0.88-5.08,2.71-6.78,5.02c-3.21,4.37-4.71,10.8-2.67,15.95c0.97,2.45,2.59,4.62,3.78,6.97
				c1.41,2.77,2.6,5.67,3.59,8.61c1.92,5.71,3.22,11.89,2.97,17.93c-0.29,6.98-1.87,13.94-3.9,20.6c-0.99,3.26-2.17,6.51-3.77,9.53
				c-0.76,1.43-1.61,2.84-2.58,4.13c-0.79,1.05-1.74,1.79-2.66,2.71c-4.56,4.6,3.42,10.92,6.96,13.19c2.94,1.89,6.36,3.13,9.6,4.42
				c3.92,1.56,7.88,3.06,11.91,4.31c4.05,1.26,8.62,1.97,12.8,0.98c1.32-0.31,2.67-0.78,3.76-1.6c1.27-0.95,1.56-2.46,1.41-3.96
				c-0.34-3.3,0.14-6.42,1.06-9.61c1.9-6.56,5.14-12.8,8.66-18.62c1.73-2.87,3.64-5.62,5.79-8.19c3.91-4.58,9.06-8.1,14.29-11
				c2.7-1.49,5.48-2.94,8.38-4.01c2.87-1.06,5.77-1.85,8.34-3.57c4.76-3.18,8.8-8.88,9.25-14.68
				C531.22,273.64,528.16,268.54,524.03,264.75z"/>
			<g>
				<path class="st1" d="M441.06,309.29c1.96,1.69,4.22,2.94,6.56,4.01c1.87,0.86,3.84,1.56,5.63,2.59
					c1.12,0.64,2.12-1.08,1.01-1.73c-1.73-1-3.65-1.68-5.47-2.51c-2.23-1.02-4.45-2.17-6.32-3.77
					C441.51,307.04,440.08,308.45,441.06,309.29L441.06,309.29z"/>
				<path class="st1" d="M458.41,298.87c2.65,1.02,5.11,2.47,7.76,3.49c0.5,0.19,1.1-0.21,1.23-0.7c0.15-0.56-0.19-1.04-0.7-1.23
					c-2.65-1.02-5.11-2.47-7.76-3.49c-0.5-0.19-1.1,0.21-1.23,0.7C457.56,298.2,457.91,298.67,458.41,298.87L458.41,298.87z"/>
				<path class="st1" d="M483.14,303.48c3.18,1.23,6.15,3.15,9.58,3.65c0.53,0.08,1.07-0.13,1.23-0.7c0.13-0.47-0.16-1.15-0.7-1.23
					c-3.42-0.5-6.4-2.43-9.58-3.65c-0.5-0.19-1.1,0.21-1.23,0.7C482.29,302.81,482.64,303.28,483.14,303.48L483.14,303.48z"/>
				<path class="st1" d="M466.12,339.71c0.71,0.76,1.66,1.24,2.61,1.64c0.99,0.42,2.02,0.75,3.03,1.13c0.49,0.19,1.12-0.21,1.23-0.7
					c0.13-0.57-0.17-1.03-0.7-1.23c-0.93-0.35-1.87-0.67-2.8-1.03c-0.14-0.05,0.15,0.07,0.01,0.01c-0.05-0.02-0.1-0.04-0.15-0.07
					c-0.11-0.05-0.22-0.1-0.33-0.15c-0.21-0.1-0.42-0.21-0.62-0.33c-0.1-0.06-0.19-0.12-0.29-0.18c-0.04-0.03-0.08-0.06-0.12-0.08
					c-0.02-0.01-0.16-0.11-0.05-0.03c0.12,0.09-0.04-0.04-0.07-0.06c-0.04-0.03-0.07-0.06-0.11-0.09c-0.09-0.08-0.17-0.16-0.25-0.24
					c-0.36-0.38-1.06-0.39-1.41,0C465.74,338.7,465.74,339.3,466.12,339.71L466.12,339.71z"/>
				<path class="st1" d="M472.77,322.27c1.79,0.68,3.58,1.37,5.37,2.05c0.49,0.19,1.12-0.21,1.23-0.7c0.13-0.57-0.17-1.03-0.7-1.23
					c-1.79-0.68-3.58-1.37-5.37-2.05c-0.49-0.19-1.12,0.21-1.23,0.7C471.94,321.61,472.25,322.07,472.77,322.27L472.77,322.27z"/>
				<path class="st1" d="M442.31,284.97c1.98,0.74,4.06,1.03,6.11,1.52c0.51,0.12,1.11-0.16,1.23-0.7c0.12-0.51-0.15-1.1-0.7-1.23
					c-2.04-0.49-4.13-0.78-6.11-1.53c-0.49-0.18-1.12,0.2-1.23,0.7C441.48,284.31,441.78,284.77,442.31,284.97L442.31,284.97z"/>
				<path class="st1" d="M434.81,329.91c0.83,0.66,1.8,1.04,2.79,1.42c0.23,0.09,0.45,0.17,0.68,0.26c0.11,0.04,0.22,0.09,0.33,0.13
					c0.22,0.09-0.14-0.06-0.01,0c0.05,0.02,0.11,0.05,0.16,0.07c0.21,0.1,0.43,0.2,0.63,0.31c0.09,0.05,0.18,0.11,0.27,0.16
					c0.06,0.04,0.36,0.27,0.11,0.07c0.41,0.33,1.02,0.43,1.41,0c0.33-0.36,0.44-1.06,0-1.41c-0.83-0.66-1.8-1.04-2.79-1.42
					c-0.23-0.09-0.45-0.17-0.68-0.26c-0.11-0.04-0.22-0.09-0.33-0.13c-0.22-0.09,0.14,0.06,0.01,0c-0.05-0.02-0.11-0.05-0.16-0.07
					c-0.21-0.1-0.43-0.2-0.63-0.31c-0.09-0.05-0.18-0.11-0.27-0.16c-0.06-0.04-0.36-0.27-0.11-0.07c-0.41-0.33-1.02-0.43-1.41,0
					C434.47,328.86,434.37,329.56,434.81,329.91L434.81,329.91z"/>
			</g>
			<path class="st1" d="M556.84,273.39c-0.47-3.05-1.24-6.1-2.39-8.97c-1.44-3.61-4.22-6.23-6.79-9.07c-0.7-0.77-1.4-1.53-2.1-2.3
				c-0.51-0.56-0.8-0.86-1.04-1.39c-0.16-0.35-0.25-0.95-0.32-1.57c-0.11-0.99-0.13-1.98-0.3-2.96c-0.69-3.88-2.82-7.15-4.92-10.39
				c-0.9-1.39-1.79-2.8-2.44-4.32c-0.7-1.62-0.74-3.16-0.92-4.89c-0.35-3.47-2.34-6.46-4.81-8.81c-2.64-2.51-5.7-4.51-8.37-6.97
				c-2.56-2.35-4.46-5.27-7.11-7.55c-2.9-2.49-6.59-4.28-10.48-4.22c-2.25,0.03-4.23,0.85-6.43,1.12c-1.66,0.21-3.29-0.08-4.82-0.73
				c-2.16-0.92-3.72-2.74-6.03-3.31c-4.85-1.19-9.7-1.5-14.56-0.14c-2.17,0.61-4.04,1.62-5.74,3.09c-0.58,0.5-1.1,1.08-1.89,1.09
				c-1.2,0.02-2.52-0.53-3.64-0.88c-2.33-0.73-4.61-1.39-7.07-1.51c-2.57-0.12-5.19,0.08-7.69,0.7c-3.9,0.96-8.1,2.47-11.34,4.89
				c-1.48,1.11-2.34,2.44-2.88,4.2c-0.51,1.67-0.76,3.41-1.26,5.09c-0.08,0.27-0.16,0.56-0.27,0.81c-0.02,0.01-0.12,0.16-0.22,0.25
				c-0.54,0.53-1.19,0.94-1.87,1.27c-1.38,0.67-2.85,1.01-4.34,1.32c-3.48,0.72-6.97,1.42-9.84,3.68c-1.57,1.24-3.02,2.93-3.77,4.8
				c-0.74,1.83-0.75,3.87-0.55,5.8c0.38,3.52,2.1,7.34,1.31,10.9c-0.33,1.52-1.07,2.95-1.44,4.47c-0.39,1.59-0.68,3.2-0.75,4.84
				c-0.14,3.15,0.41,6.42,2.05,9.15c1.94,3.23,5.14,5.75,8.73,6.93c3,0.99,6.26-0.21,9.04-1.37c3.23-1.35,6.31-3.07,9.61-4.28
				c1.24-0.46,2.68-0.87,3.86-0.77c1.93,0.16,3.62,1.46,5.03,2.67c3.29,2.83,6.13,6.35,8.53,9.95c1.26,1.92,2.18,4.2,3.68,5.94
				c1.23,1.43,2.85,2.46,4.57,3.2c3.56,1.54,7.56,1.67,11.23,0.48c4.06-1.32,7.46-4.04,11.43-5.58c3.96-1.53,8.67-1.26,12.74-0.29
				c4.12,0.99,8.19,2.7,10.86,6.12c2.41,3.09,3.32,6.96,5.01,10.42c1.7,3.5,4.4,6.35,7.81,8.21c3.14,1.72,6.88,3.24,10.47,3.63
				c2.72,0.3,5.42-0.4,7.55-2.14c1.96-1.61,3.24-3.85,4.37-6.08c0.53-1.05,1.03-2.12,1.55-3.19c0.3-0.61,0.36-0.74,0.61-1.21
				c0.27-0.49,0.55-0.98,0.85-1.45c0.27-0.42,0.56-0.82,0.88-1.2c0.03-0.04,0.03-0.04,0.05-0.06c0.06-0.06,0.12-0.13,0.19-0.19
				c0.21-0.19,0.43-0.38,0.65-0.56c0.06-0.05,0.13-0.1,0.2-0.14c0.02-0.01,0.03-0.01,0.05-0.02c0.2-0.1,0.4-0.19,0.61-0.28
				c0.02-0.01,0.07-0.03,0.11-0.04c0.18-0.06,0.36-0.1,0.54-0.17c0.25-0.09,0.48-0.19,0.71-0.32
				C558.4,286.34,557.58,278.15,556.84,273.39z"/>
			<g>
				<path class="st170" d="M425.32,247.37c-1.02-0.39-2.2,0.14-2.59,1.16c-0.39,1.02,0.14,2.2,1.16,2.59
					c1.02,0.39,2.2-0.14,2.59-1.16C426.87,248.94,426.34,247.76,425.32,247.37z"/>
				<path class="st170" d="M425.78,236.87c0.41-0.29,0.59-0.79,0.49-1.28c0.01,0.02,0.02,0.04,0.02,0.05
					c-0.01-0.07-0.04-0.13-0.06-0.19c-0.01-0.03-0.02-0.06-0.03-0.08c-0.42-1.27-2.28-1.56-2.82-0.15c-0.54,1.42,1.05,2.43,2.2,1.77
					c0.03-0.01,0.05-0.03,0.08-0.04c0.06-0.04,0.12-0.06,0.17-0.1C425.82,236.85,425.8,236.86,425.78,236.87z"/>
				<path class="st170" d="M438.57,221.98c-2.15-0.82-3.42,2.51-1.27,3.33C439.45,226.13,440.71,222.8,438.57,221.98z"/>
				<path class="st170" d="M439.49,240.16c-0.91-0.35-1.97,0.12-2.31,1.04c-0.35,0.91,0.12,1.97,1.04,2.31
					c0.91,0.35,1.97-0.12,2.31-1.04C440.87,241.56,440.4,240.51,439.49,240.16z"/>
				<path class="st170" d="M450.14,253.4c-1.86-0.71-2.97,2.18-1.1,2.89C450.9,257,452,254.11,450.14,253.4z"/>
				<g>
					<path class="st170" d="M464.57,260.51c-0.06-0.16-0.14-0.31-0.24-0.45l0.02,0.01c-0.01-0.01-0.01-0.01-0.01-0.02
						c-0.01-0.01-0.03-0.02-0.04-0.03c-0.22-0.28-0.52-0.49-0.89-0.48c-0.49-0.09-1.01,0.08-1.4,0.5c-0.39,0.37-0.63,0.92-0.33,1.45
						c0.18,0.31,0.31,0.48,0.59,0.73c0.5,0.45,1.35,0.35,1.84-0.04C464.62,261.76,464.75,261.11,464.57,260.51z"/>
					<path class="st170" d="M464.54,260.38c0.02,0.04,0.02,0.08,0.03,0.13c0.01,0.03,0.03,0.06,0.04,0.09
						C464.58,260.53,464.56,260.45,464.54,260.38z"/>
				</g>
				<path class="st170" d="M461.79,240.34l-0.11-0.01c-1.58-0.08-2.32,1.86-1.09,2.85l0.09,0.07c0.83,0.66,2.11,0.22,2.47-0.73
					C463.51,241.58,462.85,240.4,461.79,240.34z"/>
				<path class="st170" d="M454.99,221.01c-0.96-0.36-2.06,0.13-2.42,1.08c-0.36,0.95,0.13,2.06,1.08,2.42
					c0.96,0.36,2.06-0.13,2.42-1.08C456.44,222.47,455.95,221.37,454.99,221.01z"/>
				<path class="st170" d="M477.75,215.45c0.19-0.42,0.29-0.84,0.21-1.34c-0.14-0.81-0.7-1.5-1.46-1.79
					c-0.57-0.22-1.22-0.2-1.78,0.05c-0.82,0.37-1.19,1.06-1.36,1.9c-0.11,0.53,0.03,1.02,0.29,1.45c-0.02-0.03-0.05-0.06-0.07-0.09
					c0.05,0.07,0.09,0.12,0.13,0.19c0.07,0.11,0.14,0.21,0.22,0.31c0.03,0.03,0.05,0.06,0.08,0.08c0.09,0.1,0.18,0.2,0.28,0.29
					c-0.04-0.05-0.08-0.09-0.11-0.14c0.33,0.31,0.72,0.5,1.31,0.62c0.71,0.15,1.54-0.31,1.94-0.87
					C477.58,215.91,477.68,215.68,477.75,215.45z"/>
				<path class="st170" d="M486.87,231.9c-2.06-0.79-3.28,2.41-1.22,3.2C487.71,235.89,488.93,232.69,486.87,231.9z"/>
				<path class="st170" d="M502.14,218.18c0.34-0.78,0-1.73-0.48-2.35c-0.7-0.9-1.88-1.12-2.91-0.7c-0.94,0.38-1.48,1.47-1.31,2.45
					c0.15,0.88,0.86,1.63,1.71,1.85c0.03,0.01,0.05,0.03,0.07,0.04c0.37,0.11,0.69,0.16,1.01,0.14c0.45,0.01,0.87-0.09,1.27-0.4
					C501.84,218.92,502.04,218.57,502.14,218.18z"/>
				<path class="st170" d="M514.2,238.46c-0.01-0.07-0.01-0.14-0.02-0.21c-0.1-1.21-1.83-1.87-2.7-1.03
					c-0.05,0.05-0.1,0.1-0.15,0.15c-0.96,0.91-0.86,2.54,0.48,3.05C513.15,240.93,514.31,239.77,514.2,238.46z"/>
				<path class="st170" d="M518.51,222.55c-0.57-0.71-1.35-1-2.24-0.94c-1.01,0.07-1.81,1.48-1.27,2.37
					c0.12,0.2,0.21,0.39,0.35,0.59c-0.19-0.32-0.14-0.24,0.15,0.23c0.15,0.15,0.3,0.29,0.45,0.43c0.61,0.56,1.68,0.43,2.28-0.05
					C519.02,224.54,519.14,223.35,518.51,222.55z"/>
				<path class="st170" d="M529.91,245.3c0.23-1.09-0.46-2.42-1.74-2.51c-0.52-0.04-0.87,0.03-1.35,0.18
					c-0.82,0.26-1.43,1.45-1.22,2.26c0.18,0.69,0.61,1.5,1.39,1.68c0.68,0.17,1.15,0.23,1.83-0.03
					C529.5,246.61,529.86,245.97,529.91,245.3z"/>
				<path class="st170" d="M537.42,259.14c-0.66-0.82-1.78-0.86-2.6-0.28c-0.52,0.37-1.03,0.98-1.01,1.66
					c0.02,0.87,0.43,1.81,1.36,2.06c1.1,0.29,2.06-0.28,2.32-1.2C537.96,260.71,537.93,259.77,537.42,259.14z"/>
				<path class="st170" d="M546.41,271.28c-0.01-0.78-0.33-1.48-1.1-1.77c-0.78-0.3-1.47,0.02-2,0.59
					c-0.32,0.35-0.52,0.75-0.56,1.24c-0.16,1.79,2.19,2.69,3.26,1.24C546.3,272.19,546.42,271.75,546.41,271.28z"/>
				<path class="st170" d="M536.39,292.8c0.14-1.52-1.64-2.31-2.72-1.46c-0.39,0.18-0.72,0.48-0.89,0.92
					c-0.26,0.68-0.05,1.59,0.59,2c0.59,0.38,1.25,0.56,1.93,0.25C535.99,294.19,536.32,293.52,536.39,292.8z"/>
				<path class="st170" d="M525.07,279.5c-0.59,0.12-1.1,0.49-1.33,1.1c-0.37,0.98,0.16,1.87,1.04,2.31
					c1.11,0.56,2.37-0.12,2.81-1.19C528.23,280.12,526.35,278.82,525.07,279.5z"/>
				<path class="st170" d="M518.64,255.84c-1.39-0.91-2.9-0.52-3.63,0.99c-0.51,1.06,0.22,2.39,1.25,2.78
					c0.6,0.23,1.23,0.16,1.75-0.12C519.48,259.05,520.1,256.81,518.64,255.84z"/>
				<path class="st170" d="M508.57,265.75c-2.19-0.83-3.48,2.56-1.29,3.39C509.47,269.98,510.76,266.58,508.57,265.75z"/>
				<path class="st170" d="M499.48,247.34c0.01,0.03,0.02,0.05,0.04,0.08c-0.43-0.64-1.13-0.91-1.88-0.72
					c0.03-0.01,0.05-0.02,0.08-0.03c-0.89,0.11-1.33,0.7-1.72,1.43c-0.52,0.98,0.24,2.27,1.18,2.63c0.94,0.36,2.37-0.1,2.63-1.18
					C500,248.74,500.07,248.01,499.48,247.34z"/>
				<path class="st170" d="M485.14,264.5c-1-0.38-2.16,0.14-2.54,1.14c-0.38,1,0.14,2.16,1.14,2.54c1,0.38,2.16-0.14,2.54-1.14
					C486.66,266.04,486.15,264.89,485.14,264.5z"/>
				<path class="st170" d="M478.35,250.21c0-0.09,0-0.17,0-0.26c0.12-0.39,0.12-0.82-0.07-1.24c-0.32-0.71-1.18-1.25-1.97-1.06
					c-0.86,0.21-1.81,0.82-1.82,1.83c-0.01,1.13,0.52,1.74,1.5,2.2C476.97,252.13,478.34,251.3,478.35,250.21z"/>
				<path class="st170" d="M474.06,274.31c-0.08-1.22-1.87-1.9-2.74-1.05c-0.28,0.28-0.54,0.53-0.67,0.93
					c-0.3,0.91,0.09,1.92,1.02,2.28c0.93,0.36,1.89-0.14,2.28-1.02C474.11,275.07,474.09,274.71,474.06,274.31z"/>
				<path class="st170" d="M448.76,208.34c-1.79-0.68-2.85,2.1-1.06,2.78C449.49,211.81,450.55,209.03,448.76,208.34z"/>
			</g>
		</g>
		<g>
			<path class="st174" d="M447.52,277.48c-0.89-8.14-3.87-16.24-9.23-22.51c-5.77-6.76-13.93-10.74-22.68-11.89
				c-2.46-0.32-4.93-0.42-7.41-0.34c-4.64,0-9.22-0.03-13.78,1.02c-4.39,1.01-8.52,2.76-12.26,5.28
				c-6.79,4.59-11.54,11.75-13.96,19.51c-2.54,8.12-2.8,16.93-1.15,25.25c1.68,8.48,5.34,16.67,10.96,23.27
				c5.92,6.95,13.68,11.47,22.52,13.56c9.84,2.33,20.51-1.18,28.47-7.12c6.94-5.18,12.06-12.58,15.17-20.61
				C447.29,294.87,448.46,286.05,447.52,277.48z"/>
			<path class="st6" d="M415.41,251.75c-0.97,0.76-2.09,1.31-3.28,1.7c0.44-5.32-0.22-10.79-1.2-16.01
				c-1.05-5.62-2.53-11.37-5.16-16.48c-1.28-2.48-5.24-0.68-3.96,1.81c2.47,4.79,3.85,10.12,4.83,15.4
				c0.94,5.04,1.61,10.29,1.12,15.42c-0.02,0.24,0,0.45,0.04,0.66c-0.62,0.05-1.24,0.08-1.84,0.08c-3.25,0.02-6.79-0.5-9.53-2.36
				c-1.16-0.79-2.25,1.09-1.1,1.88c3.11,2.11,7.21,2.72,10.9,2.65c3.74-0.07,7.71-0.86,10.71-3.22
				C418.04,252.42,416.49,250.89,415.41,251.75z"/>
		</g>
	</g>
	<g>
		<path class="st6" d="M577.12,378.56c-4.41-0.01-8.82-0.02-13.22-0.03c-11.89-0.03-23.78-0.05-35.67-0.08
			c-17.7-0.04-35.39-0.08-53.09-0.12c-21.44-0.05-42.88-0.1-64.32-0.14c-23.64-0.05-47.29-0.11-70.93-0.16
			c-23.7-0.05-47.41-0.11-71.11-0.16c-22.25-0.05-44.51-0.1-66.76-0.15c-18.68-0.04-37.36-0.08-56.04-0.12
			c-13.52-0.03-27.05-0.06-40.57-0.09c-6.37-0.01-12.73-0.07-19.1-0.04c-0.28,0-0.56,0-0.83,0c-1.01,0-2.17,0.67-2.17,1.82
			c0.01,6.13,0.32,12.29,0,18.42c-0.05,1.01,0.71,2.17,1.82,2.17c4.41,0,8.83,0,13.24,0c11.9,0,23.81,0,35.71,0
			c17.65,0,35.29,0,52.94,0c21.53,0,43.06,0,64.59,0c23.5,0,47,0,70.5,0c23.88,0,47.76,0,71.65,0c22.12,0,44.23,0,66.35,0
			c18.76,0,37.51,0,56.27,0c13.48,0,26.97,0,40.45,0c6.37,0,12.75,0.04,19.12,0c0.28,0,0.56,0,0.84,0c0.18,0,0.35-0.03,0.51-0.06
			c0.87-0.05,1.65-0.61,1.65-1.75c0-5.77,0-11.55,0-17.32C578.94,379.72,578.27,378.56,577.12,378.56z"/>
		<g>
			<path class="st5" d="M76.35,383.49c1.31,1.82,4.3,1.59,6.29,1.66c8.38,0.3,16.77-0.07,25.15,0.07
				c10.52,0.18,20.99,0.46,31.51,0.35c43.53-0.46,87.09-0.58,130.63-0.29c20.24,0.13,40.49,0.45,60.73,0.48c0.01,0,0.01,0,0.02,0
				c0.17,0,0.34,0,0.51,0c0.01,0,0.01,0,0.02,0c38.26-0.05,76.52-0.68,114.79-0.57c21.52,0.06,43.05,0.19,64.57,0.31
				c10.39,0.06,20.79,0.4,31.17,0.08c10.43-0.32,20.83-0.3,31.26-0.35c2.94-0.02,5.9,0.02,8.83-0.21c2.93-0.23,4.55-1.19,4.97-4.32
				c0.23-1.73,0.04-3.5-0.05-5.24c-0.12-2.23,0.03-4.45,0.11-6.68c0.19-5.15-0.12-10.32-0.13-15.47c0-0.84-0.42-1.81-1.32-2.06
				c-3.2-0.88-6.41-1.79-9.57-2.84c3.08-0.44,6.16-0.85,9.23-1.34c0.18-0.03,0.35-0.08,0.5-0.14c0.64-0.21,1.14-0.75,1.16-1.65
				c0.07-4.51,0.02-9.03,0.08-13.54c0.06-4.63-0.25-9.3-0.1-13.92c0.09-2.74,0.57-5.71-0.23-8.38c-0.87-2.93-3.6-3.08-6.27-3.16
				c-20.06-0.65-40.19,0.59-60.24,0.7c-42.89,0.23-85.78,0.55-128.67,0.26c-19.92-0.13-39.84-0.45-59.76-0.47c-0.01,0-0.01,0-0.02,0
				c-0.17,0-0.34,0-0.51,0c-0.01,0-0.01,0-0.02,0c-36.91,0.04-73.82,0.68-110.74,0.58c-20.86-0.05-41.71-0.17-62.57-0.29
				c-20.53-0.12-41.04-0.66-61.57-0.78c-4.69-0.03-9.4-0.16-14.08,0c-3.04,0.1-5.77,0.37-6.48,3.78c-0.68,3.3,0,6.82-0.08,10.16
				c-0.14,5.48-0.08,10.93-0.06,16.41c0,1.1,0.66,2.05,1.82,2.17c5.28,0.56,10.84,1.13,16.12,2.4c-5.34,1.27-10.91,1.67-16.21,3.09
				c0.02,0.01,0.03,0.03,0.05,0.04c-0.89,0.03-1.7,0.59-1.7,1.75c0,5.05-0.04,10.1-0.11,15.15c-0.07,4.55,0.29,9.15,0.09,13.7
				C75.38,377.58,74.68,381.16,76.35,383.49z"/>
			<path class="st5" d="M586.88,450.28c0.22-5.86-0.06-11.77-0.09-17.64c0-0.93-0.43-1.71-1.32-2.06c-4.56-1.8-9.14-3.55-13.67-5.4
				c4.61-1.75,9.3-3.29,13.84-5.23c0.61-0.26,1.16-0.96,1.16-1.65c0.01-7.88,0.19-15.77,0.11-23.64c-0.02-2.32-0.11-5.41-2.67-6.37
				c-2.8-1.05-6.59-0.55-9.51-0.51c-20.26,0.29-40.53,0.61-60.79,0.72c-41.68,0.23-83.36,0.48-125.04,0.22
				c-19.11-0.12-38.22-0.43-57.33-0.46c-0.01,0-0.01,0-0.02,0c-0.17,0-0.34,0-0.51,0c0,0-0.01,0-0.01,0
				c-42.99,0.05-85.96,0.69-128.95,0.52c-23.57-0.1-47.15-0.04-70.72-0.49c-11.9-0.23-23.8-0.45-35.71-0.51
				c-4.68-0.02-9.41-0.18-14.09,0.03c-2.48,0.11-4.97,0.33-5.67,3.04c-0.69,2.69-0.55,5.72-0.58,8.47
				c-0.05,3.35-0.01,6.7,0.05,10.04c0.02,0.9-0.02,1.81,0.05,2.7c0.16,1.98,1.47,2.48,3.19,3.12c3.02,1.12,5.95,2.42,8.86,3.79
				c-3.43,0.72-6.94,1.11-10.34,1.87c-0.8,0.18-1.66,0.89-1.66,1.8c0.03,8.96-0.39,17.97-0.1,26.92c0.12,3.81-0.14,7.63,0,11.43
				c0.1,2.62,0.77,4.88,3.57,5.37c2.77,0.49,5.71,0.36,8.51,0.37c4.47,0.01,8.95,0.01,13.42-0.02c11-0.08,21.98,0.72,32.98,0.47
				c22.45-0.5,44.94-0.34,67.4-0.44c22.26-0.09,44.52-0.12,66.78,0.03c20.89,0.14,41.78,0.46,62.67,0.49c0.01,0,0.01,0,0.02,0
				c0.1,0,0.21,0,0.31,0c0.07,0,0.14,0,0.21,0c0.01,0,0.01,0,0.02,0c38.26-0.05,76.52-0.68,114.79-0.57
				c21.52,0.06,43.05,0.19,64.57,0.31c10.39,0.06,20.79,0.4,31.17,0.08c10.43-0.32,20.83-0.3,31.26-0.35
				c2.94-0.02,5.9,0.02,8.83-0.21c2.93-0.23,4.55-1.19,4.97-4.32c0.23-1.73,0.04-3.5-0.05-5.24
				C586.65,454.73,586.8,452.51,586.88,450.28z"/>
		</g>
		<g>
			<g>
				<path class="st6" d="M95.2,325.64c0-2.02-1.77-4.01-3.89-3.89c-1.17,0.07-2.12,0.4-2.98,1.21c-0.88,0.83-1.16,2.01-1.2,3.17
					c-0.07,2.13,1.83,3.91,3.91,3.91c1.61,0,3.07-1.05,3.65-2.51C95.01,326.96,95.2,326.31,95.2,325.64z"/>
				<path class="st6" d="M95.2,365.44c0-2.02-1.77-4.01-3.89-3.89c-1.17,0.07-2.12,0.4-2.98,1.21c-0.88,0.83-1.16,2.01-1.2,3.17
					c-0.07,2.13,1.83,3.91,3.91,3.91c1.61,0,3.07-1.05,3.65-2.51C95.01,366.76,95.2,366.11,95.2,365.44z"/>
			</g>
			<g>
				<path class="st6" d="M95.2,407.34c0-2.02-1.77-4.01-3.89-3.89c-1.17,0.07-2.12,0.4-2.98,1.21c-0.88,0.83-1.16,2.01-1.2,3.17
					c-0.07,2.13,1.83,3.91,3.91,3.91c1.61,0,3.07-1.05,3.65-2.51C95.01,408.66,95.2,408.01,95.2,407.34z"/>
				<path class="st6" d="M95.2,447.14c0-2.02-1.77-4.01-3.89-3.89c-1.17,0.07-2.12,0.4-2.98,1.21c-0.88,0.83-1.16,2.01-1.2,3.17
					c-0.07,2.13,1.83,3.91,3.91,3.91c1.61,0,3.07-1.05,3.65-2.51C95.01,448.46,95.2,447.81,95.2,447.14z"/>
			</g>
			<g>
				<path class="st6" d="M567.55,327.53c0.57,1.45,2.04,2.51,3.65,2.51c2.08,0,3.97-1.78,3.91-3.91c-0.04-1.16-0.32-2.34-1.2-3.17
					c-0.86-0.82-1.81-1.14-2.98-1.21c-2.12-0.13-3.89,1.86-3.89,3.89C567.03,326.31,567.22,326.96,567.55,327.53z"/>
				<path class="st6" d="M567.55,367.34c0.57,1.45,2.04,2.51,3.65,2.51c2.08,0,3.97-1.78,3.91-3.91c-0.04-1.16-0.32-2.34-1.2-3.17
					c-0.86-0.82-1.81-1.14-2.98-1.21c-2.12-0.13-3.89,1.86-3.89,3.89C567.03,366.11,567.22,366.76,567.55,367.34z"/>
			</g>
			<g>
				<path class="st6" d="M567.55,409.24c0.57,1.45,2.04,2.51,3.65,2.51c2.08,0,3.97-1.78,3.91-3.91c-0.04-1.16-0.32-2.34-1.2-3.17
					c-0.86-0.82-1.81-1.14-2.98-1.21c-2.12-0.13-3.89,1.86-3.89,3.89C567.03,408.01,567.22,408.66,567.55,409.24z"/>
				<path class="st6" d="M567.55,449.04c0.57,1.45,2.04,2.51,3.65,2.51c2.08,0,3.97-1.78,3.91-3.91c-0.04-1.16-0.32-2.34-1.2-3.17
					c-0.86-0.82-1.81-1.14-2.98-1.21c-2.12-0.13-3.89,1.86-3.89,3.89C567.03,447.81,567.22,448.46,567.55,449.04z"/>
			</g>
		</g>
	</g>
</g>
</svg>
