<?xml version="1.0" encoding="utf-8"?>
<!-- Generator: Adobe Illustrator 25.2.3, SVG Export Plug-In . SVG Version: 6.00 Build 0)  -->
<svg  width='200px' height='200px' version="1.1" id="Layer_1" xmlns="http://www.w3.org/2000/svg" xmlns:xlink="http://www.w3.org/1999/xlink" x="0px" y="0px"
	 viewBox="0 0 572.28 319.43" style="enable-background:new 0 0 572.28 319.43;" xml:space="preserve">
<style type="text/css">
	.st0{fill:#73724E;}
	.st1{fill:#7D7B54;}
	.st2{fill:#75744F;}
	.st3{fill:#6E6D4A;}
	.st4{fill:#5F5E40;}
	.st5{fill:#D9C09A;}
	.st6{fill:#79492D;}
	.st7{fill:#FFFFFF;}
	.st8{fill:#C6862B;}
	.st9{fill:#BC802B;}
	.st10{fill:#D28E29;}
	.st11{fill:#2E1C12;}
	.st12{fill:#4E7D75;}
	.st13{fill:#558980;}
	.st14{fill:#613B24;}
	.st15{fill:#DCAA88;}
	.st16{fill:#DD9F75;}
	.st17{fill:#B13A25;}
	.st18{fill:#AD772A;}
	.st19{fill:#936627;}
	.st20{fill:#BE812B;}
	.st21{fill:#812B1B;}
	.st22{fill:#A03422;}
	.st23{fill:#C1832B;}
	.st24{fill:#F8E8D3;}
	.st25{fill:#3C615B;}
	.st26{fill:#B09B7D;}
	.st27{fill:#676545;}
	.st28{fill:#3D2D22;}
	.st29{fill:#523C2E;}
	.st30{fill:#872D1D;}
	.st31{fill:#9B3321;}
	.st32{fill:#943120;}
	.st33{fill:#CF8229;}
	.st34{fill:#453327;}
	.st35{fill:#AF782B;}
	.st36{fill:#963220;}
	.st37{fill:#B17029;}
	.st38{fill:#BCA786;}
	.st39{fill:#456E67;}
	.st40{fill:#696746;}
	.st41{fill:#45442F;}
	.st42{fill:#5A593D;}
	.st43{fill:#6B6A48;}
	.st44{fill:#5C3823;}
	.st45{fill:#C7B08D;}
	.st46{fill:#D1AE79;}
	.st47{fill:#C79F66;}
	.st48{fill:#A59175;}
	.st49{fill:#AA9679;}
	.st50{fill:#C87B29;}
	.st51{fill:#D28929;}
	.st52{fill:#D08429;}
	.st53{fill:#986928;}
	.st54{fill:#C1822B;}
	.st55{fill:#956728;}
	.st56{fill:#AA742A;}
	.st57{fill:#892D1D;}
	.st58{fill:#DDC29E;}
	.st59{fill:#D5B688;}
	.st60{fill:#3E3C29;}
	.st61{fill:#CD7829;}
	.st62{fill:#716F40;}
	.st63{fill:#615F38;}
	.st64{fill:#8F2E1E;}
	.st65{fill:#D37829;}
	.st66{fill:#B26027;}
	.st67{fill:#706F4C;}
	.st68{fill:#8F2F1E;}
	.st69{fill:#C8842A;}
	.st70{fill:#E2B856;}
	.st71{fill:#DBA92F;}
	.st72{fill:#646343;}
	.st73{fill:#9F9D6B;}
	.st74{fill:#737147;}
	.st75{fill:#AB9679;}
	.st76{fill:#482B1B;}
	.st77{fill:#C3802A;}
	.st78{fill:#7E2919;}
	.st79{fill:#94311F;}
	.st80{fill:#BA7F2B;}
	.st81{fill:#9B6728;}
	.st82{fill:#B67D2B;}
	.st83{fill:#C6997B;}
	.st84{fill:#616042;}
	.st85{fill:#91301F;}
	.st86{fill:#983220;}
	.st87{fill:#A9A772;}
	.st88{fill:#BC7229;}
	.st89{fill:#C37B26;}
	.st90{fill:#6D6C49;}
	.st91{fill:#CF8924;}
	.st92{fill:#686746;}
	.st93{fill:#74734E;}
	.st94{fill:#696947;}
	.st95{fill:#F0E0C6;}
	.st96{fill:#4B7C77;}
	.st97{fill:#E9DABF;}
	.st98{fill:#D1A283;}
	.st99{fill:#C99D7E;}
	.st100{fill:#885336;}
	.st101{fill:#BF8124;}
	.st102{fill:#633A22;}
	.st103{fill:#CCB58F;}
	.st104{fill:#B69D7B;}
	.st105{fill:#73724D;}
	.st106{fill:#616141;}
	.st107{fill:#9B321E;}
	.st108{fill:#72714C;}
	.st109{fill:#852915;}
	.st110{fill:#C7422C;}
	.st111{fill:#6A6A47;}
	.st112{fill:#714329;}
	.st113{fill:#5E371E;}
	.st114{fill:#646443;}
	.st115{fill:#CEA080;}
	.st116{fill:#A73622;}
	.st117{fill:#C6B18E;}
	.st118{fill:#4E8077;}
	.st119{fill:#BDA481;}
	.st120{fill:#5B5B3C;}
	.st121{fill:#A23420;}
	.st122{fill:#99311D;}
	.st123{fill:#7E2510;}
	.st124{fill:#912E1A;}
	.st125{fill:#5F1400;}
	.st126{fill:#A0341F;}
	.st127{fill:#832814;}
	.st128{fill:#942F1B;}
	.st129{fill:#DDAA24;}
	.st130{fill:#D59821;}
	.st131{fill:#CA8128;}
	.st132{fill:#4B7B72;}
	.st133{fill:#52847C;}
	.st134{fill:#98301C;}
	.st135{fill:#D29E7C;}
	.st136{fill:#D5A17F;}
	.st137{fill:#C98623;}
	.st138{fill:#D09F81;}
	.st139{fill:#C88C78;}
	.st140{fill:#D2B993;}
	.st141{fill:#666644;}
	.st142{fill:#D49979;}
	.st143{fill:#636342;}
	.st144{fill:#C89B7D;}
	.st145{fill:#A58067;}
	.st146{fill:#3F2717;}
	.st147{fill:#4A2D1C;}
	.st148{fill:#912F1F;}
	.st149{fill:#C87F29;}
	.st150{fill:#573521;}
	.st151{fill:#5E3923;}
	.st152{fill:#646244;}
	.st153{fill:#CD852A;}
	.st154{fill:#BC7C2A;}
	.st155{fill:#6C4128;}
	.st156{fill:#9E3422;}
	.st157{fill:#A83724;}
	.st158{fill:#B83926;}
	.st159{fill:#9D6B29;}
	.st160{fill:#663E26;}
	.st161{fill:#DAB57E;}
	.st162{fill:#DAAB62;}
	.st163{fill:#D9BB8F;}
	.st164{fill:#DAB06F;}
	.st165{fill:#D9BA8A;}
	.st166{fill:#59583D;}
	.st167{fill:#E6992E;}
	.st168{fill:#C5822A;}
	.st169{fill:#C1732E;}
	.st170{fill:#4B4932;}
	.st171{fill:#CB7D29;}
	.st172{fill:#812C1B;}
	.st173{fill:#A63723;}
	.st174{fill:#D2A454;}
	.st175{fill:#606040;}
	.st176{fill:#C2A884;}
	.st177{fill:#CB977D;}
	.st178{fill:#C28C76;}
	.st179{fill:#D1B38D;}
	.st180{fill:#231F20;}
	.st181{fill:#CB8927;}
	.st182{fill:#613920;}
	.st183{fill:#9C321E;}
	.st184{fill:#9E331F;}
</style>
<g>
	<g>
		<g>
			<path class="st46" d="M414.04,44.29c-0.08-0.1-0.21-0.2-0.32-0.3c-0.2-0.19-0.39-0.37-0.59-0.56c-0.92-0.88-1.82-1.79-2.7-2.71
				c-1.31-1.37-2.57-2.77-3.81-4.19c-1.52-1.75-3.88-0.02-3.4,1.85c-0.03-0.07-0.07-0.14-0.1-0.22c-0.06-0.24,0.09-1.15,0.35-1.54
				c-0.17,0.11-0.34,0.24-0.5,0.35c-0.02,0.02-0.03,0.02-0.05,0.04c-0.15,0.09-0.29,0.18-0.44,0.27c-0.4,0.24-0.8,0.48-1.21,0.72
				c-2.31,1.36-4.65,2.66-6.99,3.95c-7.31,4.04-14.69,7.97-22.08,11.87c-8.4,4.43-16.83,8.82-25.29,13.14
				c-7.38,3.77-14.76,7.48-22,11.53c-8.99,5.03-17.86,10.42-27.17,14.85c-0.24,0.11-0.42,0.26-0.58,0.42
				c-0.02,0.02-0.04,0.04-0.06,0.06c-0.05,0.06-0.09,0.12-0.13,0.18c-0.04,0.06-0.08,0.11-0.12,0.17c-0.01,0.02-0.02,0.04-0.03,0.06
				c-0.04,0.08-0.09,0.17-0.13,0.26c-0.32,0.9,0.12,2.14,1.06,2.5c0.19,0.1,0.4,0.16,0.63,0.18c2.76,0.72,5.52,1.43,8.28,2.15
				c1.83,0.47,3.65,0.95,5.48,1.42c0.48,0.12,0.95,0.25,1.43,0.37c1.04,0.26,1.79-0.08,2.71-0.54c11.11-5.6,22.07-11.49,33.08-17.28
				c10.3-5.41,20.52-10.97,30.71-16.59c8.92-4.92,17.84-9.86,26.62-15.02c2.21-1.3,4.54-2.55,6.59-4.08
				C414.32,46.82,415.03,45.48,414.04,44.29z M411.09,44.23c-0.01-0.01-0.02-0.02-0.02-0.02c0.03-0.01,0.05-0.03,0.07-0.02
				C411.13,44.19,411.11,44.21,411.09,44.23z M411.02,46.93C411.27,47.21,411.42,47.47,411.02,46.93L411.02,46.93z"/>
			<path class="st46" d="M403.71,36.44c-0.09,0-0.17,0.08-0.24,0.18c0.03-0.02,0.05-0.04,0.08-0.05
				C403.59,36.55,403.67,36.45,403.71,36.44z"/>
			<path class="st46" d="M141.48,172.62c-0.45-0.87-1.69-1.57-2.65-0.99c-6.53,3.98-12.99,8.09-19.5,12.11
				c-9.86,6.09-19.75,12.12-29.77,17.93c-5,2.9-10.04,5.75-15.17,8.42c-0.5,0.26-0.8,0.64-0.96,1.07c-0.42,0.79-0.35,1.8,0.66,2.4
				c0,0,0,0,0.01,0c0.14,0.12,0.3,0.22,0.47,0.29c5.52,3.32,11.04,6.64,16.56,9.96c0.56,0.34,1.36,0.53,1.97,0.17
				c16.1-9.54,32-19.4,47.82-29.39c2.41-1.52,4.81-3.04,7.22-4.56c0.88-0.55,1.54-1.59,0.99-2.65
				C146.57,182.45,144.03,177.54,141.48,172.62z"/>
		</g>
		<g>
			<path class="st46" d="M305.47,83.75c-0.02-0.05-0.04-0.1-0.06-0.15c-1.05-2.43-1.61-5.02-2.62-7.49
				c-1.43-3.5-3.25-6.82-5.35-9.96c-4.17-6.27-9.62-11.7-15.81-15.99c-6.58-4.56-14.05-7.85-21.84-9.68
				c-9.3-2.19-18.66-2.28-27.95,0.01c-9.41,2.32-18.42,6.25-27.39,9.85c-7.86,3.16-15.64,6.51-23.5,9.68
				c-8.8,3.55-17.79,6.6-26.62,10.07c-8.96,3.53-17.76,7.42-26.58,11.28c-7.14,3.13-14.37,6.08-21.48,9.3
				c-4.37,1.97-8.65,4.14-12.96,6.23c-2.13,1.03-4.27,2.06-6.4,3.09c-1.22,0.59-1.48,2.06-0.7,3.1c2.78,3.71,5.93,7.09,8.89,10.66
				c3.83,4.62,7.56,9.32,11.53,13.82c7.33,8.29,15.37,15.93,23.01,23.92c4.39,4.59,8.71,9.26,12.68,14.22
				c0.52,0.65,1.18,0.82,1.8,0.69c0.18-0.03,0.37-0.07,0.57-0.15c22.14-9.61,43.41-21.22,64.75-32.46
				c9.8-5.17,19.61-10.35,29.55-15.24c9.58-4.71,19.28-9.17,28.95-13.68c12.34-5.77,25.56-9.97,36.98-17.4
				C306.35,86.54,306.08,85.19,305.47,83.75z"/>
			<path class="st47" d="M305.8,86.65c9.24,5.34,15.01,9.01,24.35,14.36c-7.95,2.03-15.8,4.41-23.75,6.46
				c-11.04,2.84-22.06,5.76-33.06,8.73c-21.73,5.88-43.39,11.98-65.02,18.2c0.38-0.2,0.75-0.4,1.13-0.6
				c9.8-5.17,19.6-10.35,29.55-15.24c9.58-4.7,19.28-9.16,28.95-13.68c12.34-5.77,24.69-11.51,36.97-17.4
				C305.28,87.31,305.59,87.01,305.8,86.65z"/>
			<g>
				<g>
					<path class="st10" d="M266.19,55.4c-0.72-6.66-2.2-14.37-8.65-17.86c-3.12-1.69-6.74-2.71-10.14-3.65
						c-3.77-1.04-7.62-1.83-11.5-2.26c-7.46-0.82-15.45-0.36-22.29,3.01c-1.67,0.82-3.26,1.83-4.74,2.97
						c-5.36,4.27-8.63,10.67-10.62,17.12c-2.08,6.77-2.96,13.96-2.71,21.04c0.28,7.97,2.14,16.1,6.73,22.74
						c4.79,6.92,12.57,11.53,20.9,12.57c8.76,1.1,17.74-1.59,25.23-6.07c3.94-2.36,7.79-5.15,10.45-8.95
						c2.7-3.86,4.32-8.5,5.56-13.01C266.91,73.95,267.2,64.73,266.19,55.4z"/>
					<path class="st89" d="M304.31,77c-0.41-1.62-0.87-3.23-1.37-4.83c-2.29-7.26-5.16-14.53-10.48-20.15
						c-5.65-5.97-13.3-9.66-21.22-11.53c-3.99-0.94-8.31-1.72-12.41-1.06c-4.74,0.76-8.97,3.41-13.23,5.45
						c-1.69,0.81-3.42,1.68-4.82,2.94c-1.64,1.49-2.6,3.36-3.32,5.42c-1.71,4.94-2.4,10.21-2.83,15.41
						c-0.91,10.87-0.24,21.77,2.54,32.35c2.61,9.92,6.54,20.47,15,26.86c7.81,5.89,18.07,7.77,27.57,5.77
						c8.37-1.76,16.6-6.04,21.32-13.37c4-6.21,5.53-13.74,5.78-21.03C307.1,91.76,306.14,84.23,304.31,77z"/>
					<path class="st89" d="M228.67,55.37c-1.5-6.1-4.7-11.34-10.28-14.49c-5.31-3-11.54-3.87-17.55-3.28
						c-1.5,0.15-2.99,0.4-4.46,0.74c-5.85,1.41-10.95,4.55-13.99,9.85c-3.42,5.95-4.33,13.09-5.36,19.76
						c-1.32,8.55-1.99,17.59,0.48,26c1.94,6.62,5.71,12.89,11.34,17.01c6.1,4.46,14.25,5.89,21.01,2.03
						c6.21-3.54,11.04-9.69,14.32-15.95C230.82,84.37,232.05,69.17,228.67,55.37z"/>
					<g>
						<path class="st1" d="M247.87,26.13c-1.62-4.45-3.23-8.89-4.85-13.34c-0.15-0.41-0.41-0.66-0.71-0.79
							c-0.35-0.21,0.89-1.67,0.4-1.38c-5.27,3.16-12.24,7.81-15.71,13.04c-4.65,7.01-6.84,15.81-8.15,24c-0.79,4.95-1.36,10-1.68,15
							c-0.13,2.05,0.6,3.64,2.78,3.96c2.66,0.38,5.39,0.51,8.08,0.64c2.7,0.13,5.4,0.18,8.1,0.14c2.22-0.03,4.27,0.01,5.39-2.24
							c2.09-4.17,1.73-9.06,0.97-13.51c-0.76-4.46-2.09-9.06-1.3-13.61c0.71-4.08,5.5-9.02,8.83-11.47
							C250.59,26.18,248.09,26.73,247.87,26.13z"/>
						<g>
							<path class="st90" d="M241.53,24.52c0.68-0.69-0.38-1.75-1.06-1.06c-5.25,5.3-7.24,13.28-8.45,20.41
								c-0.74,4.38-1.48,8.72-1.18,13.17c0.24,3.45,0.47,6.9,0.68,10.35c0.5,0.01,0.99,0.01,1.49,0.02
								c-0.2-3.13-0.38-6.26-0.61-9.39c-0.32-4.59,0.25-8.91,1-13.42C234.56,37.63,236.4,29.71,241.53,24.52z"/>
							<path class="st90" d="M232.63,29.19c2.27-3.59,5.06-6.78,8.29-9.54c0.74-0.63-0.33-1.68-1.06-1.06
								c-11.44,9.76-16.2,24.57-16.86,39.21c-0.1,2.11-0.11,4.23-0.05,6.35c0.03,0.94,0.07,1.88,0.12,2.82
								c0.5,0.04,1.01,0.08,1.52,0.12c-0.02-0.36-0.05-0.72-0.07-1.08c-0.08-1.8-0.12-3.6-0.1-5.4c0.05-3.73,0.32-7.46,0.91-11.15
								C226.48,42.33,228.76,35.32,232.63,29.19z"/>
						</g>
						<path class="st90" d="M252.06,16.59c-0.47-1.49-1.16-2.98-2.22-4.16c-1.22-1.35-2.91-2.23-4.75-2.27
							c-1.97-0.04-3.99,0.97-4.92,2.76c-0.02,0.04-0.04,0.09-0.06,0.14c-0.04,0.07-0.08,0.14-0.12,0.21
							c-1.57,3.38-1.45,7.56,0.27,10.85c0.79,1.52,1.94,2.91,3.55,3.59c1.55,0.65,3.13,0.3,4.63-0.29c2.58-1.01,4.33-3.16,4.42-5.97
							C252.91,19.79,252.56,18.17,252.06,16.59z"/>
					</g>
					<path class="st10" d="M224.77,56.55c-1.42-3.98-3.73-7.21-7.58-9.09c-3.53-1.72-7.68-2.55-11.51-3.27
						c-8.12-1.53-16.96-1.19-24.43,2.64c-1.88,0.96-3.64,2.14-5.27,3.47c-6.38,4.97-11.27,11.54-13.95,19.18
						c-2.53,7.2-3.1,14.91-2.68,22.48c0.44,7.79,1.64,15.74,4.85,22.91c3.16,7.06,8.08,13.53,14.51,17.91
						c3.2,2.18,6.79,3.83,10.56,4.72c2.29,0.54,4.65,0.85,7,0.51c2.18-0.32,4.17-1.28,5.98-2.49c3.62-2.43,6.75-5.84,9.37-9.3
						c2.62-3.46,4.77-7.29,6.38-11.32c1.82-4.54,2.79-9.34,3.54-14.16c0.78-5.07,1.53-10.11,2.58-15.14
						C226.12,76.06,228.16,66.04,224.77,56.55z"/>
					<path class="st89" d="M243.69,85.79c-1-4.68-2.51-9.26-4.49-13.62c-1.81-4-4.11-7.73-6.44-11.45
						c-1.73-2.76-3.57-5.58-6.26-7.51c-2.93-2.1-6.49-2.62-10.01-2.3c-15.3,1.4-25.37,16.49-30.81,29.4
						c-0.67,1.59-1.28,3.2-1.85,4.82c-2.45,6.86-3.65,14.25-3.58,21.53c0.07,7.4,1.38,15.15,5.31,21.54
						c4.6,7.48,12.55,11.92,20.58,14.91c4.52,1.69,9.4,3.04,14.27,2.46c4.54-0.54,8.28-3.05,11.25-6.43
						c2.99-3.41,5.25-7.51,7.17-11.6c2.03-4.3,3.57-8.83,4.61-13.47C245.54,104.79,245.69,95.11,243.69,85.79z"/>
					<path class="st10" d="M284.31,69.06c-3.55-6.86-9.2-13.03-16.47-15.96c-3.82-1.54-7.95-2.15-11.98-2.9
						c-3.8-0.71-7.84-1.37-11.68-0.63c-7.63,1.47-10.21,9.54-11.66,16.2c-1.76,8.09-2.6,16.38-2.27,24.66
						c0.33,8.21,1.82,16.4,4.9,24.05c3.04,7.55,7.74,15.01,14.18,20.12c6.9,5.48,16.75,6.76,24.58,2.44
						c6.66-3.67,10.41-10.73,12.57-17.76c0.55-1.77,1-3.56,1.39-5.37c0.01-0.05,0.01-0.11,0.01-0.16c0.02-0.07,0.05-0.14,0.07-0.21
						C291.05,99.13,291.23,82.44,284.31,69.06z"/>
					<path class="st91" d="M265.34,98.58c-0.93-9.22-2.6-18.26-5.24-27.14c-1.18-3.96-2.5-7.89-4.89-11.31
						c-2.14-3.07-5.13-5.94-8.41-7.77c-5.79-3.24-13.42-2.17-18.87,1.3c-3.09,1.97-5.16,4.92-6.85,8.12
						c-1.91,3.6-3.25,7.44-4.13,11.42c-0.9,4.04-1.2,8.09-1.43,12.21c-0.25,4.44-0.49,8.89-0.66,13.33
						c-0.3,7.81-0.63,15.78,0.98,23.48c1.62,7.74,5.42,14.69,11.41,19.9c5.28,4.6,12.39,7.3,19.27,4.9
						c7.48-2.61,11.73-9.86,14.25-16.93c2.85-8.03,4.86-16.37,4.89-24.93C265.66,102.96,265.55,100.76,265.34,98.58z"/>
				</g>
				<g>
					<path class="st1" d="M106.06,94.3c-2.09-0.64-4.1-1.46-6.08-2.35c-0.09-1.71-0.15-3.81-2.01-4.4
						c-0.44-0.14-0.82,0.26-0.93,0.63c-0.28,1.01,0.09,1.87,0.62,2.71c-1.38-0.64-2.76-1.28-4.15-1.9c0.05-0.84-0.58-2.03-0.84-2.8
						c-0.34-0.99-1.07-2.15-1.93-2.79c-0.66-0.49-1.31,0.05-1.28,0.85c0.04,0.93,0.71,2.47,1.42,3.67c-1.1-0.43-2.21-0.82-3.33-1.18
						c-0.03-0.07-0.05-0.13-0.07-0.15c-0.26-1.2-1.16-6.45-3.11-4.68c-0.83,0.75-0.22,2.36,0.18,3.15c0.17,0.34,0.41,0.66,0.67,0.98
						c-0.25-0.07-0.51-0.14-0.77-0.2c-2.1-1.06-3.89-2.65-5.6-4.26c0.58-1.11,1.11-2.92,0.6-3.76c-0.25-0.41-0.96-0.5-1.25-0.09
						c-0.43,0.61-0.77,1.49-0.89,2.38c-0.47-0.46-0.95-0.91-1.42-1.37c0.29-0.9,0.45-2.33,0.38-2.75c-0.21-1.19-1.31-2.66-2.35-2.43
						c-0.7,0.16-0.37,1.95,0.19,3.5c-0.67-0.62-1.36-1.23-2.07-1.8c-0.01-0.01-0.02-0.01-0.02-0.01c-0.91-1.05-1.4-2.41-2.38-3.41
						c-0.57-0.58-1.89-1.78-2.7-0.87c-0.63,0.71,0.02,1.87,0.49,2.47c0.46,0.58,2.23,1.9,3.46,2.76c0.03,0.04,0.05,0.09,0.1,0.12
						c0.84,0.68,1.64,1.4,2.43,2.13c-1.09-0.43-3.26-1.13-4.48-0.51c-0.57,0.28-0.39,1.12,0.09,1.37c0.78,0.41,1.68,0.51,2.54,0.62
						c0.45,0.05,2.78,0.28,3.28-0.13c0.83,0.8,1.66,1.61,2.5,2.41c0.95,0.9,1.92,1.81,2.95,2.65c-0.33-0.07-0.66-0.15-0.99-0.21
						c-4.67-0.89-9.39-1.08-14.12-1.1c0-0.28-0.03-0.51-0.04-0.51c-0.26-0.85-0.69-1.7-1.12-2.46c-0.45-0.78-1.25-2.01-2.31-1.44
						c-1.65,0.89,0.1,3.1,1.55,4.41c-0.67,0-1.33,0.01-2,0.01c-0.18-0.27-0.35-0.54-0.5-0.76c-0.35-0.48-0.74-0.93-1.09-1.42
						c-0.67-0.93-1.41-1.82-2.41-2.41c-0.51-0.31-1.21,0.2-1.14,0.77c0.16,1.34,2.05,2.78,3.57,3.83c-0.9,0.01-1.79,0.01-2.69,0.01
						c-1.59-0.55-3.99-1.05-5.12,0.41c-0.32,0.41-0.23,0.99,0.25,1.24c0.82,0.42,1.82,0.35,2.7,0.23c0.46-0.06,0.91-0.14,1.37-0.22
						c0.17-0.03,0.34-0.06,0.51-0.07c0.01,0,0.24-0.02,0.49-0.09c0.66,0,1.32-0.01,1.99-0.01c-1.46,0.62-3.03,1.5-3.07,2.71
						c-0.02,0.53,0.72,0.46,1.17,0.32c1.09-0.35,1.97-1.16,2.82-1.89c0.43-0.37,0.84-0.78,1.3-1.12c0.01-0.01,0.03-0.02,0.04-0.03
						c1.27-0.01,2.55-0.02,3.82-0.01c-1.67,0.93-3.32,1.92-4.74,3.17c-0.49,0.43-0.97,0.87-1.45,1.31
						c-0.46,0.42-1.02,0.81-1.44,1.27c-0.6,0.66-1.33,1.24-2,1.87c-0.04,0.02-0.08,0.02-0.11,0.04c-0.13,0-0.26,0.03-0.4,0.1
						c-1.6,0.86-3.4,1.45-4.15,3.27c-0.16,0.4-0.05,0.87,0.36,1.06c1.02,0.48,2.17-0.33,2.93-0.96c0.8-0.65,1.65-1.37,2.24-2.23
						c0.02-0.03,0.03-0.06,0.04-0.09c0.52-0.5,1.06-0.98,1.58-1.48c-0.29,0.56-0.48,1.15-0.39,1.83c0.08,0.67,0.91,0.99,1.38,0.47
						c1.28-1.41,2.1-3.33,2.59-5.33c0.02-0.08,0.03-0.15,0.05-0.21c0.44-0.37,0.9-0.73,1.38-1.07c-0.52,1.58-0.95,4.16,1.07,4.01
						c1-0.07,1.21-1.28,1.27-2.07c0.03-0.39-0.18-2.44-0.63-3.03c1.13-0.67,2.29-1.28,3.42-1.9c0.77,0.02,1.54,0.05,2.32,0.09
						c-0.72,0.34-1.39,0.79-1.85,1.26c-0.63,0.66-1.53,2.06-0.11,2.27c1.01,0.15,2.03-0.68,2.78-1.24c0.69-0.52,2.05-1.47,2.84-2.02
						c1.7,0.17,3.4,0.4,5.09,0.73c0.38,0.07,0.75,0.17,1.12,0.25c-1.27,0.17-2.48,0.59-3.36,1.59c-0.43,0.48-0.23,0.75,0.34,0.91
						c1.59,0.44,4.5-0.97,6.03-1.8c3.31,0.86,6.54,1.94,9.68,3.35c0.69,0.31,1.38,0.63,2.07,0.95c-0.47,0.03-0.94,0.07-1.41,0.12
						c-1.88,0.19-3.72,0.32-5.56,0.78c-0.77,0.19-1.53,0.41-2.29,0.64c-1.45-0.91-2.67-2.18-4.54-2.05
						c-0.52,0.04-0.84,0.57-0.69,1.05c0.41,1.29,1.7,1.45,2.93,1.7c-1.15,0.35-2.31,0.68-3.49,0.95c-1.79-0.09-4.97,0.33-6.14,1.06
						c-0.42,0.26-0.48,0.94-0.09,1.26c0.97,0.78,2.14,0.81,3.31,0.53c0.64-0.16,1.94-0.71,2.92-1.3c2.27-0.48,4.46-1.22,6.68-1.88
						c-0.71,0.5-2.39,1.42-2.62,2.03c-0.38,0.97,0.19,2.17,1.37,1.9c0.91-0.21,1.65-1.21,2.19-1.91c0.44-0.57,1.21-1.87,1.58-2.68
						c1.36-0.27,2.73-0.42,4.12-0.54c0.06-0.01,0.12-0.01,0.18-0.02c-1.56,0.78-3.87,1.76-3.08,3.52c0.21,0.47,0.72,0.69,1.19,0.4
						c1.42-0.86,3.52-2.66,4.73-4.11c0.76-0.01,1.52,0.04,2.27,0.2c2.24,1.01,4.5,1.96,6.85,2.68
						C106.59,96.03,106.98,94.58,106.06,94.3z"/>
					<path class="st1" d="M105.04,87.19c0.01-0.09-0.01-0.2-0.06-0.31c-0.25-0.62-0.4-1.25-0.51-1.88c1.06-1.28,2.24-3.27,2.75-4.58
						c0.18-0.45-0.08-0.86-0.52-0.97c-1.56-0.41-2.1,1.52-2.54,2.97c-0.01-0.15-0.02-0.29-0.04-0.44c-0.1-1.08-0.13-2.16-0.09-3.24
						c0.65-0.46,1.6-1.25,2.01-1.7c0.52-0.57,1.29-1.36,1.33-2.19c0.07-1.06-1.06-1.38-1.85-0.91c-0.44,0.26-0.92,1.54-1.26,2.32
						c0.26-2.03,0.57-4.05,0.63-6.11c0,0,0,0,0,0c0.32-0.89,0.56-1.92,0.6-2.44c0.07-1.06-0.13-2.07-0.95-2.8
						c-0.33-0.3-0.91-0.15-1.08,0.26c-0.43,1.05-0.37,3.59-0.08,5.18c-0.05,1.12-0.16,2.24-0.3,3.35c-0.38-0.99-0.73-2-1.86-2.16
						c-0.45-0.06-0.86,0.3-0.81,0.75c0.16,1.61,1.39,2.48,2.39,3.57c-0.07,0.57-0.14,1.13-0.2,1.7c-0.17,1.7-0.07,3.36,0.07,5.05
						c0.03,0.44,0.07,0.87,0.12,1.3c-0.35-0.52-0.7-1.03-1.05-1.56c-0.98-1.48-1.85-3.01-2.67-4.57c-0.04-0.14-0.1-0.27-0.21-0.4
						c-0.49-0.95-0.95-1.91-1.39-2.89c0.5-1.48,1.24-4.11,0.64-5.39c-0.22-0.47-0.48-0.61-0.84-0.16c-0.69,0.85-0.9,1.86-0.9,2.9
						c-0.12-0.3-0.25-0.6-0.37-0.91c-0.52-1.39-0.95-2.79-1.33-4.21c0.36-0.78,0.95-2.01,1.28-2.64c0.38-0.74,0.95-1.74,0.67-2.6
						c-0.39-1.2-1.48-0.21-1.96,0.44c-0.32,0.43-0.58,1-0.77,1.62c-0.13-0.61-0.26-1.22-0.38-1.83c0,0,0,0,0-0.01
						c0.37-1.06,0.74-2.15,1.14-3.22c0.66,0.25,2.33,0.14,2.64,0.06c0.68-0.17,1.7-0.53,1.61-1.41c-0.16-1.72-2.21-1.07-3.52-0.41
						c0.22-0.46,0.47-0.91,0.73-1.35c0.01-0.01,0.02-0.01,0.04-0.02c1.67-0.72,3.22-1.72,4.26-3.04c0.39-0.49-0.01-1.16-0.61-1.13
						c-0.51,0.02-0.93,0.2-1.32,0.45c0.33-0.52,0.65-1.04,1.01-1.54c0.03-0.04,0.03-0.07,0.05-0.11c0.58-0.62,1.05-1.39,1.46-2.11
						c0.43-0.75,0.98-1.87,0.4-2.69c-0.23-0.32-0.65-0.36-0.97-0.16c-1.48,0.92-1.72,2.57-2.23,4.09c-0.04,0.1-0.04,0.19-0.03,0.28
						c-0.49,0.7-0.88,1.46-1.4,2.12c-0.36,0.45-0.63,1-0.93,1.48c-0.32,0.5-0.64,1-0.96,1.51c-0.81,1.3-1.39,2.75-1.91,4.22
						c-0.18-1.03-0.35-2.07-0.51-3.1c0.22-0.42,0.49-0.81,0.74-1.21c0.51-0.84,1.09-1.73,1.23-2.73c0.06-0.41,0.01-1.06-0.45-0.97
						c-0.99,0.2-1.52,1.56-1.85,2.86c-0.1-0.61-0.2-1.22-0.3-1.82c0-0.02-0.02-0.03-0.02-0.05c0-0.04,0-0.08,0-0.08
						c-0.01-0.15-0.01-0.3-0.02-0.46c0-0.41,0-0.82-0.01-1.22c-0.03-0.79-0.12-1.67-0.61-2.32c-0.28-0.38-0.8-0.37-1.11-0.03
						c-1.06,1.16-0.37,3.07,0.33,4.37c0,0.06-0.02,0.12-0.01,0.18c0.12,0.73,0.24,1.46,0.36,2.19c-1.12-1.15-2.6-2.5-3.75-2.44
						c-0.51,0.02-0.85,0.7-0.5,1.11c0.66,0.78,1.54,1.29,2.45,1.74c0.47,0.23,0.92,0.51,1.4,0.74c0.18,0.09,0.41,0.18,0.64,0.28
						c0.09,0.57,0.18,1.13,0.28,1.7c-1.36-1.05-3.44-2.15-3.96-0.62c-0.34,1.01,0.85,1.52,1.59,1.8c0.72,0.26,1.52,0.51,2.3,0.61
						c0,0.01,0.17,0,0.37-0.03c0.74,4.25,1.63,8.46,3.17,12.52c0.02,0.05,0.04,0.1,0.06,0.16c-0.78-0.66-1.58-1.3-2.39-1.91
						c-0.85-0.64-1.71-1.27-2.57-1.9c0.2-0.6-0.3-2.42-0.4-2.79c-0.22-0.74-0.44-1.5-0.91-2.12c-0.29-0.38-1.04-0.41-1.21,0.12
						c-0.33,1.07,0.45,2.7,0.99,3.63c-0.66-0.52-1.32-1.04-1.95-1.6c-0.11-0.1-0.24-0.15-0.36-0.17c-0.93-0.94-2.26-2.21-2.81-2.51
						c-0.59-0.32-1.69-0.72-2.22-0.06c-0.68,0.84,0.56,1.81,1.15,2.22c0.94,0.66,2.08,0.91,3.07,1.44c0.03,0.05,0.06,0.1,0.11,0.14
						c0.59,0.53,1.21,1.02,1.84,1.51c-1.38-0.23-2.86-0.23-2.89,0.38c-0.05,0.94,1.39,1.68,2.46,1.69c0.37,0,1.51-0.33,2.25-0.69
						c0.46,0.34,0.92,0.68,1.39,1.02c-0.72,0.24-1.39,0.65-1.84,1.09c-0.32,0.31-0.13,0.93,0.26,1.08c0.78,0.31,2.23-0.38,3.12-1.02
						c1.63,1.23,3.29,2.55,4.49,4.19c0.01,0.01,0.02,0.01,0.02,0.02c0.08,0.19,0.17,0.37,0.26,0.55c-0.28-0.15-0.56-0.29-0.84-0.38
						c-0.74-0.23-2.23-0.53-2.76,0.31c-1.24,1.95,3.45,1.96,4.53,2.01c0,0,0.02,0.01,0.02,0.01c0.46,0.89,0.95,1.77,1.46,2.64
						c-1.16-0.37-2.51-0.65-3.25-0.55c-0.7,0.09-1.08,0.73-0.55,1.23c0.69,0.66,1.8,1.13,2.71,1.27c0.72,0.11,1.61,0.26,2.38,0.14
						c0.74,1.13,1.51,2.24,2.27,3.35c-0.76-0.25-1.52-0.36-2.26-0.01c-0.31,0.15-0.6,0.54-0.41,0.9c0.77,1.5,2.54,1.29,4.02,1.12
						c1.08,1.63,2.11,3.28,2.99,5.04c0.43,0.86,1.73,0.1,1.3-0.76C107.31,90.68,106.2,88.92,105.04,87.19z"/>
					<path class="st10" d="M168.64,135.29c-1.7-3.19-3.5-6.33-5.39-9.41c-3.77-6.15-7.9-12.08-12.38-17.73
						c-4.49-5.67-9.76-10.78-13.97-16.66c-1.79-2.5-3.22-5.33-5.88-7.05c-2.83-1.84-6.51-2.4-9.82-1.93
						c-6.75,0.96-12.17,6.14-15.87,11.55c-3.22,4.8-7.18,11.07-5.79,17.13c0.7,3.09,2.67,5.08,5.18,6.86
						c2.67,1.9,5.61,3.42,8.6,4.75c6.29,2.8,12.9,4.81,19.25,7.45c3.53,1.47,7.03,3.03,10.48,4.68c3,1.43,5.74,3.3,8.53,5.09
						c2.81,1.8,5.7,3.53,8.82,4.74c2.94,1.14,6.63,2.08,9.17-0.4C172.37,141.62,170.11,138.05,168.64,135.29z"/>
					<g>
						<path class="st89" d="M126.76,91.28c-0.41-0.09-0.79,0.13-0.92,0.52c-0.01,0.02-0.02,0.04-0.02,0.06
							c-0.09,0.21-0.21,0.4-0.34,0.59c-0.15,0.18-0.31,0.34-0.48,0.48c-0.17,0.12-0.34,0.24-0.53,0.33
							c-0.16,0.08-0.3,0.28-0.34,0.45c-0.05,0.18-0.03,0.42,0.08,0.58c0.23,0.36,0.65,0.46,1.03,0.27c0.96-0.49,1.72-1.34,2.07-2.36
							C127.41,91.83,127.14,91.36,126.76,91.28z"/>
						<path class="st89" d="M122.72,100.69c-0.39-0.09-0.81,0.12-0.92,0.52c-0.05,0.2-0.12,0.39-0.2,0.58
							c-0.1,0.21-0.21,0.42-0.35,0.61c-0.11,0.13-0.23,0.25-0.35,0.36c-0.13,0.09-0.26,0.17-0.4,0.23c0.05-0.02,0.1-0.04,0.15-0.06
							c-0.19,0.08-0.34,0.16-0.45,0.34c-0.09,0.16-0.13,0.4-0.08,0.58c0.06,0.18,0.17,0.36,0.34,0.45c0.17,0.09,0.4,0.15,0.58,0.08
							c0.35-0.15,0.64-0.31,0.93-0.56c0.23-0.2,0.43-0.44,0.6-0.69c0.31-0.45,0.52-0.99,0.67-1.52
							C123.35,101.24,123.12,100.78,122.72,100.69z"/>
						<path class="st89" d="M110.47,107.48c-0.19-0.04-0.41-0.03-0.58,0.08c-0.05,0.04-0.1,0.08-0.15,0.12
							c-0.09,0.09-0.16,0.2-0.19,0.33c0,0.01-0.01,0.02-0.01,0.03c-0.17,0.4-0.36,0.79-0.62,1.15c-0.12,0.15-0.25,0.29-0.39,0.42
							c-0.29,0.26-0.29,0.8,0,1.06c0.31,0.29,0.75,0.28,1.06,0c0.34-0.31,0.64-0.69,0.87-1.09c0.21-0.37,0.38-0.77,0.54-1.17
							c0.07-0.17,0.01-0.43-0.08-0.58C110.83,107.67,110.65,107.52,110.47,107.48z"/>
						<path class="st89" d="M121.74,111.68c-0.17-0.09-0.38-0.14-0.58-0.08c-0.06,0.03-0.12,0.05-0.18,0.08
							c-0.11,0.07-0.2,0.16-0.27,0.27c-0.42,0.56-0.84,1.12-1.25,1.68c-0.11,0.15-0.12,0.41-0.08,0.58
							c0.05,0.17,0.18,0.36,0.34,0.45c0.17,0.09,0.39,0.14,0.58,0.08c0.06-0.03,0.12-0.05,0.18-0.08c0.11-0.07,0.2-0.16,0.27-0.27
							c0.42-0.56,0.84-1.12,1.25-1.68c0.11-0.15,0.12-0.41,0.08-0.58C122.04,111.96,121.91,111.77,121.74,111.68z"/>
						<path class="st89" d="M130.04,114.87c-0.19-0.04-0.41-0.03-0.58,0.08c-0.18,0.11-0.26,0.26-0.34,0.45
							c0.01-0.02,0.09-0.2,0.04-0.09c-0.01,0.02-0.02,0.05-0.03,0.07c-0.02,0.04-0.04,0.09-0.06,0.13c-0.05,0.1-0.1,0.21-0.15,0.31
							c-0.13,0.24-0.26,0.48-0.4,0.71c-0.16,0.26-0.33,0.52-0.5,0.77c-0.05,0.07-0.1,0.14-0.15,0.21c-0.02,0.03-0.05,0.07-0.07,0.1
							c-0.1,0.14-0.22,0.28-0.34,0.41c-0.26,0.3-0.31,0.77,0,1.06c0.28,0.26,0.79,0.32,1.06,0c0.85-0.99,1.56-2.09,2.07-3.3
							c0.07-0.17,0.01-0.43-0.08-0.58C130.39,115.06,130.21,114.91,130.04,114.87z"/>
						<path class="st89" d="M135.28,102.34c-0.05-0.17-0.18-0.36-0.34-0.45c-0.17-0.09-0.38-0.14-0.58-0.08
							c-0.06,0.02-0.12,0.05-0.18,0.08c-0.11,0.07-0.2,0.16-0.27,0.27c-0.1,0.13-0.19,0.26-0.29,0.38
							c-0.33,0.42-0.68,0.84-1.09,1.18c-0.14,0.12-0.22,0.36-0.22,0.53c0,0.18,0.08,0.4,0.22,0.53c0.14,0.13,0.33,0.23,0.53,0.22
							c0.07-0.01,0.13-0.02,0.2-0.03c0.13-0.04,0.24-0.1,0.33-0.19c0.64-0.52,1.13-1.21,1.62-1.87
							C135.31,102.77,135.32,102.5,135.28,102.34z"/>
						<path class="st89" d="M144.07,112.03c-0.19-0.04-0.41-0.03-0.58,0.08c-0.05,0.04-0.1,0.08-0.15,0.12
							c-0.09,0.09-0.16,0.2-0.19,0.33c0,0.01-0.01,0.02-0.01,0.03c0.03-0.06,0.05-0.12,0.08-0.18c-0.13,0.3-0.3,0.59-0.49,0.85
							c-0.19,0.24-0.4,0.46-0.64,0.65c-0.14,0.11-0.22,0.36-0.22,0.53c0,0.18,0.08,0.4,0.22,0.53c0.14,0.13,0.33,0.23,0.53,0.22
							c0.07-0.01,0.13-0.02,0.2-0.03c0.13-0.04,0.24-0.1,0.33-0.19c0.33-0.27,0.6-0.58,0.85-0.91c0.25-0.34,0.43-0.71,0.6-1.1
							c0.07-0.17,0.01-0.43-0.08-0.58C144.42,112.22,144.24,112.07,144.07,112.03z"/>
						<path class="st89" d="M137.01,121.6c-0.19-0.04-0.41-0.03-0.58,0.08c-0.18,0.11-0.26,0.26-0.34,0.45c0.08-0.2,0.01-0.04,0,0
							c-0.02,0.04-0.03,0.07-0.05,0.11c-0.04,0.08-0.07,0.15-0.11,0.23c-0.07,0.13-0.14,0.26-0.22,0.39
							c-0.08,0.13-0.16,0.26-0.25,0.38c-0.04,0.05-0.08,0.1-0.12,0.16c0.14-0.21,0-0.01-0.04,0.04c-0.31,0.37-0.65,0.7-1.01,1.03
							c-0.29,0.26-0.29,0.8,0,1.06c0.31,0.29,0.75,0.28,1.06,0c0.38-0.34,0.74-0.69,1.06-1.08c0.47-0.59,0.83-1.21,1.12-1.91
							c0.07-0.17,0.01-0.43-0.08-0.58C137.37,121.79,137.19,121.64,137.01,121.6z"/>
						<path class="st89" d="M143.07,124.59c-0.19-0.04-0.41-0.03-0.58,0.08c-0.05,0.04-0.1,0.08-0.15,0.12
							c-0.09,0.09-0.16,0.2-0.19,0.33c0.02-0.05,0.04-0.1,0.06-0.15c-0.13,0.3-0.3,0.59-0.49,0.85c-0.19,0.24-0.4,0.46-0.64,0.65
							c-0.14,0.11-0.22,0.36-0.22,0.53c0,0.18,0.08,0.4,0.22,0.53c0.14,0.13,0.33,0.23,0.53,0.22c0.07-0.01,0.13-0.02,0.2-0.03
							c0.13-0.04,0.24-0.1,0.33-0.19c0.33-0.27,0.6-0.58,0.85-0.91c0.25-0.34,0.43-0.71,0.6-1.1c0.07-0.17,0.01-0.43-0.08-0.58
							C143.43,124.78,143.25,124.63,143.07,124.59z"/>
						<path class="st89" d="M151.47,120.65c-0.17-0.09-0.39-0.14-0.58-0.08c-0.06,0.03-0.12,0.05-0.18,0.08
							c-0.11,0.07-0.2,0.16-0.27,0.27c-0.45,0.61-0.9,1.21-1.36,1.82c-0.11,0.15-0.12,0.41-0.08,0.58c0.05,0.17,0.18,0.36,0.34,0.45
							c0.17,0.09,0.38,0.14,0.58,0.08c0.06-0.02,0.12-0.05,0.18-0.08c0.11-0.07,0.2-0.16,0.27-0.27c0.45-0.61,0.9-1.21,1.36-1.82
							c0.11-0.15,0.12-0.41,0.08-0.58C151.77,120.93,151.63,120.74,151.47,120.65z"/>
						<path class="st89" d="M118.12,91.97c-0.17-0.09-0.39-0.14-0.58-0.08c-0.06,0.02-0.12,0.05-0.18,0.08
							c-0.11,0.07-0.2,0.16-0.27,0.27c-0.31,0.42-0.63,0.84-0.94,1.26c-0.05,0.09-0.08,0.18-0.09,0.28c-0.02,0.1-0.02,0.2,0.01,0.3
							c0.05,0.17,0.18,0.36,0.34,0.45c0.17,0.09,0.39,0.14,0.58,0.08c0.06-0.03,0.12-0.05,0.18-0.08c0.11-0.07,0.2-0.16,0.27-0.27
							c0.31-0.42,0.63-0.84,0.94-1.26c0.05-0.09,0.08-0.18,0.09-0.28c0.02-0.1,0.02-0.2-0.01-0.3
							C118.42,92.24,118.28,92.06,118.12,91.97z"/>
					</g>
				</g>
				<g>
					<path class="st1" d="M157.85,3.08c-1.94,0.12-3.06,1.61-4.38,2.83c-0.11,0.1-0.18,0.22-0.22,0.34
						c-0.03,0.02-0.04,0.05-0.06,0.07c-0.83,0.43-1.62,0.92-2.46,1.31c-1.19,0.55-2.35,1.31-3.49,1.96
						c-1.53,0.87-2.92,2.05-4.25,3.26c0.4-1.18,0.81-2.35,1.23-3.53c0.01-0.01,0.02-0.02,0.03-0.02c0.47-0.31,0.98-0.57,1.46-0.85
						c0.96-0.56,2-1.12,2.67-2.03c0.28-0.37,0.57-1.04,0.07-1.19c-1.13-0.35-2.46,0.83-3.5,1.99c0.22-0.62,0.43-1.24,0.65-1.85
						c0.14-0.2,0.22-0.39,0.23-0.4c0.07-0.16,0.15-0.31,0.23-0.45c0.21-0.4,0.43-0.8,0.64-1.21c0.4-0.79,0.77-1.7,0.64-2.6
						c-0.07-0.53-0.59-0.79-1.08-0.63c-1.72,0.59-2.02,2.97-2.02,4.64c0,0,0,0,0,0.01c-0.29,0.84-0.58,1.67-0.87,2.51
						c-0.49-1.75-1.23-3.98-2.43-4.55c-0.51-0.25-1.21,0.24-1.08,0.82c0.24,1.12,0.83,2.1,1.48,3.02c0.34,0.48,0.64,1,0.98,1.48
						c0.15,0.21,0.34,0.45,0.54,0.7c-0.22,0.62-0.43,1.24-0.65,1.85c-0.76-1.77-2.26-4.1-3.62-2.85c-0.88,0.81,0.02,1.95,0.61,2.62
						c0.57,0.64,1.22,1.31,1.94,1.83c0,0.01,0.2,0.11,0.45,0.2c-1.48,4.38-2.81,8.8-3.47,13.39c-0.05,0.37-0.1,0.74-0.15,1.11
						c-0.44-1.19-0.96-2.35-1.48-3.48c-0.48-1.07-0.99-2.13-1.49-3.19c0.54-0.35,1.07-2.58,1.17-3.02c0.18-0.84,0.37-1.71,0.24-2.57
						c-0.08-0.53-0.81-0.96-1.25-0.53c-0.97,0.94-1.01,3.18-0.96,4.34c-0.41-0.93-0.81-1.86-1.16-2.81
						c-0.03-0.08-0.08-0.14-0.12-0.2c-0.41-1.42-1.08-3.55-1.48-4.17c-0.41-0.64-1.28-1.61-2.15-1.25c-1.11,0.46-0.42,2.08-0.06,2.8
						c0.61,1.22,1.69,2.1,2.38,3.25c0.32,0.88,0.68,1.74,1.06,2.6c-1.27-1.02-2.83-1.9-3.2-1.29c-0.55,0.9,0.47,2.4,1.52,2.98
						c0.38,0.21,1.76,0.51,2.69,0.53c0.27,0.59,0.55,1.18,0.82,1.77c-0.86-0.18-1.79-0.14-2.5,0.07c-0.48,0.14-0.62,0.84-0.32,1.2
						c0.62,0.74,2.49,0.83,3.7,0.64c0.94,2.08,1.83,4.25,2.17,6.51c-0.02,0.28-0.03,0.56-0.05,0.84c-0.21-0.33-0.43-0.66-0.69-0.92
						c-0.61-0.63-1.91-1.72-2.88-1.18c-2.27,1.25,2.34,3.77,3.38,4.4c0.01,0.01,0.05,0.05,0.09,0.08c-0.02,1.16-0.02,2.32,0.03,3.48
						c-0.88-1.03-2.09-2.13-2.94-2.46c-0.74-0.29-1.45,0.14-1.2,0.92c0.33,1.02,1.17,2.07,1.99,2.7c0.64,0.49,1.54,1.45,2.34,1.67
						c0.13,1.49,0.29,2.98,0.45,4.47c-0.62-0.76-1.29-1.38-2.33-1.44c-0.38-0.02-0.88,0.21-0.89,0.67
						c-0.04,1.93,1.89,2.66,3.46,3.29c0.19,2.16,0.32,4.32,0.25,6.49c-0.03,0.97,1.47,0.96,1.5,0c0.08-2.43-0.08-4.84-0.31-7.25
						c0,0,0,0,0-0.01c0.08-0.74,0.28-1.45,0.53-2.14c1.74-0.67,4.1-2.06,5.35-3.11c0.41-0.35,0.38-0.89,0-1.24
						c-1.37-1.3-3.02,0.52-4.24,1.72c0.04-0.1,0.09-0.19,0.13-0.29c0.53-1.22,1.09-2.4,1.76-3.54c0.88-0.09,2.33-0.38,3.01-0.61
						c0.82-0.28,1.99-0.65,2.48-1.44c0.63-1.02-0.3-1.93-1.33-1.88c-0.65,0.02-2.02,1.28-2.72,1.79c1.33-1.87,2.72-3.68,3.9-5.65
						c0.86-0.73,1.78-1.75,2.13-2.29c0.64-1.01,0.98-2.11,0.57-3.27c-0.17-0.47-0.82-0.63-1.2-0.32c-1.04,0.86-2.45,3.67-2.94,5.37
						c-0.63,1.03-1.31,2.02-2.01,2.98c0.16-1.23,0.42-2.48-0.65-3.28c-0.4-0.3-1-0.16-1.2,0.31c-0.72,1.7,0.08,3.24,0.46,4.89
						c-0.48,0.66-0.95,1.33-1.39,2.02c-0.99,1.53-1.68,3.16-2.43,4.8c-0.2,0.44-0.39,0.87-0.58,1.31c-0.11-1.05-0.21-2.1-0.3-3.15
						c-0.24-3.05-0.21-6.11,0.03-9.15c1.26-1.16,3.53-3.44,3.63-5.07c0.03-0.58-0.15-0.85-0.74-0.61c-1.24,0.51-2.02,1.53-2.59,2.68
						c0.08-0.64,0.17-1.28,0.26-1.92c0.22-1.43,0.51-2.84,0.84-4.24c0.76-0.56,2.09-1.53,2.79-2c0.77-0.52,1.87-1.21,2.05-2.2
						c0.26-1.39-1.34-1-2.16-0.62c-0.59,0.27-1.22,0.76-1.77,1.32c0.21-0.73,0.44-1.46,0.67-2.19c0,0,0.01,0,0.01-0.01
						c0.94-0.85,1.88-1.74,2.86-2.58c0.42,0.6,2.26,1.45,2.63,1.55c0.76,0.2,1.95,0.39,2.34-0.52c0.78-1.84-1.76-2.26-3.41-2.29
						c0.46-0.34,0.94-0.66,1.43-0.95c0.07,0.01,0.14,0.01,0.22,0.02c2.03,0.19,4.08,0.04,5.81-0.71c0.64-0.28,0.61-1.15,0.01-1.44
						c-0.59-0.29-1.19-0.33-1.78-0.24c0.62-0.33,1.23-0.67,1.85-0.99c0.03-0.01,0.05,0,0.08-0.01c0.99-0.28,1.93-0.84,2.8-1.38
						c0.83-0.51,1.96-1.32,1.84-2.43C158.67,3.31,158.27,3.05,157.85,3.08z"/>
					<path class="st1" d="M133.6,50.05c0.64-1.33,1.39-2.91,0.24-4.11c-0.28-0.29-0.74-0.14-0.97,0.1c-0.56,0.57-0.7,1.31-0.71,2.1
						c-0.79-1.07-1.59-2.14-2.4-3.19c0.36-0.68,0.51-1.56,0.63-2.26c0.16-0.9,0.08-2.08-0.32-2.94c-0.3-0.65-1.02-0.5-1.33,0.12
						c-0.33,0.66-0.5,2-0.53,3.21c-0.65-0.76-1.31-1.49-2-2.21c0,0,0-0.01,0-0.01c0.3-1.03,1.79-5.42-0.43-4.88
						c-0.95,0.23-1.15,1.71-1.17,2.48c-0.01,0.28,0.03,0.58,0.08,0.88c-0.13-0.12-0.26-0.25-0.39-0.37
						c-1.17-1.69-1.88-3.66-2.52-5.6c0.89-0.62,1.98-1.75,1.94-2.57c-0.02-0.41-0.53-0.79-0.93-0.59c-0.56,0.28-1.15,0.77-1.6,1.36
						c-0.17-0.54-0.34-1.08-0.51-1.62c0.58-0.58,1.24-1.53,1.36-1.87c0.34-1,0.1-2.58-0.79-2.84c-0.58-0.16-1.05,1.2-1.28,2.55
						c-0.24-0.69-0.49-1.37-0.77-2.05c-0.04-0.11-0.11-0.19-0.18-0.26c-0.18-1.1-0.03-2.26-0.34-3.34c-0.2-0.68-0.71-2.15-1.71-1.79
						c-0.78,0.28-0.76,1.44-0.65,2.09c0.1,0.6,0.82,2.17,1.39,3.33c-0.02,0.11-0.02,0.23,0.04,0.37c0.33,0.8,0.62,1.61,0.9,2.43
						c-0.7-0.81-1.95-2.03-3.05-2.06c-0.55-0.02-0.76,0.7-0.5,1.09c0.43,0.63,1.07,1.09,1.69,1.53c0.31,0.22,1.83,1.24,2.46,1.26
						c0.31,0.97,0.61,1.95,0.93,2.92c0.32,0.97,0.65,1.95,1.03,2.91c-0.06-0.05-0.11-0.1-0.17-0.15c-3.28-2.7-6.89-4.87-10.59-6.9
						c0.09-0.18,0.14-0.32,0.14-0.33c0.16-0.76,0.18-1.58,0.17-2.34c-0.02-0.79-0.12-2.06-1.17-2.06c-1.59,0-1.24,2.28-0.69,3.89
						c-0.5-0.27-1-0.54-1.49-0.8c-0.02-0.24-0.04-0.48-0.06-0.67c-0.06-0.52-0.18-1.03-0.25-1.54c-0.12-0.99-0.32-1.98-0.84-2.85
						c-0.26-0.45-1.01-0.35-1.19,0.11c-0.42,1.05,0.36,2.86,1.07,4.27c-0.66-0.35-1.31-0.7-1.96-1.05
						c-0.06-0.03-0.11-0.04-0.17-0.05c-1-1.06-2.54-2.29-3.95-1.67c-0.41,0.18-0.59,0.66-0.33,1.05c0.45,0.66,1.24,1.03,1.97,1.31
						c0.38,0.14,0.76,0.27,1.14,0.4c0.14,0.05,0.28,0.1,0.42,0.16c0,0,0.03,0.01,0.06,0.03c0.03,0.02,0.05,0.05,0.09,0.07
						c0.51,0.28,1.03,0.55,1.54,0.83c-1.31-0.11-2.73-0.04-3.24,0.81c-0.23,0.4,0.36,0.65,0.76,0.73c0.98,0.19,1.99-0.07,2.95-0.28
						c0.45-0.1,0.9-0.22,1.35-0.3c0.9,0.48,1.8,0.97,2.7,1.46c-1.56,0.03-3.13,0.12-4.63,0.47c-1.92,0.45-3.86,0.87-5.75,1.42
						c-0.07-0.02-0.14-0.06-0.22-0.06c-1.59,0-3.21-0.31-4.54,0.78c-0.29,0.24-0.39,0.64-0.16,0.96c0.58,0.79,1.8,0.65,2.64,0.48
						c0.81-0.15,1.67-0.34,2.43-0.69c0.06,0,0.11,0,0.17-0.01c0.57-0.17,1.14-0.3,1.72-0.45c-0.36,0.28-0.66,0.62-0.85,1.09
						c-0.21,0.55,0.28,1.14,0.87,0.93c1.56-0.55,2.99-1.67,4.2-3.01c0.01-0.01,0.01-0.02,0.03-0.03c0.49-0.1,0.99-0.18,1.49-0.24
						c-1.04,1.01-2.28,2.7-0.73,3.4c0.8,0.36,1.46-0.48,1.83-1.06c0.17-0.27,0.81-1.78,0.79-2.48c1.13-0.04,2.26-0.03,3.37-0.04
						c0.52,0.3,1.04,0.61,1.55,0.93c-0.62-0.02-1.24,0.05-1.73,0.21c-0.76,0.24-2.03,0.94-1.03,1.69c0.71,0.53,1.83,0.33,2.64,0.2
						c0.7-0.1,2.03-0.25,2.87-0.35c1.33,0.9,2.63,1.86,3.87,2.9c0.12,0.1,0.24,0.22,0.37,0.32c-0.97-0.33-1.98-0.45-2.99-0.09
						c-0.53,0.19-0.49,0.48-0.12,0.84c1,0.97,3.68,1.12,5.23,1.13c0.78,0.72,1.53,1.47,2.27,2.23c0.07,0.13,0.17,0.23,0.28,0.3
						c1.19,1.26,2.34,2.56,3.4,3.94c0.38,0.49,0.74,0.99,1.11,1.48c-0.32-0.15-0.64-0.29-0.97-0.43c-1.51-0.65-2.98-1.29-4.59-1.69
						c-0.65-0.16-1.3-0.3-1.96-0.44c-0.7-1.27-1.11-2.69-2.56-3.35c-0.41-0.19-0.88,0.08-0.96,0.51c-0.21,1.09,0.59,1.74,1.39,2.4
						c-1.08-0.22-2.16-0.47-3.23-0.78c-1.39-0.77-3.72-1.62-4.83-1.56c-0.43,0.02-0.76,0.52-0.59,0.92c0.42,1,1.3,1.52,2.32,1.79
						c0.5,0.13,1.54,0.23,2.47,0.22c0.02,0.01,0.03,0.02,0.05,0.02c1.92,0.59,3.88,0.94,5.83,1.34c-0.83,0.06-2.15,0.11-2.53,0.43
						c-0.69,0.59-0.76,1.74,0.26,2.02c0.79,0.22,1.76-0.24,2.47-0.55c0.55-0.24,1.59-0.87,2.22-1.33c1.04,0.31,2.05,0.69,3.04,1.14
						c0.11,0.05,0.22,0.1,0.33,0.15c-1.49-0.06-3.44-0.16-3.56,1.42c-0.03,0.45,0.27,0.82,0.74,0.8c1.39-0.06,3.63-0.53,5.16-1.11
						c0.52,0.29,1.03,0.6,1.48,1c0.1,0.09,0.22,0.14,0.33,0.17c1.27,1.68,2.59,3.32,4.07,4.83c0.68,0.69,1.74-0.37,1.06-1.06
						C135.97,53.05,134.76,51.57,133.6,50.05z"/>
					<path class="st89" d="M170.79,123.53c-0.53-4.14-1.23-8.27-1.97-12.38c-1.48-8.16-3.21-16.28-4.55-24.47
						c-0.66-4.05-1.29-8.14-1.61-12.24c-0.29-3.74-0.3-7.51-0.9-11.21c-0.3-1.85-0.77-3.66-1.42-5.42
						c-1.14-2.79-3.57-4.77-6.41-5.69c-2.86-0.92-5.85-0.71-8.78-0.3c-6.45,0.9-13.38,2.86-18.67,6.8
						c-2.13,1.59-4.07,3.74-4.85,6.33c-0.9,3.03-0.03,5.97,1.05,8.83c2.59,6.87,7.09,12.81,11.17,18.84
						c8.15,12.05,13.52,25.81,22.28,37.47c2.02,2.69,4.26,5.92,7.28,7.57c2.92,1.59,6.37,0.93,7.31-2.58
						C171.72,131.38,171.27,127.28,170.79,123.53z"/>
					<g>
						<path class="st6" d="M129.84,73.12c1.08,0.01,2.1-0.47,2.87-1.21c0.28-0.27,0.3-0.79,0-1.06c-0.3-0.28-0.76-0.29-1.06,0
							c-0.08,0.07-0.16,0.14-0.24,0.21c-0.19,0.14-0.4,0.26-0.61,0.36c-0.21,0.08-0.43,0.15-0.66,0.18c-0.1,0.01-0.2,0.02-0.3,0.02
							c-0.39,0-0.77,0.35-0.75,0.75C129.11,72.78,129.42,73.12,129.84,73.12z"/>
						<path class="st6" d="M143.09,70.24c-0.29-0.26-0.78-0.31-1.06,0c-0.05,0.06-0.11,0.12-0.17,0.17
							c-0.02,0.02-0.05,0.04-0.07,0.06c-0.12,0.08-0.24,0.15-0.37,0.22c-0.02,0.01-0.04,0.01-0.06,0.02
							c-0.07,0.03-0.15,0.05-0.22,0.07c-0.11,0.03-0.22,0.05-0.33,0.06c-0.29,0.03-0.59,0.04-0.89,0.02
							c-0.39-0.03-0.77,0.36-0.75,0.75c0.02,0.43,0.33,0.72,0.75,0.75c1.13,0.08,2.37-0.18,3.16-1.06
							C143.35,71,143.4,70.52,143.09,70.24z"/>
						<path class="st6" d="M150.19,63.09c0.43-0.03,0.85-0.06,1.27-0.14c0.45-0.09,0.89-0.26,1.3-0.48
							c0.34-0.19,0.48-0.69,0.27-1.03c-0.23-0.35-0.66-0.47-1.03-0.27c-0.09,0.05-0.18,0.09-0.27,0.13
							c-0.29,0.11-0.58,0.18-0.88,0.23c-0.22,0.03-0.44,0.04-0.66,0.06c-0.2,0.01-0.39,0.08-0.53,0.22
							c-0.13,0.13-0.23,0.34-0.22,0.53C149.46,62.72,149.77,63.11,150.19,63.09z"/>
						<path class="st6" d="M152.27,72.67c-0.66,0.21-1.32,0.42-1.97,0.63c-0.18,0.06-0.35,0.18-0.45,0.34
							c-0.09,0.16-0.13,0.4-0.08,0.58c0.12,0.37,0.52,0.65,0.92,0.52c0.66-0.21,1.32-0.42,1.97-0.63c0.18-0.06,0.35-0.18,0.45-0.34
							c0.09-0.16,0.13-0.4,0.08-0.58C153.07,72.82,152.67,72.54,152.27,72.67z"/>
						<path class="st6" d="M151.32,82.18c-0.03,0-0.09,0.01-0.12,0.01c0.02,0,0.04,0,0.09-0.01c-0.06,0-0.11,0.01-0.17,0.02
							c-0.1,0.01-0.2,0.02-0.29,0.03c-0.39,0.03-0.77,0.33-0.75,0.75c0.02,0.38,0.33,0.78,0.75,0.75c1.22-0.08,2.44-0.38,3.57-0.83
							c0.19-0.07,0.34-0.16,0.45-0.34c0.09-0.16,0.13-0.4,0.08-0.58c-0.11-0.35-0.53-0.68-0.92-0.52c-0.61,0.24-1.24,0.43-1.89,0.58
							C151.85,82.09,151.59,82.14,151.32,82.18z"/>
						<path class="st6" d="M151.2,82.19C151.18,82.2,151.18,82.2,151.2,82.19L151.2,82.19z"/>
						<path class="st6" d="M138.83,81.71c-0.21,0.13-0.43,0.23-0.65,0.33c-0.41,0.17-0.83,0.31-1.26,0.45
							c-0.18,0.06-0.35,0.17-0.45,0.34c-0.09,0.16-0.13,0.4-0.08,0.58c0.12,0.37,0.52,0.65,0.92,0.52c0.77-0.25,1.57-0.5,2.26-0.93
							c0.33-0.21,0.49-0.68,0.27-1.03C139.64,81.65,139.19,81.49,138.83,81.71z"/>
						<path class="st6" d="M145.28,93.9c-0.17,0.1-0.34,0.19-0.52,0.27c-0.29,0.11-0.59,0.2-0.9,0.24
							c-0.06,0.01-0.11,0.01-0.17,0.02c-0.2,0.01-0.38,0.07-0.53,0.22c-0.13,0.13-0.23,0.34-0.22,0.53c0.01,0.19,0.07,0.4,0.22,0.53
							c0.14,0.13,0.33,0.23,0.53,0.22c0.84-0.06,1.64-0.3,2.35-0.74c0.16-0.1,0.29-0.26,0.34-0.45c0.05-0.18,0.03-0.42-0.08-0.58
							C146.09,93.83,145.64,93.68,145.28,93.9z"/>
						<path class="st6" d="M155.27,90.87C155.27,90.87,155.27,90.87,155.27,90.87C155.21,90.86,155.15,90.89,155.27,90.87z"/>
						<path class="st6" d="M158.39,91.3c0.34-0.19,0.49-0.69,0.27-1.03c-0.22-0.35-0.66-0.47-1.03-0.27
							c-0.19,0.11-0.39,0.21-0.59,0.31c-0.11,0.05-0.22,0.11-0.33,0.16c-0.01,0.01-0.03,0.01-0.04,0.02
							c-0.06,0.02-0.12,0.05-0.18,0.07c-0.26,0.09-0.52,0.17-0.79,0.23c-0.14,0.03-0.28,0.06-0.43,0.08c0,0,0,0,0,0
							c-0.03-0.01-0.08,0.01-0.11,0.01c-0.09,0.01-0.19,0.02-0.29,0.02c-0.39,0.03-0.77,0.33-0.75,0.75
							c0.02,0.38,0.33,0.78,0.75,0.75c0.68-0.05,1.36-0.17,2.01-0.4C157.41,91.81,157.9,91.57,158.39,91.3z"/>
						<path class="st6" d="M158.43,97.84c0.05-0.18,0.03-0.42-0.08-0.58c-0.22-0.34-0.67-0.49-1.03-0.27
							c-0.17,0.1-0.35,0.19-0.53,0.27c-0.29,0.11-0.59,0.19-0.89,0.24c-0.06,0.01-0.12,0.01-0.17,0.02
							c-0.2,0.01-0.38,0.07-0.53,0.22c-0.13,0.13-0.23,0.34-0.22,0.53c0.01,0.19,0.07,0.4,0.22,0.53c0.14,0.13,0.33,0.23,0.53,0.22
							c0.83-0.06,1.63-0.3,2.35-0.73C158.25,98.19,158.38,98.03,158.43,97.84z"/>
						<path class="st6" d="M151.3,103.26c-0.71,0.23-1.42,0.46-2.14,0.69c-0.18,0.06-0.35,0.18-0.45,0.34
							c-0.09,0.16-0.13,0.4-0.08,0.58c0.12,0.37,0.52,0.65,0.92,0.52c0.71-0.23,1.42-0.46,2.14-0.69c0.18-0.06,0.35-0.18,0.45-0.34
							c0.09-0.16,0.13-0.4,0.08-0.58C152.1,103.41,151.7,103.14,151.3,103.26z"/>
						<path class="st6" d="M160.27,110.78c-0.14-0.13-0.33-0.23-0.53-0.22c-0.77,0.06-1.5,0.26-2.22,0.5
							c-0.18,0.06-0.35,0.17-0.45,0.34c-0.09,0.16-0.13,0.4-0.08,0.58c0.12,0.37,0.52,0.65,0.92,0.52c0.54-0.17,1.09-0.34,1.66-0.43
							c0.06-0.01,0.11-0.01,0.17-0.02c0.2-0.01,0.38-0.07,0.53-0.22c0.13-0.13,0.23-0.34,0.22-0.53
							C160.48,111.12,160.42,110.92,160.27,110.78z"/>
						<path class="st6" d="M132.86,64.98c0.17,0.09,0.38,0.14,0.58,0.08c0.49-0.16,0.99-0.32,1.48-0.47
							c0.18-0.06,0.35-0.17,0.45-0.34c0.09-0.16,0.13-0.4,0.08-0.58c-0.06-0.18-0.17-0.36-0.34-0.45c-0.17-0.09-0.38-0.14-0.58-0.08
							c-0.49,0.16-0.99,0.32-1.48,0.47c-0.18,0.06-0.35,0.18-0.45,0.34c-0.09,0.16-0.13,0.4-0.08,0.58
							C132.58,64.71,132.69,64.88,132.86,64.98z"/>
					</g>
				</g>
				<g>
					<path class="st1" d="M166.81,138.52c-3.13-5.26-7.91-9.16-11.59-13.99c-2.88-3.76-4.67-8.62-9.22-10.69
						c-0.1-0.06-0.22-0.12-0.35-0.17c-0.14-0.06-0.26-0.08-0.39-0.1c-4.34-1.15-8.13,1.85-9.78,5.72
						c-1.75,4.11-1.66,8.81-2.04,13.18c-0.28,3.13-0.59,6.26-0.85,9.4c-0.23,2.78-0.55,5.6-0.37,8.39
						c0.28,4.39,1.97,9.02,5.12,12.17c3.2,3.2,7.8,4.85,12.2,5.52c4.64,0.7,9.28,0.05,13.18-2.67c3.87-2.7,6.77-7.07,7.48-11.75
						C170.99,148.38,169.45,142.95,166.81,138.52z"/>
					<path class="st6" d="M143.06,118.29c-0.86-2.31-1.39-4.76-1.6-7.22c-0.19-2.18-0.2-4.46,0.44-6.56
						c0.28-0.93-1.17-1.32-1.45-0.4c-0.67,2.23-0.69,4.66-0.49,6.96c0.22,2.59,0.74,5.18,1.65,7.62
						C141.94,119.59,143.39,119.2,143.06,118.29L143.06,118.29z"/>
					<path class="st92" d="M143.83,117.78c-0.64-0.09-1.51,0.25-1.93,0.38c-0.83,0.26-1.97,0.78-1.37,1.84
						c0.45,0.8,1.89,0.26,2.51,0.05c0.83-0.27,1.81-0.63,1.49-1.71C144.43,117.99,144.16,117.83,143.83,117.78z"/>
				</g>
				<g>
					<path class="st17" d="M184.89,115.76c-1.34-0.4-2.71-0.66-4.09-0.83c-4.57-0.56-9.21-0.38-13.36,1.85
						c-3.77,2.03-6.56,5.33-8.35,9.19c-3.53,7.63-3.15,17.44,0.85,24.81c2,3.69,4.94,6.77,8.76,8.55c4.22,1.97,9.22,1.97,13.63,0.63
						c9.57-2.89,15.64-12.25,16.44-21.94C199.57,128.3,194.65,118.65,184.89,115.76z"/>
					<path class="st6" d="M179.85,120.89c-0.15-2.36,1.56-4.55,3.26-6c2.08-1.77,4.91-2.89,7.67-2.4c0.94,0.17,1.35-1.27,0.4-1.45
						c-3.27-0.59-6.49,0.59-9,2.68c-2.05,1.7-4,4.37-3.83,7.16C178.41,121.85,179.91,121.85,179.85,120.89L179.85,120.89z"/>
					<path class="st36" d="M173.5,120.26c1.51,1.32,3.53,1.89,5.48,2.11c1.9,0.22,4.06,0.07,5.73-0.94c0.82-0.5,0.07-1.8-0.76-1.3
						c-1.42,0.86-3.23,0.92-4.84,0.75c-1.57-0.16-3.35-0.63-4.56-1.69C173.84,118.56,172.77,119.62,173.5,120.26L173.5,120.26z"/>
				</g>
				<g>
					<path class="st93" d="M368.55,74.73c-0.77-0.23-1.69,0.03-2.5-0.03c-1.07-0.07-2.13-0.25-3.19-0.41
						c-4.01-0.6-7.72-0.19-11.59,1.02c-3.73,1.16-7.31,2.77-11.13,3.61c-3.98,0.88-8.07,1.15-12.13,1.29
						c-4.02,0.14-8.05,0.15-12.06,0.45c-1.99,0.15-3.98,0.37-5.95,0.72c-1.65,0.29-3.89,0.47-5.26,1.53
						c-1.55,1.21-1.05,3.18-0.6,4.8c0.42,1.5,1.04,2.93,1.77,4.31c1.46,2.76,3.31,5.28,4.91,7.96c1.71,2.86,2.86,5.85,2.95,9.21
						c0.05,2.05-0.16,4.24-0.69,6.23c-0.38,1.41-1,2.78-1.13,4.25c-0.5,5.65,7.4,6.83,11.48,7.24c2.47,0.25,4.92,0.19,7.39,0.25
						c3.75,0.09,7.55,0.61,11.29,0.08c1.71-0.25,3.72-0.66,5.2-1.61c1.22-0.79,0.95-3.12,1.07-4.44c0.32-3.5,0.71-7.01,1.47-10.44
						c0.33-1.5,0.76-2.97,1.36-4.39c1.57-3.48,4.01-6.46,6.64-9.19c2.64-2.74,5.72-5.11,7.94-8.22c1.38-1.93,2.08-3.75,2.68-6
						c0.51-1.93,1.11-3.96,1.24-5.96C369.77,76.06,369.58,75.05,368.55,74.73z"/>
					<g>
						<path class="st90" d="M314.93,89.68c2.33,2.06,3.89,5.17,5.21,7.92c1.16,2.42,2.48,5.16,2.74,7.87
							c0.12,1.28,2.08,0.88,1.96-0.4c-0.12-1.29-0.56-2.56-0.99-3.78c-0.57-1.63-1.25-3.22-2.01-4.78c-1.47-3.04-3.22-6.23-5.78-8.5
							C315.1,87.18,313.98,88.84,314.93,89.68L314.93,89.68z"/>
						<path class="st90" d="M355.02,81.83c-6.3,5.93-10.82,13.36-13.94,21.39c-0.47,1.2,1.42,1.86,1.89,0.67
							c2.99-7.7,7.32-14.85,13.37-20.54C357.27,82.46,355.96,80.94,355.02,81.83L355.02,81.83z"/>
						<path class="st90" d="M332.79,92.37c-0.06,0.9-0.05,1.81-0.05,2.72c0,0.86-0.09,1.74-0.03,2.59c0.02,0.23,0-0.12,0,0
							c0,0.1,0.01,0.19,0.01,0.29c0.01,0.19,0.01,0.39,0.01,0.58c0.01,0.47,0.01,0.93,0.01,1.4c0,0.97-0.02,1.93-0.03,2.9
							c-0.01,0.49-0.14,1.2,0.01,1.68c0.24,0.77,1.3,1.15,1.81,0.37c0.12-0.19,0.17-0.39,0.18-0.6c0.09-1.28-1.9-1.43-2-0.14
							c0,0.03,0,0.07-0.01,0.11c0.06-0.16,0.11-0.33,0.17-0.49c0,0,0,0,0,0c0.6,0.12,1.2,0.24,1.81,0.37
							c0.08,0.26,0.01,0.3,0.01,0.12c0-0.11,0-0.21,0-0.32c0-0.35,0.01-0.7,0.01-1.05c0.01-0.97,0.03-1.95,0.03-2.92
							c0-2.49-0.11-4.95,0.05-7.45C334.87,91.23,332.87,91.09,332.79,92.37L332.79,92.37z"/>
					</g>
					<path class="st90" d="M384.95,72.72c-1.13-3.12-2.96-6.71-5.55-8.89c-1.95-1.64-4.47-2.48-6.48-4.01
						c-0.52-0.4-0.7-0.92-0.95-1.56c-0.43-1.08-0.94-2.1-1.65-3.03c-1.26-1.64-2.9-2.9-4.44-4.24c-0.66-0.57-1.3-1.16-1.82-1.86
						c-0.61-0.81-0.83-1.7-1.26-2.61c-1.84-3.93-6.17-5.02-9.83-6.59c-1.9-0.81-3.5-2.05-5.3-3.03c-2.02-1.1-4.31-1.82-6.64-1.66
						c-1.19,0.08-2.36,0.43-3.42,0.98c-1.26,0.65-2.31,1.51-3.77,1.67c-1.71,0.2-3.03-0.66-4.65-0.9c-2.25-0.33-4.98,0.6-7,1.5
						c-2.22,0.98-4.29,2.28-6.5,3.29c-4.33,1.99-8.6,3.81-10.35,8.64c-0.9,2.47-1.08,5.34-2.62,7.54c-1.41,2.01-3.73,3.18-5.77,4.43
						c-4.07,2.5-8.3,6.94-5.72,12.01c0.53,1.04,1.26,1.99,1.75,3.05c0.62,1.33,0.4,2.57,0,3.93c-0.71,2.41-1.38,4.61-0.57,7.1
						c1.48,4.54,6.33,7.16,10.91,6.97c2.41-0.1,4.64-1.04,6.73-2.18c2.22-1.21,4.34-2.74,6.88-3.22c2.7-0.52,5.31,0.06,7.73,1.27
						c2.4,1.23,4.98,2.32,7.74,2.09c2.67-0.23,4.89-1.7,6.77-3.5c1.62-1.55,3.05-3.42,5.03-4.54c2.17-1.22,4.84-1.68,7.3-1.72
						c2.51-0.05,5.01,0.43,7,2.04c1.83,1.48,3.04,3.54,4.67,5.22c3.15,3.25,8.17,4.29,12.57,3.7c3.51-0.47,5.41-2.96,6.18-6.25
						c0.47-2.03,0.36-5.6,1.87-6.9c1.18-1.02,1.95-1.91,2.09-3.54C386.01,76.15,385.55,74.36,384.95,72.72z"/>
					<g>
						<path class="st1" d="M298.37,72.37c0.19-0.25,0.21-0.58,0.06-0.86c0.01,0.01,0.02,0.02,0.02,0.03
							c-0.02-0.04-0.05-0.07-0.07-0.1c-0.01-0.02-0.02-0.03-0.03-0.05c-0.48-0.68-1.65-0.52-1.72,0.43
							c-0.07,0.95,1.07,1.27,1.64,0.66c0.01-0.01,0.03-0.03,0.04-0.04c0.03-0.03,0.06-0.06,0.08-0.09
							C298.39,72.36,298.38,72.36,298.37,72.37z"/>
						<g>
							<path class="st1" d="M325.97,79.52c-0.06-0.08-0.14-0.16-0.22-0.23l0.02,0c0,0-0.01-0.01-0.01-0.01
								c-0.01-0.01-0.02-0.01-0.03-0.01c-0.18-0.13-0.4-0.2-0.62-0.13c-0.31,0.04-0.59,0.23-0.75,0.56
								c-0.17,0.29-0.21,0.67,0.07,0.93c0.16,0.16,0.28,0.23,0.48,0.33c0.38,0.18,0.88-0.03,1.1-0.36
								C326.23,80.26,326.19,79.85,325.97,79.52z"/>
							<path class="st1" d="M325.93,79.45c0.02,0.02,0.02,0.05,0.04,0.07c0.01,0.02,0.03,0.03,0.04,0.05
								C325.98,79.53,325.95,79.49,325.93,79.45z"/>
						</g>
						<path class="st1" d="M320.63,67.91l-0.07,0.02c-0.97,0.24-1.06,1.54-0.13,1.91l0.07,0.03c0.62,0.25,1.3-0.25,1.35-0.88
							C321.89,68.34,321.28,67.76,320.63,67.91z"/>
						<path class="st1" d="M325.7,50.06c0.04-0.29,0.02-0.55-0.12-0.85c-0.23-0.46-0.69-0.77-1.2-0.81
							c-0.38-0.03-0.77,0.1-1.06,0.35c-0.43,0.37-0.52,0.85-0.47,1.39c0.03,0.34,0.21,0.6,0.44,0.82c-0.02-0.01-0.04-0.03-0.06-0.04
							c0.04,0.04,0.08,0.06,0.11,0.09c0.06,0.05,0.12,0.1,0.19,0.15c0.02,0.01,0.04,0.02,0.06,0.04c0.07,0.04,0.14,0.09,0.22,0.13
							c-0.03-0.02-0.06-0.04-0.09-0.07c0.26,0.12,0.53,0.17,0.9,0.13c0.45-0.04,0.87-0.47,1.01-0.88
							C325.68,50.37,325.7,50.21,325.7,50.06z"/>
						<path class="st1" d="M334.16,58.29c-1.38-0.1-1.53,2.04-0.15,2.14C335.4,60.53,335.55,58.38,334.16,58.29z"/>
						<path class="st1" d="M340.84,47.27c0.06-0.53-0.31-1.04-0.72-1.32c-0.59-0.41-1.33-0.33-1.87,0.11
							c-0.5,0.4-0.62,1.15-0.34,1.71c0.25,0.5,0.81,0.82,1.36,0.8c0.02,0,0.03,0.01,0.05,0.01c0.24,0,0.44-0.03,0.63-0.1
							c0.27-0.07,0.51-0.21,0.69-0.47C340.8,47.77,340.85,47.52,340.84,47.27z"/>
						<path class="st1" d="M351.77,57.25c-0.02-0.04-0.03-0.08-0.05-0.12c-0.28-0.71-1.44-0.79-1.81-0.13
							c-0.02,0.04-0.04,0.08-0.07,0.12c-0.41,0.72-0.05,1.68,0.85,1.75C351.59,58.93,352.08,58.02,351.77,57.25z"/>
						<path class="st1" d="M351.47,46.91c-0.47-0.32-0.99-0.36-1.52-0.16c-0.6,0.23-0.82,1.22-0.33,1.66
							c0.11,0.1,0.2,0.19,0.31,0.29c-0.17-0.16-0.13-0.12,0.13,0.11c0.12,0.06,0.23,0.12,0.35,0.17c0.47,0.22,1.09-0.05,1.36-0.44
							C352.14,48.02,352,47.28,351.47,46.91z"/>
						<path class="st1" d="M362.45,58.51c-0.06-0.69-0.72-1.37-1.5-1.19c-0.32,0.07-0.52,0.17-0.78,0.36
							c-0.45,0.31-0.6,1.13-0.32,1.58c0.24,0.38,0.64,0.79,1.14,0.76c0.44-0.02,0.73-0.07,1.09-0.35
							C362.45,59.37,362.55,58.92,362.45,58.51z"/>
						<path class="st1" d="M369.48,65.46c-0.55-0.37-1.23-0.19-1.62,0.31c-0.25,0.32-0.44,0.78-0.31,1.18
							c0.17,0.52,0.58,1.01,1.19,0.99c0.72-0.03,1.19-0.55,1.18-1.14C370.09,66.3,369.9,65.74,369.48,65.46z"/>
						<path class="st1" d="M377.09,71.11c-0.15-0.46-0.46-0.83-0.99-0.86c-0.52-0.04-0.88,0.28-1.1,0.72
							c-0.13,0.27-0.18,0.55-0.11,0.85c0.23,1.1,1.81,1.22,2.19,0.15C377.19,71.68,377.18,71.4,377.09,71.11z"/>
						<path class="st1" d="M374.98,85.86c-0.19-0.94-1.4-1.09-1.9-0.38c-0.21,0.18-0.35,0.42-0.37,0.71
							c-0.03,0.46,0.26,0.96,0.72,1.09c0.42,0.12,0.85,0.11,1.2-0.2C374.99,86.78,375.07,86.31,374.98,85.86z"/>
						<path class="st1" d="M365.76,79.93c-0.33,0.18-0.57,0.49-0.6,0.9c-0.05,0.66,0.44,1.09,1.04,1.2c0.77,0.14,1.4-0.5,1.47-1.23
							C367.78,79.73,366.41,79.29,365.76,79.93z"/>
						<path class="st1" d="M357.6,66.89c-1-0.3-1.83,0.21-2,1.25c-0.11,0.73,0.57,1.4,1.25,1.44c0.4,0.03,0.77-0.13,1.03-0.39
							C358.69,68.66,358.65,67.2,357.6,66.89z"/>
						<path class="st1" d="M353.35,74.67c-1.47-0.1-1.63,2.17-0.16,2.27C354.66,77.05,354.82,74.77,353.35,74.67z"/>
						<path class="st1" d="M344.54,65.26c0.01,0.01,0.02,0.03,0.04,0.04c-0.38-0.31-0.84-0.34-1.26-0.09
							c0.01-0.01,0.03-0.02,0.04-0.04c-0.51,0.23-0.67,0.66-0.77,1.17c-0.14,0.69,0.56,1.32,1.19,1.37c0.63,0.04,1.4-0.49,1.37-1.19
							C345.12,66.01,345.02,65.56,344.54,65.26z"/>
						<path class="st1" d="M339.05,78.18c-0.67-0.05-1.27,0.47-1.32,1.15c-0.05,0.67,0.47,1.27,1.15,1.32
							c0.67,0.05,1.27-0.47,1.32-1.15C340.25,78.83,339.73,78.23,339.05,78.18z"/>
						<path class="st1" d="M332.37,70.83c-0.02-0.05-0.03-0.11-0.05-0.16c0-0.26-0.07-0.52-0.27-0.73
							c-0.32-0.37-0.93-0.54-1.38-0.28c-0.48,0.28-0.94,0.82-0.76,1.43c0.2,0.68,0.63,0.95,1.3,1.05
							C331.89,72.23,332.56,71.48,332.37,70.83z"/>
						<path class="st1" d="M334.18,86.09c-0.27-0.72-1.47-0.8-1.84-0.13c-0.12,0.22-0.23,0.42-0.23,0.68
							c-0.01,0.6,0.4,1.14,1.03,1.18s1.11-0.43,1.18-1.03C334.35,86.53,334.27,86.32,334.18,86.09z"/>
						<path class="st1" d="M311.2,60.78c0.01-0.14-0.02-0.27-0.08-0.39c-0.04-0.05-0.07-0.11-0.11-0.16
							c-0.09-0.1-0.19-0.17-0.32-0.22c-0.1-0.04-0.2-0.05-0.3-0.03c-0.1,0-0.2,0.02-0.29,0.07c-0.09,0.04-0.17,0.1-0.23,0.18
							c-0.07,0.07-0.12,0.15-0.15,0.25c-0.04,0.12-0.04,0.24-0.03,0.36c0-0.03,0-0.07-0.01-0.1c0,0.04,0,0.07,0.01,0.11
							c0,0.01,0,0.02,0,0.03c0,0.02,0.01,0.04,0.01,0.06c0-0.02,0-0.03,0-0.05c0.01,0.1,0.01,0.16,0.07,0.26
							c0.02,0.03,0.04,0.06,0.06,0.09l0,0c0.03,0.05,0.06,0.09,0.09,0.14c0.05,0.07,0.12,0.11,0.19,0.15
							c0.05,0.03,0.1,0.05,0.16,0.05c0.08,0.02,0.17,0.03,0.25,0.01c0.01,0,0.01,0,0.02,0c0.06-0.02,0.12-0.04,0.18-0.06
							c0.01,0,0.03-0.01,0.04-0.02c0,0,0,0,0.01,0c0.05-0.04,0.11-0.07,0.16-0.11c0.05-0.04,0.09-0.09,0.13-0.15
							c0.04-0.05,0.07-0.11,0.09-0.18c0.01-0.07,0.03-0.13,0.04-0.2c0-0.01,0-0.01,0-0.02C311.2,60.82,311.2,60.8,311.2,60.78z"/>
						<path class="st1" d="M308.37,79.77c-0.03-0.16-0.1-0.3-0.21-0.42c-0.06-0.05-0.12-0.1-0.17-0.16
							c-0.14-0.09-0.29-0.14-0.45-0.16c-0.13-0.01-0.24,0-0.36,0.05c-0.12,0.03-0.22,0.09-0.31,0.17c-0.09,0.08-0.16,0.17-0.21,0.28
							c-0.06,0.1-0.1,0.22-0.1,0.35c0.01,0.08,0.01,0.16,0.02,0.24c0.03,0.16,0.1,0.3,0.21,0.42c0.06,0.05,0.12,0.1,0.17,0.16
							c0.14,0.09,0.29,0.14,0.45,0.16c0.13,0.01,0.24,0,0.36-0.05c0.12-0.03,0.22-0.08,0.31-0.17c0.09-0.08,0.16-0.17,0.21-0.28
							c0.06-0.1,0.1-0.22,0.1-0.35C308.38,79.93,308.37,79.85,308.37,79.77z"/>
						<path class="st1" d="M301.04,84.85c-0.03-0.16-0.1-0.3-0.21-0.42c-0.06-0.05-0.12-0.11-0.18-0.16
							c-0.14-0.09-0.29-0.15-0.46-0.16c-0.13-0.01-0.25,0-0.36,0.05c-0.12,0.03-0.22,0.09-0.31,0.17c-0.1,0.08-0.17,0.17-0.21,0.28
							c-0.07,0.11-0.1,0.22-0.1,0.35l0.02,0.25c0.03,0.16,0.1,0.3,0.21,0.42c0.06,0.05,0.12,0.11,0.18,0.16
							c0.14,0.09,0.29,0.15,0.46,0.16c0.13,0.01,0.25,0,0.36-0.05c0.12-0.03,0.22-0.09,0.31-0.17c0.1-0.08,0.17-0.17,0.21-0.28
							c0.07-0.11,0.1-0.22,0.1-0.35C301.05,85.02,301.04,84.94,301.04,84.85z"/>
						<path class="st1" d="M314.92,84.06c-0.03-0.15-0.1-0.29-0.2-0.41c-0.06-0.05-0.11-0.1-0.17-0.15
							c-0.13-0.09-0.28-0.14-0.44-0.15c-0.08,0.01-0.16,0.01-0.24,0.02c-0.12,0.02-0.22,0.07-0.32,0.14
							c-0.01,0.01-0.02,0.02-0.03,0.03c-0.02,0.01-0.04,0.01-0.06,0.02c-0.09,0.04-0.17,0.1-0.22,0.18
							c-0.05,0.04-0.09,0.1-0.11,0.16c-0.05,0.09-0.08,0.18-0.08,0.28c0,0.07,0.01,0.13,0.01,0.2c0.02,0.06,0.04,0.12,0.06,0.18
							c0.04,0.09,0.1,0.17,0.18,0.22c0.02,0.02,0.04,0.02,0.06,0.04c0,0,0.01,0.01,0.01,0.01c0.08,0.09,0.17,0.16,0.28,0.21
							c0.1,0.06,0.22,0.1,0.34,0.1c0.12,0.01,0.24,0,0.35-0.05c0.11-0.03,0.21-0.08,0.3-0.17c0.09-0.07,0.16-0.17,0.21-0.28
							c0.06-0.1,0.1-0.22,0.1-0.34C314.93,84.22,314.93,84.14,314.92,84.06z"/>
						<path class="st1" d="M315.04,51.01c-0.02-0.1-0.05-0.18-0.11-0.25c-0.02-0.04-0.07-0.07-0.1-0.11
							c-0.04-0.08-0.1-0.15-0.17-0.2c-0.08-0.06-0.17-0.09-0.27-0.09c-0.1-0.01-0.19,0.01-0.28,0.06c-0.05,0.03-0.09,0.07-0.13,0.11
							c-0.04,0.03-0.08,0.05-0.12,0.08c-0.07,0.06-0.13,0.13-0.17,0.22c-0.05,0.08-0.08,0.17-0.08,0.27c-0.01,0.1,0,0.19,0.04,0.28
							c0.02,0.09,0.07,0.17,0.13,0.24c0.06,0.07,0.13,0.13,0.22,0.17c0.08,0.05,0.17,0.08,0.27,0.08l0.19-0.01
							c0.12-0.03,0.23-0.08,0.33-0.16c0.04-0.05,0.08-0.09,0.12-0.14c0.07-0.11,0.11-0.23,0.12-0.36
							C315.05,51.14,315.05,51.07,315.04,51.01z"/>
						<path class="st1" d="M322.66,60.34c0-0.05-0.01-0.11-0.01-0.16c-0.02-0.07-0.05-0.14-0.07-0.2c-0.05-0.1-0.11-0.18-0.2-0.25
							c-0.05-0.05-0.11-0.09-0.17-0.12c-0.09-0.06-0.2-0.09-0.31-0.09c-0.07,0-0.15,0.01-0.22,0.01c-0.07,0.02-0.14,0.05-0.2,0.07
							c-0.1,0.05-0.18,0.11-0.25,0.2c-0.08,0.07-0.13,0.16-0.17,0.27c-0.01,0.05-0.02,0.11-0.03,0.16c-0.05,0.15-0.06,0.3-0.03,0.45
							c0.03,0.15,0.09,0.28,0.19,0.39c0.05,0.05,0.11,0.1,0.16,0.14c0.13,0.09,0.27,0.13,0.42,0.15c0.12,0.01,0.23,0,0.33-0.05
							c0.11-0.03,0.2-0.08,0.29-0.16c0.11-0.1,0.19-0.22,0.24-0.36C322.68,60.64,322.69,60.49,322.66,60.34z"/>
						<path class="st1" d="M309.42,68.26c-0.03-0.12-0.09-0.23-0.18-0.32c-0.01-0.02-0.04-0.04-0.06-0.06
							c-0.06-0.08-0.11-0.16-0.19-0.22c-0.12-0.08-0.25-0.13-0.39-0.14c-0.14-0.01-0.28,0.02-0.41,0.08
							c-0.09,0.05-0.15,0.12-0.22,0.19c-0.02,0.02-0.05,0.03-0.07,0.05c-0.05,0.06-0.11,0.12-0.16,0.18
							c-0.04,0.07-0.07,0.15-0.11,0.22c-0.05,0.12-0.06,0.25-0.04,0.38c-0.01,0.09,0.01,0.17,0.05,0.25
							c0.02,0.08,0.05,0.16,0.11,0.22c0.04,0.07,0.09,0.14,0.16,0.18c0.06,0.06,0.12,0.11,0.2,0.14c0.11,0.07,0.23,0.1,0.36,0.11
							c0.09-0.01,0.17-0.01,0.26-0.02c0.08-0.03,0.16-0.05,0.23-0.08c0.07-0.05,0.14-0.09,0.2-0.14c0.05-0.06,0.11-0.12,0.16-0.18
							c0.04-0.07,0.07-0.15,0.11-0.22c0.05-0.12,0.06-0.25,0.04-0.38C309.48,68.42,309.46,68.33,309.42,68.26z"/>
					</g>
				</g>
				<g>
					<path class="st90" d="M317.03,22.97c0-0.01,0-0.03,0-0.04c-0.07-0.4-0.27-0.69-0.54-0.89c-0.03-0.02-0.05-0.04-0.08-0.06
						c0,0-0.01-0.01-0.01-0.01c-0.1-0.07-0.21-0.14-0.34-0.2c-0.36-0.15-0.68-0.15-0.96-0.06c-4.26,0.18-8.49-0.29-12.46-1.92
						c-0.79-0.33-1.6,0.2-1.92,0.91c-1.91,4.21-3.82,8.39-4.81,12.92c-0.26,1.17-0.36,2.39,0.81,3.12c0.96,0.61,2.3,0.84,3.38,1.14
						c2.34,0.63,4.72,1.12,7.13,1.42c1.25,0.16,2.51,0.27,3.77,0.34c1.14,0.06,2.32,0.13,3.28-0.6c1.12-0.85,1.46-2.31,1.64-3.63
						c0.33-2.28,0.55-4.58,0.78-6.87c0.13-1.3,0.26-2.6,0.34-3.9C317.08,24.09,317.14,23.49,317.03,22.97z"/>
					<path class="st1" d="M319.41,39.83c-0.06-1.99-0.11-4.12-0.55-6.07c-0.44-1.95-1.66-3.15-3.55-3.79
						c-0.98-0.33-1.86-0.16-2.85-0.14c-1.08,0.02-2.19-0.11-3.24-0.33c-1-0.21-1.99-0.52-2.94-0.91c-1.03-0.41-1.97-1.03-3.04-1.32
						c-2-0.54-4.2-0.36-6.15,0.28c-4.05,1.33-5.71,6.24-6.95,9.91c-1.39,4.09-2.26,8.36-2.85,12.64c-0.61,4.45-0.77,8.95-1.16,13.42
						c-0.45,5.1-1.05,10.19-1.82,15.26c-1.52,10.04-4.51,20.1-4.46,30.3c0.05,8.36,2.44,17.77,9.34,23.14
						c1.64,1.28,3.56,2.2,5.61,2.55c2.26,0.38,4.53-0.16,6.64-0.95c2.98-1.11,5.79-2.83,8-5.14c8.71-9.14,6.87-23.4,6.59-34.93
						c-0.04-1.47-0.05-2.93-0.03-4.4c0.05-4.83-1.15-9.52-1.43-14.32c-0.28-4.91,1.3-9.42,2.44-14.11c1.1-4.49,1.76-9.18,2.2-13.77
						C319.43,44.71,319.49,42.28,319.41,39.83z"/>
					<g>
						<path class="st90" d="M300.65,69.17c0.94-7.3,1.98-14.57,3.17-21.84c0.99-6.11,2.02-12.31,4.06-18.18
							c-0.48-0.14-0.95-0.31-1.41-0.49c-1.7,4.94-2.72,10.09-3.59,15.24c-1.2,7.09-2.28,14.2-3.21,21.33c-1,7.66-2.13,15.31-2.87,23
							c-0.72,7.49-1.11,15.02-1.16,22.54c-0.05,8.05,0.3,16.09,1.01,24.11c0.5-0.02,0.99-0.06,1.48-0.15
							c-1.26-14.33-1.33-28.75-0.14-43.08C298.6,84.13,299.68,76.66,300.65,69.17z"/>
						<path class="st90" d="M304.28,132.52c0.6-0.32,1.19-0.67,1.76-1.05c2.72-12.3,4.22-24.83,2.95-37.45
							c-0.69-6.83-1.85-13.67-1.57-20.55c0.15-3.67,1.07-7.1,1.82-10.68c0.77-3.69,1.33-7.42,1.76-11.16
							c0.84-7.25,1.2-14.54,1.78-21.82c-0.11,0.01-0.22,0.01-0.33,0.02c-0.39,0.01-0.77-0.01-1.16-0.04
							c-0.5,6.32-0.85,12.66-1.48,18.98c-0.38,3.77-0.86,7.52-1.55,11.25c-0.65,3.51-1.7,6.94-2.11,10.49
							c-0.79,6.84,0.24,13.74,1.01,20.53c0.84,7.31,1.05,14.59,0.39,21.92C306.97,119.56,305.78,126.08,304.28,132.52z"/>
						<path class="st90" d="M292.51,70.01c1.34-8.24,2.24-16.56,4.04-24.73c0.77-3.49,1.69-6.95,2.88-10.32
							c0.94-2.65,2.04-5.35,3.6-7.73c-0.53-0.13-1.06-0.21-1.61-0.25c-2.75,4.36-4.28,9.64-5.52,14.52
							c-2.07,8.12-3.06,16.46-4.31,24.74c-1.29,8.53-3.44,16.9-4.62,25.45c-1.08,7.78-1.76,15.73-1.29,23.58
							c0.35,5.91,1.46,11.84,3.87,17.22c0.74,0.54,1.53,1.02,2.37,1.4c-6.24-11.71-5.38-26.31-3.85-39.09
							C289.06,86.44,291.16,78.31,292.51,70.01z"/>
					</g>
				</g>
			</g>
			<path class="st5" d="M421.72,144.82c-2.65-8.8-7.08-17.24-12.43-24.7c-5.57-7.76-13.37-14.37-21.84-18.75
				c-16.92-8.75-36.69-5.41-54.41-1.09c-8.94,2.18-17.73,4.89-26.64,7.19c-11.04,2.84-22.06,5.76-33.06,8.74
				c-22.22,6.01-44.37,12.26-66.49,18.62c-21.98,6.32-43.92,12.77-65.86,19.22c-1.29,0.38-2.65,0.67-3.9,1.15
				c-0.83,0.31-1.22,0.76-1.58,1.4c-0.5,0.5-0.7,1.24-0.23,2.07c9.16,16,16.96,32.69,25.39,49.07c2.35,4.57,4.77,9.11,7.27,13.59
				c0.4,0.72,1.27,1.38,2.16,1.14c14.85-4.05,29.77-7.74,44.54-12.07c14.8-4.33,29.52-8.91,44.38-13.04
				c18.77-5.21,37.26-11.34,55.75-17.45c17.51-5.79,35.13-11.19,52.71-16.77c15.13-4.8,30.31-9.43,45.53-13.92
				c2.36-0.7,4.73-1.39,7.09-2.09C421.02,146.85,422.06,145.95,421.72,144.82z"/>
			<path class="st47" d="M160.66,207.73c0.88,1.71,6.37,11.9,7.28,13.6c-10.37-12.06-30.84-38.28-36.18-45.5
				c-6.67-12.34-15.34-26-20.67-34.67c-4.63-7.87-19.09-28.41-24.87-38.05c3.34,4.05,16.95,20.54,20.42,24.48
				c7.33,8.29,15.37,15.93,23.01,23.92c1.83,1.91,3.64,3.83,5.42,5.79c-0.12,0.4-0.08,0.87,0.2,1.36
				C144.43,174.66,152.23,191.35,160.66,207.73z"/>
		</g>
		<g>
			<path class="st11" d="M120.29,241.45c-0.93-3.38-2.1-6.68-3.54-9.87c-5.54-12.14-15.02-23.08-28.42-26.35
				c-13.55-3.32-28.16-2.96-41.62,0.65c-13.22,3.55-25.06,10.42-33.85,21.01C5.9,235.26,0.74,245.51,0.09,256.5
				c-0.59,10,1.84,20.11,6.06,29.14c4.29,9.19,10.59,17.6,18.62,23.85c3.75,2.92,7.94,5.34,12.41,6.98
				c5.62,2.06,11.75,2.87,17.71,2.95c12.98,0.16,25.78-3.35,36.76-10.27c10.55-6.65,19.8-15.69,25.48-26.89
				C123.51,269.73,123.99,254.87,120.29,241.45z"/>
			<path class="st6" d="M116.51,252.94c-0.76-4.52-2.07-8.98-3.45-13.35c-1.52-4.81-3.4-9.41-6.24-13.61
				c-3.1-4.57-7.05-8.85-11.85-11.65c-5.1-2.98-10.92-4.15-16.72-4.83c-12.31-1.45-25.23-0.02-36.85,4.36
				c-10.32,3.89-19.25,10.42-25.83,19.3c-3.15,4.26-5.93,9.06-7.65,14.09c-1.71,4.99-2.18,10.39-1.8,15.63
				c0.85,11.61,5.63,22.99,12.71,32.17c5.85,7.6,13.78,14.13,23.17,16.68c11.52,3.13,24.48,1.99,35.59-2.19
				c10.31-3.88,19.75-10.76,26.88-19.13c6.92-8.12,11.32-17.69,12.03-28.4C116.69,259.03,116.93,255.9,116.51,252.94z"/>
			<path class="st11" d="M70.46,233.91c-11.29-2.81-24.27,1.19-32.04,9.81c-7.75,8.61-9.4,21.42-3.57,31.52
				c6.02,10.42,17.96,15.88,29.79,13.55c7.14-1.41,14.14-5.52,19.18-10.74c4.5-4.65,7.26-10.52,7.22-17.06
				C90.77,248.64,82.75,236.98,70.46,233.91z"/>
		</g>
		<g>
			<path class="st46" d="M393.13,162.47c-2.09,0.39-4.17,0.79-6.26,1.18c-0.92,0.17-1.85,0.31-2.76,0.52
				c-1.14,0.26-1.52,0.99-2,1.92c-2.19,4.24-4.26,8.55-6.34,12.86c-5.84,12.12-11.56,24.3-17.24,36.49
				c-1.64,3.51-3.27,7.03-4.88,10.55c-5.23-10.17-10.73-20.2-15.78-30.46c-2.01-4.09-3.96-8.22-5.86-12.37
				c-0.47-1.03-1.64-1.38-2.65-0.99c-2.6,1.01-5.2,2.02-7.8,3.03c-0.99,0.38-1.44,1.72-0.99,2.65c3.64,7.42,7.22,14.88,10.96,22.25
				c0.92,1.81,1.88,3.6,2.86,5.38c3.02,5.49,5.65,11.17,8.26,16.86c2.94,6.4,5.87,12.81,9.28,18.98c0.24,0.44,0.58,0.72,0.95,0.89
				c0.74,0.39,1.69,0.37,2.36-0.4c0.21-0.19,0.37-0.41,0.47-0.66c2-3.01,3.42-6.56,4.96-9.81c2.99-6.31,5.87-12.68,8.74-19.04
				c6.47-14.35,12.82-28.76,19.32-43.1c1.31-2.89,2.63-5.79,3.98-8.66c0.49-1.05,0.99-2.1,1.5-3.15c0.19-0.4,0.39-0.79,0.58-1.18
				c0.08-0.16,0.41-0.79,0.06-0.12c0.09-0.17,0.17-0.33,0.26-0.5C395.87,164.15,394.97,162.12,393.13,162.47z"/>
			<path class="st46" d="M572.14,106.73c-1.52-4.23-3.49-8.27-5.24-12.41c-0.45-1.06-1.66-1.34-2.65-0.99
				c-14.96,5.32-30.14,10-45.23,14.94c-19.43,6.37-38.54,13.65-58.09,19.69c-13.79,4.27-27.57,8.56-41.34,12.87
				c-8.3,2.48-16.59,4.97-24.89,7.45c-20.11,6.02-40.22,12.04-60.33,18.06c-24.24,7.25-48.47,14.51-72.7,21.76
				c-20.92,6.26-41.84,12.52-62.76,18.78c-10.11,3.03-20.19,6.2-30.34,9.08c-18.05,5.13-35.99,10.6-54.03,15.77
				c-12.18,3.49-24.39,6.9-36.58,10.37c-5.54,1.58-11.07,3.19-16.66,4.59c-2.47,0.62-4.94,1.26-7.36,2.07
				c-2.03,0.68-4.5,1.33-5.91,3.05c-2.07,2.51-1.8,6.31-1.26,9.31c0.56,3.09,1.54,7.31,4.15,9.35c2.79,2.18,8,1.63,11.15,0.73
				c5.36-1.53,10.69-3.31,16.03-4.95c11.83-3.63,23.72-7.01,35.6-10.45c11.99-3.48,23.84-7.4,35.84-10.83
				c23.93-6.84,48.14-12.61,72.09-19.37c23.8-6.73,47.19-14.86,70.67-22.63c45.07-14.92,90.12-29.93,135.24-44.7
				c22.24-7.28,44.65-14.13,66.72-21.9c17.29-6.09,34.43-12.55,51.82-18.36c8.39-2.8,16.8-5.58,25.09-8.64
				C572.23,108.98,572.49,107.68,572.14,106.73z"/>
		</g>
	</g>
	<path class="st6" d="M358.06,121.02c-0.68,1.21-1.63,2.15-2.73,2.98c-1.29,0.97-2.67,1.9-4.19,2.46c-2.66,0.99-5.89,1.31-8.71,0.69
		c-0.48,0.69-1.02,1.35-1.62,1.96c0.71-0.1,1.42-0.14,2.13-0.09c2.65,0.19,4.97,1.2,7.18,2.61c0.52,0.33,0.69,1.12,0.2,1.57
		c-2.03,1.89-4.65,3.02-7.43,3.11c-2.92,0.09-5.65-1.03-7.93-2.8c-0.56,0.33-1.12,0.65-1.68,0.95c-4.47,2.44-9.19,4.34-13.91,6.24
		c3.49,0.55,6.97,2.53,7.59,6.03c0.08,0.47-0.13,1.15-0.7,1.23c-4.68,0.66-9.44-1.1-12-5.16c-3.21,1.35-6.37,2.78-9.41,4.49
		c-1.52,0.85-2.95,1.84-4.33,2.9c1.09-0.23,2.21-0.36,3.36-0.41c1.09-0.05,2.21,0.01,3.23,0.41c1.26,0.49,2.29,1.37,3.2,2.35
		c0.48,0.52,0.31,1.17-0.2,1.57c-1.99,1.53-5,1.68-7.4,1.66c-2.38-0.02-4.89-0.28-7.14-1.13c-1.27,1.31-2.48,2.67-3.63,4.06
		c-4.16,5.07-7.83,11.28-7.99,18.01c-0.03,1.29-2.03,1.29-2,0c0.14-5.98,2.79-11.52,6.22-16.35c-4.8-4.01-4.95-11.58-3.23-17.15
		c0.2-0.66,1.17-1.05,1.67-0.44c1.95,2.33,3.61,4.95,4.26,7.96c0.43,2,0.4,4.02,0.12,6.02c3.5-4.18,7.56-8.06,12.28-10.83
		c-0.57-2.48,0.12-5.09,1.24-7.32c1.07-2.14,2.74-4.29,4.95-5.33c0.44-0.21,1.14-0.17,1.37,0.36c1.16,2.7,0.11,5.25-1.13,7.71
		c-0.32,0.63-0.64,1.22-1.01,1.78c3.12-1.45,6.31-2.73,9.49-4.03c2.33-0.95,4.68-1.9,7-2.91c-0.02-2.33,0.47-4.72,1.36-6.87
		c0.94-2.28,2.38-4.53,4.64-5.68c0.58-0.3,1.27-0.05,1.47,0.6c0.37,1.22,0.28,2.49,0.08,3.74c-0.19,1.16-0.42,2.37-0.81,3.47
		c-0.25,0.71-0.58,1.39-0.96,2.03c0.63-0.33,1.25-0.66,1.87-1c3.26-1.82,6.68-4.08,8.58-7.4c-0.96-2.33-0.79-4.84,0.53-7.05
		c1.55-2.6,4.14-4.47,6.79-5.83c0.83-0.42,1.6,0.27,1.47,1.13c-0.07,0.43-0.16,0.86-0.25,1.29c-0.5,2.22-1.25,4.7-2.44,6.86
		c3.04-1.38,6.25-2.25,9.72-1.94C357.95,119.58,358.46,120.31,358.06,121.02z M263.87,167.8c-0.22-0.1-0.45-0.18-0.67-0.27
		c1.25-3.83,0.06-7.85-2.03-11.15c-1.17-1.85-2.62-3.66-4.28-5.1c-0.5-0.43-1.56-0.37-1.67,0.44c-0.42,3.02-0.46,6.12,0.59,9.03
		c0.7,1.93,1.79,3.64,3.1,5.19c-3.82-1.24-7.76-2.09-11.74-2.57c-1.47-0.18-2.95-0.22-4.44-0.18c-0.84-2.36-2.77-4.19-4.86-5.47
		c-2.04-1.25-4.6-2.21-7.02-1.92c-0.7,0.08-1.07,0.57-0.96,1.27c0.38,2.62,2.6,4.24,4.71,5.52c0.68,0.41,1.34,0.81,2.04,1.14
		c-1.8,0.24-3.58,0.54-5.32,0.82c-4.09,0.66-8.17,1.43-12.28,2.04c-1.23-2.01-2.92-3.75-4.82-5.13c-1.96-1.42-4.4-2.55-6.87-2.33
		c-0.64,0.06-1.14,0.59-0.96,1.27c0.32,1.18,1.01,2.18,1.8,3.1c0.76,0.88,1.59,1.77,2.48,2.51c0.63,0.52,1.33,0.97,2.06,1.35
		c-4.4,0.4-9.39,0.56-13.31-1.57c-0.41-2.48-1.87-4.54-4.17-5.72c-2.69-1.38-5.87-1.62-8.84-1.37c-0.88,0.08-1.29,1.03-0.71,1.71
		c1.22,1.42,2.65,2.67,4.13,3.8c0.8,0.61,1.67,1.2,2.59,1.71c-3.34,0.43-6.54,1.39-9.34,3.49c-0.57,0.43-0.72,1.33,0,1.73
		c1.19,0.66,2.45,0.96,3.8,1.09c1.59,0.15,3.26,0.22,4.84-0.09c2.83-0.54,5.82-2.01,7.91-4.06c0.78,0.33,1.59,0.61,2.42,0.82
		c-0.76,0.34-1.49,0.75-2.14,1.26c-1.99,1.54-3.34,3.51-4.41,5.77c-0.25,0.54-0.08,1.34,0.6,1.47c2.72,0.53,5.55,0.13,7.96-1.27
		c2.53-1.47,4.29-3.87,5.28-6.59c0.37-0.01,0.74-0.02,1.11-0.03c5.34-0.23,10.64-1.18,15.9-2.08c-0.78,0.7-1.48,1.48-2.07,2.34
		c-1.33,1.94-2.08,4.47-1.17,6.74c0.26,0.65,0.83,0.88,1.47,0.6c4.21-1.87,7.21-5.97,7.23-10.61c3.91-0.64,7.84-1.19,11.8-1.24
		c1.28-0.02,2.56,0.05,3.85,0.18c-1.13,0.41-2.22,0.92-3.29,1.54c-0.95,0.55-1.81,1.2-2.46,2.08c-0.77,1.04-1.15,2.3-1.39,3.55
		c-0.13,0.68,0.28,1.2,0.96,1.27c2.5,0.25,5.13-1.21,7.16-2.5c2.02-1.29,4.05-2.84,5.51-4.78c1.92,0.48,3.82,1.06,5.65,1.7
		c6.04,2.1,12.26,5.38,15.86,10.86c0.7,1.07,2.44,0.07,1.73-1.01C274,173.31,269.06,170.06,263.87,167.8z M279.98,159.58
		c-1.47-1.5-3.2-0.67-4.29,0.25c-0.44,0.37-0.87,0.92-1.2,1.54c0.01-0.01-1.63-0.52-1.74-0.54c-0.71-0.11-1.34-0.03-1.95,0.37
		c-3.25,2.12,0.56,5.68,2.38,7.05c1.1,0.83,3.05,1.73,4.54,1.33c1.55-0.42,1.91-2.69,2.43-3.95c0.58-1.39,1.24-3.63,0.51-5.17
		C280.5,160.13,280.26,159.86,279.98,159.58z"/>
</g>
</svg>
